<?xml version="1.0" encoding="utf-8" standalone="no"?>
<!DOCTYPE svg PUBLIC "-//W3C//DTD SVG 1.1//EN"
        "http://www.w3.org/Graphics/SVG/1.1/DTD/svg11.dtd">
<!-- Created with matplotlib (https://matplotlib.org/) -->
<svg xmlns:xlink="http://www.w3.org/1999/xlink" height="207.685595pt" version="1.1" viewBox="0 0 587.894894 207.685595"
     width="587.894894pt" xmlns="http://www.w3.org/2000/svg">
    <metadata>
        <rdf:RDF xmlns:cc="http://creativecommons.org/ns#" xmlns:dc="http://purl.org/dc/elements/1.1/"
                 xmlns:rdf="http://www.w3.org/1999/02/22-rdf-syntax-ns#">
            <cc:Work>
                <dc:type rdf:resource="http://purl.org/dc/dcmitype/StillImage"/>
                <dc:date>2021-01-05T11:40:07.262933</dc:date>
                <dc:format>image/svg+xml</dc:format>
                <dc:creator>
                    <cc:Agent>
                        <dc:title>Matplotlib v3.3.3, https://matplotlib.org/</dc:title>
                    </cc:Agent>
                </dc:creator>
            </cc:Work>
        </rdf:RDF>
    </metadata>
    <defs>
        <style type="text/css">*{stroke-linecap:butt;stroke-linejoin:round;}</style>
    </defs>
    <g id="figure_1">
        <g id="patch_1">
            <path d="M 0 207.685595
L 587.894894 207.685595 
L 587.894894 0 
L 0 0 
z
" style="fill:#ffffff;"/>
        </g>
        <g id="axes_1">
            <g id="patch_2">
                <path d="M 38.914894 173.090851
L 289.628052 173.090851 
L 289.628052 8.415667 
L 38.914894 8.415667 
z
" style="fill:#ffffff;"/>
            </g>
            <g id="PolyCollection_1">
                <defs>
                    <path d="M 77.914024 -116.330489
L 77.914024 -167.110808 
L 161.379847 -147.065764 
L 244.84567 -92.046175 
L 244.84567 -59.16803 
L 244.84567 -59.16803 
L 161.379847 -73.250703 
L 77.914024 -116.330489 
z
" id="m33b3dd489e" style="stroke:#dc143c;stroke-opacity:0.2;"/>
                </defs>
                <g clip-path="url(#p3ee2fc6e4a)">
                    <use style="fill:#dc143c;fill-opacity:0.2;stroke:#dc143c;stroke-opacity:0.2;" x="0"
                         xlink:href="#m33b3dd489e" y="207.685595"/>
                </g>
            </g>
            <g id="line2d_1">
                <path clip-path="url(#p3ee2fc6e4a)" d="M 77.914024 40.574786
L 161.379847 60.619831 
L 244.84567 115.63942 
" style="fill:none;stroke:#dc143c;stroke-dasharray:1.5,2.475;stroke-dashoffset:0;stroke-width:1.5;"/>
            </g>
            <g id="line2d_2">
                <path clip-path="url(#p3ee2fc6e4a)" d="M 77.914024 91.355106
L 161.379847 134.434891 
L 244.84567 148.517564 
" style="fill:none;stroke:#dc143c;stroke-dasharray:1.5,2.475;stroke-dashoffset:0;stroke-width:1.5;"/>
            </g>
            <g id="matplotlib.axis_1">
                <g id="xtick_1">
                    <g id="line2d_3">
                        <defs>
                            <path d="M 0 0
L 0 3.5 
" id="m5b82ee4685" style="stroke:#000000;stroke-width:0.8;"/>
                        </defs>
                        <g>
                            <use style="stroke:#000000;stroke-width:0.8;" x="77.914024" xlink:href="#m5b82ee4685"
                                 y="173.090851"/>
                        </g>
                    </g>
                    <g id="text_1">
                        <!-- 100 -->
                        <g transform="translate(71.290662 185.364167)scale(0.0694 -0.0694)">
                            <defs>
                                <path d="M 12.40625 8.296875
L 28.515625 8.296875 
L 28.515625 63.921875 
L 10.984375 60.40625 
L 10.984375 69.390625 
L 28.421875 72.90625 
L 38.28125 72.90625 
L 38.28125 8.296875 
L 54.390625 8.296875 
L 54.390625 0 
L 12.40625 0 
z
" id="DejaVuSans-49"/>
                                <path d="M 31.78125 66.40625
Q 24.171875 66.40625 20.328125 58.90625 
Q 16.5 51.421875 16.5 36.375 
Q 16.5 21.390625 20.328125 13.890625 
Q 24.171875 6.390625 31.78125 6.390625 
Q 39.453125 6.390625 43.28125 13.890625 
Q 47.125 21.390625 47.125 36.375 
Q 47.125 51.421875 43.28125 58.90625 
Q 39.453125 66.40625 31.78125 66.40625 
z
M 31.78125 74.21875 
Q 44.046875 74.21875 50.515625 64.515625 
Q 56.984375 54.828125 56.984375 36.375 
Q 56.984375 17.96875 50.515625 8.265625 
Q 44.046875 -1.421875 31.78125 -1.421875 
Q 19.53125 -1.421875 13.0625 8.265625 
Q 6.59375 17.96875 6.59375 36.375 
Q 6.59375 54.828125 13.0625 64.515625 
Q 19.53125 74.21875 31.78125 74.21875 
z
" id="DejaVuSans-48"/>
                            </defs>
                            <use xlink:href="#DejaVuSans-49"/>
                            <use x="63.623047" xlink:href="#DejaVuSans-48"/>
                            <use x="127.246094" xlink:href="#DejaVuSans-48"/>
                        </g>
                    </g>
                </g>
                <g id="xtick_2">
                    <g id="line2d_4">
                        <g>
                            <use style="stroke:#000000;stroke-width:0.8;" x="119.646936" xlink:href="#m5b82ee4685"
                                 y="173.090851"/>
                        </g>
                    </g>
                    <g id="text_2">
                        <!-- 150 -->
                        <g transform="translate(113.023573 185.364167)scale(0.0694 -0.0694)">
                            <defs>
                                <path d="M 10.796875 72.90625
L 49.515625 72.90625 
L 49.515625 64.59375 
L 19.828125 64.59375 
L 19.828125 46.734375 
Q 21.96875 47.46875 24.109375 47.828125 
Q 26.265625 48.1875 28.421875 48.1875 
Q 40.625 48.1875 47.75 41.5 
Q 54.890625 34.8125 54.890625 23.390625 
Q 54.890625 11.625 47.5625 5.09375 
Q 40.234375 -1.421875 26.90625 -1.421875 
Q 22.3125 -1.421875 17.546875 -0.640625 
Q 12.796875 0.140625 7.71875 1.703125 
L 7.71875 11.625 
Q 12.109375 9.234375 16.796875 8.0625 
Q 21.484375 6.890625 26.703125 6.890625 
Q 35.15625 6.890625 40.078125 11.328125 
Q 45.015625 15.765625 45.015625 23.390625 
Q 45.015625 31 40.078125 35.4375 
Q 35.15625 39.890625 26.703125 39.890625 
Q 22.75 39.890625 18.8125 39.015625 
Q 14.890625 38.140625 10.796875 36.28125 
z
" id="DejaVuSans-53"/>
                            </defs>
                            <use xlink:href="#DejaVuSans-49"/>
                            <use x="63.623047" xlink:href="#DejaVuSans-53"/>
                            <use x="127.246094" xlink:href="#DejaVuSans-48"/>
                        </g>
                    </g>
                </g>
                <g id="xtick_3">
                    <g id="line2d_5">
                        <g>
                            <use style="stroke:#000000;stroke-width:0.8;" x="161.379847" xlink:href="#m5b82ee4685"
                                 y="173.090851"/>
                        </g>
                    </g>
                    <g id="text_3">
                        <!-- 200 -->
                        <g transform="translate(154.756485 185.364167)scale(0.0694 -0.0694)">
                            <defs>
                                <path d="M 19.1875 8.296875
L 53.609375 8.296875 
L 53.609375 0 
L 7.328125 0 
L 7.328125 8.296875 
Q 12.9375 14.109375 22.625 23.890625 
Q 32.328125 33.6875 34.8125 36.53125 
Q 39.546875 41.84375 41.421875 45.53125 
Q 43.3125 49.21875 43.3125 52.78125 
Q 43.3125 58.59375 39.234375 62.25 
Q 35.15625 65.921875 28.609375 65.921875 
Q 23.96875 65.921875 18.8125 64.3125 
Q 13.671875 62.703125 7.8125 59.421875 
L 7.8125 69.390625 
Q 13.765625 71.78125 18.9375 73 
Q 24.125 74.21875 28.421875 74.21875 
Q 39.75 74.21875 46.484375 68.546875 
Q 53.21875 62.890625 53.21875 53.421875 
Q 53.21875 48.921875 51.53125 44.890625 
Q 49.859375 40.875 45.40625 35.40625 
Q 44.1875 33.984375 37.640625 27.21875 
Q 31.109375 20.453125 19.1875 8.296875 
z
" id="DejaVuSans-50"/>
                            </defs>
                            <use xlink:href="#DejaVuSans-50"/>
                            <use x="63.623047" xlink:href="#DejaVuSans-48"/>
                            <use x="127.246094" xlink:href="#DejaVuSans-48"/>
                        </g>
                    </g>
                </g>
                <g id="xtick_4">
                    <g id="line2d_6">
                        <g>
                            <use style="stroke:#000000;stroke-width:0.8;" x="203.112759" xlink:href="#m5b82ee4685"
                                 y="173.090851"/>
                        </g>
                    </g>
                    <g id="text_4">
                        <!-- 250 -->
                        <g transform="translate(196.489396 185.364167)scale(0.0694 -0.0694)">
                            <use xlink:href="#DejaVuSans-50"/>
                            <use x="63.623047" xlink:href="#DejaVuSans-53"/>
                            <use x="127.246094" xlink:href="#DejaVuSans-48"/>
                        </g>
                    </g>
                </g>
                <g id="xtick_5">
                    <g id="line2d_7">
                        <g>
                            <use style="stroke:#000000;stroke-width:0.8;" x="244.84567" xlink:href="#m5b82ee4685"
                                 y="173.090851"/>
                        </g>
                    </g>
                    <g id="text_5">
                        <!-- 300 -->
                        <g transform="translate(238.222308 185.364167)scale(0.0694 -0.0694)">
                            <defs>
                                <path d="M 40.578125 39.3125
Q 47.65625 37.796875 51.625 33 
Q 55.609375 28.21875 55.609375 21.1875 
Q 55.609375 10.40625 48.1875 4.484375 
Q 40.765625 -1.421875 27.09375 -1.421875 
Q 22.515625 -1.421875 17.65625 -0.515625 
Q 12.796875 0.390625 7.625 2.203125 
L 7.625 11.71875 
Q 11.71875 9.328125 16.59375 8.109375 
Q 21.484375 6.890625 26.8125 6.890625 
Q 36.078125 6.890625 40.9375 10.546875 
Q 45.796875 14.203125 45.796875 21.1875 
Q 45.796875 27.640625 41.28125 31.265625 
Q 36.765625 34.90625 28.71875 34.90625 
L 20.21875 34.90625 
L 20.21875 43.015625 
L 29.109375 43.015625 
Q 36.375 43.015625 40.234375 45.921875 
Q 44.09375 48.828125 44.09375 54.296875 
Q 44.09375 59.90625 40.109375 62.90625 
Q 36.140625 65.921875 28.71875 65.921875 
Q 24.65625 65.921875 20.015625 65.03125 
Q 15.375 64.15625 9.8125 62.3125 
L 9.8125 71.09375 
Q 15.4375 72.65625 20.34375 73.4375 
Q 25.25 74.21875 29.59375 74.21875 
Q 40.828125 74.21875 47.359375 69.109375 
Q 53.90625 64.015625 53.90625 55.328125 
Q 53.90625 49.265625 50.4375 45.09375 
Q 46.96875 40.921875 40.578125 39.3125 
z
" id="DejaVuSans-51"/>
                            </defs>
                            <use xlink:href="#DejaVuSans-51"/>
                            <use x="63.623047" xlink:href="#DejaVuSans-48"/>
                            <use x="127.246094" xlink:href="#DejaVuSans-48"/>
                        </g>
                    </g>
                </g>
                <g id="xtick_6">
                    <g id="line2d_8">
                        <g>
                            <use style="stroke:#000000;stroke-width:0.8;" x="286.578582" xlink:href="#m5b82ee4685"
                                 y="173.090851"/>
                        </g>
                    </g>
                    <g id="text_6">
                        <!-- 350 -->
                        <g transform="translate(279.955219 185.364167)scale(0.0694 -0.0694)">
                            <use xlink:href="#DejaVuSans-51"/>
                            <use x="63.623047" xlink:href="#DejaVuSans-53"/>
                            <use x="127.246094" xlink:href="#DejaVuSans-48"/>
                        </g>
                    </g>
                </g>
                <g id="text_7">
                    <!-- Distance from soma (um) -->
                    <g transform="translate(100.46991 198.405907)scale(0.1 -0.1)">
                        <defs>
                            <path d="M 19.671875 64.796875
L 19.671875 8.109375 
L 31.59375 8.109375 
Q 46.6875 8.109375 53.6875 14.9375 
Q 60.6875 21.78125 60.6875 36.53125 
Q 60.6875 51.171875 53.6875 57.984375 
Q 46.6875 64.796875 31.59375 64.796875 
z
M 9.8125 72.90625 
L 30.078125 72.90625 
Q 51.265625 72.90625 61.171875 64.09375 
Q 71.09375 55.28125 71.09375 36.53125 
Q 71.09375 17.671875 61.125 8.828125 
Q 51.171875 0 30.078125 0 
L 9.8125 0 
z
" id="DejaVuSans-68"/>
                            <path d="M 9.421875 54.6875
L 18.40625 54.6875 
L 18.40625 0 
L 9.421875 0 
z
M 9.421875 75.984375 
L 18.40625 75.984375 
L 18.40625 64.59375 
L 9.421875 64.59375 
z
" id="DejaVuSans-105"/>
                            <path d="M 44.28125 53.078125
L 44.28125 44.578125 
Q 40.484375 46.53125 36.375 47.5 
Q 32.28125 48.484375 27.875 48.484375 
Q 21.1875 48.484375 17.84375 46.4375 
Q 14.5 44.390625 14.5 40.28125 
Q 14.5 37.15625 16.890625 35.375 
Q 19.28125 33.59375 26.515625 31.984375 
L 29.59375 31.296875 
Q 39.15625 29.25 43.1875 25.515625 
Q 47.21875 21.78125 47.21875 15.09375 
Q 47.21875 7.46875 41.1875 3.015625 
Q 35.15625 -1.421875 24.609375 -1.421875 
Q 20.21875 -1.421875 15.453125 -0.5625 
Q 10.6875 0.296875 5.421875 2 
L 5.421875 11.28125 
Q 10.40625 8.6875 15.234375 7.390625 
Q 20.0625 6.109375 24.8125 6.109375 
Q 31.15625 6.109375 34.5625 8.28125 
Q 37.984375 10.453125 37.984375 14.40625 
Q 37.984375 18.0625 35.515625 20.015625 
Q 33.0625 21.96875 24.703125 23.78125 
L 21.578125 24.515625 
Q 13.234375 26.265625 9.515625 29.90625 
Q 5.8125 33.546875 5.8125 39.890625 
Q 5.8125 47.609375 11.28125 51.796875 
Q 16.75 56 26.8125 56 
Q 31.78125 56 36.171875 55.265625 
Q 40.578125 54.546875 44.28125 53.078125 
z
" id="DejaVuSans-115"/>
                            <path d="M 18.3125 70.21875
L 18.3125 54.6875 
L 36.8125 54.6875 
L 36.8125 47.703125 
L 18.3125 47.703125 
L 18.3125 18.015625 
Q 18.3125 11.328125 20.140625 9.421875 
Q 21.96875 7.515625 27.59375 7.515625 
L 36.8125 7.515625 
L 36.8125 0 
L 27.59375 0 
Q 17.1875 0 13.234375 3.875 
Q 9.28125 7.765625 9.28125 18.015625 
L 9.28125 47.703125 
L 2.6875 47.703125 
L 2.6875 54.6875 
L 9.28125 54.6875 
L 9.28125 70.21875 
z
" id="DejaVuSans-116"/>
                            <path d="M 34.28125 27.484375
Q 23.390625 27.484375 19.1875 25 
Q 14.984375 22.515625 14.984375 16.5 
Q 14.984375 11.71875 18.140625 8.90625 
Q 21.296875 6.109375 26.703125 6.109375 
Q 34.1875 6.109375 38.703125 11.40625 
Q 43.21875 16.703125 43.21875 25.484375 
L 43.21875 27.484375 
z
M 52.203125 31.203125 
L 52.203125 0 
L 43.21875 0 
L 43.21875 8.296875 
Q 40.140625 3.328125 35.546875 0.953125 
Q 30.953125 -1.421875 24.3125 -1.421875 
Q 15.921875 -1.421875 10.953125 3.296875 
Q 6 8.015625 6 15.921875 
Q 6 25.140625 12.171875 29.828125 
Q 18.359375 34.515625 30.609375 34.515625 
L 43.21875 34.515625 
L 43.21875 35.40625 
Q 43.21875 41.609375 39.140625 45 
Q 35.0625 48.390625 27.6875 48.390625 
Q 23 48.390625 18.546875 47.265625 
Q 14.109375 46.140625 10.015625 43.890625 
L 10.015625 52.203125 
Q 14.9375 54.109375 19.578125 55.046875 
Q 24.21875 56 28.609375 56 
Q 40.484375 56 46.34375 49.84375 
Q 52.203125 43.703125 52.203125 31.203125 
z
" id="DejaVuSans-97"/>
                            <path d="M 54.890625 33.015625
L 54.890625 0 
L 45.90625 0 
L 45.90625 32.71875 
Q 45.90625 40.484375 42.875 44.328125 
Q 39.84375 48.1875 33.796875 48.1875 
Q 26.515625 48.1875 22.3125 43.546875 
Q 18.109375 38.921875 18.109375 30.90625 
L 18.109375 0 
L 9.078125 0 
L 9.078125 54.6875 
L 18.109375 54.6875 
L 18.109375 46.1875 
Q 21.34375 51.125 25.703125 53.5625 
Q 30.078125 56 35.796875 56 
Q 45.21875 56 50.046875 50.171875 
Q 54.890625 44.34375 54.890625 33.015625 
z
" id="DejaVuSans-110"/>
                            <path d="M 48.78125 52.59375
L 48.78125 44.1875 
Q 44.96875 46.296875 41.140625 47.34375 
Q 37.3125 48.390625 33.40625 48.390625 
Q 24.65625 48.390625 19.8125 42.84375 
Q 14.984375 37.3125 14.984375 27.296875 
Q 14.984375 17.28125 19.8125 11.734375 
Q 24.65625 6.203125 33.40625 6.203125 
Q 37.3125 6.203125 41.140625 7.25 
Q 44.96875 8.296875 48.78125 10.40625 
L 48.78125 2.09375 
Q 45.015625 0.34375 40.984375 -0.53125 
Q 36.96875 -1.421875 32.421875 -1.421875 
Q 20.0625 -1.421875 12.78125 6.34375 
Q 5.515625 14.109375 5.515625 27.296875 
Q 5.515625 40.671875 12.859375 48.328125 
Q 20.21875 56 33.015625 56 
Q 37.15625 56 41.109375 55.140625 
Q 45.0625 54.296875 48.78125 52.59375 
z
" id="DejaVuSans-99"/>
                            <path d="M 56.203125 29.59375
L 56.203125 25.203125 
L 14.890625 25.203125 
Q 15.484375 15.921875 20.484375 11.0625 
Q 25.484375 6.203125 34.421875 6.203125 
Q 39.59375 6.203125 44.453125 7.46875 
Q 49.3125 8.734375 54.109375 11.28125 
L 54.109375 2.78125 
Q 49.265625 0.734375 44.1875 -0.34375 
Q 39.109375 -1.421875 33.890625 -1.421875 
Q 20.796875 -1.421875 13.15625 6.1875 
Q 5.515625 13.8125 5.515625 26.8125 
Q 5.515625 40.234375 12.765625 48.109375 
Q 20.015625 56 32.328125 56 
Q 43.359375 56 49.78125 48.890625 
Q 56.203125 41.796875 56.203125 29.59375 
z
M 47.21875 32.234375 
Q 47.125 39.59375 43.09375 43.984375 
Q 39.0625 48.390625 32.421875 48.390625 
Q 24.90625 48.390625 20.390625 44.140625 
Q 15.875 39.890625 15.1875 32.171875 
z
" id="DejaVuSans-101"/>
                            <path id="DejaVuSans-32"/>
                            <path d="M 37.109375 75.984375
L 37.109375 68.5 
L 28.515625 68.5 
Q 23.6875 68.5 21.796875 66.546875 
Q 19.921875 64.59375 19.921875 59.515625 
L 19.921875 54.6875 
L 34.71875 54.6875 
L 34.71875 47.703125 
L 19.921875 47.703125 
L 19.921875 0 
L 10.890625 0 
L 10.890625 47.703125 
L 2.296875 47.703125 
L 2.296875 54.6875 
L 10.890625 54.6875 
L 10.890625 58.5 
Q 10.890625 67.625 15.140625 71.796875 
Q 19.390625 75.984375 28.609375 75.984375 
z
" id="DejaVuSans-102"/>
                            <path d="M 41.109375 46.296875
Q 39.59375 47.171875 37.8125 47.578125 
Q 36.03125 48 33.890625 48 
Q 26.265625 48 22.1875 43.046875 
Q 18.109375 38.09375 18.109375 28.8125 
L 18.109375 0 
L 9.078125 0 
L 9.078125 54.6875 
L 18.109375 54.6875 
L 18.109375 46.1875 
Q 20.953125 51.171875 25.484375 53.578125 
Q 30.03125 56 36.53125 56 
Q 37.453125 56 38.578125 55.875 
Q 39.703125 55.765625 41.0625 55.515625 
z
" id="DejaVuSans-114"/>
                            <path d="M 30.609375 48.390625
Q 23.390625 48.390625 19.1875 42.75 
Q 14.984375 37.109375 14.984375 27.296875 
Q 14.984375 17.484375 19.15625 11.84375 
Q 23.34375 6.203125 30.609375 6.203125 
Q 37.796875 6.203125 41.984375 11.859375 
Q 46.1875 17.53125 46.1875 27.296875 
Q 46.1875 37.015625 41.984375 42.703125 
Q 37.796875 48.390625 30.609375 48.390625 
z
M 30.609375 56 
Q 42.328125 56 49.015625 48.375 
Q 55.71875 40.765625 55.71875 27.296875 
Q 55.71875 13.875 49.015625 6.21875 
Q 42.328125 -1.421875 30.609375 -1.421875 
Q 18.84375 -1.421875 12.171875 6.21875 
Q 5.515625 13.875 5.515625 27.296875 
Q 5.515625 40.765625 12.171875 48.375 
Q 18.84375 56 30.609375 56 
z
" id="DejaVuSans-111"/>
                            <path d="M 52 44.1875
Q 55.375 50.25 60.0625 53.125 
Q 64.75 56 71.09375 56 
Q 79.640625 56 84.28125 50.015625 
Q 88.921875 44.046875 88.921875 33.015625 
L 88.921875 0 
L 79.890625 0 
L 79.890625 32.71875 
Q 79.890625 40.578125 77.09375 44.375 
Q 74.3125 48.1875 68.609375 48.1875 
Q 61.625 48.1875 57.5625 43.546875 
Q 53.515625 38.921875 53.515625 30.90625 
L 53.515625 0 
L 44.484375 0 
L 44.484375 32.71875 
Q 44.484375 40.625 41.703125 44.40625 
Q 38.921875 48.1875 33.109375 48.1875 
Q 26.21875 48.1875 22.15625 43.53125 
Q 18.109375 38.875 18.109375 30.90625 
L 18.109375 0 
L 9.078125 0 
L 9.078125 54.6875 
L 18.109375 54.6875 
L 18.109375 46.1875 
Q 21.1875 51.21875 25.484375 53.609375 
Q 29.78125 56 35.6875 56 
Q 41.65625 56 45.828125 52.96875 
Q 50 49.953125 52 44.1875 
z
" id="DejaVuSans-109"/>
                            <path d="M 31 75.875
Q 24.46875 64.65625 21.28125 53.65625 
Q 18.109375 42.671875 18.109375 31.390625 
Q 18.109375 20.125 21.3125 9.0625 
Q 24.515625 -2 31 -13.1875 
L 23.1875 -13.1875 
Q 15.875 -1.703125 12.234375 9.375 
Q 8.59375 20.453125 8.59375 31.390625 
Q 8.59375 42.28125 12.203125 53.3125 
Q 15.828125 64.359375 23.1875 75.875 
z
" id="DejaVuSans-40"/>
                            <path d="M 8.5 21.578125
L 8.5 54.6875 
L 17.484375 54.6875 
L 17.484375 21.921875 
Q 17.484375 14.15625 20.5 10.265625 
Q 23.53125 6.390625 29.59375 6.390625 
Q 36.859375 6.390625 41.078125 11.03125 
Q 45.3125 15.671875 45.3125 23.6875 
L 45.3125 54.6875 
L 54.296875 54.6875 
L 54.296875 0 
L 45.3125 0 
L 45.3125 8.40625 
Q 42.046875 3.421875 37.71875 1 
Q 33.40625 -1.421875 27.6875 -1.421875 
Q 18.265625 -1.421875 13.375 4.4375 
Q 8.5 10.296875 8.5 21.578125 
z
M 31.109375 56 
z
" id="DejaVuSans-117"/>
                            <path d="M 8.015625 75.875
L 15.828125 75.875 
Q 23.140625 64.359375 26.78125 53.3125 
Q 30.421875 42.28125 30.421875 31.390625 
Q 30.421875 20.453125 26.78125 9.375 
Q 23.140625 -1.703125 15.828125 -13.1875 
L 8.015625 -13.1875 
Q 14.5 -2 17.703125 9.0625 
Q 20.90625 20.125 20.90625 31.390625 
Q 20.90625 42.671875 17.703125 53.65625 
Q 14.5 64.65625 8.015625 75.875 
z
" id="DejaVuSans-41"/>
                        </defs>
                        <use xlink:href="#DejaVuSans-68"/>
                        <use x="77.001953" xlink:href="#DejaVuSans-105"/>
                        <use x="104.785156" xlink:href="#DejaVuSans-115"/>
                        <use x="156.884766" xlink:href="#DejaVuSans-116"/>
                        <use x="196.09375" xlink:href="#DejaVuSans-97"/>
                        <use x="257.373047" xlink:href="#DejaVuSans-110"/>
                        <use x="320.751953" xlink:href="#DejaVuSans-99"/>
                        <use x="375.732422" xlink:href="#DejaVuSans-101"/>
                        <use x="437.255859" xlink:href="#DejaVuSans-32"/>
                        <use x="469.042969" xlink:href="#DejaVuSans-102"/>
                        <use x="504.248047" xlink:href="#DejaVuSans-114"/>
                        <use x="543.111328" xlink:href="#DejaVuSans-111"/>
                        <use x="604.292969" xlink:href="#DejaVuSans-109"/>
                        <use x="701.705078" xlink:href="#DejaVuSans-32"/>
                        <use x="733.492188" xlink:href="#DejaVuSans-115"/>
                        <use x="785.591797" xlink:href="#DejaVuSans-111"/>
                        <use x="846.773438" xlink:href="#DejaVuSans-109"/>
                        <use x="944.185547" xlink:href="#DejaVuSans-97"/>
                        <use x="1005.464844" xlink:href="#DejaVuSans-32"/>
                        <use x="1037.251953" xlink:href="#DejaVuSans-40"/>
                        <use x="1076.265625" xlink:href="#DejaVuSans-117"/>
                        <use x="1139.644531" xlink:href="#DejaVuSans-109"/>
                        <use x="1237.056641" xlink:href="#DejaVuSans-41"/>
                    </g>
                </g>
            </g>
            <g id="matplotlib.axis_2">
                <g id="ytick_1">
                    <g id="line2d_9">
                        <defs>
                            <path d="M 0 0
L -3.5 0 
" id="m550d98fe8d" style="stroke:#000000;stroke-width:0.8;"/>
                        </defs>
                        <g>
                            <use style="stroke:#000000;stroke-width:0.8;" x="38.914894" xlink:href="#m550d98fe8d"
                                 y="146.061655"/>
                        </g>
                    </g>
                    <g id="text_8">
                        <!-- 0.2 -->
                        <g transform="translate(20.878125 148.698312)scale(0.0694 -0.0694)">
                            <defs>
                                <path d="M 10.6875 12.40625
L 21 12.40625 
L 21 0 
L 10.6875 0 
z
" id="DejaVuSans-46"/>
                            </defs>
                            <use xlink:href="#DejaVuSans-48"/>
                            <use x="63.623047" xlink:href="#DejaVuSans-46"/>
                            <use x="95.410156" xlink:href="#DejaVuSans-50"/>
                        </g>
                    </g>
                </g>
                <g id="ytick_2">
                    <g id="line2d_10">
                        <g>
                            <use style="stroke:#000000;stroke-width:0.8;" x="38.914894" xlink:href="#m550d98fe8d"
                                 y="112.005405"/>
                        </g>
                    </g>
                    <g id="text_9">
                        <!-- 0.4 -->
                        <g transform="translate(20.878125 114.642063)scale(0.0694 -0.0694)">
                            <defs>
                                <path d="M 37.796875 64.3125
L 12.890625 25.390625 
L 37.796875 25.390625 
z
M 35.203125 72.90625 
L 47.609375 72.90625 
L 47.609375 25.390625 
L 58.015625 25.390625 
L 58.015625 17.1875 
L 47.609375 17.1875 
L 47.609375 0 
L 37.796875 0 
L 37.796875 17.1875 
L 4.890625 17.1875 
L 4.890625 26.703125 
z
" id="DejaVuSans-52"/>
                            </defs>
                            <use xlink:href="#DejaVuSans-48"/>
                            <use x="63.623047" xlink:href="#DejaVuSans-46"/>
                            <use x="95.410156" xlink:href="#DejaVuSans-52"/>
                        </g>
                    </g>
                </g>
                <g id="ytick_3">
                    <g id="line2d_11">
                        <g>
                            <use style="stroke:#000000;stroke-width:0.8;" x="38.914894" xlink:href="#m550d98fe8d"
                                 y="77.949156"/>
                        </g>
                    </g>
                    <g id="text_10">
                        <!-- 0.6 -->
                        <g transform="translate(20.878125 80.585814)scale(0.0694 -0.0694)">
                            <defs>
                                <path d="M 33.015625 40.375
Q 26.375 40.375 22.484375 35.828125 
Q 18.609375 31.296875 18.609375 23.390625 
Q 18.609375 15.53125 22.484375 10.953125 
Q 26.375 6.390625 33.015625 6.390625 
Q 39.65625 6.390625 43.53125 10.953125 
Q 47.40625 15.53125 47.40625 23.390625 
Q 47.40625 31.296875 43.53125 35.828125 
Q 39.65625 40.375 33.015625 40.375 
z
M 52.59375 71.296875 
L 52.59375 62.3125 
Q 48.875 64.0625 45.09375 64.984375 
Q 41.3125 65.921875 37.59375 65.921875 
Q 27.828125 65.921875 22.671875 59.328125 
Q 17.53125 52.734375 16.796875 39.40625 
Q 19.671875 43.65625 24.015625 45.921875 
Q 28.375 48.1875 33.59375 48.1875 
Q 44.578125 48.1875 50.953125 41.515625 
Q 57.328125 34.859375 57.328125 23.390625 
Q 57.328125 12.15625 50.6875 5.359375 
Q 44.046875 -1.421875 33.015625 -1.421875 
Q 20.359375 -1.421875 13.671875 8.265625 
Q 6.984375 17.96875 6.984375 36.375 
Q 6.984375 53.65625 15.1875 63.9375 
Q 23.390625 74.21875 37.203125 74.21875 
Q 40.921875 74.21875 44.703125 73.484375 
Q 48.484375 72.75 52.59375 71.296875 
z
" id="DejaVuSans-54"/>
                            </defs>
                            <use xlink:href="#DejaVuSans-48"/>
                            <use x="63.623047" xlink:href="#DejaVuSans-46"/>
                            <use x="95.410156" xlink:href="#DejaVuSans-54"/>
                        </g>
                    </g>
                </g>
                <g id="ytick_4">
                    <g id="line2d_12">
                        <g>
                            <use style="stroke:#000000;stroke-width:0.8;" x="38.914894" xlink:href="#m550d98fe8d"
                                 y="43.892907"/>
                        </g>
                    </g>
                    <g id="text_11">
                        <!-- 0.8 -->
                        <g transform="translate(20.878125 46.529565)scale(0.0694 -0.0694)">
                            <defs>
                                <path d="M 31.78125 34.625
Q 24.75 34.625 20.71875 30.859375 
Q 16.703125 27.09375 16.703125 20.515625 
Q 16.703125 13.921875 20.71875 10.15625 
Q 24.75 6.390625 31.78125 6.390625 
Q 38.8125 6.390625 42.859375 10.171875 
Q 46.921875 13.96875 46.921875 20.515625 
Q 46.921875 27.09375 42.890625 30.859375 
Q 38.875 34.625 31.78125 34.625 
z
M 21.921875 38.8125 
Q 15.578125 40.375 12.03125 44.71875 
Q 8.5 49.078125 8.5 55.328125 
Q 8.5 64.0625 14.71875 69.140625 
Q 20.953125 74.21875 31.78125 74.21875 
Q 42.671875 74.21875 48.875 69.140625 
Q 55.078125 64.0625 55.078125 55.328125 
Q 55.078125 49.078125 51.53125 44.71875 
Q 48 40.375 41.703125 38.8125 
Q 48.828125 37.15625 52.796875 32.3125 
Q 56.78125 27.484375 56.78125 20.515625 
Q 56.78125 9.90625 50.3125 4.234375 
Q 43.84375 -1.421875 31.78125 -1.421875 
Q 19.734375 -1.421875 13.25 4.234375 
Q 6.78125 9.90625 6.78125 20.515625 
Q 6.78125 27.484375 10.78125 32.3125 
Q 14.796875 37.15625 21.921875 38.8125 
z
M 18.3125 54.390625 
Q 18.3125 48.734375 21.84375 45.5625 
Q 25.390625 42.390625 31.78125 42.390625 
Q 38.140625 42.390625 41.71875 45.5625 
Q 45.3125 48.734375 45.3125 54.390625 
Q 45.3125 60.0625 41.71875 63.234375 
Q 38.140625 66.40625 31.78125 66.40625 
Q 25.390625 66.40625 21.84375 63.234375 
Q 18.3125 60.0625 18.3125 54.390625 
z
" id="DejaVuSans-56"/>
                            </defs>
                            <use xlink:href="#DejaVuSans-48"/>
                            <use x="63.623047" xlink:href="#DejaVuSans-46"/>
                            <use x="95.410156" xlink:href="#DejaVuSans-56"/>
                        </g>
                    </g>
                </g>
                <g id="ytick_5">
                    <g id="line2d_13">
                        <g>
                            <use style="stroke:#000000;stroke-width:0.8;" x="38.914894" xlink:href="#m550d98fe8d"
                                 y="9.836658"/>
                        </g>
                    </g>
                    <g id="text_12">
                        <!-- 1.0 -->
                        <g transform="translate(20.878125 12.473316)scale(0.0694 -0.0694)">
                            <use xlink:href="#DejaVuSans-49"/>
                            <use x="63.623047" xlink:href="#DejaVuSans-46"/>
                            <use x="95.410156" xlink:href="#DejaVuSans-48"/>
                        </g>
                    </g>
                </g>
                <g id="text_13">
                    <!-- Attenuation soma / dendrite -->
                    <g transform="translate(14.798438 161.186853)rotate(-90)scale(0.1 -0.1)">
                        <defs>
                            <path d="M 34.1875 63.1875
L 20.796875 26.90625 
L 47.609375 26.90625 
z
M 28.609375 72.90625 
L 39.796875 72.90625 
L 67.578125 0 
L 57.328125 0 
L 50.6875 18.703125 
L 17.828125 18.703125 
L 11.1875 0 
L 0.78125 0 
z
" id="DejaVuSans-65"/>
                            <path d="M 25.390625 72.90625
L 33.6875 72.90625 
L 8.296875 -9.28125 
L 0 -9.28125 
z
" id="DejaVuSans-47"/>
                            <path d="M 45.40625 46.390625
L 45.40625 75.984375 
L 54.390625 75.984375 
L 54.390625 0 
L 45.40625 0 
L 45.40625 8.203125 
Q 42.578125 3.328125 38.25 0.953125 
Q 33.9375 -1.421875 27.875 -1.421875 
Q 17.96875 -1.421875 11.734375 6.484375 
Q 5.515625 14.40625 5.515625 27.296875 
Q 5.515625 40.1875 11.734375 48.09375 
Q 17.96875 56 27.875 56 
Q 33.9375 56 38.25 53.625 
Q 42.578125 51.265625 45.40625 46.390625 
z
M 14.796875 27.296875 
Q 14.796875 17.390625 18.875 11.75 
Q 22.953125 6.109375 30.078125 6.109375 
Q 37.203125 6.109375 41.296875 11.75 
Q 45.40625 17.390625 45.40625 27.296875 
Q 45.40625 37.203125 41.296875 42.84375 
Q 37.203125 48.484375 30.078125 48.484375 
Q 22.953125 48.484375 18.875 42.84375 
Q 14.796875 37.203125 14.796875 27.296875 
z
" id="DejaVuSans-100"/>
                        </defs>
                        <use xlink:href="#DejaVuSans-65"/>
                        <use x="66.658203" xlink:href="#DejaVuSans-116"/>
                        <use x="105.867188" xlink:href="#DejaVuSans-116"/>
                        <use x="145.076172" xlink:href="#DejaVuSans-101"/>
                        <use x="206.599609" xlink:href="#DejaVuSans-110"/>
                        <use x="269.978516" xlink:href="#DejaVuSans-117"/>
                        <use x="333.357422" xlink:href="#DejaVuSans-97"/>
                        <use x="394.636719" xlink:href="#DejaVuSans-116"/>
                        <use x="433.845703" xlink:href="#DejaVuSans-105"/>
                        <use x="461.628906" xlink:href="#DejaVuSans-111"/>
                        <use x="522.810547" xlink:href="#DejaVuSans-110"/>
                        <use x="586.189453" xlink:href="#DejaVuSans-32"/>
                        <use x="617.976562" xlink:href="#DejaVuSans-115"/>
                        <use x="670.076172" xlink:href="#DejaVuSans-111"/>
                        <use x="731.257812" xlink:href="#DejaVuSans-109"/>
                        <use x="828.669922" xlink:href="#DejaVuSans-97"/>
                        <use x="889.949219" xlink:href="#DejaVuSans-32"/>
                        <use x="921.736328" xlink:href="#DejaVuSans-47"/>
                        <use x="955.427734" xlink:href="#DejaVuSans-32"/>
                        <use x="987.214844" xlink:href="#DejaVuSans-100"/>
                        <use x="1050.691406" xlink:href="#DejaVuSans-101"/>
                        <use x="1112.214844" xlink:href="#DejaVuSans-110"/>
                        <use x="1175.59375" xlink:href="#DejaVuSans-100"/>
                        <use x="1239.070312" xlink:href="#DejaVuSans-114"/>
                        <use x="1280.183594" xlink:href="#DejaVuSans-105"/>
                        <use x="1307.966797" xlink:href="#DejaVuSans-116"/>
                        <use x="1347.175781" xlink:href="#DejaVuSans-101"/>
                    </g>
                </g>
            </g>
            <g id="line2d_14">
                <defs>
                    <path d="M 0 3
C 0.795609 3 1.55874 2.683901 2.12132 2.12132 
C 2.683901 1.55874 3 0.795609 3 0 
C 3 -0.795609 2.683901 -1.55874 2.12132 -2.12132 
C 1.55874 -2.683901 0.795609 -3 0 -3 
C -0.795609 -3 -1.55874 -2.683901 -2.12132 -2.12132 
C -2.683901 -1.55874 -3 -0.795609 -3 0 
C -3 0.795609 -2.683901 1.55874 -2.12132 2.12132 
C -1.55874 2.683901 -0.795609 3 0 3 
z
" id="ma1e9419628" style="stroke:#ff6347;"/>
                </defs>
                <g clip-path="url(#p3ee2fc6e4a)">
                    <use style="fill:#ff6347;stroke:#ff6347;" x="64.003054" xlink:href="#ma1e9419628" y="20.797867"/>
                    <use style="fill:#ff6347;stroke:#ff6347;" x="91.824995" xlink:href="#ma1e9419628" y="28.273345"/>
                    <use style="fill:#ff6347;stroke:#ff6347;" x="119.646936" xlink:href="#ma1e9419628" y="38.878207"/>
                    <use style="fill:#ff6347;stroke:#ff6347;" x="147.468877" xlink:href="#ma1e9419628" y="50.078646"/>
                    <use style="fill:#ff6347;stroke:#ff6347;" x="173.303536" xlink:href="#ma1e9419628" y="66.041916"/>
                    <use style="fill:#ff6347;stroke:#ff6347;" x="197.150914" xlink:href="#ma1e9419628" y="83.567993"/>
                    <use style="fill:#ff6347;stroke:#ff6347;" x="220.998292" xlink:href="#ma1e9419628" y="96.515533"/>
                    <use style="fill:#ff6347;stroke:#ff6347;" x="244.84567" xlink:href="#ma1e9419628" y="105.869316"/>
                    <use style="fill:#ff6347;stroke:#ff6347;" x="268.693048" xlink:href="#ma1e9419628" y="112.918993"/>
                </g>
            </g>
            <g id="patch_3">
                <path d="M 38.914894 173.090851
L 38.914894 8.415667 
" style="fill:none;stroke:#000000;stroke-linecap:square;stroke-linejoin:miter;stroke-width:0.8;"/>
            </g>
            <g id="patch_4">
                <path d="M 289.628052 173.090851
L 289.628052 8.415667 
" style="fill:none;stroke:#000000;stroke-linecap:square;stroke-linejoin:miter;stroke-width:0.8;"/>
            </g>
            <g id="patch_5">
                <path d="M 38.914894 173.090851
L 289.628052 173.090851 
" style="fill:none;stroke:#000000;stroke-linecap:square;stroke-linejoin:miter;stroke-width:0.8;"/>
            </g>
            <g id="patch_6">
                <path d="M 38.914894 8.415667
L 289.628052 8.415667 
" style="fill:none;stroke:#000000;stroke-linecap:square;stroke-linejoin:miter;stroke-width:0.8;"/>
            </g>
            <g id="line2d_15">
                <defs>
                    <path d="M 0 3
C 0.795609 3 1.55874 2.683901 2.12132 2.12132 
C 2.683901 1.55874 3 0.795609 3 0 
C 3 -0.795609 2.683901 -1.55874 2.12132 -2.12132 
C 1.55874 -2.683901 0.795609 -3 0 -3 
C -0.795609 -3 -1.55874 -2.683901 -2.12132 -2.12132 
C -2.683901 -1.55874 -3 -0.795609 -3 0 
C -3 0.795609 -2.683901 1.55874 -2.12132 2.12132 
C -1.55874 2.683901 -0.795609 3 0 3 
z
" id="m141a137d9f" style="stroke:#daa520;"/>
                </defs>
                <g clip-path="url(#p3ee2fc6e4a)">
                    <use style="fill:#daa520;stroke:#daa520;" x="64.003054" xlink:href="#m141a137d9f" y="15.900902"/>
                    <use style="fill:#daa520;stroke:#daa520;" x="91.824995" xlink:href="#m141a137d9f" y="21.104192"/>
                    <use style="fill:#daa520;stroke:#daa520;" x="119.646936" xlink:href="#m141a137d9f" y="28.715863"/>
                    <use style="fill:#daa520;stroke:#daa520;" x="147.468877" xlink:href="#m141a137d9f" y="36.263653"/>
                    <use style="fill:#daa520;stroke:#daa520;" x="178.073012" xlink:href="#m141a137d9f" y="50.531415"/>
                    <use style="fill:#daa520;stroke:#daa520;" x="211.459341" xlink:href="#m141a137d9f" y="69.31687"/>
                    <use style="fill:#daa520;stroke:#daa520;" x="244.84567" xlink:href="#m141a137d9f" y="84.87743"/>
                    <use style="fill:#daa520;stroke:#daa520;" x="278.231999" xlink:href="#m141a137d9f" y="97.535251"/>
                </g>
            </g>
            <g id="line2d_16">
                <defs>
                    <path d="M 0 3
C 0.795609 3 1.55874 2.683901 2.12132 2.12132 
C 2.683901 1.55874 3 0.795609 3 0 
C 3 -0.795609 2.683901 -1.55874 2.12132 -2.12132 
C 1.55874 -2.683901 0.795609 -3 0 -3 
C -0.795609 -3 -1.55874 -2.683901 -2.12132 -2.12132 
C -2.683901 -1.55874 -3 -0.795609 -3 0 
C -3 0.795609 -2.683901 1.55874 -2.12132 2.12132 
C -1.55874 2.683901 -0.795609 3 0 3 
z
" id="m449db32b55" style="stroke:#228b22;"/>
                </defs>
                <g clip-path="url(#p3ee2fc6e4a)">
                    <use style="fill:#228b22;stroke:#228b22;" x="64.003054" xlink:href="#m449db32b55" y="18.821205"/>
                    <use style="fill:#228b22;stroke:#228b22;" x="91.824995" xlink:href="#m449db32b55" y="28.323005"/>
                    <use style="fill:#228b22;stroke:#228b22;" x="119.646936" xlink:href="#m449db32b55" y="44.543613"/>
                    <use style="fill:#228b22;stroke:#228b22;" x="147.468877" xlink:href="#m449db32b55" y="61.607007"/>
                    <use style="fill:#228b22;stroke:#228b22;" x="173.303536" xlink:href="#m449db32b55" y="83.204651"/>
                    <use style="fill:#228b22;stroke:#228b22;" x="197.150914" xlink:href="#m449db32b55" y="102.572236"/>
                    <use style="fill:#228b22;stroke:#228b22;" x="220.998292" xlink:href="#m449db32b55" y="114.764252"/>
                    <use style="fill:#228b22;stroke:#228b22;" x="244.84567" xlink:href="#m449db32b55" y="122.745951"/>
                    <use style="fill:#228b22;stroke:#228b22;" x="268.693048" xlink:href="#m449db32b55" y="128.285667"/>
                </g>
            </g>
            <g id="line2d_17">
                <defs>
                    <path d="M 0 3
C 0.795609 3 1.55874 2.683901 2.12132 2.12132 
C 2.683901 1.55874 3 0.795609 3 0 
C 3 -0.795609 2.683901 -1.55874 2.12132 -2.12132 
C 1.55874 -2.683901 0.795609 -3 0 -3 
C -0.795609 -3 -1.55874 -2.683901 -2.12132 -2.12132 
C -2.683901 -1.55874 -3 -0.795609 -3 0 
C -3 0.795609 -2.683901 1.55874 -2.12132 2.12132 
C -1.55874 2.683901 -0.795609 3 0 3 
z
" id="m032968522f" style="stroke:#9932cc;"/>
                </defs>
                <g clip-path="url(#p3ee2fc6e4a)">
                    <use style="fill:#9932cc;stroke:#9932cc;" x="69.567442" xlink:href="#m032968522f" y="33.580688"/>
                    <use style="fill:#9932cc;stroke:#9932cc;" x="275.196878" xlink:href="#m032968522f" y="136.038554"/>
                    <use style="fill:#9932cc;stroke:#9932cc;" x="244.84567" xlink:href="#m032968522f" y="126.960957"/>
                    <use style="fill:#9932cc;stroke:#9932cc;" x="86.260607" xlink:href="#m032968522f" y="41.054415"/>
                    <use style="fill:#9932cc;stroke:#9932cc;" x="153.033265" xlink:href="#m032968522f" y="75.943454"/>
                    <use style="fill:#9932cc;stroke:#9932cc;" x="136.3401" xlink:href="#m032968522f" y="67.802774"/>
                    <use style="fill:#9932cc;stroke:#9932cc;" x="214.494462" xlink:href="#m032968522f" y="116.025181"/>
                    <use style="fill:#9932cc;stroke:#9932cc;" x="260.021274" xlink:href="#m032968522f" y="131.89561"/>
                    <use style="fill:#9932cc;stroke:#9932cc;" x="184.143254" xlink:href="#m032968522f" y="99.075689"/>
                    <use style="fill:#9932cc;stroke:#9932cc;" x="168.967649" xlink:href="#m032968522f" y="86.966693"/>
                    <use style="fill:#9932cc;stroke:#9932cc;" x="229.670066" xlink:href="#m032968522f" y="122.014841"/>
                    <use style="fill:#9932cc;stroke:#9932cc;" x="199.318858" xlink:href="#m032968522f" y="108.558852"/>
                    <use style="fill:#9932cc;stroke:#9932cc;" x="119.646936" xlink:href="#m032968522f" y="59.009894"/>
                    <use style="fill:#9932cc;stroke:#9932cc;" x="102.953771" xlink:href="#m032968522f" y="50.285781"/>
                </g>
            </g>
            <g id="line2d_18">
                <defs>
                    <path d="M 0 3
C 0.795609 3 1.55874 2.683901 2.12132 2.12132 
C 2.683901 1.55874 3 0.795609 3 0 
C 3 -0.795609 2.683901 -1.55874 2.12132 -2.12132 
C 1.55874 -2.683901 0.795609 -3 0 -3 
C -0.795609 -3 -1.55874 -2.683901 -2.12132 -2.12132 
C -2.683901 -1.55874 -3 -0.795609 -3 0 
C -3 0.795609 -2.683901 1.55874 -2.12132 2.12132 
C -1.55874 2.683901 -0.795609 3 0 3 
z
" id="md6cac3286e" style="stroke:#000080;"/>
                </defs>
                <g clip-path="url(#p3ee2fc6e4a)">
                    <use style="fill:#000080;stroke:#000080;" x="50.310946" xlink:href="#md6cac3286e" y="44.343788"/>
                    <use style="fill:#000080;stroke:#000080;" x="65.351616" xlink:href="#md6cac3286e" y="61.72889"/>
                    <use style="fill:#000080;stroke:#000080;" x="82.530318" xlink:href="#md6cac3286e" y="93.782666"/>
                    <use style="fill:#000080;stroke:#000080;" x="107.019894" xlink:href="#md6cac3286e" y="122.751904"/>
                    <use style="fill:#000080;stroke:#000080;" x="125.170262" xlink:href="#md6cac3286e" y="132.918256"/>
                    <use style="fill:#000080;stroke:#000080;" x="141.225186" xlink:href="#md6cac3286e" y="139.836711"/>
                    <use style="fill:#000080;stroke:#000080;" x="162.423609" xlink:href="#md6cac3286e" y="146.835572"/>
                    <use style="fill:#000080;stroke:#000080;" x="183.622032" xlink:href="#md6cac3286e" y="151.590377"/>
                    <use style="fill:#000080;stroke:#000080;" x="202.303222" xlink:href="#md6cac3286e" y="154.434102"/>
                    <use style="fill:#000080;stroke:#000080;" x="226.239131" xlink:href="#md6cac3286e" y="158.833914"/>
                    <use style="fill:#000080;stroke:#000080;" x="253.457776" xlink:href="#md6cac3286e" y="162.946384"/>
                    <use style="fill:#000080;stroke:#000080;" x="274.655182" xlink:href="#md6cac3286e" y="165.605615"/>
                </g>
            </g>
            <g id="LineCollection_1">
                <path clip-path="url(#p3ee2fc6e4a)" d="M 77.914024 91.355106
L 77.914024 40.574786 
" style="fill:none;stroke:#dc143c;stroke-width:1.5;"/>
                <path clip-path="url(#p3ee2fc6e4a)" d="M 161.379847 134.434891
L 161.379847 60.619831 
" style="fill:none;stroke:#dc143c;stroke-width:1.5;"/>
                <path clip-path="url(#p3ee2fc6e4a)" d="M 244.84567 148.517564
L 244.84567 115.63942 
" style="fill:none;stroke:#dc143c;stroke-width:1.5;"/>
            </g>
            <g id="line2d_19">
                <defs>
                    <path d="M 0 3
C 0.795609 3 1.55874 2.683901 2.12132 2.12132 
C 2.683901 1.55874 3 0.795609 3 0 
C 3 -0.795609 2.683901 -1.55874 2.12132 -2.12132 
C 1.55874 -2.683901 0.795609 -3 0 -3 
C -0.795609 -3 -1.55874 -2.683901 -2.12132 -2.12132 
C -2.683901 -1.55874 -3 -0.795609 -3 0 
C -3 0.795609 -2.683901 1.55874 -2.12132 2.12132 
C -1.55874 2.683901 -0.795609 3 0 3 
z
" id="med5aad901e" style="stroke:#dc143c;"/>
                </defs>
                <g clip-path="url(#p3ee2fc6e4a)">
                    <use style="fill:#dc143c;stroke:#dc143c;" x="77.914024" xlink:href="#med5aad901e" y="65.964946"/>
                    <use style="fill:#dc143c;stroke:#dc143c;" x="161.379847" xlink:href="#med5aad901e" y="97.527361"/>
                    <use style="fill:#dc143c;stroke:#dc143c;" x="244.84567" xlink:href="#med5aad901e" y="132.078492"/>
                </g>
            </g>
        </g>
        <g id="axes_2">
            <g id="patch_7">
                <path d="M 329.981736 173.090851
L 580.694894 173.090851 
L 580.694894 8.415667 
L 329.981736 8.415667 
z
" style="fill:#ffffff;"/>
            </g>
            <g id="patch_8">
                <path clip-path="url(#p5f0753e978)" d="M 345.651308 173.090851
L 358.186966 173.090851 
L 358.186966 85.75464 
L 345.651308 85.75464 
z
" style="fill:#ff6347;stroke:#ffffff;stroke-linejoin:miter;"/>
            </g>
            <g id="patch_9">
                <path clip-path="url(#p5f0753e978)" d="M 423.99917 173.090851
L 436.534828 173.090851 
L 436.534828 118.147928 
L 423.99917 118.147928 
z
" style="fill:#ff6347;stroke:#ffffff;stroke-linejoin:miter;"/>
            </g>
            <g id="patch_10">
                <path clip-path="url(#p5f0753e978)" d="M 502.347032 173.090851
L 514.88269 173.090851 
L 514.88269 85.255061 
L 502.347032 85.255061 
z
" style="fill:#ff6347;stroke:#ffffff;stroke-linejoin:miter;"/>
            </g>
            <g id="patch_11">
                <path clip-path="url(#p5f0753e978)" d="M 358.186966 173.090851
L 370.722624 173.090851 
L 370.722624 73.036491 
L 358.186966 73.036491 
z
" style="fill:#daa520;stroke:#ffffff;stroke-linejoin:miter;"/>
            </g>
            <g id="patch_12">
                <path clip-path="url(#p5f0753e978)" d="M 436.534828 173.090851
L 449.070486 173.090851 
L 449.070486 87.492906 
L 436.534828 87.492906 
z
" style="fill:#daa520;stroke:#ffffff;stroke-linejoin:miter;"/>
            </g>
            <g id="patch_13">
                <path clip-path="url(#p5f0753e978)" d="M 514.88269 173.090851
L 527.418348 173.090851 
L 527.418348 16.257342 
L 514.88269 16.257342 
z
" style="fill:#daa520;stroke:#ffffff;stroke-linejoin:miter;"/>
            </g>
            <g id="patch_14">
                <path clip-path="url(#p5f0753e978)" d="M 370.722624 173.090851
L 383.258282 173.090851 
L 383.258282 83.723505 
L 370.722624 83.723505 
z
" style="fill:#228b22;stroke:#ffffff;stroke-linejoin:miter;"/>
            </g>
            <g id="patch_15">
                <path clip-path="url(#p5f0753e978)" d="M 449.070486 173.090851
L 461.606144 173.090851 
L 461.606144 137.494261 
L 449.070486 137.494261 
z
" style="fill:#228b22;stroke:#ffffff;stroke-linejoin:miter;"/>
            </g>
            <g id="patch_16">
                <path clip-path="url(#p5f0753e978)" d="M 527.418348 173.090851
L 539.954006 173.090851 
L 539.954006 140.054488 
L 527.418348 140.054488 
z
" style="fill:#228b22;stroke:#ffffff;stroke-linejoin:miter;"/>
            </g>
            <g id="patch_17">
                <path clip-path="url(#p5f0753e978)" d="M 383.258282 173.090851
L 395.79394 173.090851 
L 395.79394 121.812629 
L 383.258282 121.812629 
z
" style="fill:#9932cc;stroke:#ffffff;stroke-linejoin:miter;"/>
            </g>
            <g id="patch_18">
                <path clip-path="url(#p5f0753e978)" d="M 461.606144 173.090851
L 474.141802 173.090851 
L 474.141802 151.86751 
L 461.606144 151.86751 
z
" style="fill:#9932cc;stroke:#ffffff;stroke-linejoin:miter;"/>
            </g>
            <g id="patch_19">
                <path clip-path="url(#p5f0753e978)" d="M 539.954006 173.090851
L 552.489663 173.090851 
L 552.489663 155.211056 
L 539.954006 155.211056 
z
" style="fill:#9932cc;stroke:#ffffff;stroke-linejoin:miter;"/>
            </g>
            <g id="patch_20">
                <path clip-path="url(#p5f0753e978)" d="M 395.79394 173.090851
L 408.329597 173.090851 
L 408.329597 142.129817 
L 395.79394 142.129817 
z
" style="fill:#000080;stroke:#ffffff;stroke-linejoin:miter;"/>
            </g>
            <g id="patch_21">
                <path clip-path="url(#p5f0753e978)" d="M 474.141802 173.090851
L 486.677459 173.090851 
L 486.677459 104.066239 
L 474.141802 104.066239 
z
" style="fill:#000080;stroke:#ffffff;stroke-linejoin:miter;"/>
            </g>
            <g id="patch_22">
                <path clip-path="url(#p5f0753e978)" d="M 552.489663 173.090851
L 565.025321 173.090851 
L 565.025321 74.164507 
L 552.489663 74.164507 
z
" style="fill:#000080;stroke:#ffffff;stroke-linejoin:miter;"/>
            </g>
            <g id="matplotlib.axis_3">
                <g id="xtick_7">
                    <g id="line2d_20">
                        <g>
                            <use style="stroke:#000000;stroke-width:0.8;" x="376.990453" xlink:href="#m5b82ee4685"
                                 y="173.090851"/>
                        </g>
                    </g>
                    <g id="text_14">
                        <!-- 100 -->
                        <g transform="translate(370.36709 185.364167)scale(0.0694 -0.0694)">
                            <use xlink:href="#DejaVuSans-49"/>
                            <use x="63.623047" xlink:href="#DejaVuSans-48"/>
                            <use x="127.246094" xlink:href="#DejaVuSans-48"/>
                        </g>
                    </g>
                </g>
                <g id="xtick_8">
                    <g id="line2d_21">
                        <g>
                            <use style="stroke:#000000;stroke-width:0.8;" x="455.338315" xlink:href="#m5b82ee4685"
                                 y="173.090851"/>
                        </g>
                    </g>
                    <g id="text_15">
                        <!-- 200 -->
                        <g transform="translate(448.714952 185.364167)scale(0.0694 -0.0694)">
                            <use xlink:href="#DejaVuSans-50"/>
                            <use x="63.623047" xlink:href="#DejaVuSans-48"/>
                            <use x="127.246094" xlink:href="#DejaVuSans-48"/>
                        </g>
                    </g>
                </g>
                <g id="xtick_9">
                    <g id="line2d_22">
                        <g>
                            <use style="stroke:#000000;stroke-width:0.8;" x="533.686177" xlink:href="#m5b82ee4685"
                                 y="173.090851"/>
                        </g>
                    </g>
                    <g id="text_16">
                        <!-- 300 -->
                        <g transform="translate(527.062814 185.364167)scale(0.0694 -0.0694)">
                            <use xlink:href="#DejaVuSans-51"/>
                            <use x="63.623047" xlink:href="#DejaVuSans-48"/>
                            <use x="127.246094" xlink:href="#DejaVuSans-48"/>
                        </g>
                    </g>
                </g>
                <g id="text_17">
                    <!-- Distance from the soma (um) -->
                    <g transform="translate(381.742221 198.405907)scale(0.1 -0.1)">
                        <defs>
                            <path d="M 54.890625 33.015625
L 54.890625 0 
L 45.90625 0 
L 45.90625 32.71875 
Q 45.90625 40.484375 42.875 44.328125 
Q 39.84375 48.1875 33.796875 48.1875 
Q 26.515625 48.1875 22.3125 43.546875 
Q 18.109375 38.921875 18.109375 30.90625 
L 18.109375 0 
L 9.078125 0 
L 9.078125 75.984375 
L 18.109375 75.984375 
L 18.109375 46.1875 
Q 21.34375 51.125 25.703125 53.5625 
Q 30.078125 56 35.796875 56 
Q 45.21875 56 50.046875 50.171875 
Q 54.890625 44.34375 54.890625 33.015625 
z
" id="DejaVuSans-104"/>
                        </defs>
                        <use xlink:href="#DejaVuSans-68"/>
                        <use x="77.001953" xlink:href="#DejaVuSans-105"/>
                        <use x="104.785156" xlink:href="#DejaVuSans-115"/>
                        <use x="156.884766" xlink:href="#DejaVuSans-116"/>
                        <use x="196.09375" xlink:href="#DejaVuSans-97"/>
                        <use x="257.373047" xlink:href="#DejaVuSans-110"/>
                        <use x="320.751953" xlink:href="#DejaVuSans-99"/>
                        <use x="375.732422" xlink:href="#DejaVuSans-101"/>
                        <use x="437.255859" xlink:href="#DejaVuSans-32"/>
                        <use x="469.042969" xlink:href="#DejaVuSans-102"/>
                        <use x="504.248047" xlink:href="#DejaVuSans-114"/>
                        <use x="543.111328" xlink:href="#DejaVuSans-111"/>
                        <use x="604.292969" xlink:href="#DejaVuSans-109"/>
                        <use x="701.705078" xlink:href="#DejaVuSans-32"/>
                        <use x="733.492188" xlink:href="#DejaVuSans-116"/>
                        <use x="772.701172" xlink:href="#DejaVuSans-104"/>
                        <use x="836.080078" xlink:href="#DejaVuSans-101"/>
                        <use x="897.603516" xlink:href="#DejaVuSans-32"/>
                        <use x="929.390625" xlink:href="#DejaVuSans-115"/>
                        <use x="981.490234" xlink:href="#DejaVuSans-111"/>
                        <use x="1042.671875" xlink:href="#DejaVuSans-109"/>
                        <use x="1140.083984" xlink:href="#DejaVuSans-97"/>
                        <use x="1201.363281" xlink:href="#DejaVuSans-32"/>
                        <use x="1233.150391" xlink:href="#DejaVuSans-40"/>
                        <use x="1272.164062" xlink:href="#DejaVuSans-117"/>
                        <use x="1335.542969" xlink:href="#DejaVuSans-109"/>
                        <use x="1432.955078" xlink:href="#DejaVuSans-41"/>
                    </g>
                </g>
            </g>
            <g id="matplotlib.axis_4">
                <g id="ytick_6">
                    <g id="line2d_23">
                        <g>
                            <use style="stroke:#000000;stroke-width:0.8;" x="329.981736" xlink:href="#m550d98fe8d"
                                 y="173.090851"/>
                        </g>
                    </g>
                    <g id="text_18">
                        <!-- 0 -->
                        <g transform="translate(318.566161 175.727509)scale(0.0694 -0.0694)">
                            <use xlink:href="#DejaVuSans-48"/>
                        </g>
                    </g>
                </g>
                <g id="ytick_7">
                    <g id="line2d_24">
                        <g>
                            <use style="stroke:#000000;stroke-width:0.8;" x="329.981736" xlink:href="#m550d98fe8d"
                                 y="146.328654"/>
                        </g>
                    </g>
                    <g id="text_19">
                        <!-- 1 -->
                        <g transform="translate(318.566161 148.965311)scale(0.0694 -0.0694)">
                            <use xlink:href="#DejaVuSans-49"/>
                        </g>
                    </g>
                </g>
                <g id="ytick_8">
                    <g id="line2d_25">
                        <g>
                            <use style="stroke:#000000;stroke-width:0.8;" x="329.981736" xlink:href="#m550d98fe8d"
                                 y="119.566456"/>
                        </g>
                    </g>
                    <g id="text_20">
                        <!-- 2 -->
                        <g transform="translate(318.566161 122.203114)scale(0.0694 -0.0694)">
                            <use xlink:href="#DejaVuSans-50"/>
                        </g>
                    </g>
                </g>
                <g id="ytick_9">
                    <g id="line2d_26">
                        <g>
                            <use style="stroke:#000000;stroke-width:0.8;" x="329.981736" xlink:href="#m550d98fe8d"
                                 y="92.804259"/>
                        </g>
                    </g>
                    <g id="text_21">
                        <!-- 3 -->
                        <g transform="translate(318.566161 95.440917)scale(0.0694 -0.0694)">
                            <use xlink:href="#DejaVuSans-51"/>
                        </g>
                    </g>
                </g>
                <g id="ytick_10">
                    <g id="line2d_27">
                        <g>
                            <use style="stroke:#000000;stroke-width:0.8;" x="329.981736" xlink:href="#m550d98fe8d"
                                 y="66.042061"/>
                        </g>
                    </g>
                    <g id="text_22">
                        <!-- 4 -->
                        <g transform="translate(318.566161 68.678719)scale(0.0694 -0.0694)">
                            <use xlink:href="#DejaVuSans-52"/>
                        </g>
                    </g>
                </g>
                <g id="ytick_11">
                    <g id="line2d_28">
                        <g>
                            <use style="stroke:#000000;stroke-width:0.8;" x="329.981736" xlink:href="#m550d98fe8d"
                                 y="39.279864"/>
                        </g>
                    </g>
                    <g id="text_23">
                        <!-- 5 -->
                        <g transform="translate(318.566161 41.916522)scale(0.0694 -0.0694)">
                            <use xlink:href="#DejaVuSans-53"/>
                        </g>
                    </g>
                </g>
                <g id="ytick_12">
                    <g id="line2d_29">
                        <g>
                            <use style="stroke:#000000;stroke-width:0.8;" x="329.981736" xlink:href="#m550d98fe8d"
                                 y="12.517667"/>
                        </g>
                    </g>
                    <g id="text_24">
                        <!-- 6 -->
                        <g transform="translate(318.566161 15.154324)scale(0.0694 -0.0694)">
                            <use xlink:href="#DejaVuSans-54"/>
                        </g>
                    </g>
                </g>
                <g id="text_25">
                    <!-- Error (# std) -->
                    <g transform="translate(312.486473 121.947009)rotate(-90)scale(0.1 -0.1)">
                        <defs>
                            <path d="M 9.8125 72.90625
L 55.90625 72.90625 
L 55.90625 64.59375 
L 19.671875 64.59375 
L 19.671875 43.015625 
L 54.390625 43.015625 
L 54.390625 34.71875 
L 19.671875 34.71875 
L 19.671875 8.296875 
L 56.78125 8.296875 
L 56.78125 0 
L 9.8125 0 
z
" id="DejaVuSans-69"/>
                            <path d="M 51.125 44
L 36.921875 44 
L 32.8125 27.6875 
L 47.125 27.6875 
z
M 43.796875 71.78125 
L 38.71875 51.515625 
L 52.984375 51.515625 
L 58.109375 71.78125 
L 65.921875 71.78125 
L 60.890625 51.515625 
L 76.125 51.515625 
L 76.125 44 
L 58.984375 44 
L 54.984375 27.6875 
L 70.515625 27.6875 
L 70.515625 20.21875 
L 53.078125 20.21875 
L 48 0 
L 40.1875 0 
L 45.21875 20.21875 
L 30.90625 20.21875 
L 25.875 0 
L 18.015625 0 
L 23.09375 20.21875 
L 7.71875 20.21875 
L 7.71875 27.6875 
L 24.90625 27.6875 
L 29 44 
L 13.28125 44 
L 13.28125 51.515625 
L 30.90625 51.515625 
L 35.890625 71.78125 
z
" id="DejaVuSans-35"/>
                        </defs>
                        <use xlink:href="#DejaVuSans-69"/>
                        <use x="63.183594" xlink:href="#DejaVuSans-114"/>
                        <use x="102.546875" xlink:href="#DejaVuSans-114"/>
                        <use x="141.410156" xlink:href="#DejaVuSans-111"/>
                        <use x="202.591797" xlink:href="#DejaVuSans-114"/>
                        <use x="243.705078" xlink:href="#DejaVuSans-32"/>
                        <use x="275.492188" xlink:href="#DejaVuSans-40"/>
                        <use x="314.505859" xlink:href="#DejaVuSans-35"/>
                        <use x="398.294922" xlink:href="#DejaVuSans-32"/>
                        <use x="430.082031" xlink:href="#DejaVuSans-115"/>
                        <use x="482.181641" xlink:href="#DejaVuSans-116"/>
                        <use x="521.390625" xlink:href="#DejaVuSans-100"/>
                        <use x="584.867188" xlink:href="#DejaVuSans-41"/>
                    </g>
                </g>
            </g>
            <g id="LineCollection_2">
                <path clip-path="url(#p5f0753e978)" d="M 329.981736 119.566456
L 580.694894 119.566456 
" style="fill:none;stroke:#dc143c;stroke-width:1.5;"/>
            </g>
            <g id="patch_23">
                <path d="M 329.981736 173.090851
L 329.981736 8.415667 
" style="fill:none;stroke:#000000;stroke-linecap:square;stroke-linejoin:miter;stroke-width:0.8;"/>
            </g>
            <g id="patch_24">
                <path d="M 580.694894 173.090851
L 580.694894 8.415667 
" style="fill:none;stroke:#000000;stroke-linecap:square;stroke-linejoin:miter;stroke-width:0.8;"/>
            </g>
            <g id="patch_25">
                <path d="M 329.981736 173.090851
L 580.694894 173.090851 
" style="fill:none;stroke:#000000;stroke-linecap:square;stroke-linejoin:miter;stroke-width:0.8;"/>
            </g>
            <g id="patch_26">
                <path d="M 329.981736 8.415667
L 580.694894 8.415667 
" style="fill:none;stroke:#000000;stroke-linecap:square;stroke-linejoin:miter;stroke-width:0.8;"/>
            </g>
        </g>
    </g>
    <defs>
        <clipPath id="p3ee2fc6e4a">
            <rect height="164.675184" width="250.713158" x="38.914894" y="8.415667"/>
        </clipPath>
        <clipPath id="p5f0753e978">
            <rect height="164.675184" width="250.713158" x="329.981736" y="8.415667"/>
        </clipPath>
    </defs>
</svg>
