<?xml version="1.0" encoding="utf-8" standalone="no"?>
<!DOCTYPE svg PUBLIC "-//W3C//DTD SVG 1.1//EN"
        "http://www.w3.org/Graphics/SVG/1.1/DTD/svg11.dtd">
<!-- Created with matplotlib (https://matplotlib.org/) -->
<svg xmlns:xlink="http://www.w3.org/1999/xlink" height="207.961172pt" version="1.1" viewBox="0 0 587.849275 207.961172"
     width="587.849275pt" xmlns="http://www.w3.org/2000/svg">
    <metadata>
        <rdf:RDF xmlns:cc="http://creativecommons.org/ns#" xmlns:dc="http://purl.org/dc/elements/1.1/"
                 xmlns:rdf="http://www.w3.org/1999/02/22-rdf-syntax-ns#">
            <cc:Work>
                <dc:type rdf:resource="http://purl.org/dc/dcmitype/StillImage"/>
                <dc:date>2021-01-05T12:00:23.064020</dc:date>
                <dc:format>image/svg+xml</dc:format>
                <dc:creator>
                    <cc:Agent>
                        <dc:title>Matplotlib v3.3.3, https://matplotlib.org/</dc:title>
                    </cc:Agent>
                </dc:creator>
            </cc:Work>
        </rdf:RDF>
    </metadata>
    <defs>
        <style type="text/css">*{stroke-linecap:butt;stroke-linejoin:round;}</style>
    </defs>
    <g id="figure_1">
        <g id="patch_1">
            <path d="M 0 207.961172
L 587.849275 207.961172 
L 587.849275 0 
L 0 0 
z
" style="fill:#ffffff;"/>
        </g>
        <g id="axes_1">
            <g id="patch_2">
                <path d="M 36.709275 133.362785
L 580.649275 133.362785 
L 580.649275 7.2 
L 36.709275 7.2 
z
" style="fill:#ffffff;"/>
            </g>
            <g id="patch_3">
                <path clip-path="url(#pf91f5d924a)" d="M 42.811166 133.362785
L 51.528153 133.362785 
L 51.528153 33.523517 
L 42.811166 33.523517 
z
" style="fill:#ff6347;stroke:#ffffff;stroke-linejoin:miter;"/>
            </g>
            <g id="patch_4">
                <path clip-path="url(#pf91f5d924a)" d="M 95.113089 133.362785
L 103.830076 133.362785 
L 103.830076 125.838151 
L 95.113089 125.838151 
z
" style="fill:#ff6347;stroke:#ffffff;stroke-linejoin:miter;"/>
            </g>
            <g id="patch_5">
                <path clip-path="url(#pf91f5d924a)" d="M 147.415012 133.362785
L 156.131999 133.362785 
L 156.131999 125.496096 
L 147.415012 125.496096 
z
" style="fill:#ff6347;stroke:#ffffff;stroke-linejoin:miter;"/>
            </g>
            <g id="patch_6">
                <path clip-path="url(#pf91f5d924a)" d="M 199.716935 133.362785
L 208.433922 133.362785 
L 208.433922 94.598041 
L 199.716935 94.598041 
z
" style="fill:#ff6347;stroke:#ffffff;stroke-linejoin:miter;"/>
            </g>
            <g id="patch_7">
                <path clip-path="url(#pf91f5d924a)" d="M 252.018858 133.362785
L 260.735846 133.362785 
L 260.735846 120.581155 
L 252.018858 120.581155 
z
" style="fill:#ff6347;stroke:#ffffff;stroke-linejoin:miter;"/>
            </g>
            <g id="patch_8">
                <path clip-path="url(#pf91f5d924a)" d="M 304.320781 133.362785
L 313.037769 133.362785 
L 313.037769 82.523961 
L 304.320781 82.523961 
z
" style="fill:#ff6347;stroke:#ffffff;stroke-linejoin:miter;"/>
            </g>
            <g id="patch_9">
                <path clip-path="url(#pf91f5d924a)" d="M 356.622704 133.362785
L 365.339692 133.362785 
L 365.339692 52.572741 
L 356.622704 52.572741 
z
" style="fill:#ff6347;stroke:#ffffff;stroke-linejoin:miter;"/>
            </g>
            <g id="patch_10">
                <path clip-path="url(#pf91f5d924a)" d="M 408.924628 133.362785
L 417.641615 133.362785 
L 417.641615 41.103487 
L 408.924628 41.103487 
z
" style="fill:#ff6347;stroke:#ffffff;stroke-linejoin:miter;"/>
            </g>
            <g id="patch_11">
                <path clip-path="url(#pf91f5d924a)" d="M 461.226551 133.362785
L 469.943538 133.362785 
L 469.943538 45.650406 
L 461.226551 45.650406 
z
" style="fill:#ff6347;stroke:#ffffff;stroke-linejoin:miter;"/>
            </g>
            <g id="patch_12">
                <path clip-path="url(#pf91f5d924a)" d="M 513.528474 133.362785
L 522.245461 133.362785 
L 522.245461 13.207752 
L 513.528474 13.207752 
z
" style="fill:#ff6347;stroke:#ffffff;stroke-linejoin:miter;"/>
            </g>
            <g id="patch_13">
                <path clip-path="url(#pf91f5d924a)" d="M 51.528153 133.362785
L 60.24514 133.362785 
L 60.24514 123.033426 
L 51.528153 123.033426 
z
" style="fill:#daa520;stroke:#ffffff;stroke-linejoin:miter;"/>
            </g>
            <g id="patch_14">
                <path clip-path="url(#pf91f5d924a)" d="M 103.830076 133.362785
L 112.547063 133.362785 
L 112.547063 119.969222 
L 103.830076 119.969222 
z
" style="fill:#daa520;stroke:#ffffff;stroke-linejoin:miter;"/>
            </g>
            <g id="patch_15">
                <path clip-path="url(#pf91f5d924a)" d="M 156.131999 133.362785
L 164.848987 133.362785 
L 164.848987 126.430762 
L 156.131999 126.430762 
z
" style="fill:#daa520;stroke:#ffffff;stroke-linejoin:miter;"/>
            </g>
            <g id="patch_16">
                <path clip-path="url(#pf91f5d924a)" d="M 208.433922 133.362785
L 217.15091 133.362785 
L 217.15091 122.23133 
L 208.433922 122.23133 
z
" style="fill:#daa520;stroke:#ffffff;stroke-linejoin:miter;"/>
            </g>
            <g id="patch_17">
                <path clip-path="url(#pf91f5d924a)" d="M 260.735846 133.362785
L 269.452833 133.362785 
L 269.452833 121.861015 
L 260.735846 121.861015 
z
" style="fill:#daa520;stroke:#ffffff;stroke-linejoin:miter;"/>
            </g>
            <g id="patch_18">
                <path clip-path="url(#pf91f5d924a)" d="M 313.037769 133.362785
L 321.754756 133.362785 
L 321.754756 122.239678 
L 313.037769 122.239678 
z
" style="fill:#daa520;stroke:#ffffff;stroke-linejoin:miter;"/>
            </g>
            <g id="patch_19">
                <path clip-path="url(#pf91f5d924a)" d="M 365.339692 133.362785
L 374.056679 133.362785 
L 374.056679 122.458486 
L 365.339692 122.458486 
z
" style="fill:#daa520;stroke:#ffffff;stroke-linejoin:miter;"/>
            </g>
            <g id="patch_20">
                <path clip-path="url(#pf91f5d924a)" d="M 417.641615 133.362785
L 426.358602 133.362785 
L 426.358602 123.529783 
L 417.641615 123.529783 
z
" style="fill:#daa520;stroke:#ffffff;stroke-linejoin:miter;"/>
            </g>
            <g id="patch_21">
                <path clip-path="url(#pf91f5d924a)" d="M 469.943538 133.362785
L 478.660525 133.362785 
L 478.660525 125.631631 
L 469.943538 125.631631 
z
" style="fill:#daa520;stroke:#ffffff;stroke-linejoin:miter;"/>
            </g>
            <g id="patch_22">
                <path clip-path="url(#pf91f5d924a)" d="M 522.245461 133.362785
L 530.962448 133.362785 
L 530.962448 121.40571 
L 522.245461 121.40571 
z
" style="fill:#daa520;stroke:#ffffff;stroke-linejoin:miter;"/>
            </g>
            <g id="patch_23">
                <path clip-path="url(#pf91f5d924a)" d="M 60.24514 133.362785
L 68.962128 133.362785 
L 68.962128 56.29175 
L 60.24514 56.29175 
z
" style="fill:#228b22;stroke:#ffffff;stroke-linejoin:miter;"/>
            </g>
            <g id="patch_24">
                <path clip-path="url(#pf91f5d924a)" d="M 112.547063 133.362785
L 121.264051 133.362785 
L 121.264051 125.87653 
L 112.547063 125.87653 
z
" style="fill:#228b22;stroke:#ffffff;stroke-linejoin:miter;"/>
            </g>
            <g id="patch_25">
                <path clip-path="url(#pf91f5d924a)" d="M 164.848987 133.362785
L 173.565974 133.362785 
L 173.565974 125.864184 
L 164.848987 125.864184 
z
" style="fill:#228b22;stroke:#ffffff;stroke-linejoin:miter;"/>
            </g>
            <g id="patch_26">
                <path clip-path="url(#pf91f5d924a)" d="M 217.15091 133.362785
L 225.867897 133.362785 
L 225.867897 108.629116 
L 217.15091 108.629116 
z
" style="fill:#228b22;stroke:#ffffff;stroke-linejoin:miter;"/>
            </g>
            <g id="patch_27">
                <path clip-path="url(#pf91f5d924a)" d="M 269.452833 133.362785
L 278.16982 133.362785 
L 278.16982 121.705144 
L 269.452833 121.705144 
z
" style="fill:#228b22;stroke:#ffffff;stroke-linejoin:miter;"/>
            </g>
            <g id="patch_28">
                <path clip-path="url(#pf91f5d924a)" d="M 321.754756 133.362785
L 330.471743 133.362785 
L 330.471743 101.144477 
L 321.754756 101.144477 
z
" style="fill:#228b22;stroke:#ffffff;stroke-linejoin:miter;"/>
            </g>
            <g id="patch_29">
                <path clip-path="url(#pf91f5d924a)" d="M 374.056679 133.362785
L 382.773666 133.362785 
L 382.773666 88.097054 
L 374.056679 88.097054 
z
" style="fill:#228b22;stroke:#ffffff;stroke-linejoin:miter;"/>
            </g>
            <g id="patch_30">
                <path clip-path="url(#pf91f5d924a)" d="M 426.358602 133.362785
L 435.075589 133.362785 
L 435.075589 69.247583 
L 426.358602 69.247583 
z
" style="fill:#228b22;stroke:#ffffff;stroke-linejoin:miter;"/>
            </g>
            <g id="patch_31">
                <path clip-path="url(#pf91f5d924a)" d="M 478.660525 133.362785
L 487.377512 133.362785 
L 487.377512 74.928775 
L 478.660525 74.928775 
z
" style="fill:#228b22;stroke:#ffffff;stroke-linejoin:miter;"/>
            </g>
            <g id="patch_32">
                <path clip-path="url(#pf91f5d924a)" d="M 530.962448 133.362785
L 539.679435 133.362785 
L 539.679435 38.755724 
L 530.962448 38.755724 
z
" style="fill:#228b22;stroke:#ffffff;stroke-linejoin:miter;"/>
            </g>
            <g id="patch_33">
                <path clip-path="url(#pf91f5d924a)" d="M 68.962128 133.362785
L 77.679115 133.362785 
L 77.679115 125.202197 
L 68.962128 125.202197 
z
" style="fill:#9932cc;stroke:#ffffff;stroke-linejoin:miter;"/>
            </g>
            <g id="patch_34">
                <path clip-path="url(#pf91f5d924a)" d="M 121.264051 133.362785
L 129.981038 133.362785 
L 129.981038 130.8366 
L 121.264051 130.8366 
z
" style="fill:#9932cc;stroke:#ffffff;stroke-linejoin:miter;"/>
            </g>
            <g id="patch_35">
                <path clip-path="url(#pf91f5d924a)" d="M 173.565974 133.362785
L 182.282961 133.362785 
L 182.282961 127.875598 
L 173.565974 127.875598 
z
" style="fill:#9932cc;stroke:#ffffff;stroke-linejoin:miter;"/>
            </g>
            <g id="patch_36">
                <path clip-path="url(#pf91f5d924a)" d="M 225.867897 133.362785
L 234.584884 133.362785 
L 234.584884 129.095816 
L 225.867897 129.095816 
z
" style="fill:#9932cc;stroke:#ffffff;stroke-linejoin:miter;"/>
            </g>
            <g id="patch_37">
                <path clip-path="url(#pf91f5d924a)" d="M 278.16982 133.362785
L 286.886807 133.362785 
L 286.886807 126.225116 
L 278.16982 126.225116 
z
" style="fill:#9932cc;stroke:#ffffff;stroke-linejoin:miter;"/>
            </g>
            <g id="patch_38">
                <path clip-path="url(#pf91f5d924a)" d="M 330.471743 133.362785
L 339.18873 133.362785 
L 339.18873 126.112808 
L 330.471743 126.112808 
z
" style="fill:#9932cc;stroke:#ffffff;stroke-linejoin:miter;"/>
            </g>
            <g id="patch_39">
                <path clip-path="url(#pf91f5d924a)" d="M 382.773666 133.362785
L 391.490653 133.362785 
L 391.490653 126.281271 
L 382.773666 126.281271 
z
" style="fill:#9932cc;stroke:#ffffff;stroke-linejoin:miter;"/>
            </g>
            <g id="patch_40">
                <path clip-path="url(#pf91f5d924a)" d="M 435.075589 133.362785
L 443.792576 133.362785 
L 443.792576 126.714569 
L 435.075589 126.714569 
z
" style="fill:#9932cc;stroke:#ffffff;stroke-linejoin:miter;"/>
            </g>
            <g id="patch_41">
                <path clip-path="url(#pf91f5d924a)" d="M 487.377512 133.362785
L 496.094499 133.362785 
L 496.094499 128.227701 
L 487.377512 128.227701 
z
" style="fill:#9932cc;stroke:#ffffff;stroke-linejoin:miter;"/>
            </g>
            <g id="patch_42">
                <path clip-path="url(#pf91f5d924a)" d="M 539.679435 133.362785
L 548.396422 133.362785 
L 548.396422 124.479021 
L 539.679435 124.479021 
z
" style="fill:#9932cc;stroke:#ffffff;stroke-linejoin:miter;"/>
            </g>
            <g id="patch_43">
                <path clip-path="url(#pf91f5d924a)" d="M 77.679115 133.362785
L 86.396102 133.362785 
L 86.396102 128.447652 
L 77.679115 128.447652 
z
" style="fill:#000080;stroke:#ffffff;stroke-linejoin:miter;"/>
            </g>
            <g id="patch_44">
                <path clip-path="url(#pf91f5d924a)" d="M 129.981038 133.362785
L 138.698025 133.362785 
L 138.698025 127.637161 
L 129.981038 127.637161 
z
" style="fill:#000080;stroke:#ffffff;stroke-linejoin:miter;"/>
            </g>
            <g id="patch_45">
                <path clip-path="url(#pf91f5d924a)" d="M 182.282961 133.362785
L 190.999948 133.362785 
L 190.999948 127.308482 
L 182.282961 127.308482 
z
" style="fill:#000080;stroke:#ffffff;stroke-linejoin:miter;"/>
            </g>
            <g id="patch_46">
                <path clip-path="url(#pf91f5d924a)" d="M 234.584884 133.362785
L 243.301871 133.362785 
L 243.301871 127.559572 
L 234.584884 127.559572 
z
" style="fill:#000080;stroke:#ffffff;stroke-linejoin:miter;"/>
            </g>
            <g id="patch_47">
                <path clip-path="url(#pf91f5d924a)" d="M 286.886807 133.362785
L 295.603794 133.362785 
L 295.603794 129.897607 
L 286.886807 129.897607 
z
" style="fill:#000080;stroke:#ffffff;stroke-linejoin:miter;"/>
            </g>
            <g id="patch_48">
                <path clip-path="url(#pf91f5d924a)" d="M 339.18873 133.362785
L 347.905717 133.362785 
L 347.905717 130.60695 
L 339.18873 130.60695 
z
" style="fill:#000080;stroke:#ffffff;stroke-linejoin:miter;"/>
            </g>
            <g id="patch_49">
                <path clip-path="url(#pf91f5d924a)" d="M 391.490653 133.362785
L 400.20764 133.362785 
L 400.20764 130.654335 
L 391.490653 130.654335 
z
" style="fill:#000080;stroke:#ffffff;stroke-linejoin:miter;"/>
            </g>
            <g id="patch_50">
                <path clip-path="url(#pf91f5d924a)" d="M 443.792576 133.362785
L 452.509563 133.362785 
L 452.509563 131.098182 
L 443.792576 131.098182 
z
" style="fill:#000080;stroke:#ffffff;stroke-linejoin:miter;"/>
            </g>
            <g id="patch_51">
                <path clip-path="url(#pf91f5d924a)" d="M 496.094499 133.362785
L 504.811487 133.362785 
L 504.811487 131.056287 
L 496.094499 131.056287 
z
" style="fill:#000080;stroke:#ffffff;stroke-linejoin:miter;"/>
            </g>
            <g id="patch_52">
                <path clip-path="url(#pf91f5d924a)" d="M 548.396422 133.362785
L 557.11341 133.362785 
L 557.11341 126.95869 
L 548.396422 126.95869 
z
" style="fill:#000080;stroke:#ffffff;stroke-linejoin:miter;"/>
            </g>
            <g id="matplotlib.axis_1">
                <g id="xtick_1">
                    <g id="line2d_1">
                        <defs>
                            <path d="M 0 0
L 0 3.5 
" id="mf9ea50a165" style="stroke:#000000;stroke-width:0.8;"/>
                        </defs>
                        <g>
                            <use style="stroke:#000000;stroke-width:0.8;" x="64.603634" xlink:href="#mf9ea50a165"
                                 y="133.362785"/>
                        </g>
                    </g>
                    <g id="text_1">
                        <!-- spike_count -->
                        <g transform="translate(51.381087 173.108418)rotate(-45)scale(0.0694 -0.0694)">
                            <defs>
                                <path d="M 44.28125 53.078125
L 44.28125 44.578125 
Q 40.484375 46.53125 36.375 47.5 
Q 32.28125 48.484375 27.875 48.484375 
Q 21.1875 48.484375 17.84375 46.4375 
Q 14.5 44.390625 14.5 40.28125 
Q 14.5 37.15625 16.890625 35.375 
Q 19.28125 33.59375 26.515625 31.984375 
L 29.59375 31.296875 
Q 39.15625 29.25 43.1875 25.515625 
Q 47.21875 21.78125 47.21875 15.09375 
Q 47.21875 7.46875 41.1875 3.015625 
Q 35.15625 -1.421875 24.609375 -1.421875 
Q 20.21875 -1.421875 15.453125 -0.5625 
Q 10.6875 0.296875 5.421875 2 
L 5.421875 11.28125 
Q 10.40625 8.6875 15.234375 7.390625 
Q 20.0625 6.109375 24.8125 6.109375 
Q 31.15625 6.109375 34.5625 8.28125 
Q 37.984375 10.453125 37.984375 14.40625 
Q 37.984375 18.0625 35.515625 20.015625 
Q 33.0625 21.96875 24.703125 23.78125 
L 21.578125 24.515625 
Q 13.234375 26.265625 9.515625 29.90625 
Q 5.8125 33.546875 5.8125 39.890625 
Q 5.8125 47.609375 11.28125 51.796875 
Q 16.75 56 26.8125 56 
Q 31.78125 56 36.171875 55.265625 
Q 40.578125 54.546875 44.28125 53.078125 
z
" id="DejaVuSans-115"/>
                                <path d="M 18.109375 8.203125
L 18.109375 -20.796875 
L 9.078125 -20.796875 
L 9.078125 54.6875 
L 18.109375 54.6875 
L 18.109375 46.390625 
Q 20.953125 51.265625 25.265625 53.625 
Q 29.59375 56 35.59375 56 
Q 45.5625 56 51.78125 48.09375 
Q 58.015625 40.1875 58.015625 27.296875 
Q 58.015625 14.40625 51.78125 6.484375 
Q 45.5625 -1.421875 35.59375 -1.421875 
Q 29.59375 -1.421875 25.265625 0.953125 
Q 20.953125 3.328125 18.109375 8.203125 
z
M 48.6875 27.296875 
Q 48.6875 37.203125 44.609375 42.84375 
Q 40.53125 48.484375 33.40625 48.484375 
Q 26.265625 48.484375 22.1875 42.84375 
Q 18.109375 37.203125 18.109375 27.296875 
Q 18.109375 17.390625 22.1875 11.75 
Q 26.265625 6.109375 33.40625 6.109375 
Q 40.53125 6.109375 44.609375 11.75 
Q 48.6875 17.390625 48.6875 27.296875 
z
" id="DejaVuSans-112"/>
                                <path d="M 9.421875 54.6875
L 18.40625 54.6875 
L 18.40625 0 
L 9.421875 0 
z
M 9.421875 75.984375 
L 18.40625 75.984375 
L 18.40625 64.59375 
L 9.421875 64.59375 
z
" id="DejaVuSans-105"/>
                                <path d="M 9.078125 75.984375
L 18.109375 75.984375 
L 18.109375 31.109375 
L 44.921875 54.6875 
L 56.390625 54.6875 
L 27.390625 29.109375 
L 57.625 0 
L 45.90625 0 
L 18.109375 26.703125 
L 18.109375 0 
L 9.078125 0 
z
" id="DejaVuSans-107"/>
                                <path d="M 56.203125 29.59375
L 56.203125 25.203125 
L 14.890625 25.203125 
Q 15.484375 15.921875 20.484375 11.0625 
Q 25.484375 6.203125 34.421875 6.203125 
Q 39.59375 6.203125 44.453125 7.46875 
Q 49.3125 8.734375 54.109375 11.28125 
L 54.109375 2.78125 
Q 49.265625 0.734375 44.1875 -0.34375 
Q 39.109375 -1.421875 33.890625 -1.421875 
Q 20.796875 -1.421875 13.15625 6.1875 
Q 5.515625 13.8125 5.515625 26.8125 
Q 5.515625 40.234375 12.765625 48.109375 
Q 20.015625 56 32.328125 56 
Q 43.359375 56 49.78125 48.890625 
Q 56.203125 41.796875 56.203125 29.59375 
z
M 47.21875 32.234375 
Q 47.125 39.59375 43.09375 43.984375 
Q 39.0625 48.390625 32.421875 48.390625 
Q 24.90625 48.390625 20.390625 44.140625 
Q 15.875 39.890625 15.1875 32.171875 
z
" id="DejaVuSans-101"/>
                                <path d="M 50.984375 -16.609375
L 50.984375 -23.578125 
L -0.984375 -23.578125 
L -0.984375 -16.609375 
z
" id="DejaVuSans-95"/>
                                <path d="M 48.78125 52.59375
L 48.78125 44.1875 
Q 44.96875 46.296875 41.140625 47.34375 
Q 37.3125 48.390625 33.40625 48.390625 
Q 24.65625 48.390625 19.8125 42.84375 
Q 14.984375 37.3125 14.984375 27.296875 
Q 14.984375 17.28125 19.8125 11.734375 
Q 24.65625 6.203125 33.40625 6.203125 
Q 37.3125 6.203125 41.140625 7.25 
Q 44.96875 8.296875 48.78125 10.40625 
L 48.78125 2.09375 
Q 45.015625 0.34375 40.984375 -0.53125 
Q 36.96875 -1.421875 32.421875 -1.421875 
Q 20.0625 -1.421875 12.78125 6.34375 
Q 5.515625 14.109375 5.515625 27.296875 
Q 5.515625 40.671875 12.859375 48.328125 
Q 20.21875 56 33.015625 56 
Q 37.15625 56 41.109375 55.140625 
Q 45.0625 54.296875 48.78125 52.59375 
z
" id="DejaVuSans-99"/>
                                <path d="M 30.609375 48.390625
Q 23.390625 48.390625 19.1875 42.75 
Q 14.984375 37.109375 14.984375 27.296875 
Q 14.984375 17.484375 19.15625 11.84375 
Q 23.34375 6.203125 30.609375 6.203125 
Q 37.796875 6.203125 41.984375 11.859375 
Q 46.1875 17.53125 46.1875 27.296875 
Q 46.1875 37.015625 41.984375 42.703125 
Q 37.796875 48.390625 30.609375 48.390625 
z
M 30.609375 56 
Q 42.328125 56 49.015625 48.375 
Q 55.71875 40.765625 55.71875 27.296875 
Q 55.71875 13.875 49.015625 6.21875 
Q 42.328125 -1.421875 30.609375 -1.421875 
Q 18.84375 -1.421875 12.171875 6.21875 
Q 5.515625 13.875 5.515625 27.296875 
Q 5.515625 40.765625 12.171875 48.375 
Q 18.84375 56 30.609375 56 
z
" id="DejaVuSans-111"/>
                                <path d="M 8.5 21.578125
L 8.5 54.6875 
L 17.484375 54.6875 
L 17.484375 21.921875 
Q 17.484375 14.15625 20.5 10.265625 
Q 23.53125 6.390625 29.59375 6.390625 
Q 36.859375 6.390625 41.078125 11.03125 
Q 45.3125 15.671875 45.3125 23.6875 
L 45.3125 54.6875 
L 54.296875 54.6875 
L 54.296875 0 
L 45.3125 0 
L 45.3125 8.40625 
Q 42.046875 3.421875 37.71875 1 
Q 33.40625 -1.421875 27.6875 -1.421875 
Q 18.265625 -1.421875 13.375 4.4375 
Q 8.5 10.296875 8.5 21.578125 
z
M 31.109375 56 
z
" id="DejaVuSans-117"/>
                                <path d="M 54.890625 33.015625
L 54.890625 0 
L 45.90625 0 
L 45.90625 32.71875 
Q 45.90625 40.484375 42.875 44.328125 
Q 39.84375 48.1875 33.796875 48.1875 
Q 26.515625 48.1875 22.3125 43.546875 
Q 18.109375 38.921875 18.109375 30.90625 
L 18.109375 0 
L 9.078125 0 
L 9.078125 54.6875 
L 18.109375 54.6875 
L 18.109375 46.1875 
Q 21.34375 51.125 25.703125 53.5625 
Q 30.078125 56 35.796875 56 
Q 45.21875 56 50.046875 50.171875 
Q 54.890625 44.34375 54.890625 33.015625 
z
" id="DejaVuSans-110"/>
                                <path d="M 18.3125 70.21875
L 18.3125 54.6875 
L 36.8125 54.6875 
L 36.8125 47.703125 
L 18.3125 47.703125 
L 18.3125 18.015625 
Q 18.3125 11.328125 20.140625 9.421875 
Q 21.96875 7.515625 27.59375 7.515625 
L 36.8125 7.515625 
L 36.8125 0 
L 27.59375 0 
Q 17.1875 0 13.234375 3.875 
Q 9.28125 7.765625 9.28125 18.015625 
L 9.28125 47.703125 
L 2.6875 47.703125 
L 2.6875 54.6875 
L 9.28125 54.6875 
L 9.28125 70.21875 
z
" id="DejaVuSans-116"/>
                            </defs>
                            <use xlink:href="#DejaVuSans-115"/>
                            <use x="52.099609" xlink:href="#DejaVuSans-112"/>
                            <use x="115.576172" xlink:href="#DejaVuSans-105"/>
                            <use x="143.359375" xlink:href="#DejaVuSans-107"/>
                            <use x="197.644531" xlink:href="#DejaVuSans-101"/>
                            <use x="259.167969" xlink:href="#DejaVuSans-95"/>
                            <use x="309.167969" xlink:href="#DejaVuSans-99"/>
                            <use x="364.148438" xlink:href="#DejaVuSans-111"/>
                            <use x="425.330078" xlink:href="#DejaVuSans-117"/>
                            <use x="488.708984" xlink:href="#DejaVuSans-110"/>
                            <use x="552.087891" xlink:href="#DejaVuSans-116"/>
                        </g>
                    </g>
                </g>
                <g id="xtick_2">
                    <g id="line2d_2">
                        <g>
                            <use style="stroke:#000000;stroke-width:0.8;" x="116.905557" xlink:href="#mf9ea50a165"
                                 y="133.362785"/>
                        </g>
                    </g>
                    <g id="text_2">
                        <!-- time_to_last_spike -->
                        <g transform="translate(95.719732 189.034975)rotate(-45)scale(0.0694 -0.0694)">
                            <defs>
                                <path d="M 52 44.1875
Q 55.375 50.25 60.0625 53.125 
Q 64.75 56 71.09375 56 
Q 79.640625 56 84.28125 50.015625 
Q 88.921875 44.046875 88.921875 33.015625 
L 88.921875 0 
L 79.890625 0 
L 79.890625 32.71875 
Q 79.890625 40.578125 77.09375 44.375 
Q 74.3125 48.1875 68.609375 48.1875 
Q 61.625 48.1875 57.5625 43.546875 
Q 53.515625 38.921875 53.515625 30.90625 
L 53.515625 0 
L 44.484375 0 
L 44.484375 32.71875 
Q 44.484375 40.625 41.703125 44.40625 
Q 38.921875 48.1875 33.109375 48.1875 
Q 26.21875 48.1875 22.15625 43.53125 
Q 18.109375 38.875 18.109375 30.90625 
L 18.109375 0 
L 9.078125 0 
L 9.078125 54.6875 
L 18.109375 54.6875 
L 18.109375 46.1875 
Q 21.1875 51.21875 25.484375 53.609375 
Q 29.78125 56 35.6875 56 
Q 41.65625 56 45.828125 52.96875 
Q 50 49.953125 52 44.1875 
z
" id="DejaVuSans-109"/>
                                <path d="M 9.421875 75.984375
L 18.40625 75.984375 
L 18.40625 0 
L 9.421875 0 
z
" id="DejaVuSans-108"/>
                                <path d="M 34.28125 27.484375
Q 23.390625 27.484375 19.1875 25 
Q 14.984375 22.515625 14.984375 16.5 
Q 14.984375 11.71875 18.140625 8.90625 
Q 21.296875 6.109375 26.703125 6.109375 
Q 34.1875 6.109375 38.703125 11.40625 
Q 43.21875 16.703125 43.21875 25.484375 
L 43.21875 27.484375 
z
M 52.203125 31.203125 
L 52.203125 0 
L 43.21875 0 
L 43.21875 8.296875 
Q 40.140625 3.328125 35.546875 0.953125 
Q 30.953125 -1.421875 24.3125 -1.421875 
Q 15.921875 -1.421875 10.953125 3.296875 
Q 6 8.015625 6 15.921875 
Q 6 25.140625 12.171875 29.828125 
Q 18.359375 34.515625 30.609375 34.515625 
L 43.21875 34.515625 
L 43.21875 35.40625 
Q 43.21875 41.609375 39.140625 45 
Q 35.0625 48.390625 27.6875 48.390625 
Q 23 48.390625 18.546875 47.265625 
Q 14.109375 46.140625 10.015625 43.890625 
L 10.015625 52.203125 
Q 14.9375 54.109375 19.578125 55.046875 
Q 24.21875 56 28.609375 56 
Q 40.484375 56 46.34375 49.84375 
Q 52.203125 43.703125 52.203125 31.203125 
z
" id="DejaVuSans-97"/>
                            </defs>
                            <use xlink:href="#DejaVuSans-116"/>
                            <use x="39.208984" xlink:href="#DejaVuSans-105"/>
                            <use x="66.992188" xlink:href="#DejaVuSans-109"/>
                            <use x="164.404297" xlink:href="#DejaVuSans-101"/>
                            <use x="225.927734" xlink:href="#DejaVuSans-95"/>
                            <use x="275.927734" xlink:href="#DejaVuSans-116"/>
                            <use x="315.136719" xlink:href="#DejaVuSans-111"/>
                            <use x="376.318359" xlink:href="#DejaVuSans-95"/>
                            <use x="426.318359" xlink:href="#DejaVuSans-108"/>
                            <use x="454.101562" xlink:href="#DejaVuSans-97"/>
                            <use x="515.380859" xlink:href="#DejaVuSans-115"/>
                            <use x="567.480469" xlink:href="#DejaVuSans-116"/>
                            <use x="606.689453" xlink:href="#DejaVuSans-95"/>
                            <use x="656.689453" xlink:href="#DejaVuSans-115"/>
                            <use x="708.789062" xlink:href="#DejaVuSans-112"/>
                            <use x="772.265625" xlink:href="#DejaVuSans-105"/>
                            <use x="800.048828" xlink:href="#DejaVuSans-107"/>
                            <use x="854.333984" xlink:href="#DejaVuSans-101"/>
                        </g>
                    </g>
                </g>
                <g id="xtick_3">
                    <g id="line2d_3">
                        <g>
                            <use style="stroke:#000000;stroke-width:0.8;" x="169.20748" xlink:href="#mf9ea50a165"
                                 y="133.362785"/>
                        </g>
                    </g>
                    <g id="text_3">
                        <!-- time_to_first_spike -->
                        <g transform="translate(147.652839 189.772607)rotate(-45)scale(0.0694 -0.0694)">
                            <defs>
                                <path d="M 37.109375 75.984375
L 37.109375 68.5 
L 28.515625 68.5 
Q 23.6875 68.5 21.796875 66.546875 
Q 19.921875 64.59375 19.921875 59.515625 
L 19.921875 54.6875 
L 34.71875 54.6875 
L 34.71875 47.703125 
L 19.921875 47.703125 
L 19.921875 0 
L 10.890625 0 
L 10.890625 47.703125 
L 2.296875 47.703125 
L 2.296875 54.6875 
L 10.890625 54.6875 
L 10.890625 58.5 
Q 10.890625 67.625 15.140625 71.796875 
Q 19.390625 75.984375 28.609375 75.984375 
z
" id="DejaVuSans-102"/>
                                <path d="M 41.109375 46.296875
Q 39.59375 47.171875 37.8125 47.578125 
Q 36.03125 48 33.890625 48 
Q 26.265625 48 22.1875 43.046875 
Q 18.109375 38.09375 18.109375 28.8125 
L 18.109375 0 
L 9.078125 0 
L 9.078125 54.6875 
L 18.109375 54.6875 
L 18.109375 46.1875 
Q 20.953125 51.171875 25.484375 53.578125 
Q 30.03125 56 36.53125 56 
Q 37.453125 56 38.578125 55.875 
Q 39.703125 55.765625 41.0625 55.515625 
z
" id="DejaVuSans-114"/>
                            </defs>
                            <use xlink:href="#DejaVuSans-116"/>
                            <use x="39.208984" xlink:href="#DejaVuSans-105"/>
                            <use x="66.992188" xlink:href="#DejaVuSans-109"/>
                            <use x="164.404297" xlink:href="#DejaVuSans-101"/>
                            <use x="225.927734" xlink:href="#DejaVuSans-95"/>
                            <use x="275.927734" xlink:href="#DejaVuSans-116"/>
                            <use x="315.136719" xlink:href="#DejaVuSans-111"/>
                            <use x="376.318359" xlink:href="#DejaVuSans-95"/>
                            <use x="426.318359" xlink:href="#DejaVuSans-102"/>
                            <use x="461.523438" xlink:href="#DejaVuSans-105"/>
                            <use x="489.306641" xlink:href="#DejaVuSans-114"/>
                            <use x="530.419922" xlink:href="#DejaVuSans-115"/>
                            <use x="582.519531" xlink:href="#DejaVuSans-116"/>
                            <use x="621.728516" xlink:href="#DejaVuSans-95"/>
                            <use x="671.728516" xlink:href="#DejaVuSans-115"/>
                            <use x="723.828125" xlink:href="#DejaVuSans-112"/>
                            <use x="787.304688" xlink:href="#DejaVuSans-105"/>
                            <use x="815.087891" xlink:href="#DejaVuSans-107"/>
                            <use x="869.373047" xlink:href="#DejaVuSans-101"/>
                        </g>
                    </g>
                </g>
                <g id="xtick_4">
                    <g id="line2d_4">
                        <g>
                            <use style="stroke:#000000;stroke-width:0.8;" x="221.509403" xlink:href="#mf9ea50a165"
                                 y="133.362785"/>
                        </g>
                    </g>
                    <g id="text_4">
                        <!-- inv_time_to_first_spike -->
                        <g transform="translate(195.039007 199.604118)rotate(-45)scale(0.0694 -0.0694)">
                            <defs>
                                <path d="M 2.984375 54.6875
L 12.5 54.6875 
L 29.59375 8.796875 
L 46.6875 54.6875 
L 56.203125 54.6875 
L 35.6875 0 
L 23.484375 0 
z
" id="DejaVuSans-118"/>
                            </defs>
                            <use xlink:href="#DejaVuSans-105"/>
                            <use x="27.783203" xlink:href="#DejaVuSans-110"/>
                            <use x="91.162109" xlink:href="#DejaVuSans-118"/>
                            <use x="150.341797" xlink:href="#DejaVuSans-95"/>
                            <use x="200.341797" xlink:href="#DejaVuSans-116"/>
                            <use x="239.550781" xlink:href="#DejaVuSans-105"/>
                            <use x="267.333984" xlink:href="#DejaVuSans-109"/>
                            <use x="364.746094" xlink:href="#DejaVuSans-101"/>
                            <use x="426.269531" xlink:href="#DejaVuSans-95"/>
                            <use x="476.269531" xlink:href="#DejaVuSans-116"/>
                            <use x="515.478516" xlink:href="#DejaVuSans-111"/>
                            <use x="576.660156" xlink:href="#DejaVuSans-95"/>
                            <use x="626.660156" xlink:href="#DejaVuSans-102"/>
                            <use x="661.865234" xlink:href="#DejaVuSans-105"/>
                            <use x="689.648438" xlink:href="#DejaVuSans-114"/>
                            <use x="730.761719" xlink:href="#DejaVuSans-115"/>
                            <use x="782.861328" xlink:href="#DejaVuSans-116"/>
                            <use x="822.070312" xlink:href="#DejaVuSans-95"/>
                            <use x="872.070312" xlink:href="#DejaVuSans-115"/>
                            <use x="924.169922" xlink:href="#DejaVuSans-112"/>
                            <use x="987.646484" xlink:href="#DejaVuSans-105"/>
                            <use x="1015.429688" xlink:href="#DejaVuSans-107"/>
                            <use x="1069.714844" xlink:href="#DejaVuSans-101"/>
                        </g>
                    </g>
                </g>
                <g id="xtick_5">
                    <g id="line2d_5">
                        <g>
                            <use style="stroke:#000000;stroke-width:0.8;" x="273.811326" xlink:href="#mf9ea50a165"
                                 y="133.362785"/>
                        </g>
                    </g>
                    <g id="text_5">
                        <!-- inv_first_ISI -->
                        <g transform="translate(261.155039 171.975901)rotate(-45)scale(0.0694 -0.0694)">
                            <defs>
                                <path d="M 9.8125 72.90625
L 19.671875 72.90625 
L 19.671875 0 
L 9.8125 0 
z
" id="DejaVuSans-73"/>
                                <path d="M 53.515625 70.515625
L 53.515625 60.890625 
Q 47.90625 63.578125 42.921875 64.890625 
Q 37.9375 66.21875 33.296875 66.21875 
Q 25.25 66.21875 20.875 63.09375 
Q 16.5 59.96875 16.5 54.203125 
Q 16.5 49.359375 19.40625 46.890625 
Q 22.3125 44.4375 30.421875 42.921875 
L 36.375 41.703125 
Q 47.40625 39.59375 52.65625 34.296875 
Q 57.90625 29 57.90625 20.125 
Q 57.90625 9.515625 50.796875 4.046875 
Q 43.703125 -1.421875 29.984375 -1.421875 
Q 24.8125 -1.421875 18.96875 -0.25 
Q 13.140625 0.921875 6.890625 3.21875 
L 6.890625 13.375 
Q 12.890625 10.015625 18.65625 8.296875 
Q 24.421875 6.59375 29.984375 6.59375 
Q 38.421875 6.59375 43.015625 9.90625 
Q 47.609375 13.234375 47.609375 19.390625 
Q 47.609375 24.75 44.3125 27.78125 
Q 41.015625 30.8125 33.5 32.328125 
L 27.484375 33.5 
Q 16.453125 35.6875 11.515625 40.375 
Q 6.59375 45.0625 6.59375 53.421875 
Q 6.59375 63.09375 13.40625 68.65625 
Q 20.21875 74.21875 32.171875 74.21875 
Q 37.3125 74.21875 42.625 73.28125 
Q 47.953125 72.359375 53.515625 70.515625 
z
" id="DejaVuSans-83"/>
                            </defs>
                            <use xlink:href="#DejaVuSans-105"/>
                            <use x="27.783203" xlink:href="#DejaVuSans-110"/>
                            <use x="91.162109" xlink:href="#DejaVuSans-118"/>
                            <use x="150.341797" xlink:href="#DejaVuSans-95"/>
                            <use x="200.341797" xlink:href="#DejaVuSans-102"/>
                            <use x="235.546875" xlink:href="#DejaVuSans-105"/>
                            <use x="263.330078" xlink:href="#DejaVuSans-114"/>
                            <use x="304.443359" xlink:href="#DejaVuSans-115"/>
                            <use x="356.542969" xlink:href="#DejaVuSans-116"/>
                            <use x="395.751953" xlink:href="#DejaVuSans-95"/>
                            <use x="445.751953" xlink:href="#DejaVuSans-73"/>
                            <use x="475.244141" xlink:href="#DejaVuSans-83"/>
                            <use x="538.720703" xlink:href="#DejaVuSans-73"/>
                        </g>
                    </g>
                </g>
                <g id="xtick_6">
                    <g id="line2d_6">
                        <g>
                            <use style="stroke:#000000;stroke-width:0.8;" x="326.113249" xlink:href="#mf9ea50a165"
                                 y="133.362785"/>
                        </g>
                    </g>
                    <g id="text_6">
                        <!-- inv_second_ISI -->
                        <g transform="translate(309.500051 179.889723)rotate(-45)scale(0.0694 -0.0694)">
                            <defs>
                                <path d="M 45.40625 46.390625
L 45.40625 75.984375 
L 54.390625 75.984375 
L 54.390625 0 
L 45.40625 0 
L 45.40625 8.203125 
Q 42.578125 3.328125 38.25 0.953125 
Q 33.9375 -1.421875 27.875 -1.421875 
Q 17.96875 -1.421875 11.734375 6.484375 
Q 5.515625 14.40625 5.515625 27.296875 
Q 5.515625 40.1875 11.734375 48.09375 
Q 17.96875 56 27.875 56 
Q 33.9375 56 38.25 53.625 
Q 42.578125 51.265625 45.40625 46.390625 
z
M 14.796875 27.296875 
Q 14.796875 17.390625 18.875 11.75 
Q 22.953125 6.109375 30.078125 6.109375 
Q 37.203125 6.109375 41.296875 11.75 
Q 45.40625 17.390625 45.40625 27.296875 
Q 45.40625 37.203125 41.296875 42.84375 
Q 37.203125 48.484375 30.078125 48.484375 
Q 22.953125 48.484375 18.875 42.84375 
Q 14.796875 37.203125 14.796875 27.296875 
z
" id="DejaVuSans-100"/>
                            </defs>
                            <use xlink:href="#DejaVuSans-105"/>
                            <use x="27.783203" xlink:href="#DejaVuSans-110"/>
                            <use x="91.162109" xlink:href="#DejaVuSans-118"/>
                            <use x="150.341797" xlink:href="#DejaVuSans-95"/>
                            <use x="200.341797" xlink:href="#DejaVuSans-115"/>
                            <use x="252.441406" xlink:href="#DejaVuSans-101"/>
                            <use x="313.964844" xlink:href="#DejaVuSans-99"/>
                            <use x="368.945312" xlink:href="#DejaVuSans-111"/>
                            <use x="430.126953" xlink:href="#DejaVuSans-110"/>
                            <use x="493.505859" xlink:href="#DejaVuSans-100"/>
                            <use x="556.982422" xlink:href="#DejaVuSans-95"/>
                            <use x="606.982422" xlink:href="#DejaVuSans-73"/>
                            <use x="636.474609" xlink:href="#DejaVuSans-83"/>
                            <use x="699.951172" xlink:href="#DejaVuSans-73"/>
                        </g>
                    </g>
                </g>
                <g id="xtick_7">
                    <g id="line2d_7">
                        <g>
                            <use style="stroke:#000000;stroke-width:0.8;" x="378.415172" xlink:href="#mf9ea50a165"
                                 y="133.362785"/>
                        </g>
                    </g>
                    <g id="text_7">
                        <!-- inv_third_ISI -->
                        <g transform="translate(364.831094 173.831481)rotate(-45)scale(0.0694 -0.0694)">
                            <defs>
                                <path d="M 54.890625 33.015625
L 54.890625 0 
L 45.90625 0 
L 45.90625 32.71875 
Q 45.90625 40.484375 42.875 44.328125 
Q 39.84375 48.1875 33.796875 48.1875 
Q 26.515625 48.1875 22.3125 43.546875 
Q 18.109375 38.921875 18.109375 30.90625 
L 18.109375 0 
L 9.078125 0 
L 9.078125 75.984375 
L 18.109375 75.984375 
L 18.109375 46.1875 
Q 21.34375 51.125 25.703125 53.5625 
Q 30.078125 56 35.796875 56 
Q 45.21875 56 50.046875 50.171875 
Q 54.890625 44.34375 54.890625 33.015625 
z
" id="DejaVuSans-104"/>
                            </defs>
                            <use xlink:href="#DejaVuSans-105"/>
                            <use x="27.783203" xlink:href="#DejaVuSans-110"/>
                            <use x="91.162109" xlink:href="#DejaVuSans-118"/>
                            <use x="150.341797" xlink:href="#DejaVuSans-95"/>
                            <use x="200.341797" xlink:href="#DejaVuSans-116"/>
                            <use x="239.550781" xlink:href="#DejaVuSans-104"/>
                            <use x="302.929688" xlink:href="#DejaVuSans-105"/>
                            <use x="330.712891" xlink:href="#DejaVuSans-114"/>
                            <use x="370.076172" xlink:href="#DejaVuSans-100"/>
                            <use x="433.552734" xlink:href="#DejaVuSans-95"/>
                            <use x="483.552734" xlink:href="#DejaVuSans-73"/>
                            <use x="513.044922" xlink:href="#DejaVuSans-83"/>
                            <use x="576.521484" xlink:href="#DejaVuSans-73"/>
                        </g>
                    </g>
                </g>
                <g id="xtick_8">
                    <g id="line2d_8">
                        <g>
                            <use style="stroke:#000000;stroke-width:0.8;" x="430.717096" xlink:href="#mf9ea50a165"
                                 y="133.362785"/>
                        </g>
                    </g>
                    <g id="text_8">
                        <!-- inv_fourth_ISI -->
                        <g transform="translate(415.409321 177.278874)rotate(-45)scale(0.0694 -0.0694)">
                            <use xlink:href="#DejaVuSans-105"/>
                            <use x="27.783203" xlink:href="#DejaVuSans-110"/>
                            <use x="91.162109" xlink:href="#DejaVuSans-118"/>
                            <use x="150.341797" xlink:href="#DejaVuSans-95"/>
                            <use x="200.341797" xlink:href="#DejaVuSans-102"/>
                            <use x="235.546875" xlink:href="#DejaVuSans-111"/>
                            <use x="296.728516" xlink:href="#DejaVuSans-117"/>
                            <use x="360.107422" xlink:href="#DejaVuSans-114"/>
                            <use x="401.220703" xlink:href="#DejaVuSans-116"/>
                            <use x="440.429688" xlink:href="#DejaVuSans-104"/>
                            <use x="503.808594" xlink:href="#DejaVuSans-95"/>
                            <use x="553.808594" xlink:href="#DejaVuSans-73"/>
                            <use x="583.300781" xlink:href="#DejaVuSans-83"/>
                            <use x="646.777344" xlink:href="#DejaVuSans-73"/>
                        </g>
                    </g>
                </g>
                <g id="xtick_9">
                    <g id="line2d_9">
                        <g>
                            <use style="stroke:#000000;stroke-width:0.8;" x="483.019019" xlink:href="#mf9ea50a165"
                                 y="133.362785"/>
                        </g>
                    </g>
                    <g id="text_9">
                        <!-- inv_fifth_ISI -->
                        <g transform="translate(470.273786 172.153791)rotate(-45)scale(0.0694 -0.0694)">
                            <use xlink:href="#DejaVuSans-105"/>
                            <use x="27.783203" xlink:href="#DejaVuSans-110"/>
                            <use x="91.162109" xlink:href="#DejaVuSans-118"/>
                            <use x="150.341797" xlink:href="#DejaVuSans-95"/>
                            <use x="200.341797" xlink:href="#DejaVuSans-102"/>
                            <use x="235.546875" xlink:href="#DejaVuSans-105"/>
                            <use x="263.330078" xlink:href="#DejaVuSans-102"/>
                            <use x="296.785156" xlink:href="#DejaVuSans-116"/>
                            <use x="335.994141" xlink:href="#DejaVuSans-104"/>
                            <use x="399.373047" xlink:href="#DejaVuSans-95"/>
                            <use x="449.373047" xlink:href="#DejaVuSans-73"/>
                            <use x="478.865234" xlink:href="#DejaVuSans-83"/>
                            <use x="542.341797" xlink:href="#DejaVuSans-73"/>
                        </g>
                    </g>
                </g>
                <g id="xtick_10">
                    <g id="line2d_10">
                        <g>
                            <use style="stroke:#000000;stroke-width:0.8;" x="535.320942" xlink:href="#mf9ea50a165"
                                 y="133.362785"/>
                        </g>
                    </g>
                    <g id="text_10">
                        <!-- inv_last_ISI -->
                        <g transform="translate(523.03347 171.238269)rotate(-45)scale(0.0694 -0.0694)">
                            <use xlink:href="#DejaVuSans-105"/>
                            <use x="27.783203" xlink:href="#DejaVuSans-110"/>
                            <use x="91.162109" xlink:href="#DejaVuSans-118"/>
                            <use x="150.341797" xlink:href="#DejaVuSans-95"/>
                            <use x="200.341797" xlink:href="#DejaVuSans-108"/>
                            <use x="228.125" xlink:href="#DejaVuSans-97"/>
                            <use x="289.404297" xlink:href="#DejaVuSans-115"/>
                            <use x="341.503906" xlink:href="#DejaVuSans-116"/>
                            <use x="380.712891" xlink:href="#DejaVuSans-95"/>
                            <use x="430.712891" xlink:href="#DejaVuSans-73"/>
                            <use x="460.205078" xlink:href="#DejaVuSans-83"/>
                            <use x="523.681641" xlink:href="#DejaVuSans-73"/>
                        </g>
                    </g>
                </g>
            </g>
            <g id="matplotlib.axis_2">
                <g id="ytick_1">
                    <g id="line2d_11">
                        <defs>
                            <path d="M 0 0
L -3.5 0 
" id="m2f93ce6057" style="stroke:#000000;stroke-width:0.8;"/>
                        </defs>
                        <g>
                            <use style="stroke:#000000;stroke-width:0.8;" x="36.709275" xlink:href="#m2f93ce6057"
                                 y="133.362785"/>
                        </g>
                    </g>
                    <g id="text_11">
                        <!-- 0 -->
                        <g transform="translate(25.2937 135.999443)scale(0.0694 -0.0694)">
                            <defs>
                                <path d="M 31.78125 66.40625
Q 24.171875 66.40625 20.328125 58.90625 
Q 16.5 51.421875 16.5 36.375 
Q 16.5 21.390625 20.328125 13.890625 
Q 24.171875 6.390625 31.78125 6.390625 
Q 39.453125 6.390625 43.28125 13.890625 
Q 47.125 21.390625 47.125 36.375 
Q 47.125 51.421875 43.28125 58.90625 
Q 39.453125 66.40625 31.78125 66.40625 
z
M 31.78125 74.21875 
Q 44.046875 74.21875 50.515625 64.515625 
Q 56.984375 54.828125 56.984375 36.375 
Q 56.984375 17.96875 50.515625 8.265625 
Q 44.046875 -1.421875 31.78125 -1.421875 
Q 19.53125 -1.421875 13.0625 8.265625 
Q 6.59375 17.96875 6.59375 36.375 
Q 6.59375 54.828125 13.0625 64.515625 
Q 19.53125 74.21875 31.78125 74.21875 
z
" id="DejaVuSans-48"/>
                            </defs>
                            <use xlink:href="#DejaVuSans-48"/>
                        </g>
                    </g>
                </g>
                <g id="ytick_2">
                    <g id="line2d_12">
                        <g>
                            <use style="stroke:#000000;stroke-width:0.8;" x="36.709275" xlink:href="#m2f93ce6057"
                                 y="118.185943"/>
                        </g>
                    </g>
                    <g id="text_12">
                        <!-- 2 -->
                        <g transform="translate(25.2937 120.822601)scale(0.0694 -0.0694)">
                            <defs>
                                <path d="M 19.1875 8.296875
L 53.609375 8.296875 
L 53.609375 0 
L 7.328125 0 
L 7.328125 8.296875 
Q 12.9375 14.109375 22.625 23.890625 
Q 32.328125 33.6875 34.8125 36.53125 
Q 39.546875 41.84375 41.421875 45.53125 
Q 43.3125 49.21875 43.3125 52.78125 
Q 43.3125 58.59375 39.234375 62.25 
Q 35.15625 65.921875 28.609375 65.921875 
Q 23.96875 65.921875 18.8125 64.3125 
Q 13.671875 62.703125 7.8125 59.421875 
L 7.8125 69.390625 
Q 13.765625 71.78125 18.9375 73 
Q 24.125 74.21875 28.421875 74.21875 
Q 39.75 74.21875 46.484375 68.546875 
Q 53.21875 62.890625 53.21875 53.421875 
Q 53.21875 48.921875 51.53125 44.890625 
Q 49.859375 40.875 45.40625 35.40625 
Q 44.1875 33.984375 37.640625 27.21875 
Q 31.109375 20.453125 19.1875 8.296875 
z
" id="DejaVuSans-50"/>
                            </defs>
                            <use xlink:href="#DejaVuSans-50"/>
                        </g>
                    </g>
                </g>
                <g id="ytick_3">
                    <g id="line2d_13">
                        <g>
                            <use style="stroke:#000000;stroke-width:0.8;" x="36.709275" xlink:href="#m2f93ce6057"
                                 y="103.009101"/>
                        </g>
                    </g>
                    <g id="text_13">
                        <!-- 4 -->
                        <g transform="translate(25.2937 105.645759)scale(0.0694 -0.0694)">
                            <defs>
                                <path d="M 37.796875 64.3125
L 12.890625 25.390625 
L 37.796875 25.390625 
z
M 35.203125 72.90625 
L 47.609375 72.90625 
L 47.609375 25.390625 
L 58.015625 25.390625 
L 58.015625 17.1875 
L 47.609375 17.1875 
L 47.609375 0 
L 37.796875 0 
L 37.796875 17.1875 
L 4.890625 17.1875 
L 4.890625 26.703125 
z
" id="DejaVuSans-52"/>
                            </defs>
                            <use xlink:href="#DejaVuSans-52"/>
                        </g>
                    </g>
                </g>
                <g id="ytick_4">
                    <g id="line2d_14">
                        <g>
                            <use style="stroke:#000000;stroke-width:0.8;" x="36.709275" xlink:href="#m2f93ce6057"
                                 y="87.832259"/>
                        </g>
                    </g>
                    <g id="text_14">
                        <!-- 6 -->
                        <g transform="translate(25.2937 90.468917)scale(0.0694 -0.0694)">
                            <defs>
                                <path d="M 33.015625 40.375
Q 26.375 40.375 22.484375 35.828125 
Q 18.609375 31.296875 18.609375 23.390625 
Q 18.609375 15.53125 22.484375 10.953125 
Q 26.375 6.390625 33.015625 6.390625 
Q 39.65625 6.390625 43.53125 10.953125 
Q 47.40625 15.53125 47.40625 23.390625 
Q 47.40625 31.296875 43.53125 35.828125 
Q 39.65625 40.375 33.015625 40.375 
z
M 52.59375 71.296875 
L 52.59375 62.3125 
Q 48.875 64.0625 45.09375 64.984375 
Q 41.3125 65.921875 37.59375 65.921875 
Q 27.828125 65.921875 22.671875 59.328125 
Q 17.53125 52.734375 16.796875 39.40625 
Q 19.671875 43.65625 24.015625 45.921875 
Q 28.375 48.1875 33.59375 48.1875 
Q 44.578125 48.1875 50.953125 41.515625 
Q 57.328125 34.859375 57.328125 23.390625 
Q 57.328125 12.15625 50.6875 5.359375 
Q 44.046875 -1.421875 33.015625 -1.421875 
Q 20.359375 -1.421875 13.671875 8.265625 
Q 6.984375 17.96875 6.984375 36.375 
Q 6.984375 53.65625 15.1875 63.9375 
Q 23.390625 74.21875 37.203125 74.21875 
Q 40.921875 74.21875 44.703125 73.484375 
Q 48.484375 72.75 52.59375 71.296875 
z
" id="DejaVuSans-54"/>
                            </defs>
                            <use xlink:href="#DejaVuSans-54"/>
                        </g>
                    </g>
                </g>
                <g id="ytick_5">
                    <g id="line2d_15">
                        <g>
                            <use style="stroke:#000000;stroke-width:0.8;" x="36.709275" xlink:href="#m2f93ce6057"
                                 y="72.655417"/>
                        </g>
                    </g>
                    <g id="text_15">
                        <!-- 8 -->
                        <g transform="translate(25.2937 75.292075)scale(0.0694 -0.0694)">
                            <defs>
                                <path d="M 31.78125 34.625
Q 24.75 34.625 20.71875 30.859375 
Q 16.703125 27.09375 16.703125 20.515625 
Q 16.703125 13.921875 20.71875 10.15625 
Q 24.75 6.390625 31.78125 6.390625 
Q 38.8125 6.390625 42.859375 10.171875 
Q 46.921875 13.96875 46.921875 20.515625 
Q 46.921875 27.09375 42.890625 30.859375 
Q 38.875 34.625 31.78125 34.625 
z
M 21.921875 38.8125 
Q 15.578125 40.375 12.03125 44.71875 
Q 8.5 49.078125 8.5 55.328125 
Q 8.5 64.0625 14.71875 69.140625 
Q 20.953125 74.21875 31.78125 74.21875 
Q 42.671875 74.21875 48.875 69.140625 
Q 55.078125 64.0625 55.078125 55.328125 
Q 55.078125 49.078125 51.53125 44.71875 
Q 48 40.375 41.703125 38.8125 
Q 48.828125 37.15625 52.796875 32.3125 
Q 56.78125 27.484375 56.78125 20.515625 
Q 56.78125 9.90625 50.3125 4.234375 
Q 43.84375 -1.421875 31.78125 -1.421875 
Q 19.734375 -1.421875 13.25 4.234375 
Q 6.78125 9.90625 6.78125 20.515625 
Q 6.78125 27.484375 10.78125 32.3125 
Q 14.796875 37.15625 21.921875 38.8125 
z
M 18.3125 54.390625 
Q 18.3125 48.734375 21.84375 45.5625 
Q 25.390625 42.390625 31.78125 42.390625 
Q 38.140625 42.390625 41.71875 45.5625 
Q 45.3125 48.734375 45.3125 54.390625 
Q 45.3125 60.0625 41.71875 63.234375 
Q 38.140625 66.40625 31.78125 66.40625 
Q 25.390625 66.40625 21.84375 63.234375 
Q 18.3125 60.0625 18.3125 54.390625 
z
" id="DejaVuSans-56"/>
                            </defs>
                            <use xlink:href="#DejaVuSans-56"/>
                        </g>
                    </g>
                </g>
                <g id="ytick_6">
                    <g id="line2d_16">
                        <g>
                            <use style="stroke:#000000;stroke-width:0.8;" x="36.709275" xlink:href="#m2f93ce6057"
                                 y="57.478575"/>
                        </g>
                    </g>
                    <g id="text_16">
                        <!-- 10 -->
                        <g transform="translate(20.878125 60.115233)scale(0.0694 -0.0694)">
                            <defs>
                                <path d="M 12.40625 8.296875
L 28.515625 8.296875 
L 28.515625 63.921875 
L 10.984375 60.40625 
L 10.984375 69.390625 
L 28.421875 72.90625 
L 38.28125 72.90625 
L 38.28125 8.296875 
L 54.390625 8.296875 
L 54.390625 0 
L 12.40625 0 
z
" id="DejaVuSans-49"/>
                            </defs>
                            <use xlink:href="#DejaVuSans-49"/>
                            <use x="63.623047" xlink:href="#DejaVuSans-48"/>
                        </g>
                    </g>
                </g>
                <g id="ytick_7">
                    <g id="line2d_17">
                        <g>
                            <use style="stroke:#000000;stroke-width:0.8;" x="36.709275" xlink:href="#m2f93ce6057"
                                 y="42.301734"/>
                        </g>
                    </g>
                    <g id="text_17">
                        <!-- 12 -->
                        <g transform="translate(20.878125 44.938391)scale(0.0694 -0.0694)">
                            <use xlink:href="#DejaVuSans-49"/>
                            <use x="63.623047" xlink:href="#DejaVuSans-50"/>
                        </g>
                    </g>
                </g>
                <g id="ytick_8">
                    <g id="line2d_18">
                        <g>
                            <use style="stroke:#000000;stroke-width:0.8;" x="36.709275" xlink:href="#m2f93ce6057"
                                 y="27.124892"/>
                        </g>
                    </g>
                    <g id="text_18">
                        <!-- 14 -->
                        <g transform="translate(20.878125 29.761549)scale(0.0694 -0.0694)">
                            <use xlink:href="#DejaVuSans-49"/>
                            <use x="63.623047" xlink:href="#DejaVuSans-52"/>
                        </g>
                    </g>
                </g>
                <g id="ytick_9">
                    <g id="line2d_19">
                        <g>
                            <use style="stroke:#000000;stroke-width:0.8;" x="36.709275" xlink:href="#m2f93ce6057"
                                 y="11.94805"/>
                        </g>
                    </g>
                    <g id="text_19">
                        <!-- 16 -->
                        <g transform="translate(20.878125 14.584708)scale(0.0694 -0.0694)">
                            <use xlink:href="#DejaVuSans-49"/>
                            <use x="63.623047" xlink:href="#DejaVuSans-54"/>
                        </g>
                    </g>
                </g>
                <g id="text_20">
                    <!-- Error (# std) -->
                    <g transform="translate(14.798438 101.475142)rotate(-90)scale(0.1 -0.1)">
                        <defs>
                            <path d="M 9.8125 72.90625
L 55.90625 72.90625 
L 55.90625 64.59375 
L 19.671875 64.59375 
L 19.671875 43.015625 
L 54.390625 43.015625 
L 54.390625 34.71875 
L 19.671875 34.71875 
L 19.671875 8.296875 
L 56.78125 8.296875 
L 56.78125 0 
L 9.8125 0 
z
" id="DejaVuSans-69"/>
                            <path id="DejaVuSans-32"/>
                            <path d="M 31 75.875
Q 24.46875 64.65625 21.28125 53.65625 
Q 18.109375 42.671875 18.109375 31.390625 
Q 18.109375 20.125 21.3125 9.0625 
Q 24.515625 -2 31 -13.1875 
L 23.1875 -13.1875 
Q 15.875 -1.703125 12.234375 9.375 
Q 8.59375 20.453125 8.59375 31.390625 
Q 8.59375 42.28125 12.203125 53.3125 
Q 15.828125 64.359375 23.1875 75.875 
z
" id="DejaVuSans-40"/>
                            <path d="M 51.125 44
L 36.921875 44 
L 32.8125 27.6875 
L 47.125 27.6875 
z
M 43.796875 71.78125 
L 38.71875 51.515625 
L 52.984375 51.515625 
L 58.109375 71.78125 
L 65.921875 71.78125 
L 60.890625 51.515625 
L 76.125 51.515625 
L 76.125 44 
L 58.984375 44 
L 54.984375 27.6875 
L 70.515625 27.6875 
L 70.515625 20.21875 
L 53.078125 20.21875 
L 48 0 
L 40.1875 0 
L 45.21875 20.21875 
L 30.90625 20.21875 
L 25.875 0 
L 18.015625 0 
L 23.09375 20.21875 
L 7.71875 20.21875 
L 7.71875 27.6875 
L 24.90625 27.6875 
L 29 44 
L 13.28125 44 
L 13.28125 51.515625 
L 30.90625 51.515625 
L 35.890625 71.78125 
z
" id="DejaVuSans-35"/>
                            <path d="M 8.015625 75.875
L 15.828125 75.875 
Q 23.140625 64.359375 26.78125 53.3125 
Q 30.421875 42.28125 30.421875 31.390625 
Q 30.421875 20.453125 26.78125 9.375 
Q 23.140625 -1.703125 15.828125 -13.1875 
L 8.015625 -13.1875 
Q 14.5 -2 17.703125 9.0625 
Q 20.90625 20.125 20.90625 31.390625 
Q 20.90625 42.671875 17.703125 53.65625 
Q 14.5 64.65625 8.015625 75.875 
z
" id="DejaVuSans-41"/>
                        </defs>
                        <use xlink:href="#DejaVuSans-69"/>
                        <use x="63.183594" xlink:href="#DejaVuSans-114"/>
                        <use x="102.546875" xlink:href="#DejaVuSans-114"/>
                        <use x="141.410156" xlink:href="#DejaVuSans-111"/>
                        <use x="202.591797" xlink:href="#DejaVuSans-114"/>
                        <use x="243.705078" xlink:href="#DejaVuSans-32"/>
                        <use x="275.492188" xlink:href="#DejaVuSans-40"/>
                        <use x="314.505859" xlink:href="#DejaVuSans-35"/>
                        <use x="398.294922" xlink:href="#DejaVuSans-32"/>
                        <use x="430.082031" xlink:href="#DejaVuSans-115"/>
                        <use x="482.181641" xlink:href="#DejaVuSans-116"/>
                        <use x="521.390625" xlink:href="#DejaVuSans-100"/>
                        <use x="584.867188" xlink:href="#DejaVuSans-41"/>
                    </g>
                </g>
            </g>
            <g id="LineCollection_1">
                <path clip-path="url(#pf91f5d924a)" d="M 36.709275 118.185943
L 580.649275 118.185943 
" style="fill:none;stroke:#dc143c;stroke-width:1.5;"/>
            </g>
            <g id="patch_53">
                <path d="M 36.709275 133.362785
L 36.709275 7.2 
" style="fill:none;stroke:#000000;stroke-linecap:square;stroke-linejoin:miter;stroke-width:0.8;"/>
            </g>
            <g id="patch_54">
                <path d="M 580.649275 133.362785
L 580.649275 7.2 
" style="fill:none;stroke:#000000;stroke-linecap:square;stroke-linejoin:miter;stroke-width:0.8;"/>
            </g>
            <g id="patch_55">
                <path d="M 36.709275 133.362785
L 580.649275 133.362785 
" style="fill:none;stroke:#000000;stroke-linecap:square;stroke-linejoin:miter;stroke-width:0.8;"/>
            </g>
            <g id="patch_56">
                <path d="M 36.709275 7.2
L 580.649275 7.2 
" style="fill:none;stroke:#000000;stroke-linecap:square;stroke-linejoin:miter;stroke-width:0.8;"/>
            </g>
        </g>
    </g>
    <defs>
        <clipPath id="pf91f5d924a">
            <rect height="126.162785" width="543.94" x="36.709275" y="7.2"/>
        </clipPath>
    </defs>
</svg>
