<?xml version="1.0" encoding="utf-8" standalone="no"?>
<!DOCTYPE svg PUBLIC "-//W3C//DTD SVG 1.1//EN"
        "http://www.w3.org/Graphics/SVG/1.1/DTD/svg11.dtd">
<!-- Created with matplotlib (https://matplotlib.org/) -->
<svg xmlns:xlink="http://www.w3.org/1999/xlink" height="207.914744pt" version="1.1" viewBox="0 0 389.13485 207.914744"
     width="389.13485pt" xmlns="http://www.w3.org/2000/svg">
    <metadata>
        <rdf:RDF xmlns:cc="http://creativecommons.org/ns#" xmlns:dc="http://purl.org/dc/elements/1.1/"
                 xmlns:rdf="http://www.w3.org/1999/02/22-rdf-syntax-ns#">
            <cc:Work>
                <dc:type rdf:resource="http://purl.org/dc/dcmitype/StillImage"/>
                <dc:date>2021-01-05T12:00:22.654113</dc:date>
                <dc:format>image/svg+xml</dc:format>
                <dc:creator>
                    <cc:Agent>
                        <dc:title>Matplotlib v3.3.3, https://matplotlib.org/</dc:title>
                    </cc:Agent>
                </dc:creator>
            </cc:Work>
        </rdf:RDF>
    </metadata>
    <defs>
        <style type="text/css">*{stroke-linecap:butt;stroke-linejoin:round;}</style>
    </defs>
    <g id="figure_1">
        <g id="patch_1">
            <path d="M 0 207.914744
L 389.13485 207.914744 
L 389.13485 0 
L 0 0 
z
" style="fill:#ffffff;"/>
        </g>
        <g id="axes_1">
            <g id="patch_2">
                <path d="M 41.12485 173.32
L 381.93485 173.32 
L 381.93485 7.2 
L 41.12485 7.2 
z
" style="fill:#ffffff;"/>
            </g>
            <g id="PolyCollection_1">
                <defs>
                    <path d="M 95.344623 -43.806662
L 95.344623 -47.207531 
L 134.073032 -50.276488 
L 172.801441 -52.707442 
L 211.52985 -54.473606 
L 250.258259 -56.241644 
L 250.258259 -45.067793 
L 250.258259 -45.067793 
L 211.52985 -44.395927 
L 172.801441 -43.806662 
L 134.073032 -43.806662 
L 95.344623 -43.806662 
z
" id="ma7a86bb6d0" style="stroke:#dc143c;stroke-opacity:0.2;"/>
                </defs>
                <g clip-path="url(#p18fd01ed19)">
                    <use style="fill:#dc143c;fill-opacity:0.2;stroke:#dc143c;stroke-opacity:0.2;" x="0"
                         xlink:href="#ma7a86bb6d0" y="207.914744"/>
                </g>
            </g>
            <g id="line2d_1">
                <path clip-path="url(#p18fd01ed19)" d="M 95.344623 160.707213
L 134.073032 157.638256 
L 172.801441 155.207301 
L 211.52985 153.441138 
L 250.258259 151.6731 
" style="fill:none;stroke:#dc143c;stroke-dasharray:1.5,2.475;stroke-dashoffset:0;stroke-width:1.5;"/>
            </g>
            <g id="line2d_2">
                <path clip-path="url(#p18fd01ed19)" d="M 95.344623 164.108082
L 134.073032 164.108082 
L 172.801441 164.108082 
L 211.52985 163.518816 
L 250.258259 162.846951 
" style="fill:none;stroke:#dc143c;stroke-dasharray:1.5,2.475;stroke-dashoffset:0;stroke-width:1.5;"/>
            </g>
            <g id="matplotlib.axis_1">
                <g id="xtick_1">
                    <g id="line2d_3">
                        <defs>
                            <path d="M 0 0
L 0 3.5 
" id="m24d06c3b14" style="stroke:#000000;stroke-width:0.8;"/>
                        </defs>
                        <g>
                            <use style="stroke:#000000;stroke-width:0.8;" x="56.616214" xlink:href="#m24d06c3b14"
                                 y="173.32"/>
                        </g>
                    </g>
                    <g id="text_1">
                        <!-- 0.0 -->
                        <g transform="translate(51.097829 185.593316)scale(0.0694 -0.0694)">
                            <defs>
                                <path d="M 31.78125 66.40625
Q 24.171875 66.40625 20.328125 58.90625 
Q 16.5 51.421875 16.5 36.375 
Q 16.5 21.390625 20.328125 13.890625 
Q 24.171875 6.390625 31.78125 6.390625 
Q 39.453125 6.390625 43.28125 13.890625 
Q 47.125 21.390625 47.125 36.375 
Q 47.125 51.421875 43.28125 58.90625 
Q 39.453125 66.40625 31.78125 66.40625 
z
M 31.78125 74.21875 
Q 44.046875 74.21875 50.515625 64.515625 
Q 56.984375 54.828125 56.984375 36.375 
Q 56.984375 17.96875 50.515625 8.265625 
Q 44.046875 -1.421875 31.78125 -1.421875 
Q 19.53125 -1.421875 13.0625 8.265625 
Q 6.59375 17.96875 6.59375 36.375 
Q 6.59375 54.828125 13.0625 64.515625 
Q 19.53125 74.21875 31.78125 74.21875 
z
" id="DejaVuSans-48"/>
                                <path d="M 10.6875 12.40625
L 21 12.40625 
L 21 0 
L 10.6875 0 
z
" id="DejaVuSans-46"/>
                            </defs>
                            <use xlink:href="#DejaVuSans-48"/>
                            <use x="63.623047" xlink:href="#DejaVuSans-46"/>
                            <use x="95.410156" xlink:href="#DejaVuSans-48"/>
                        </g>
                    </g>
                </g>
                <g id="xtick_2">
                    <g id="line2d_4">
                        <g>
                            <use style="stroke:#000000;stroke-width:0.8;" x="95.344623" xlink:href="#m24d06c3b14"
                                 y="173.32"/>
                        </g>
                    </g>
                    <g id="text_2">
                        <!-- 0.2 -->
                        <g transform="translate(89.826238 185.593316)scale(0.0694 -0.0694)">
                            <defs>
                                <path d="M 19.1875 8.296875
L 53.609375 8.296875 
L 53.609375 0 
L 7.328125 0 
L 7.328125 8.296875 
Q 12.9375 14.109375 22.625 23.890625 
Q 32.328125 33.6875 34.8125 36.53125 
Q 39.546875 41.84375 41.421875 45.53125 
Q 43.3125 49.21875 43.3125 52.78125 
Q 43.3125 58.59375 39.234375 62.25 
Q 35.15625 65.921875 28.609375 65.921875 
Q 23.96875 65.921875 18.8125 64.3125 
Q 13.671875 62.703125 7.8125 59.421875 
L 7.8125 69.390625 
Q 13.765625 71.78125 18.9375 73 
Q 24.125 74.21875 28.421875 74.21875 
Q 39.75 74.21875 46.484375 68.546875 
Q 53.21875 62.890625 53.21875 53.421875 
Q 53.21875 48.921875 51.53125 44.890625 
Q 49.859375 40.875 45.40625 35.40625 
Q 44.1875 33.984375 37.640625 27.21875 
Q 31.109375 20.453125 19.1875 8.296875 
z
" id="DejaVuSans-50"/>
                            </defs>
                            <use xlink:href="#DejaVuSans-48"/>
                            <use x="63.623047" xlink:href="#DejaVuSans-46"/>
                            <use x="95.410156" xlink:href="#DejaVuSans-50"/>
                        </g>
                    </g>
                </g>
                <g id="xtick_3">
                    <g id="line2d_5">
                        <g>
                            <use style="stroke:#000000;stroke-width:0.8;" x="134.073032" xlink:href="#m24d06c3b14"
                                 y="173.32"/>
                        </g>
                    </g>
                    <g id="text_3">
                        <!-- 0.4 -->
                        <g transform="translate(128.554647 185.593316)scale(0.0694 -0.0694)">
                            <defs>
                                <path d="M 37.796875 64.3125
L 12.890625 25.390625 
L 37.796875 25.390625 
z
M 35.203125 72.90625 
L 47.609375 72.90625 
L 47.609375 25.390625 
L 58.015625 25.390625 
L 58.015625 17.1875 
L 47.609375 17.1875 
L 47.609375 0 
L 37.796875 0 
L 37.796875 17.1875 
L 4.890625 17.1875 
L 4.890625 26.703125 
z
" id="DejaVuSans-52"/>
                            </defs>
                            <use xlink:href="#DejaVuSans-48"/>
                            <use x="63.623047" xlink:href="#DejaVuSans-46"/>
                            <use x="95.410156" xlink:href="#DejaVuSans-52"/>
                        </g>
                    </g>
                </g>
                <g id="xtick_4">
                    <g id="line2d_6">
                        <g>
                            <use style="stroke:#000000;stroke-width:0.8;" x="172.801441" xlink:href="#m24d06c3b14"
                                 y="173.32"/>
                        </g>
                    </g>
                    <g id="text_4">
                        <!-- 0.6 -->
                        <g transform="translate(167.283057 185.593316)scale(0.0694 -0.0694)">
                            <defs>
                                <path d="M 33.015625 40.375
Q 26.375 40.375 22.484375 35.828125 
Q 18.609375 31.296875 18.609375 23.390625 
Q 18.609375 15.53125 22.484375 10.953125 
Q 26.375 6.390625 33.015625 6.390625 
Q 39.65625 6.390625 43.53125 10.953125 
Q 47.40625 15.53125 47.40625 23.390625 
Q 47.40625 31.296875 43.53125 35.828125 
Q 39.65625 40.375 33.015625 40.375 
z
M 52.59375 71.296875 
L 52.59375 62.3125 
Q 48.875 64.0625 45.09375 64.984375 
Q 41.3125 65.921875 37.59375 65.921875 
Q 27.828125 65.921875 22.671875 59.328125 
Q 17.53125 52.734375 16.796875 39.40625 
Q 19.671875 43.65625 24.015625 45.921875 
Q 28.375 48.1875 33.59375 48.1875 
Q 44.578125 48.1875 50.953125 41.515625 
Q 57.328125 34.859375 57.328125 23.390625 
Q 57.328125 12.15625 50.6875 5.359375 
Q 44.046875 -1.421875 33.015625 -1.421875 
Q 20.359375 -1.421875 13.671875 8.265625 
Q 6.984375 17.96875 6.984375 36.375 
Q 6.984375 53.65625 15.1875 63.9375 
Q 23.390625 74.21875 37.203125 74.21875 
Q 40.921875 74.21875 44.703125 73.484375 
Q 48.484375 72.75 52.59375 71.296875 
z
" id="DejaVuSans-54"/>
                            </defs>
                            <use xlink:href="#DejaVuSans-48"/>
                            <use x="63.623047" xlink:href="#DejaVuSans-46"/>
                            <use x="95.410156" xlink:href="#DejaVuSans-54"/>
                        </g>
                    </g>
                </g>
                <g id="xtick_5">
                    <g id="line2d_7">
                        <g>
                            <use style="stroke:#000000;stroke-width:0.8;" x="211.52985" xlink:href="#m24d06c3b14"
                                 y="173.32"/>
                        </g>
                    </g>
                    <g id="text_5">
                        <!-- 0.8 -->
                        <g transform="translate(206.011466 185.593316)scale(0.0694 -0.0694)">
                            <defs>
                                <path d="M 31.78125 34.625
Q 24.75 34.625 20.71875 30.859375 
Q 16.703125 27.09375 16.703125 20.515625 
Q 16.703125 13.921875 20.71875 10.15625 
Q 24.75 6.390625 31.78125 6.390625 
Q 38.8125 6.390625 42.859375 10.171875 
Q 46.921875 13.96875 46.921875 20.515625 
Q 46.921875 27.09375 42.890625 30.859375 
Q 38.875 34.625 31.78125 34.625 
z
M 21.921875 38.8125 
Q 15.578125 40.375 12.03125 44.71875 
Q 8.5 49.078125 8.5 55.328125 
Q 8.5 64.0625 14.71875 69.140625 
Q 20.953125 74.21875 31.78125 74.21875 
Q 42.671875 74.21875 48.875 69.140625 
Q 55.078125 64.0625 55.078125 55.328125 
Q 55.078125 49.078125 51.53125 44.71875 
Q 48 40.375 41.703125 38.8125 
Q 48.828125 37.15625 52.796875 32.3125 
Q 56.78125 27.484375 56.78125 20.515625 
Q 56.78125 9.90625 50.3125 4.234375 
Q 43.84375 -1.421875 31.78125 -1.421875 
Q 19.734375 -1.421875 13.25 4.234375 
Q 6.78125 9.90625 6.78125 20.515625 
Q 6.78125 27.484375 10.78125 32.3125 
Q 14.796875 37.15625 21.921875 38.8125 
z
M 18.3125 54.390625 
Q 18.3125 48.734375 21.84375 45.5625 
Q 25.390625 42.390625 31.78125 42.390625 
Q 38.140625 42.390625 41.71875 45.5625 
Q 45.3125 48.734375 45.3125 54.390625 
Q 45.3125 60.0625 41.71875 63.234375 
Q 38.140625 66.40625 31.78125 66.40625 
Q 25.390625 66.40625 21.84375 63.234375 
Q 18.3125 60.0625 18.3125 54.390625 
z
" id="DejaVuSans-56"/>
                            </defs>
                            <use xlink:href="#DejaVuSans-48"/>
                            <use x="63.623047" xlink:href="#DejaVuSans-46"/>
                            <use x="95.410156" xlink:href="#DejaVuSans-56"/>
                        </g>
                    </g>
                </g>
                <g id="xtick_6">
                    <g id="line2d_8">
                        <g>
                            <use style="stroke:#000000;stroke-width:0.8;" x="250.258259" xlink:href="#m24d06c3b14"
                                 y="173.32"/>
                        </g>
                    </g>
                    <g id="text_6">
                        <!-- 1.0 -->
                        <g transform="translate(244.739875 185.593316)scale(0.0694 -0.0694)">
                            <defs>
                                <path d="M 12.40625 8.296875
L 28.515625 8.296875 
L 28.515625 63.921875 
L 10.984375 60.40625 
L 10.984375 69.390625 
L 28.421875 72.90625 
L 38.28125 72.90625 
L 38.28125 8.296875 
L 54.390625 8.296875 
L 54.390625 0 
L 12.40625 0 
z
" id="DejaVuSans-49"/>
                            </defs>
                            <use xlink:href="#DejaVuSans-49"/>
                            <use x="63.623047" xlink:href="#DejaVuSans-46"/>
                            <use x="95.410156" xlink:href="#DejaVuSans-48"/>
                        </g>
                    </g>
                </g>
                <g id="xtick_7">
                    <g id="line2d_9">
                        <g>
                            <use style="stroke:#000000;stroke-width:0.8;" x="288.986668" xlink:href="#m24d06c3b14"
                                 y="173.32"/>
                        </g>
                    </g>
                    <g id="text_7">
                        <!-- 1.2 -->
                        <g transform="translate(283.468284 185.593316)scale(0.0694 -0.0694)">
                            <use xlink:href="#DejaVuSans-49"/>
                            <use x="63.623047" xlink:href="#DejaVuSans-46"/>
                            <use x="95.410156" xlink:href="#DejaVuSans-50"/>
                        </g>
                    </g>
                </g>
                <g id="xtick_8">
                    <g id="line2d_10">
                        <g>
                            <use style="stroke:#000000;stroke-width:0.8;" x="327.715077" xlink:href="#m24d06c3b14"
                                 y="173.32"/>
                        </g>
                    </g>
                    <g id="text_8">
                        <!-- 1.4 -->
                        <g transform="translate(322.196693 185.593316)scale(0.0694 -0.0694)">
                            <use xlink:href="#DejaVuSans-49"/>
                            <use x="63.623047" xlink:href="#DejaVuSans-46"/>
                            <use x="95.410156" xlink:href="#DejaVuSans-52"/>
                        </g>
                    </g>
                </g>
                <g id="xtick_9">
                    <g id="line2d_11">
                        <g>
                            <use style="stroke:#000000;stroke-width:0.8;" x="366.443486" xlink:href="#m24d06c3b14"
                                 y="173.32"/>
                        </g>
                    </g>
                    <g id="text_9">
                        <!-- 1.6 -->
                        <g transform="translate(360.925102 185.593316)scale(0.0694 -0.0694)">
                            <use xlink:href="#DejaVuSans-49"/>
                            <use x="63.623047" xlink:href="#DejaVuSans-46"/>
                            <use x="95.410156" xlink:href="#DejaVuSans-54"/>
                        </g>
                    </g>
                </g>
                <g id="text_10">
                    <!-- Injected current (nA) -->
                    <g transform="translate(159.757194 198.635056)scale(0.1 -0.1)">
                        <defs>
                            <path d="M 9.8125 72.90625
L 19.671875 72.90625 
L 19.671875 0 
L 9.8125 0 
z
" id="DejaVuSans-73"/>
                            <path d="M 54.890625 33.015625
L 54.890625 0 
L 45.90625 0 
L 45.90625 32.71875 
Q 45.90625 40.484375 42.875 44.328125 
Q 39.84375 48.1875 33.796875 48.1875 
Q 26.515625 48.1875 22.3125 43.546875 
Q 18.109375 38.921875 18.109375 30.90625 
L 18.109375 0 
L 9.078125 0 
L 9.078125 54.6875 
L 18.109375 54.6875 
L 18.109375 46.1875 
Q 21.34375 51.125 25.703125 53.5625 
Q 30.078125 56 35.796875 56 
Q 45.21875 56 50.046875 50.171875 
Q 54.890625 44.34375 54.890625 33.015625 
z
" id="DejaVuSans-110"/>
                            <path d="M 9.421875 54.6875
L 18.40625 54.6875 
L 18.40625 -0.984375 
Q 18.40625 -11.421875 14.421875 -16.109375 
Q 10.453125 -20.796875 1.609375 -20.796875 
L -1.8125 -20.796875 
L -1.8125 -13.1875 
L 0.59375 -13.1875 
Q 5.71875 -13.1875 7.5625 -10.8125 
Q 9.421875 -8.453125 9.421875 -0.984375 
z
M 9.421875 75.984375 
L 18.40625 75.984375 
L 18.40625 64.59375 
L 9.421875 64.59375 
z
" id="DejaVuSans-106"/>
                            <path d="M 56.203125 29.59375
L 56.203125 25.203125 
L 14.890625 25.203125 
Q 15.484375 15.921875 20.484375 11.0625 
Q 25.484375 6.203125 34.421875 6.203125 
Q 39.59375 6.203125 44.453125 7.46875 
Q 49.3125 8.734375 54.109375 11.28125 
L 54.109375 2.78125 
Q 49.265625 0.734375 44.1875 -0.34375 
Q 39.109375 -1.421875 33.890625 -1.421875 
Q 20.796875 -1.421875 13.15625 6.1875 
Q 5.515625 13.8125 5.515625 26.8125 
Q 5.515625 40.234375 12.765625 48.109375 
Q 20.015625 56 32.328125 56 
Q 43.359375 56 49.78125 48.890625 
Q 56.203125 41.796875 56.203125 29.59375 
z
M 47.21875 32.234375 
Q 47.125 39.59375 43.09375 43.984375 
Q 39.0625 48.390625 32.421875 48.390625 
Q 24.90625 48.390625 20.390625 44.140625 
Q 15.875 39.890625 15.1875 32.171875 
z
" id="DejaVuSans-101"/>
                            <path d="M 48.78125 52.59375
L 48.78125 44.1875 
Q 44.96875 46.296875 41.140625 47.34375 
Q 37.3125 48.390625 33.40625 48.390625 
Q 24.65625 48.390625 19.8125 42.84375 
Q 14.984375 37.3125 14.984375 27.296875 
Q 14.984375 17.28125 19.8125 11.734375 
Q 24.65625 6.203125 33.40625 6.203125 
Q 37.3125 6.203125 41.140625 7.25 
Q 44.96875 8.296875 48.78125 10.40625 
L 48.78125 2.09375 
Q 45.015625 0.34375 40.984375 -0.53125 
Q 36.96875 -1.421875 32.421875 -1.421875 
Q 20.0625 -1.421875 12.78125 6.34375 
Q 5.515625 14.109375 5.515625 27.296875 
Q 5.515625 40.671875 12.859375 48.328125 
Q 20.21875 56 33.015625 56 
Q 37.15625 56 41.109375 55.140625 
Q 45.0625 54.296875 48.78125 52.59375 
z
" id="DejaVuSans-99"/>
                            <path d="M 18.3125 70.21875
L 18.3125 54.6875 
L 36.8125 54.6875 
L 36.8125 47.703125 
L 18.3125 47.703125 
L 18.3125 18.015625 
Q 18.3125 11.328125 20.140625 9.421875 
Q 21.96875 7.515625 27.59375 7.515625 
L 36.8125 7.515625 
L 36.8125 0 
L 27.59375 0 
Q 17.1875 0 13.234375 3.875 
Q 9.28125 7.765625 9.28125 18.015625 
L 9.28125 47.703125 
L 2.6875 47.703125 
L 2.6875 54.6875 
L 9.28125 54.6875 
L 9.28125 70.21875 
z
" id="DejaVuSans-116"/>
                            <path d="M 45.40625 46.390625
L 45.40625 75.984375 
L 54.390625 75.984375 
L 54.390625 0 
L 45.40625 0 
L 45.40625 8.203125 
Q 42.578125 3.328125 38.25 0.953125 
Q 33.9375 -1.421875 27.875 -1.421875 
Q 17.96875 -1.421875 11.734375 6.484375 
Q 5.515625 14.40625 5.515625 27.296875 
Q 5.515625 40.1875 11.734375 48.09375 
Q 17.96875 56 27.875 56 
Q 33.9375 56 38.25 53.625 
Q 42.578125 51.265625 45.40625 46.390625 
z
M 14.796875 27.296875 
Q 14.796875 17.390625 18.875 11.75 
Q 22.953125 6.109375 30.078125 6.109375 
Q 37.203125 6.109375 41.296875 11.75 
Q 45.40625 17.390625 45.40625 27.296875 
Q 45.40625 37.203125 41.296875 42.84375 
Q 37.203125 48.484375 30.078125 48.484375 
Q 22.953125 48.484375 18.875 42.84375 
Q 14.796875 37.203125 14.796875 27.296875 
z
" id="DejaVuSans-100"/>
                            <path id="DejaVuSans-32"/>
                            <path d="M 8.5 21.578125
L 8.5 54.6875 
L 17.484375 54.6875 
L 17.484375 21.921875 
Q 17.484375 14.15625 20.5 10.265625 
Q 23.53125 6.390625 29.59375 6.390625 
Q 36.859375 6.390625 41.078125 11.03125 
Q 45.3125 15.671875 45.3125 23.6875 
L 45.3125 54.6875 
L 54.296875 54.6875 
L 54.296875 0 
L 45.3125 0 
L 45.3125 8.40625 
Q 42.046875 3.421875 37.71875 1 
Q 33.40625 -1.421875 27.6875 -1.421875 
Q 18.265625 -1.421875 13.375 4.4375 
Q 8.5 10.296875 8.5 21.578125 
z
M 31.109375 56 
z
" id="DejaVuSans-117"/>
                            <path d="M 41.109375 46.296875
Q 39.59375 47.171875 37.8125 47.578125 
Q 36.03125 48 33.890625 48 
Q 26.265625 48 22.1875 43.046875 
Q 18.109375 38.09375 18.109375 28.8125 
L 18.109375 0 
L 9.078125 0 
L 9.078125 54.6875 
L 18.109375 54.6875 
L 18.109375 46.1875 
Q 20.953125 51.171875 25.484375 53.578125 
Q 30.03125 56 36.53125 56 
Q 37.453125 56 38.578125 55.875 
Q 39.703125 55.765625 41.0625 55.515625 
z
" id="DejaVuSans-114"/>
                            <path d="M 31 75.875
Q 24.46875 64.65625 21.28125 53.65625 
Q 18.109375 42.671875 18.109375 31.390625 
Q 18.109375 20.125 21.3125 9.0625 
Q 24.515625 -2 31 -13.1875 
L 23.1875 -13.1875 
Q 15.875 -1.703125 12.234375 9.375 
Q 8.59375 20.453125 8.59375 31.390625 
Q 8.59375 42.28125 12.203125 53.3125 
Q 15.828125 64.359375 23.1875 75.875 
z
" id="DejaVuSans-40"/>
                            <path d="M 34.1875 63.1875
L 20.796875 26.90625 
L 47.609375 26.90625 
z
M 28.609375 72.90625 
L 39.796875 72.90625 
L 67.578125 0 
L 57.328125 0 
L 50.6875 18.703125 
L 17.828125 18.703125 
L 11.1875 0 
L 0.78125 0 
z
" id="DejaVuSans-65"/>
                            <path d="M 8.015625 75.875
L 15.828125 75.875 
Q 23.140625 64.359375 26.78125 53.3125 
Q 30.421875 42.28125 30.421875 31.390625 
Q 30.421875 20.453125 26.78125 9.375 
Q 23.140625 -1.703125 15.828125 -13.1875 
L 8.015625 -13.1875 
Q 14.5 -2 17.703125 9.0625 
Q 20.90625 20.125 20.90625 31.390625 
Q 20.90625 42.671875 17.703125 53.65625 
Q 14.5 64.65625 8.015625 75.875 
z
" id="DejaVuSans-41"/>
                        </defs>
                        <use xlink:href="#DejaVuSans-73"/>
                        <use x="29.492188" xlink:href="#DejaVuSans-110"/>
                        <use x="92.871094" xlink:href="#DejaVuSans-106"/>
                        <use x="120.654297" xlink:href="#DejaVuSans-101"/>
                        <use x="182.177734" xlink:href="#DejaVuSans-99"/>
                        <use x="237.158203" xlink:href="#DejaVuSans-116"/>
                        <use x="276.367188" xlink:href="#DejaVuSans-101"/>
                        <use x="337.890625" xlink:href="#DejaVuSans-100"/>
                        <use x="401.367188" xlink:href="#DejaVuSans-32"/>
                        <use x="433.154297" xlink:href="#DejaVuSans-99"/>
                        <use x="488.134766" xlink:href="#DejaVuSans-117"/>
                        <use x="551.513672" xlink:href="#DejaVuSans-114"/>
                        <use x="590.876953" xlink:href="#DejaVuSans-114"/>
                        <use x="629.740234" xlink:href="#DejaVuSans-101"/>
                        <use x="691.263672" xlink:href="#DejaVuSans-110"/>
                        <use x="754.642578" xlink:href="#DejaVuSans-116"/>
                        <use x="793.851562" xlink:href="#DejaVuSans-32"/>
                        <use x="825.638672" xlink:href="#DejaVuSans-40"/>
                        <use x="864.652344" xlink:href="#DejaVuSans-110"/>
                        <use x="928.03125" xlink:href="#DejaVuSans-65"/>
                        <use x="996.439453" xlink:href="#DejaVuSans-41"/>
                    </g>
                </g>
            </g>
            <g id="matplotlib.axis_2">
                <g id="ytick_1">
                    <g id="line2d_12">
                        <defs>
                            <path d="M 0 0
L -3.5 0 
" id="m46dc6653e8" style="stroke:#000000;stroke-width:0.8;"/>
                        </defs>
                        <g>
                            <use style="stroke:#000000;stroke-width:0.8;" x="41.12485" xlink:href="#m46dc6653e8"
                                 y="164.108082"/>
                        </g>
                    </g>
                    <g id="text_11">
                        <!-- 0 -->
                        <g transform="translate(29.709275 166.74474)scale(0.0694 -0.0694)">
                            <use xlink:href="#DejaVuSans-48"/>
                        </g>
                    </g>
                </g>
                <g id="ytick_2">
                    <g id="line2d_13">
                        <g>
                            <use style="stroke:#000000;stroke-width:0.8;" x="41.12485" xlink:href="#m46dc6653e8"
                                 y="133.873836"/>
                        </g>
                    </g>
                    <g id="text_12">
                        <!-- 50 -->
                        <g transform="translate(25.2937 136.510494)scale(0.0694 -0.0694)">
                            <defs>
                                <path d="M 10.796875 72.90625
L 49.515625 72.90625 
L 49.515625 64.59375 
L 19.828125 64.59375 
L 19.828125 46.734375 
Q 21.96875 47.46875 24.109375 47.828125 
Q 26.265625 48.1875 28.421875 48.1875 
Q 40.625 48.1875 47.75 41.5 
Q 54.890625 34.8125 54.890625 23.390625 
Q 54.890625 11.625 47.5625 5.09375 
Q 40.234375 -1.421875 26.90625 -1.421875 
Q 22.3125 -1.421875 17.546875 -0.640625 
Q 12.796875 0.140625 7.71875 1.703125 
L 7.71875 11.625 
Q 12.109375 9.234375 16.796875 8.0625 
Q 21.484375 6.890625 26.703125 6.890625 
Q 35.15625 6.890625 40.078125 11.328125 
Q 45.015625 15.765625 45.015625 23.390625 
Q 45.015625 31 40.078125 35.4375 
Q 35.15625 39.890625 26.703125 39.890625 
Q 22.75 39.890625 18.8125 39.015625 
Q 14.890625 38.140625 10.796875 36.28125 
z
" id="DejaVuSans-53"/>
                            </defs>
                            <use xlink:href="#DejaVuSans-53"/>
                            <use x="63.623047" xlink:href="#DejaVuSans-48"/>
                        </g>
                    </g>
                </g>
                <g id="ytick_3">
                    <g id="line2d_14">
                        <g>
                            <use style="stroke:#000000;stroke-width:0.8;" x="41.12485" xlink:href="#m46dc6653e8"
                                 y="103.639591"/>
                        </g>
                    </g>
                    <g id="text_13">
                        <!-- 100 -->
                        <g transform="translate(20.878125 106.276249)scale(0.0694 -0.0694)">
                            <use xlink:href="#DejaVuSans-49"/>
                            <use x="63.623047" xlink:href="#DejaVuSans-48"/>
                            <use x="127.246094" xlink:href="#DejaVuSans-48"/>
                        </g>
                    </g>
                </g>
                <g id="ytick_4">
                    <g id="line2d_15">
                        <g>
                            <use style="stroke:#000000;stroke-width:0.8;" x="41.12485" xlink:href="#m46dc6653e8"
                                 y="73.405345"/>
                        </g>
                    </g>
                    <g id="text_14">
                        <!-- 150 -->
                        <g transform="translate(20.878125 76.042003)scale(0.0694 -0.0694)">
                            <use xlink:href="#DejaVuSans-49"/>
                            <use x="63.623047" xlink:href="#DejaVuSans-53"/>
                            <use x="127.246094" xlink:href="#DejaVuSans-48"/>
                        </g>
                    </g>
                </g>
                <g id="ytick_5">
                    <g id="line2d_16">
                        <g>
                            <use style="stroke:#000000;stroke-width:0.8;" x="41.12485" xlink:href="#m46dc6653e8"
                                 y="43.1711"/>
                        </g>
                    </g>
                    <g id="text_15">
                        <!-- 200 -->
                        <g transform="translate(20.878125 45.807758)scale(0.0694 -0.0694)">
                            <use xlink:href="#DejaVuSans-50"/>
                            <use x="63.623047" xlink:href="#DejaVuSans-48"/>
                            <use x="127.246094" xlink:href="#DejaVuSans-48"/>
                        </g>
                    </g>
                </g>
                <g id="ytick_6">
                    <g id="line2d_17">
                        <g>
                            <use style="stroke:#000000;stroke-width:0.8;" x="41.12485" xlink:href="#m46dc6653e8"
                                 y="12.936854"/>
                        </g>
                    </g>
                    <g id="text_16">
                        <!-- 250 -->
                        <g transform="translate(20.878125 15.573512)scale(0.0694 -0.0694)">
                            <use xlink:href="#DejaVuSans-50"/>
                            <use x="63.623047" xlink:href="#DejaVuSans-53"/>
                            <use x="127.246094" xlink:href="#DejaVuSans-48"/>
                        </g>
                    </g>
                </g>
                <g id="text_17">
                    <!-- Number of APs -->
                    <g transform="translate(14.798438 127.295938)rotate(-90)scale(0.1 -0.1)">
                        <defs>
                            <path d="M 9.8125 72.90625
L 23.09375 72.90625 
L 55.421875 11.921875 
L 55.421875 72.90625 
L 64.984375 72.90625 
L 64.984375 0 
L 51.703125 0 
L 19.390625 60.984375 
L 19.390625 0 
L 9.8125 0 
z
" id="DejaVuSans-78"/>
                            <path d="M 52 44.1875
Q 55.375 50.25 60.0625 53.125 
Q 64.75 56 71.09375 56 
Q 79.640625 56 84.28125 50.015625 
Q 88.921875 44.046875 88.921875 33.015625 
L 88.921875 0 
L 79.890625 0 
L 79.890625 32.71875 
Q 79.890625 40.578125 77.09375 44.375 
Q 74.3125 48.1875 68.609375 48.1875 
Q 61.625 48.1875 57.5625 43.546875 
Q 53.515625 38.921875 53.515625 30.90625 
L 53.515625 0 
L 44.484375 0 
L 44.484375 32.71875 
Q 44.484375 40.625 41.703125 44.40625 
Q 38.921875 48.1875 33.109375 48.1875 
Q 26.21875 48.1875 22.15625 43.53125 
Q 18.109375 38.875 18.109375 30.90625 
L 18.109375 0 
L 9.078125 0 
L 9.078125 54.6875 
L 18.109375 54.6875 
L 18.109375 46.1875 
Q 21.1875 51.21875 25.484375 53.609375 
Q 29.78125 56 35.6875 56 
Q 41.65625 56 45.828125 52.96875 
Q 50 49.953125 52 44.1875 
z
" id="DejaVuSans-109"/>
                            <path d="M 48.6875 27.296875
Q 48.6875 37.203125 44.609375 42.84375 
Q 40.53125 48.484375 33.40625 48.484375 
Q 26.265625 48.484375 22.1875 42.84375 
Q 18.109375 37.203125 18.109375 27.296875 
Q 18.109375 17.390625 22.1875 11.75 
Q 26.265625 6.109375 33.40625 6.109375 
Q 40.53125 6.109375 44.609375 11.75 
Q 48.6875 17.390625 48.6875 27.296875 
z
M 18.109375 46.390625 
Q 20.953125 51.265625 25.265625 53.625 
Q 29.59375 56 35.59375 56 
Q 45.5625 56 51.78125 48.09375 
Q 58.015625 40.1875 58.015625 27.296875 
Q 58.015625 14.40625 51.78125 6.484375 
Q 45.5625 -1.421875 35.59375 -1.421875 
Q 29.59375 -1.421875 25.265625 0.953125 
Q 20.953125 3.328125 18.109375 8.203125 
L 18.109375 0 
L 9.078125 0 
L 9.078125 75.984375 
L 18.109375 75.984375 
z
" id="DejaVuSans-98"/>
                            <path d="M 30.609375 48.390625
Q 23.390625 48.390625 19.1875 42.75 
Q 14.984375 37.109375 14.984375 27.296875 
Q 14.984375 17.484375 19.15625 11.84375 
Q 23.34375 6.203125 30.609375 6.203125 
Q 37.796875 6.203125 41.984375 11.859375 
Q 46.1875 17.53125 46.1875 27.296875 
Q 46.1875 37.015625 41.984375 42.703125 
Q 37.796875 48.390625 30.609375 48.390625 
z
M 30.609375 56 
Q 42.328125 56 49.015625 48.375 
Q 55.71875 40.765625 55.71875 27.296875 
Q 55.71875 13.875 49.015625 6.21875 
Q 42.328125 -1.421875 30.609375 -1.421875 
Q 18.84375 -1.421875 12.171875 6.21875 
Q 5.515625 13.875 5.515625 27.296875 
Q 5.515625 40.765625 12.171875 48.375 
Q 18.84375 56 30.609375 56 
z
" id="DejaVuSans-111"/>
                            <path d="M 37.109375 75.984375
L 37.109375 68.5 
L 28.515625 68.5 
Q 23.6875 68.5 21.796875 66.546875 
Q 19.921875 64.59375 19.921875 59.515625 
L 19.921875 54.6875 
L 34.71875 54.6875 
L 34.71875 47.703125 
L 19.921875 47.703125 
L 19.921875 0 
L 10.890625 0 
L 10.890625 47.703125 
L 2.296875 47.703125 
L 2.296875 54.6875 
L 10.890625 54.6875 
L 10.890625 58.5 
Q 10.890625 67.625 15.140625 71.796875 
Q 19.390625 75.984375 28.609375 75.984375 
z
" id="DejaVuSans-102"/>
                            <path d="M 19.671875 64.796875
L 19.671875 37.40625 
L 32.078125 37.40625 
Q 38.96875 37.40625 42.71875 40.96875 
Q 46.484375 44.53125 46.484375 51.125 
Q 46.484375 57.671875 42.71875 61.234375 
Q 38.96875 64.796875 32.078125 64.796875 
z
M 9.8125 72.90625 
L 32.078125 72.90625 
Q 44.34375 72.90625 50.609375 67.359375 
Q 56.890625 61.8125 56.890625 51.125 
Q 56.890625 40.328125 50.609375 34.8125 
Q 44.34375 29.296875 32.078125 29.296875 
L 19.671875 29.296875 
L 19.671875 0 
L 9.8125 0 
z
" id="DejaVuSans-80"/>
                            <path d="M 44.28125 53.078125
L 44.28125 44.578125 
Q 40.484375 46.53125 36.375 47.5 
Q 32.28125 48.484375 27.875 48.484375 
Q 21.1875 48.484375 17.84375 46.4375 
Q 14.5 44.390625 14.5 40.28125 
Q 14.5 37.15625 16.890625 35.375 
Q 19.28125 33.59375 26.515625 31.984375 
L 29.59375 31.296875 
Q 39.15625 29.25 43.1875 25.515625 
Q 47.21875 21.78125 47.21875 15.09375 
Q 47.21875 7.46875 41.1875 3.015625 
Q 35.15625 -1.421875 24.609375 -1.421875 
Q 20.21875 -1.421875 15.453125 -0.5625 
Q 10.6875 0.296875 5.421875 2 
L 5.421875 11.28125 
Q 10.40625 8.6875 15.234375 7.390625 
Q 20.0625 6.109375 24.8125 6.109375 
Q 31.15625 6.109375 34.5625 8.28125 
Q 37.984375 10.453125 37.984375 14.40625 
Q 37.984375 18.0625 35.515625 20.015625 
Q 33.0625 21.96875 24.703125 23.78125 
L 21.578125 24.515625 
Q 13.234375 26.265625 9.515625 29.90625 
Q 5.8125 33.546875 5.8125 39.890625 
Q 5.8125 47.609375 11.28125 51.796875 
Q 16.75 56 26.8125 56 
Q 31.78125 56 36.171875 55.265625 
Q 40.578125 54.546875 44.28125 53.078125 
z
" id="DejaVuSans-115"/>
                        </defs>
                        <use xlink:href="#DejaVuSans-78"/>
                        <use x="74.804688" xlink:href="#DejaVuSans-117"/>
                        <use x="138.183594" xlink:href="#DejaVuSans-109"/>
                        <use x="235.595703" xlink:href="#DejaVuSans-98"/>
                        <use x="299.072266" xlink:href="#DejaVuSans-101"/>
                        <use x="360.595703" xlink:href="#DejaVuSans-114"/>
                        <use x="401.708984" xlink:href="#DejaVuSans-32"/>
                        <use x="433.496094" xlink:href="#DejaVuSans-111"/>
                        <use x="494.677734" xlink:href="#DejaVuSans-102"/>
                        <use x="529.882812" xlink:href="#DejaVuSans-32"/>
                        <use x="561.669922" xlink:href="#DejaVuSans-65"/>
                        <use x="630.078125" xlink:href="#DejaVuSans-80"/>
                        <use x="688.630859" xlink:href="#DejaVuSans-115"/>
                    </g>
                </g>
            </g>
            <g id="line2d_18">
                <path clip-path="url(#p18fd01ed19)" d="M 56.616214 164.108082
L 66.298316 164.108082 
L 75.980418 145.967535 
L 85.66252 126.012933 
L 95.344623 116.337974 
L 105.026725 110.291125 
L 114.708827 104.244276 
L 124.39093 100.011481 
L 134.073032 95.174002 
L 143.755134 90.941208 
L 153.437236 87.313098 
L 163.119339 83.684989 
L 172.801441 79.452194 
L 182.483543 75.824085 
L 192.165645 72.80066 
L 201.847748 70.381921 
L 211.52985 67.358496 
L 221.211952 63.730387 
L 230.894055 58.892908 
L 240.576157 55.869483 
L 250.258259 52.241374 
L 259.940361 48.613264 
L 269.622464 44.38047 
L 279.304566 40.147675 
L 288.986668 35.914881 
L 298.66877 31.682087 
L 308.350873 28.658662 
L 318.032975 25.635237 
L 327.715077 22.611813 
L 337.39718 20.193073 
L 347.079282 17.774334 
L 356.761384 15.960279 
L 366.443486 14.750909 
" style="fill:none;stroke:#ff6347;stroke-linecap:square;stroke-width:1.5;"/>
                <defs>
                    <path d="M 0 3
C 0.795609 3 1.55874 2.683901 2.12132 2.12132 
C 2.683901 1.55874 3 0.795609 3 0 
C 3 -0.795609 2.683901 -1.55874 2.12132 -2.12132 
C 1.55874 -2.683901 0.795609 -3 0 -3 
C -0.795609 -3 -1.55874 -2.683901 -2.12132 -2.12132 
C -2.683901 -1.55874 -3 -0.795609 -3 0 
C -3 0.795609 -2.683901 1.55874 -2.12132 2.12132 
C -1.55874 2.683901 -0.795609 3 0 3 
z
" id="me9938ebd92" style="stroke:#ff6347;"/>
                </defs>
                <g clip-path="url(#p18fd01ed19)">
                    <use style="fill:#ff6347;stroke:#ff6347;" x="56.616214" xlink:href="#me9938ebd92" y="164.108082"/>
                    <use style="fill:#ff6347;stroke:#ff6347;" x="66.298316" xlink:href="#me9938ebd92" y="164.108082"/>
                    <use style="fill:#ff6347;stroke:#ff6347;" x="75.980418" xlink:href="#me9938ebd92" y="145.967535"/>
                    <use style="fill:#ff6347;stroke:#ff6347;" x="85.66252" xlink:href="#me9938ebd92" y="126.012933"/>
                    <use style="fill:#ff6347;stroke:#ff6347;" x="95.344623" xlink:href="#me9938ebd92" y="116.337974"/>
                    <use style="fill:#ff6347;stroke:#ff6347;" x="105.026725" xlink:href="#me9938ebd92" y="110.291125"/>
                    <use style="fill:#ff6347;stroke:#ff6347;" x="114.708827" xlink:href="#me9938ebd92" y="104.244276"/>
                    <use style="fill:#ff6347;stroke:#ff6347;" x="124.39093" xlink:href="#me9938ebd92" y="100.011481"/>
                    <use style="fill:#ff6347;stroke:#ff6347;" x="134.073032" xlink:href="#me9938ebd92" y="95.174002"/>
                    <use style="fill:#ff6347;stroke:#ff6347;" x="143.755134" xlink:href="#me9938ebd92" y="90.941208"/>
                    <use style="fill:#ff6347;stroke:#ff6347;" x="153.437236" xlink:href="#me9938ebd92" y="87.313098"/>
                    <use style="fill:#ff6347;stroke:#ff6347;" x="163.119339" xlink:href="#me9938ebd92" y="83.684989"/>
                    <use style="fill:#ff6347;stroke:#ff6347;" x="172.801441" xlink:href="#me9938ebd92" y="79.452194"/>
                    <use style="fill:#ff6347;stroke:#ff6347;" x="182.483543" xlink:href="#me9938ebd92" y="75.824085"/>
                    <use style="fill:#ff6347;stroke:#ff6347;" x="192.165645" xlink:href="#me9938ebd92" y="72.80066"/>
                    <use style="fill:#ff6347;stroke:#ff6347;" x="201.847748" xlink:href="#me9938ebd92" y="70.381921"/>
                    <use style="fill:#ff6347;stroke:#ff6347;" x="211.52985" xlink:href="#me9938ebd92" y="67.358496"/>
                    <use style="fill:#ff6347;stroke:#ff6347;" x="221.211952" xlink:href="#me9938ebd92" y="63.730387"/>
                    <use style="fill:#ff6347;stroke:#ff6347;" x="230.894055" xlink:href="#me9938ebd92" y="58.892908"/>
                    <use style="fill:#ff6347;stroke:#ff6347;" x="240.576157" xlink:href="#me9938ebd92" y="55.869483"/>
                    <use style="fill:#ff6347;stroke:#ff6347;" x="250.258259" xlink:href="#me9938ebd92" y="52.241374"/>
                    <use style="fill:#ff6347;stroke:#ff6347;" x="259.940361" xlink:href="#me9938ebd92" y="48.613264"/>
                    <use style="fill:#ff6347;stroke:#ff6347;" x="269.622464" xlink:href="#me9938ebd92" y="44.38047"/>
                    <use style="fill:#ff6347;stroke:#ff6347;" x="279.304566" xlink:href="#me9938ebd92" y="40.147675"/>
                    <use style="fill:#ff6347;stroke:#ff6347;" x="288.986668" xlink:href="#me9938ebd92" y="35.914881"/>
                    <use style="fill:#ff6347;stroke:#ff6347;" x="298.66877" xlink:href="#me9938ebd92" y="31.682087"/>
                    <use style="fill:#ff6347;stroke:#ff6347;" x="308.350873" xlink:href="#me9938ebd92" y="28.658662"/>
                    <use style="fill:#ff6347;stroke:#ff6347;" x="318.032975" xlink:href="#me9938ebd92" y="25.635237"/>
                    <use style="fill:#ff6347;stroke:#ff6347;" x="327.715077" xlink:href="#me9938ebd92" y="22.611813"/>
                    <use style="fill:#ff6347;stroke:#ff6347;" x="337.39718" xlink:href="#me9938ebd92" y="20.193073"/>
                    <use style="fill:#ff6347;stroke:#ff6347;" x="347.079282" xlink:href="#me9938ebd92" y="17.774334"/>
                    <use style="fill:#ff6347;stroke:#ff6347;" x="356.761384" xlink:href="#me9938ebd92" y="15.960279"/>
                    <use style="fill:#ff6347;stroke:#ff6347;" x="366.443486" xlink:href="#me9938ebd92" y="14.750909"/>
                </g>
            </g>
            <g id="patch_3">
                <path d="M 41.12485 173.32
L 41.12485 7.2 
" style="fill:none;stroke:#000000;stroke-linecap:square;stroke-linejoin:miter;stroke-width:0.8;"/>
            </g>
            <g id="patch_4">
                <path d="M 381.93485 173.32
L 381.93485 7.2 
" style="fill:none;stroke:#000000;stroke-linecap:square;stroke-linejoin:miter;stroke-width:0.8;"/>
            </g>
            <g id="patch_5">
                <path d="M 41.12485 173.32
L 381.93485 173.32 
" style="fill:none;stroke:#000000;stroke-linecap:square;stroke-linejoin:miter;stroke-width:0.8;"/>
            </g>
            <g id="patch_6">
                <path d="M 41.12485 7.2
L 381.93485 7.2 
" style="fill:none;stroke:#000000;stroke-linecap:square;stroke-linejoin:miter;stroke-width:0.8;"/>
            </g>
            <g id="line2d_19">
                <path clip-path="url(#p18fd01ed19)" d="M 56.616214 164.108082
L 66.298316 164.108082 
L 75.980418 164.108082 
L 85.66252 164.108082 
L 95.344623 164.108082 
L 105.026725 164.108082 
L 114.708827 164.108082 
L 124.39093 164.108082 
L 134.073032 163.503397 
L 143.755134 163.503397 
L 153.437236 163.503397 
L 163.119339 163.503397 
L 172.801441 163.503397 
L 182.483543 163.503397 
L 192.165645 163.503397 
L 201.847748 163.503397 
L 211.52985 163.503397 
L 221.211952 163.503397 
L 230.894055 161.689342 
L 240.576157 161.084657 
L 250.258259 160.479972 
L 259.940361 160.479972 
L 269.622464 160.479972 
L 279.304566 159.875288 
L 288.986668 159.875288 
L 298.66877 159.875288 
L 308.350873 159.270603 
L 318.032975 159.270603 
L 327.715077 158.665918 
L 337.39718 158.665918 
L 347.079282 158.061233 
L 356.761384 158.061233 
L 366.443486 157.456548 
" style="fill:none;stroke:#daa520;stroke-linecap:square;stroke-width:1.5;"/>
                <defs>
                    <path d="M 0 3
C 0.795609 3 1.55874 2.683901 2.12132 2.12132 
C 2.683901 1.55874 3 0.795609 3 0 
C 3 -0.795609 2.683901 -1.55874 2.12132 -2.12132 
C 1.55874 -2.683901 0.795609 -3 0 -3 
C -0.795609 -3 -1.55874 -2.683901 -2.12132 -2.12132 
C -2.683901 -1.55874 -3 -0.795609 -3 0 
C -3 0.795609 -2.683901 1.55874 -2.12132 2.12132 
C -1.55874 2.683901 -0.795609 3 0 3 
z
" id="mb4908fb901" style="stroke:#daa520;"/>
                </defs>
                <g clip-path="url(#p18fd01ed19)">
                    <use style="fill:#daa520;stroke:#daa520;" x="56.616214" xlink:href="#mb4908fb901" y="164.108082"/>
                    <use style="fill:#daa520;stroke:#daa520;" x="66.298316" xlink:href="#mb4908fb901" y="164.108082"/>
                    <use style="fill:#daa520;stroke:#daa520;" x="75.980418" xlink:href="#mb4908fb901" y="164.108082"/>
                    <use style="fill:#daa520;stroke:#daa520;" x="85.66252" xlink:href="#mb4908fb901" y="164.108082"/>
                    <use style="fill:#daa520;stroke:#daa520;" x="95.344623" xlink:href="#mb4908fb901" y="164.108082"/>
                    <use style="fill:#daa520;stroke:#daa520;" x="105.026725" xlink:href="#mb4908fb901" y="164.108082"/>
                    <use style="fill:#daa520;stroke:#daa520;" x="114.708827" xlink:href="#mb4908fb901" y="164.108082"/>
                    <use style="fill:#daa520;stroke:#daa520;" x="124.39093" xlink:href="#mb4908fb901" y="164.108082"/>
                    <use style="fill:#daa520;stroke:#daa520;" x="134.073032" xlink:href="#mb4908fb901" y="163.503397"/>
                    <use style="fill:#daa520;stroke:#daa520;" x="143.755134" xlink:href="#mb4908fb901" y="163.503397"/>
                    <use style="fill:#daa520;stroke:#daa520;" x="153.437236" xlink:href="#mb4908fb901" y="163.503397"/>
                    <use style="fill:#daa520;stroke:#daa520;" x="163.119339" xlink:href="#mb4908fb901" y="163.503397"/>
                    <use style="fill:#daa520;stroke:#daa520;" x="172.801441" xlink:href="#mb4908fb901" y="163.503397"/>
                    <use style="fill:#daa520;stroke:#daa520;" x="182.483543" xlink:href="#mb4908fb901" y="163.503397"/>
                    <use style="fill:#daa520;stroke:#daa520;" x="192.165645" xlink:href="#mb4908fb901" y="163.503397"/>
                    <use style="fill:#daa520;stroke:#daa520;" x="201.847748" xlink:href="#mb4908fb901" y="163.503397"/>
                    <use style="fill:#daa520;stroke:#daa520;" x="211.52985" xlink:href="#mb4908fb901" y="163.503397"/>
                    <use style="fill:#daa520;stroke:#daa520;" x="221.211952" xlink:href="#mb4908fb901" y="163.503397"/>
                    <use style="fill:#daa520;stroke:#daa520;" x="230.894055" xlink:href="#mb4908fb901" y="161.689342"/>
                    <use style="fill:#daa520;stroke:#daa520;" x="240.576157" xlink:href="#mb4908fb901" y="161.084657"/>
                    <use style="fill:#daa520;stroke:#daa520;" x="250.258259" xlink:href="#mb4908fb901" y="160.479972"/>
                    <use style="fill:#daa520;stroke:#daa520;" x="259.940361" xlink:href="#mb4908fb901" y="160.479972"/>
                    <use style="fill:#daa520;stroke:#daa520;" x="269.622464" xlink:href="#mb4908fb901" y="160.479972"/>
                    <use style="fill:#daa520;stroke:#daa520;" x="279.304566" xlink:href="#mb4908fb901" y="159.875288"/>
                    <use style="fill:#daa520;stroke:#daa520;" x="288.986668" xlink:href="#mb4908fb901" y="159.875288"/>
                    <use style="fill:#daa520;stroke:#daa520;" x="298.66877" xlink:href="#mb4908fb901" y="159.875288"/>
                    <use style="fill:#daa520;stroke:#daa520;" x="308.350873" xlink:href="#mb4908fb901" y="159.270603"/>
                    <use style="fill:#daa520;stroke:#daa520;" x="318.032975" xlink:href="#mb4908fb901" y="159.270603"/>
                    <use style="fill:#daa520;stroke:#daa520;" x="327.715077" xlink:href="#mb4908fb901" y="158.665918"/>
                    <use style="fill:#daa520;stroke:#daa520;" x="337.39718" xlink:href="#mb4908fb901" y="158.665918"/>
                    <use style="fill:#daa520;stroke:#daa520;" x="347.079282" xlink:href="#mb4908fb901" y="158.061233"/>
                    <use style="fill:#daa520;stroke:#daa520;" x="356.761384" xlink:href="#mb4908fb901" y="158.061233"/>
                    <use style="fill:#daa520;stroke:#daa520;" x="366.443486" xlink:href="#mb4908fb901" y="157.456548"/>
                </g>
            </g>
            <g id="line2d_20">
                <path clip-path="url(#p18fd01ed19)" d="M 56.616214 164.108082
L 66.298316 164.108082 
L 75.980418 164.108082 
L 85.66252 149.595644 
L 95.344623 130.245727 
L 105.026725 121.780138 
L 114.708827 116.337974 
L 124.39093 112.10518 
L 134.073032 108.47707 
L 143.755134 104.848961 
L 153.437236 101.825536 
L 163.119339 97.592742 
L 172.801441 95.778687 
L 182.483543 90.941208 
L 192.165645 87.917783 
L 201.847748 86.103729 
L 211.52985 84.289674 
L 221.211952 80.661564 
L 230.894055 78.242825 
L 240.576157 75.824085 
L 250.258259 74.01003 
L 259.940361 71.591291 
L 269.622464 69.172551 
L 279.304566 66.149126 
L 288.986668 63.730387 
L 298.66877 61.311647 
L 308.350873 58.288223 
L 318.032975 54.055428 
L 327.715077 25.635237 
L 337.39718 39.54299 
L 347.079282 60.102277 
L 356.761384 70.381921 
L 366.443486 72.80066 
" style="fill:none;stroke:#228b22;stroke-linecap:square;stroke-width:1.5;"/>
                <defs>
                    <path d="M 0 3
C 0.795609 3 1.55874 2.683901 2.12132 2.12132 
C 2.683901 1.55874 3 0.795609 3 0 
C 3 -0.795609 2.683901 -1.55874 2.12132 -2.12132 
C 1.55874 -2.683901 0.795609 -3 0 -3 
C -0.795609 -3 -1.55874 -2.683901 -2.12132 -2.12132 
C -2.683901 -1.55874 -3 -0.795609 -3 0 
C -3 0.795609 -2.683901 1.55874 -2.12132 2.12132 
C -1.55874 2.683901 -0.795609 3 0 3 
z
" id="m725f7a837f" style="stroke:#228b22;"/>
                </defs>
                <g clip-path="url(#p18fd01ed19)">
                    <use style="fill:#228b22;stroke:#228b22;" x="56.616214" xlink:href="#m725f7a837f" y="164.108082"/>
                    <use style="fill:#228b22;stroke:#228b22;" x="66.298316" xlink:href="#m725f7a837f" y="164.108082"/>
                    <use style="fill:#228b22;stroke:#228b22;" x="75.980418" xlink:href="#m725f7a837f" y="164.108082"/>
                    <use style="fill:#228b22;stroke:#228b22;" x="85.66252" xlink:href="#m725f7a837f" y="149.595644"/>
                    <use style="fill:#228b22;stroke:#228b22;" x="95.344623" xlink:href="#m725f7a837f" y="130.245727"/>
                    <use style="fill:#228b22;stroke:#228b22;" x="105.026725" xlink:href="#m725f7a837f" y="121.780138"/>
                    <use style="fill:#228b22;stroke:#228b22;" x="114.708827" xlink:href="#m725f7a837f" y="116.337974"/>
                    <use style="fill:#228b22;stroke:#228b22;" x="124.39093" xlink:href="#m725f7a837f" y="112.10518"/>
                    <use style="fill:#228b22;stroke:#228b22;" x="134.073032" xlink:href="#m725f7a837f" y="108.47707"/>
                    <use style="fill:#228b22;stroke:#228b22;" x="143.755134" xlink:href="#m725f7a837f" y="104.848961"/>
                    <use style="fill:#228b22;stroke:#228b22;" x="153.437236" xlink:href="#m725f7a837f" y="101.825536"/>
                    <use style="fill:#228b22;stroke:#228b22;" x="163.119339" xlink:href="#m725f7a837f" y="97.592742"/>
                    <use style="fill:#228b22;stroke:#228b22;" x="172.801441" xlink:href="#m725f7a837f" y="95.778687"/>
                    <use style="fill:#228b22;stroke:#228b22;" x="182.483543" xlink:href="#m725f7a837f" y="90.941208"/>
                    <use style="fill:#228b22;stroke:#228b22;" x="192.165645" xlink:href="#m725f7a837f" y="87.917783"/>
                    <use style="fill:#228b22;stroke:#228b22;" x="201.847748" xlink:href="#m725f7a837f" y="86.103729"/>
                    <use style="fill:#228b22;stroke:#228b22;" x="211.52985" xlink:href="#m725f7a837f" y="84.289674"/>
                    <use style="fill:#228b22;stroke:#228b22;" x="221.211952" xlink:href="#m725f7a837f" y="80.661564"/>
                    <use style="fill:#228b22;stroke:#228b22;" x="230.894055" xlink:href="#m725f7a837f" y="78.242825"/>
                    <use style="fill:#228b22;stroke:#228b22;" x="240.576157" xlink:href="#m725f7a837f" y="75.824085"/>
                    <use style="fill:#228b22;stroke:#228b22;" x="250.258259" xlink:href="#m725f7a837f" y="74.01003"/>
                    <use style="fill:#228b22;stroke:#228b22;" x="259.940361" xlink:href="#m725f7a837f" y="71.591291"/>
                    <use style="fill:#228b22;stroke:#228b22;" x="269.622464" xlink:href="#m725f7a837f" y="69.172551"/>
                    <use style="fill:#228b22;stroke:#228b22;" x="279.304566" xlink:href="#m725f7a837f" y="66.149126"/>
                    <use style="fill:#228b22;stroke:#228b22;" x="288.986668" xlink:href="#m725f7a837f" y="63.730387"/>
                    <use style="fill:#228b22;stroke:#228b22;" x="298.66877" xlink:href="#m725f7a837f" y="61.311647"/>
                    <use style="fill:#228b22;stroke:#228b22;" x="308.350873" xlink:href="#m725f7a837f" y="58.288223"/>
                    <use style="fill:#228b22;stroke:#228b22;" x="318.032975" xlink:href="#m725f7a837f" y="54.055428"/>
                    <use style="fill:#228b22;stroke:#228b22;" x="327.715077" xlink:href="#m725f7a837f" y="25.635237"/>
                    <use style="fill:#228b22;stroke:#228b22;" x="337.39718" xlink:href="#m725f7a837f" y="39.54299"/>
                    <use style="fill:#228b22;stroke:#228b22;" x="347.079282" xlink:href="#m725f7a837f" y="60.102277"/>
                    <use style="fill:#228b22;stroke:#228b22;" x="356.761384" xlink:href="#m725f7a837f" y="70.381921"/>
                    <use style="fill:#228b22;stroke:#228b22;" x="366.443486" xlink:href="#m725f7a837f" y="72.80066"/>
                </g>
            </g>
            <g id="line2d_21">
                <path clip-path="url(#p18fd01ed19)" d="M 56.616214 164.108082
L 66.298316 164.108082 
L 75.980418 164.108082 
L 85.66252 164.108082 
L 95.344623 164.108082 
L 105.026725 164.108082 
L 114.708827 164.108082 
L 124.39093 164.108082 
L 134.073032 164.108082 
L 143.755134 164.108082 
L 153.437236 163.503397 
L 163.119339 163.503397 
L 172.801441 163.503397 
L 182.483543 161.084657 
L 192.165645 160.479972 
L 201.847748 159.270603 
L 211.52985 158.061233 
L 221.211952 154.433123 
L 230.894055 150.200329 
L 240.576157 146.57222 
L 250.258259 143.548795 
L 259.940361 140.52537 
L 269.622464 137.501946 
L 279.304566 133.873836 
L 288.986668 130.245727 
L 298.66877 162.294027 
L 308.350873 163.503397 
L 318.032975 163.503397 
L 327.715077 163.503397 
L 337.39718 163.503397 
L 347.079282 163.503397 
L 356.761384 163.503397 
L 366.443486 163.503397 
" style="fill:none;stroke:#9932cc;stroke-linecap:square;stroke-width:1.5;"/>
                <defs>
                    <path d="M 0 3
C 0.795609 3 1.55874 2.683901 2.12132 2.12132 
C 2.683901 1.55874 3 0.795609 3 0 
C 3 -0.795609 2.683901 -1.55874 2.12132 -2.12132 
C 1.55874 -2.683901 0.795609 -3 0 -3 
C -0.795609 -3 -1.55874 -2.683901 -2.12132 -2.12132 
C -2.683901 -1.55874 -3 -0.795609 -3 0 
C -3 0.795609 -2.683901 1.55874 -2.12132 2.12132 
C -1.55874 2.683901 -0.795609 3 0 3 
z
" id="m7e0fb93ddd" style="stroke:#9932cc;"/>
                </defs>
                <g clip-path="url(#p18fd01ed19)">
                    <use style="fill:#9932cc;stroke:#9932cc;" x="56.616214" xlink:href="#m7e0fb93ddd" y="164.108082"/>
                    <use style="fill:#9932cc;stroke:#9932cc;" x="66.298316" xlink:href="#m7e0fb93ddd" y="164.108082"/>
                    <use style="fill:#9932cc;stroke:#9932cc;" x="75.980418" xlink:href="#m7e0fb93ddd" y="164.108082"/>
                    <use style="fill:#9932cc;stroke:#9932cc;" x="85.66252" xlink:href="#m7e0fb93ddd" y="164.108082"/>
                    <use style="fill:#9932cc;stroke:#9932cc;" x="95.344623" xlink:href="#m7e0fb93ddd" y="164.108082"/>
                    <use style="fill:#9932cc;stroke:#9932cc;" x="105.026725" xlink:href="#m7e0fb93ddd" y="164.108082"/>
                    <use style="fill:#9932cc;stroke:#9932cc;" x="114.708827" xlink:href="#m7e0fb93ddd" y="164.108082"/>
                    <use style="fill:#9932cc;stroke:#9932cc;" x="124.39093" xlink:href="#m7e0fb93ddd" y="164.108082"/>
                    <use style="fill:#9932cc;stroke:#9932cc;" x="134.073032" xlink:href="#m7e0fb93ddd" y="164.108082"/>
                    <use style="fill:#9932cc;stroke:#9932cc;" x="143.755134" xlink:href="#m7e0fb93ddd" y="164.108082"/>
                    <use style="fill:#9932cc;stroke:#9932cc;" x="153.437236" xlink:href="#m7e0fb93ddd" y="163.503397"/>
                    <use style="fill:#9932cc;stroke:#9932cc;" x="163.119339" xlink:href="#m7e0fb93ddd" y="163.503397"/>
                    <use style="fill:#9932cc;stroke:#9932cc;" x="172.801441" xlink:href="#m7e0fb93ddd" y="163.503397"/>
                    <use style="fill:#9932cc;stroke:#9932cc;" x="182.483543" xlink:href="#m7e0fb93ddd" y="161.084657"/>
                    <use style="fill:#9932cc;stroke:#9932cc;" x="192.165645" xlink:href="#m7e0fb93ddd" y="160.479972"/>
                    <use style="fill:#9932cc;stroke:#9932cc;" x="201.847748" xlink:href="#m7e0fb93ddd" y="159.270603"/>
                    <use style="fill:#9932cc;stroke:#9932cc;" x="211.52985" xlink:href="#m7e0fb93ddd" y="158.061233"/>
                    <use style="fill:#9932cc;stroke:#9932cc;" x="221.211952" xlink:href="#m7e0fb93ddd" y="154.433123"/>
                    <use style="fill:#9932cc;stroke:#9932cc;" x="230.894055" xlink:href="#m7e0fb93ddd" y="150.200329"/>
                    <use style="fill:#9932cc;stroke:#9932cc;" x="240.576157" xlink:href="#m7e0fb93ddd" y="146.57222"/>
                    <use style="fill:#9932cc;stroke:#9932cc;" x="250.258259" xlink:href="#m7e0fb93ddd" y="143.548795"/>
                    <use style="fill:#9932cc;stroke:#9932cc;" x="259.940361" xlink:href="#m7e0fb93ddd" y="140.52537"/>
                    <use style="fill:#9932cc;stroke:#9932cc;" x="269.622464" xlink:href="#m7e0fb93ddd" y="137.501946"/>
                    <use style="fill:#9932cc;stroke:#9932cc;" x="279.304566" xlink:href="#m7e0fb93ddd" y="133.873836"/>
                    <use style="fill:#9932cc;stroke:#9932cc;" x="288.986668" xlink:href="#m7e0fb93ddd" y="130.245727"/>
                    <use style="fill:#9932cc;stroke:#9932cc;" x="298.66877" xlink:href="#m7e0fb93ddd" y="162.294027"/>
                    <use style="fill:#9932cc;stroke:#9932cc;" x="308.350873" xlink:href="#m7e0fb93ddd" y="163.503397"/>
                    <use style="fill:#9932cc;stroke:#9932cc;" x="318.032975" xlink:href="#m7e0fb93ddd" y="163.503397"/>
                    <use style="fill:#9932cc;stroke:#9932cc;" x="327.715077" xlink:href="#m7e0fb93ddd" y="163.503397"/>
                    <use style="fill:#9932cc;stroke:#9932cc;" x="337.39718" xlink:href="#m7e0fb93ddd" y="163.503397"/>
                    <use style="fill:#9932cc;stroke:#9932cc;" x="347.079282" xlink:href="#m7e0fb93ddd" y="163.503397"/>
                    <use style="fill:#9932cc;stroke:#9932cc;" x="356.761384" xlink:href="#m7e0fb93ddd" y="163.503397"/>
                    <use style="fill:#9932cc;stroke:#9932cc;" x="366.443486" xlink:href="#m7e0fb93ddd" y="163.503397"/>
                </g>
            </g>
            <g id="line2d_22">
                <path clip-path="url(#p18fd01ed19)" d="M 56.616214 164.108082
L 66.298316 164.108082 
L 75.980418 164.108082 
L 85.66252 164.108082 
L 95.344623 164.108082 
L 105.026725 164.108082 
L 114.708827 163.503397 
L 124.39093 163.503397 
L 134.073032 162.294027 
L 143.755134 156.247178 
L 153.437236 153.828438 
L 163.119339 152.619069 
L 172.801441 151.409699 
L 182.483543 150.200329 
L 192.165645 148.990959 
L 201.847748 148.386274 
L 211.52985 147.176904 
L 221.211952 145.967535 
L 230.894055 144.758165 
L 240.576157 143.548795 
L 250.258259 142.339425 
L 259.940361 141.130055 
L 269.622464 139.316001 
L 279.304566 138.106631 
L 288.986668 136.292576 
L 298.66877 135.083206 
L 308.350873 133.269152 
L 318.032975 132.059782 
L 327.715077 160.479972 
L 337.39718 161.689342 
L 347.079282 161.689342 
L 356.761384 161.689342 
L 366.443486 162.294027 
" style="fill:none;stroke:#000080;stroke-linecap:square;stroke-width:1.5;"/>
                <defs>
                    <path d="M 0 3
C 0.795609 3 1.55874 2.683901 2.12132 2.12132 
C 2.683901 1.55874 3 0.795609 3 0 
C 3 -0.795609 2.683901 -1.55874 2.12132 -2.12132 
C 1.55874 -2.683901 0.795609 -3 0 -3 
C -0.795609 -3 -1.55874 -2.683901 -2.12132 -2.12132 
C -2.683901 -1.55874 -3 -0.795609 -3 0 
C -3 0.795609 -2.683901 1.55874 -2.12132 2.12132 
C -1.55874 2.683901 -0.795609 3 0 3 
z
" id="m03dca0a7ba" style="stroke:#000080;"/>
                </defs>
                <g clip-path="url(#p18fd01ed19)">
                    <use style="fill:#000080;stroke:#000080;" x="56.616214" xlink:href="#m03dca0a7ba" y="164.108082"/>
                    <use style="fill:#000080;stroke:#000080;" x="66.298316" xlink:href="#m03dca0a7ba" y="164.108082"/>
                    <use style="fill:#000080;stroke:#000080;" x="75.980418" xlink:href="#m03dca0a7ba" y="164.108082"/>
                    <use style="fill:#000080;stroke:#000080;" x="85.66252" xlink:href="#m03dca0a7ba" y="164.108082"/>
                    <use style="fill:#000080;stroke:#000080;" x="95.344623" xlink:href="#m03dca0a7ba" y="164.108082"/>
                    <use style="fill:#000080;stroke:#000080;" x="105.026725" xlink:href="#m03dca0a7ba" y="164.108082"/>
                    <use style="fill:#000080;stroke:#000080;" x="114.708827" xlink:href="#m03dca0a7ba" y="163.503397"/>
                    <use style="fill:#000080;stroke:#000080;" x="124.39093" xlink:href="#m03dca0a7ba" y="163.503397"/>
                    <use style="fill:#000080;stroke:#000080;" x="134.073032" xlink:href="#m03dca0a7ba" y="162.294027"/>
                    <use style="fill:#000080;stroke:#000080;" x="143.755134" xlink:href="#m03dca0a7ba" y="156.247178"/>
                    <use style="fill:#000080;stroke:#000080;" x="153.437236" xlink:href="#m03dca0a7ba" y="153.828438"/>
                    <use style="fill:#000080;stroke:#000080;" x="163.119339" xlink:href="#m03dca0a7ba" y="152.619069"/>
                    <use style="fill:#000080;stroke:#000080;" x="172.801441" xlink:href="#m03dca0a7ba" y="151.409699"/>
                    <use style="fill:#000080;stroke:#000080;" x="182.483543" xlink:href="#m03dca0a7ba" y="150.200329"/>
                    <use style="fill:#000080;stroke:#000080;" x="192.165645" xlink:href="#m03dca0a7ba" y="148.990959"/>
                    <use style="fill:#000080;stroke:#000080;" x="201.847748" xlink:href="#m03dca0a7ba" y="148.386274"/>
                    <use style="fill:#000080;stroke:#000080;" x="211.52985" xlink:href="#m03dca0a7ba" y="147.176904"/>
                    <use style="fill:#000080;stroke:#000080;" x="221.211952" xlink:href="#m03dca0a7ba" y="145.967535"/>
                    <use style="fill:#000080;stroke:#000080;" x="230.894055" xlink:href="#m03dca0a7ba" y="144.758165"/>
                    <use style="fill:#000080;stroke:#000080;" x="240.576157" xlink:href="#m03dca0a7ba" y="143.548795"/>
                    <use style="fill:#000080;stroke:#000080;" x="250.258259" xlink:href="#m03dca0a7ba" y="142.339425"/>
                    <use style="fill:#000080;stroke:#000080;" x="259.940361" xlink:href="#m03dca0a7ba" y="141.130055"/>
                    <use style="fill:#000080;stroke:#000080;" x="269.622464" xlink:href="#m03dca0a7ba" y="139.316001"/>
                    <use style="fill:#000080;stroke:#000080;" x="279.304566" xlink:href="#m03dca0a7ba" y="138.106631"/>
                    <use style="fill:#000080;stroke:#000080;" x="288.986668" xlink:href="#m03dca0a7ba" y="136.292576"/>
                    <use style="fill:#000080;stroke:#000080;" x="298.66877" xlink:href="#m03dca0a7ba" y="135.083206"/>
                    <use style="fill:#000080;stroke:#000080;" x="308.350873" xlink:href="#m03dca0a7ba" y="133.269152"/>
                    <use style="fill:#000080;stroke:#000080;" x="318.032975" xlink:href="#m03dca0a7ba" y="132.059782"/>
                    <use style="fill:#000080;stroke:#000080;" x="327.715077" xlink:href="#m03dca0a7ba" y="160.479972"/>
                    <use style="fill:#000080;stroke:#000080;" x="337.39718" xlink:href="#m03dca0a7ba" y="161.689342"/>
                    <use style="fill:#000080;stroke:#000080;" x="347.079282" xlink:href="#m03dca0a7ba" y="161.689342"/>
                    <use style="fill:#000080;stroke:#000080;" x="356.761384" xlink:href="#m03dca0a7ba" y="161.689342"/>
                    <use style="fill:#000080;stroke:#000080;" x="366.443486" xlink:href="#m03dca0a7ba" y="162.294027"/>
                </g>
            </g>
            <g id="LineCollection_1">
                <path clip-path="url(#p18fd01ed19)" d="M 95.344623 165.722228
L 95.344623 160.707213 
" style="fill:none;stroke:#dc143c;stroke-width:1.5;"/>
                <path clip-path="url(#p18fd01ed19)" d="M 134.073032 165.769091
L 134.073032 157.638256 
" style="fill:none;stroke:#dc143c;stroke-width:1.5;"/>
                <path clip-path="url(#p18fd01ed19)" d="M 172.801441 164.932086
L 172.801441 155.207301 
" style="fill:none;stroke:#dc143c;stroke-width:1.5;"/>
                <path clip-path="url(#p18fd01ed19)" d="M 211.52985 163.518816
L 211.52985 153.441138 
" style="fill:none;stroke:#dc143c;stroke-width:1.5;"/>
                <path clip-path="url(#p18fd01ed19)" d="M 250.258259 162.846951
L 250.258259 151.6731 
" style="fill:none;stroke:#dc143c;stroke-width:1.5;"/>
            </g>
            <g id="line2d_23">
                <path clip-path="url(#p18fd01ed19)" d="M 95.344623 163.21472
L 134.073032 161.703673 
L 172.801441 160.069694 
L 211.52985 158.479977 
L 250.258259 157.260025 
" style="fill:none;stroke:#dc143c;stroke-linecap:square;stroke-width:1.5;"/>
                <defs>
                    <path d="M 0 3
C 0.795609 3 1.55874 2.683901 2.12132 2.12132 
C 2.683901 1.55874 3 0.795609 3 0 
C 3 -0.795609 2.683901 -1.55874 2.12132 -2.12132 
C 1.55874 -2.683901 0.795609 -3 0 -3 
C -0.795609 -3 -1.55874 -2.683901 -2.12132 -2.12132 
C -2.683901 -1.55874 -3 -0.795609 -3 0 
C -3 0.795609 -2.683901 1.55874 -2.12132 2.12132 
C -1.55874 2.683901 -0.795609 3 0 3 
z
" id="m6b7d5aa09c" style="stroke:#dc143c;"/>
                </defs>
                <g clip-path="url(#p18fd01ed19)">
                    <use style="fill:#dc143c;stroke:#dc143c;" x="95.344623" xlink:href="#m6b7d5aa09c" y="163.21472"/>
                    <use style="fill:#dc143c;stroke:#dc143c;" x="134.073032" xlink:href="#m6b7d5aa09c" y="161.703673"/>
                    <use style="fill:#dc143c;stroke:#dc143c;" x="172.801441" xlink:href="#m6b7d5aa09c" y="160.069694"/>
                    <use style="fill:#dc143c;stroke:#dc143c;" x="211.52985" xlink:href="#m6b7d5aa09c" y="158.479977"/>
                    <use style="fill:#dc143c;stroke:#dc143c;" x="250.258259" xlink:href="#m6b7d5aa09c" y="157.260025"/>
                </g>
            </g>
        </g>
    </g>
    <defs>
        <clipPath id="p18fd01ed19">
            <rect height="166.12" width="340.81" x="41.12485" y="7.2"/>
        </clipPath>
    </defs>
</svg>
