<?xml version="1.0" encoding="utf-8" standalone="no"?>
<!DOCTYPE svg PUBLIC "-//W3C//DTD SVG 1.1//EN"
        "http://www.w3.org/Graphics/SVG/1.1/DTD/svg11.dtd">
<!-- Created with matplotlib (https://matplotlib.org/) -->
<svg xmlns:xlink="http://www.w3.org/1999/xlink" height="279.633932pt" version="1.1" viewBox="0 0 587.936406 279.633932"
     width="587.936406pt" xmlns="http://www.w3.org/2000/svg">
    <metadata>
        <rdf:RDF xmlns:cc="http://creativecommons.org/ns#" xmlns:dc="http://purl.org/dc/elements/1.1/"
                 xmlns:rdf="http://www.w3.org/1999/02/22-rdf-syntax-ns#">
            <cc:Work>
                <dc:type rdf:resource="http://purl.org/dc/dcmitype/StillImage"/>
                <dc:date>2021-01-05T12:05:26.506841</dc:date>
                <dc:format>image/svg+xml</dc:format>
                <dc:creator>
                    <cc:Agent>
                        <dc:title>Matplotlib v3.3.3, https://matplotlib.org/</dc:title>
                    </cc:Agent>
                </dc:creator>
            </cc:Work>
        </rdf:RDF>
    </metadata>
    <defs>
        <style type="text/css">*{stroke-linecap:butt;stroke-linejoin:round;}</style>
    </defs>
    <g id="figure_1">
        <g id="patch_1">
            <path d="M 0 279.633932
L 587.936406 279.633932 
L 587.936406 0 
L 0 0 
z
" style="fill:#ffffff;"/>
        </g>
        <g id="axes_1">
            <g id="patch_2">
                <path d="M 43.330469 192.264242
L 481.650469 192.264242 
L 481.650469 9.836658 
L 43.330469 9.836658 
z
" style="fill:#ffffff;"/>
            </g>
            <g id="patch_3">
                <path clip-path="url(#p2166cff920)" d="M 58.466586 192.264242
L 66.309134 192.264242 
L 66.309134 148.996497 
L 58.466586 148.996497 
z
" style="fill:#ff6347;stroke:#ffffff;stroke-linejoin:miter;"/>
            </g>
            <g id="patch_4">
                <path clip-path="url(#p2166cff920)" d="M 0 0
z
" style="fill:#ff6347;stroke:#ffffff;stroke-linejoin:miter;"/>
            </g>
            <g id="patch_5">
                <path clip-path="url(#p2166cff920)" d="M 199.632448 192.264242
L 207.474995 192.264242 
L 207.474995 169.025653 
L 199.632448 169.025653 
z
" style="fill:#ff6347;stroke:#ffffff;stroke-linejoin:miter;"/>
            </g>
            <g id="patch_6">
                <path clip-path="url(#p2166cff920)" d="M 270.215378 192.264242
L 278.057926 192.264242 
L 278.057926 164.258907 
L 270.215378 164.258907 
z
" style="fill:#ff6347;stroke:#ffffff;stroke-linejoin:miter;"/>
            </g>
            <g id="patch_7">
                <path clip-path="url(#p2166cff920)" d="M 340.798309 192.264242
L 348.640857 192.264242 
L 348.640857 157.887204 
L 340.798309 157.887204 
z
" style="fill:#ff6347;stroke:#ffffff;stroke-linejoin:miter;"/>
            </g>
            <g id="patch_8">
                <path clip-path="url(#p2166cff920)" d="M 0 0
z
" style="fill:#ff6347;stroke:#ffffff;stroke-linejoin:miter;"/>
            </g>
            <g id="patch_9">
                <path clip-path="url(#p2166cff920)" d="M 66.309134 192.264242
L 74.151682 192.264242 
L 74.151682 177.995448 
L 66.309134 177.995448 
z
" style="fill:#fa8072;stroke:#ffffff;stroke-linejoin:miter;"/>
            </g>
            <g id="patch_10">
                <path clip-path="url(#p2166cff920)" d="M 136.892065 192.264242
L 144.734613 192.264242 
L 144.734613 181.561232 
L 136.892065 181.561232 
z
" style="fill:#fa8072;stroke:#ffffff;stroke-linejoin:miter;"/>
            </g>
            <g id="patch_11">
                <path clip-path="url(#p2166cff920)" d="M 207.474995 192.264242
L 215.317543 192.264242 
L 215.317543 174.494974 
L 207.474995 174.494974 
z
" style="fill:#fa8072;stroke:#ffffff;stroke-linejoin:miter;"/>
            </g>
            <g id="patch_12">
                <path clip-path="url(#p2166cff920)" d="M 278.057926 192.264242
L 285.900474 192.264242 
L 285.900474 169.846649 
L 278.057926 169.846649 
z
" style="fill:#fa8072;stroke:#ffffff;stroke-linejoin:miter;"/>
            </g>
            <g id="patch_13">
                <path clip-path="url(#p2166cff920)" d="M 348.640857 192.264242
L 356.483405 192.264242 
L 356.483405 173.716401 
L 348.640857 173.716401 
z
" style="fill:#fa8072;stroke:#ffffff;stroke-linejoin:miter;"/>
            </g>
            <g id="patch_14">
                <path clip-path="url(#p2166cff920)" d="M 0 0
z
" style="fill:#fa8072;stroke:#ffffff;stroke-linejoin:miter;"/>
            </g>
            <g id="patch_15">
                <path clip-path="url(#p2166cff920)" d="M 74.151682 192.264242
L 81.99423 192.264242 
L 81.99423 174.284516 
L 74.151682 174.284516 
z
" style="fill:#daa520;stroke:#ffffff;stroke-linejoin:miter;"/>
            </g>
            <g id="patch_16">
                <path clip-path="url(#p2166cff920)" d="M 0 0
z
" style="fill:#daa520;stroke:#ffffff;stroke-linejoin:miter;"/>
            </g>
            <g id="patch_17">
                <path clip-path="url(#p2166cff920)" d="M 215.317543 192.264242
L 223.160091 192.264242 
L 223.160091 157.677667 
L 215.317543 157.677667 
z
" style="fill:#daa520;stroke:#ffffff;stroke-linejoin:miter;"/>
            </g>
            <g id="patch_18">
                <path clip-path="url(#p2166cff920)" d="M 285.900474 192.264242
L 293.743022 192.264242 
L 293.743022 161.487535 
L 285.900474 161.487535 
z
" style="fill:#daa520;stroke:#ffffff;stroke-linejoin:miter;"/>
            </g>
            <g id="patch_19">
                <path clip-path="url(#p2166cff920)" d="M 356.483405 192.264242
L 364.325953 192.264242 
L 364.325953 144.671628 
L 356.483405 144.671628 
z
" style="fill:#daa520;stroke:#ffffff;stroke-linejoin:miter;"/>
            </g>
            <g id="patch_20">
                <path clip-path="url(#p2166cff920)" d="M 0 0
z
" style="fill:#daa520;stroke:#ffffff;stroke-linejoin:miter;"/>
            </g>
            <g id="patch_21">
                <path clip-path="url(#p2166cff920)" d="M 81.99423 192.264242
L 89.836778 192.264242 
L 89.836778 181.668575 
L 81.99423 181.668575 
z
" style="fill:#ffd700;stroke:#ffffff;stroke-linejoin:miter;"/>
            </g>
            <g id="patch_22">
                <path clip-path="url(#p2166cff920)" d="M 152.57716 192.264242
L 160.419708 192.264242 
L 160.419708 176.285459 
L 152.57716 176.285459 
z
" style="fill:#ffd700;stroke:#ffffff;stroke-linejoin:miter;"/>
            </g>
            <g id="patch_23">
                <path clip-path="url(#p2166cff920)" d="M 223.160091 192.264242
L 231.002639 192.264242 
L 231.002639 180.678566 
L 223.160091 180.678566 
z
" style="fill:#ffd700;stroke:#ffffff;stroke-linejoin:miter;"/>
            </g>
            <g id="patch_24">
                <path clip-path="url(#p2166cff920)" d="M 293.743022 192.264242
L 301.58557 192.264242 
L 301.58557 166.635792 
L 293.743022 166.635792 
z
" style="fill:#ffd700;stroke:#ffffff;stroke-linejoin:miter;"/>
            </g>
            <g id="patch_25">
                <path clip-path="url(#p2166cff920)" d="M 364.325953 192.264242
L 372.168501 192.264242 
L 372.168501 171.319134 
L 364.325953 171.319134 
z
" style="fill:#ffd700;stroke:#ffffff;stroke-linejoin:miter;"/>
            </g>
            <g id="patch_26">
                <path clip-path="url(#p2166cff920)" d="M 0 0
z
" style="fill:#ffd700;stroke:#ffffff;stroke-linejoin:miter;"/>
            </g>
            <g id="patch_27">
                <path clip-path="url(#p2166cff920)" d="M 89.836778 192.264242
L 97.679325 192.264242 
L 97.679325 163.194618 
L 89.836778 163.194618 
z
" style="fill:#228b22;stroke:#ffffff;stroke-linejoin:miter;"/>
            </g>
            <g id="patch_28">
                <path clip-path="url(#p2166cff920)" d="M 0 0
z
" style="fill:#228b22;stroke:#ffffff;stroke-linejoin:miter;"/>
            </g>
            <g id="patch_29">
                <path clip-path="url(#p2166cff920)" d="M 231.002639 192.264242
L 238.845187 192.264242 
L 238.845187 176.308284 
L 231.002639 176.308284 
z
" style="fill:#228b22;stroke:#ffffff;stroke-linejoin:miter;"/>
            </g>
            <g id="patch_30">
                <path clip-path="url(#p2166cff920)" d="M 301.58557 192.264242
L 309.428118 192.264242 
L 309.428118 165.20339 
L 301.58557 165.20339 
z
" style="fill:#228b22;stroke:#ffffff;stroke-linejoin:miter;"/>
            </g>
            <g id="patch_31">
                <path clip-path="url(#p2166cff920)" d="M 372.168501 192.264242
L 380.011048 192.264242 
L 380.011048 159.047029 
L 372.168501 159.047029 
z
" style="fill:#228b22;stroke:#ffffff;stroke-linejoin:miter;"/>
            </g>
            <g id="patch_32">
                <path clip-path="url(#p2166cff920)" d="M 442.751431 192.264242
L 450.593979 192.264242 
L 450.593979 174.901543 
L 442.751431 174.901543 
z
" style="fill:#228b22;stroke:#ffffff;stroke-linejoin:miter;"/>
            </g>
            <g id="patch_33">
                <path clip-path="url(#p2166cff920)" d="M 97.679325 192.264242
L 105.521873 192.264242 
L 105.521873 181.708042 
L 97.679325 181.708042 
z
" style="fill:#32cd32;stroke:#ffffff;stroke-linejoin:miter;"/>
            </g>
            <g id="patch_34">
                <path clip-path="url(#p2166cff920)" d="M 168.262256 192.264242
L 176.104804 192.264242 
L 176.104804 13.229268 
L 168.262256 13.229268 
z
" style="fill:#32cd32;stroke:#ffffff;stroke-linejoin:miter;"/>
            </g>
            <g id="patch_35">
                <path clip-path="url(#p2166cff920)" d="M 238.845187 192.264242
L 246.687735 192.264242 
L 246.687735 181.419548 
L 238.845187 181.419548 
z
" style="fill:#32cd32;stroke:#ffffff;stroke-linejoin:miter;"/>
            </g>
            <g id="patch_36">
                <path clip-path="url(#p2166cff920)" d="M 309.428118 192.264242
L 317.270666 192.264242 
L 317.270666 169.208253 
L 309.428118 169.208253 
z
" style="fill:#32cd32;stroke:#ffffff;stroke-linejoin:miter;"/>
            </g>
            <g id="patch_37">
                <path clip-path="url(#p2166cff920)" d="M 380.011048 192.264242
L 387.853596 192.264242 
L 387.853596 173.214559 
L 380.011048 173.214559 
z
" style="fill:#32cd32;stroke:#ffffff;stroke-linejoin:miter;"/>
            </g>
            <g id="patch_38">
                <path clip-path="url(#p2166cff920)" d="M 0 0
z
" style="fill:#32cd32;stroke:#ffffff;stroke-linejoin:miter;"/>
            </g>
            <g id="patch_39">
                <path clip-path="url(#p2166cff920)" d="M 105.521873 192.264242
L 113.364421 192.264242 
L 113.364421 180.990614 
L 105.521873 180.990614 
z
" style="fill:#9932cc;stroke:#ffffff;stroke-linejoin:miter;"/>
            </g>
            <g id="patch_40">
                <path clip-path="url(#p2166cff920)" d="M 176.104804 192.264242
L 183.947352 192.264242 
L 183.947352 177.959533 
L 176.104804 177.959533 
z
" style="fill:#9932cc;stroke:#ffffff;stroke-linejoin:miter;"/>
            </g>
            <g id="patch_41">
                <path clip-path="url(#p2166cff920)" d="M 246.687735 192.264242
L 254.530283 192.264242 
L 254.530283 183.13691 
L 246.687735 183.13691 
z
" style="fill:#9932cc;stroke:#ffffff;stroke-linejoin:miter;"/>
            </g>
            <g id="patch_42">
                <path clip-path="url(#p2166cff920)" d="M 317.270666 192.264242
L 325.113213 192.264242 
L 325.113213 171.91744 
L 317.270666 171.91744 
z
" style="fill:#9932cc;stroke:#ffffff;stroke-linejoin:miter;"/>
            </g>
            <g id="patch_43">
                <path clip-path="url(#p2166cff920)" d="M 387.853596 192.264242
L 395.696144 192.264242 
L 395.696144 176.212182 
L 387.853596 176.212182 
z
" style="fill:#9932cc;stroke:#ffffff;stroke-linejoin:miter;"/>
            </g>
            <g id="patch_44">
                <path clip-path="url(#p2166cff920)" d="M 458.436527 192.264242
L 466.279075 192.264242 
L 466.279075 180.85485 
L 458.436527 180.85485 
z
" style="fill:#9932cc;stroke:#ffffff;stroke-linejoin:miter;"/>
            </g>
            <g id="patch_45">
                <path clip-path="url(#p2166cff920)" d="M 113.364421 192.264242
L 121.206969 192.264242 
L 121.206969 181.229121 
L 113.364421 181.229121 
z
" style="fill:#000080;stroke:#ffffff;stroke-linejoin:miter;"/>
            </g>
            <g id="patch_46">
                <path clip-path="url(#p2166cff920)" d="M 183.947352 192.264242
L 191.7899 192.264242 
L 191.7899 172.730071 
L 183.947352 172.730071 
z
" style="fill:#000080;stroke:#ffffff;stroke-linejoin:miter;"/>
            </g>
            <g id="patch_47">
                <path clip-path="url(#p2166cff920)" d="M 254.530283 192.264242
L 262.372831 192.264242 
L 262.372831 172.17674 
L 254.530283 172.17674 
z
" style="fill:#000080;stroke:#ffffff;stroke-linejoin:miter;"/>
            </g>
            <g id="patch_48">
                <path clip-path="url(#p2166cff920)" d="M 325.113213 192.264242
L 332.955761 192.264242 
L 332.955761 127.25111 
L 325.113213 127.25111 
z
" style="fill:#000080;stroke:#ffffff;stroke-linejoin:miter;"/>
            </g>
            <g id="patch_49">
                <path clip-path="url(#p2166cff920)" d="M 395.696144 192.264242
L 403.538692 192.264242 
L 403.538692 105.800739 
L 395.696144 105.800739 
z
" style="fill:#000080;stroke:#ffffff;stroke-linejoin:miter;"/>
            </g>
            <g id="patch_50">
                <path clip-path="url(#p2166cff920)" d="M 466.279075 192.264242
L 474.121623 192.264242 
L 474.121623 177.480947 
L 466.279075 177.480947 
z
" style="fill:#000080;stroke:#ffffff;stroke-linejoin:miter;"/>
            </g>
            <g id="matplotlib.axis_1">
                <g id="xtick_1">
                    <g id="line2d_1">
                        <defs>
                            <path d="M 0 0
L 0 3.5 
" id="m048f94f2af" style="stroke:#000000;stroke-width:0.8;"/>
                        </defs>
                        <g>
                            <use style="stroke:#000000;stroke-width:0.8;" x="85.915504" xlink:href="#m048f94f2af"
                                 y="192.264242"/>
                        </g>
                    </g>
                    <g id="text_1">
                        <!-- somatic_features -->
                        <g transform="translate(66.173121 245.049547)rotate(-45)scale(0.0694 -0.0694)">
                            <defs>
                                <path d="M 44.28125 53.078125
L 44.28125 44.578125 
Q 40.484375 46.53125 36.375 47.5 
Q 32.28125 48.484375 27.875 48.484375 
Q 21.1875 48.484375 17.84375 46.4375 
Q 14.5 44.390625 14.5 40.28125 
Q 14.5 37.15625 16.890625 35.375 
Q 19.28125 33.59375 26.515625 31.984375 
L 29.59375 31.296875 
Q 39.15625 29.25 43.1875 25.515625 
Q 47.21875 21.78125 47.21875 15.09375 
Q 47.21875 7.46875 41.1875 3.015625 
Q 35.15625 -1.421875 24.609375 -1.421875 
Q 20.21875 -1.421875 15.453125 -0.5625 
Q 10.6875 0.296875 5.421875 2 
L 5.421875 11.28125 
Q 10.40625 8.6875 15.234375 7.390625 
Q 20.0625 6.109375 24.8125 6.109375 
Q 31.15625 6.109375 34.5625 8.28125 
Q 37.984375 10.453125 37.984375 14.40625 
Q 37.984375 18.0625 35.515625 20.015625 
Q 33.0625 21.96875 24.703125 23.78125 
L 21.578125 24.515625 
Q 13.234375 26.265625 9.515625 29.90625 
Q 5.8125 33.546875 5.8125 39.890625 
Q 5.8125 47.609375 11.28125 51.796875 
Q 16.75 56 26.8125 56 
Q 31.78125 56 36.171875 55.265625 
Q 40.578125 54.546875 44.28125 53.078125 
z
" id="DejaVuSans-115"/>
                                <path d="M 30.609375 48.390625
Q 23.390625 48.390625 19.1875 42.75 
Q 14.984375 37.109375 14.984375 27.296875 
Q 14.984375 17.484375 19.15625 11.84375 
Q 23.34375 6.203125 30.609375 6.203125 
Q 37.796875 6.203125 41.984375 11.859375 
Q 46.1875 17.53125 46.1875 27.296875 
Q 46.1875 37.015625 41.984375 42.703125 
Q 37.796875 48.390625 30.609375 48.390625 
z
M 30.609375 56 
Q 42.328125 56 49.015625 48.375 
Q 55.71875 40.765625 55.71875 27.296875 
Q 55.71875 13.875 49.015625 6.21875 
Q 42.328125 -1.421875 30.609375 -1.421875 
Q 18.84375 -1.421875 12.171875 6.21875 
Q 5.515625 13.875 5.515625 27.296875 
Q 5.515625 40.765625 12.171875 48.375 
Q 18.84375 56 30.609375 56 
z
" id="DejaVuSans-111"/>
                                <path d="M 52 44.1875
Q 55.375 50.25 60.0625 53.125 
Q 64.75 56 71.09375 56 
Q 79.640625 56 84.28125 50.015625 
Q 88.921875 44.046875 88.921875 33.015625 
L 88.921875 0 
L 79.890625 0 
L 79.890625 32.71875 
Q 79.890625 40.578125 77.09375 44.375 
Q 74.3125 48.1875 68.609375 48.1875 
Q 61.625 48.1875 57.5625 43.546875 
Q 53.515625 38.921875 53.515625 30.90625 
L 53.515625 0 
L 44.484375 0 
L 44.484375 32.71875 
Q 44.484375 40.625 41.703125 44.40625 
Q 38.921875 48.1875 33.109375 48.1875 
Q 26.21875 48.1875 22.15625 43.53125 
Q 18.109375 38.875 18.109375 30.90625 
L 18.109375 0 
L 9.078125 0 
L 9.078125 54.6875 
L 18.109375 54.6875 
L 18.109375 46.1875 
Q 21.1875 51.21875 25.484375 53.609375 
Q 29.78125 56 35.6875 56 
Q 41.65625 56 45.828125 52.96875 
Q 50 49.953125 52 44.1875 
z
" id="DejaVuSans-109"/>
                                <path d="M 34.28125 27.484375
Q 23.390625 27.484375 19.1875 25 
Q 14.984375 22.515625 14.984375 16.5 
Q 14.984375 11.71875 18.140625 8.90625 
Q 21.296875 6.109375 26.703125 6.109375 
Q 34.1875 6.109375 38.703125 11.40625 
Q 43.21875 16.703125 43.21875 25.484375 
L 43.21875 27.484375 
z
M 52.203125 31.203125 
L 52.203125 0 
L 43.21875 0 
L 43.21875 8.296875 
Q 40.140625 3.328125 35.546875 0.953125 
Q 30.953125 -1.421875 24.3125 -1.421875 
Q 15.921875 -1.421875 10.953125 3.296875 
Q 6 8.015625 6 15.921875 
Q 6 25.140625 12.171875 29.828125 
Q 18.359375 34.515625 30.609375 34.515625 
L 43.21875 34.515625 
L 43.21875 35.40625 
Q 43.21875 41.609375 39.140625 45 
Q 35.0625 48.390625 27.6875 48.390625 
Q 23 48.390625 18.546875 47.265625 
Q 14.109375 46.140625 10.015625 43.890625 
L 10.015625 52.203125 
Q 14.9375 54.109375 19.578125 55.046875 
Q 24.21875 56 28.609375 56 
Q 40.484375 56 46.34375 49.84375 
Q 52.203125 43.703125 52.203125 31.203125 
z
" id="DejaVuSans-97"/>
                                <path d="M 18.3125 70.21875
L 18.3125 54.6875 
L 36.8125 54.6875 
L 36.8125 47.703125 
L 18.3125 47.703125 
L 18.3125 18.015625 
Q 18.3125 11.328125 20.140625 9.421875 
Q 21.96875 7.515625 27.59375 7.515625 
L 36.8125 7.515625 
L 36.8125 0 
L 27.59375 0 
Q 17.1875 0 13.234375 3.875 
Q 9.28125 7.765625 9.28125 18.015625 
L 9.28125 47.703125 
L 2.6875 47.703125 
L 2.6875 54.6875 
L 9.28125 54.6875 
L 9.28125 70.21875 
z
" id="DejaVuSans-116"/>
                                <path d="M 9.421875 54.6875
L 18.40625 54.6875 
L 18.40625 0 
L 9.421875 0 
z
M 9.421875 75.984375 
L 18.40625 75.984375 
L 18.40625 64.59375 
L 9.421875 64.59375 
z
" id="DejaVuSans-105"/>
                                <path d="M 48.78125 52.59375
L 48.78125 44.1875 
Q 44.96875 46.296875 41.140625 47.34375 
Q 37.3125 48.390625 33.40625 48.390625 
Q 24.65625 48.390625 19.8125 42.84375 
Q 14.984375 37.3125 14.984375 27.296875 
Q 14.984375 17.28125 19.8125 11.734375 
Q 24.65625 6.203125 33.40625 6.203125 
Q 37.3125 6.203125 41.140625 7.25 
Q 44.96875 8.296875 48.78125 10.40625 
L 48.78125 2.09375 
Q 45.015625 0.34375 40.984375 -0.53125 
Q 36.96875 -1.421875 32.421875 -1.421875 
Q 20.0625 -1.421875 12.78125 6.34375 
Q 5.515625 14.109375 5.515625 27.296875 
Q 5.515625 40.671875 12.859375 48.328125 
Q 20.21875 56 33.015625 56 
Q 37.15625 56 41.109375 55.140625 
Q 45.0625 54.296875 48.78125 52.59375 
z
" id="DejaVuSans-99"/>
                                <path d="M 50.984375 -16.609375
L 50.984375 -23.578125 
L -0.984375 -23.578125 
L -0.984375 -16.609375 
z
" id="DejaVuSans-95"/>
                                <path d="M 37.109375 75.984375
L 37.109375 68.5 
L 28.515625 68.5 
Q 23.6875 68.5 21.796875 66.546875 
Q 19.921875 64.59375 19.921875 59.515625 
L 19.921875 54.6875 
L 34.71875 54.6875 
L 34.71875 47.703125 
L 19.921875 47.703125 
L 19.921875 0 
L 10.890625 0 
L 10.890625 47.703125 
L 2.296875 47.703125 
L 2.296875 54.6875 
L 10.890625 54.6875 
L 10.890625 58.5 
Q 10.890625 67.625 15.140625 71.796875 
Q 19.390625 75.984375 28.609375 75.984375 
z
" id="DejaVuSans-102"/>
                                <path d="M 56.203125 29.59375
L 56.203125 25.203125 
L 14.890625 25.203125 
Q 15.484375 15.921875 20.484375 11.0625 
Q 25.484375 6.203125 34.421875 6.203125 
Q 39.59375 6.203125 44.453125 7.46875 
Q 49.3125 8.734375 54.109375 11.28125 
L 54.109375 2.78125 
Q 49.265625 0.734375 44.1875 -0.34375 
Q 39.109375 -1.421875 33.890625 -1.421875 
Q 20.796875 -1.421875 13.15625 6.1875 
Q 5.515625 13.8125 5.515625 26.8125 
Q 5.515625 40.234375 12.765625 48.109375 
Q 20.015625 56 32.328125 56 
Q 43.359375 56 49.78125 48.890625 
Q 56.203125 41.796875 56.203125 29.59375 
z
M 47.21875 32.234375 
Q 47.125 39.59375 43.09375 43.984375 
Q 39.0625 48.390625 32.421875 48.390625 
Q 24.90625 48.390625 20.390625 44.140625 
Q 15.875 39.890625 15.1875 32.171875 
z
" id="DejaVuSans-101"/>
                                <path d="M 8.5 21.578125
L 8.5 54.6875 
L 17.484375 54.6875 
L 17.484375 21.921875 
Q 17.484375 14.15625 20.5 10.265625 
Q 23.53125 6.390625 29.59375 6.390625 
Q 36.859375 6.390625 41.078125 11.03125 
Q 45.3125 15.671875 45.3125 23.6875 
L 45.3125 54.6875 
L 54.296875 54.6875 
L 54.296875 0 
L 45.3125 0 
L 45.3125 8.40625 
Q 42.046875 3.421875 37.71875 1 
Q 33.40625 -1.421875 27.6875 -1.421875 
Q 18.265625 -1.421875 13.375 4.4375 
Q 8.5 10.296875 8.5 21.578125 
z
M 31.109375 56 
z
" id="DejaVuSans-117"/>
                                <path d="M 41.109375 46.296875
Q 39.59375 47.171875 37.8125 47.578125 
Q 36.03125 48 33.890625 48 
Q 26.265625 48 22.1875 43.046875 
Q 18.109375 38.09375 18.109375 28.8125 
L 18.109375 0 
L 9.078125 0 
L 9.078125 54.6875 
L 18.109375 54.6875 
L 18.109375 46.1875 
Q 20.953125 51.171875 25.484375 53.578125 
Q 30.03125 56 36.53125 56 
Q 37.453125 56 38.578125 55.875 
Q 39.703125 55.765625 41.0625 55.515625 
z
" id="DejaVuSans-114"/>
                            </defs>
                            <use xlink:href="#DejaVuSans-115"/>
                            <use x="52.099609" xlink:href="#DejaVuSans-111"/>
                            <use x="113.28125" xlink:href="#DejaVuSans-109"/>
                            <use x="210.693359" xlink:href="#DejaVuSans-97"/>
                            <use x="271.972656" xlink:href="#DejaVuSans-116"/>
                            <use x="311.181641" xlink:href="#DejaVuSans-105"/>
                            <use x="338.964844" xlink:href="#DejaVuSans-99"/>
                            <use x="393.945312" xlink:href="#DejaVuSans-95"/>
                            <use x="443.945312" xlink:href="#DejaVuSans-102"/>
                            <use x="479.150391" xlink:href="#DejaVuSans-101"/>
                            <use x="540.673828" xlink:href="#DejaVuSans-97"/>
                            <use x="601.953125" xlink:href="#DejaVuSans-116"/>
                            <use x="641.162109" xlink:href="#DejaVuSans-117"/>
                            <use x="704.541016" xlink:href="#DejaVuSans-114"/>
                            <use x="743.404297" xlink:href="#DejaVuSans-101"/>
                            <use x="804.927734" xlink:href="#DejaVuSans-115"/>
                        </g>
                    </g>
                </g>
                <g id="xtick_2">
                    <g id="line2d_2">
                        <g>
                            <use style="stroke:#000000;stroke-width:0.8;" x="156.498434" xlink:href="#m048f94f2af"
                                 y="192.264242"/>
                        </g>
                    </g>
                    <g id="text_2">
                        <!-- depol_block -->
                        <g transform="translate(143.2387 232.084251)rotate(-45)scale(0.0694 -0.0694)">
                            <defs>
                                <path d="M 45.40625 46.390625
L 45.40625 75.984375 
L 54.390625 75.984375 
L 54.390625 0 
L 45.40625 0 
L 45.40625 8.203125 
Q 42.578125 3.328125 38.25 0.953125 
Q 33.9375 -1.421875 27.875 -1.421875 
Q 17.96875 -1.421875 11.734375 6.484375 
Q 5.515625 14.40625 5.515625 27.296875 
Q 5.515625 40.1875 11.734375 48.09375 
Q 17.96875 56 27.875 56 
Q 33.9375 56 38.25 53.625 
Q 42.578125 51.265625 45.40625 46.390625 
z
M 14.796875 27.296875 
Q 14.796875 17.390625 18.875 11.75 
Q 22.953125 6.109375 30.078125 6.109375 
Q 37.203125 6.109375 41.296875 11.75 
Q 45.40625 17.390625 45.40625 27.296875 
Q 45.40625 37.203125 41.296875 42.84375 
Q 37.203125 48.484375 30.078125 48.484375 
Q 22.953125 48.484375 18.875 42.84375 
Q 14.796875 37.203125 14.796875 27.296875 
z
" id="DejaVuSans-100"/>
                                <path d="M 18.109375 8.203125
L 18.109375 -20.796875 
L 9.078125 -20.796875 
L 9.078125 54.6875 
L 18.109375 54.6875 
L 18.109375 46.390625 
Q 20.953125 51.265625 25.265625 53.625 
Q 29.59375 56 35.59375 56 
Q 45.5625 56 51.78125 48.09375 
Q 58.015625 40.1875 58.015625 27.296875 
Q 58.015625 14.40625 51.78125 6.484375 
Q 45.5625 -1.421875 35.59375 -1.421875 
Q 29.59375 -1.421875 25.265625 0.953125 
Q 20.953125 3.328125 18.109375 8.203125 
z
M 48.6875 27.296875 
Q 48.6875 37.203125 44.609375 42.84375 
Q 40.53125 48.484375 33.40625 48.484375 
Q 26.265625 48.484375 22.1875 42.84375 
Q 18.109375 37.203125 18.109375 27.296875 
Q 18.109375 17.390625 22.1875 11.75 
Q 26.265625 6.109375 33.40625 6.109375 
Q 40.53125 6.109375 44.609375 11.75 
Q 48.6875 17.390625 48.6875 27.296875 
z
" id="DejaVuSans-112"/>
                                <path d="M 9.421875 75.984375
L 18.40625 75.984375 
L 18.40625 0 
L 9.421875 0 
z
" id="DejaVuSans-108"/>
                                <path d="M 48.6875 27.296875
Q 48.6875 37.203125 44.609375 42.84375 
Q 40.53125 48.484375 33.40625 48.484375 
Q 26.265625 48.484375 22.1875 42.84375 
Q 18.109375 37.203125 18.109375 27.296875 
Q 18.109375 17.390625 22.1875 11.75 
Q 26.265625 6.109375 33.40625 6.109375 
Q 40.53125 6.109375 44.609375 11.75 
Q 48.6875 17.390625 48.6875 27.296875 
z
M 18.109375 46.390625 
Q 20.953125 51.265625 25.265625 53.625 
Q 29.59375 56 35.59375 56 
Q 45.5625 56 51.78125 48.09375 
Q 58.015625 40.1875 58.015625 27.296875 
Q 58.015625 14.40625 51.78125 6.484375 
Q 45.5625 -1.421875 35.59375 -1.421875 
Q 29.59375 -1.421875 25.265625 0.953125 
Q 20.953125 3.328125 18.109375 8.203125 
L 18.109375 0 
L 9.078125 0 
L 9.078125 75.984375 
L 18.109375 75.984375 
z
" id="DejaVuSans-98"/>
                                <path d="M 9.078125 75.984375
L 18.109375 75.984375 
L 18.109375 31.109375 
L 44.921875 54.6875 
L 56.390625 54.6875 
L 27.390625 29.109375 
L 57.625 0 
L 45.90625 0 
L 18.109375 26.703125 
L 18.109375 0 
L 9.078125 0 
z
" id="DejaVuSans-107"/>
                            </defs>
                            <use xlink:href="#DejaVuSans-100"/>
                            <use x="63.476562" xlink:href="#DejaVuSans-101"/>
                            <use x="125" xlink:href="#DejaVuSans-112"/>
                            <use x="188.476562" xlink:href="#DejaVuSans-111"/>
                            <use x="249.658203" xlink:href="#DejaVuSans-108"/>
                            <use x="277.441406" xlink:href="#DejaVuSans-95"/>
                            <use x="327.441406" xlink:href="#DejaVuSans-98"/>
                            <use x="390.917969" xlink:href="#DejaVuSans-108"/>
                            <use x="418.701172" xlink:href="#DejaVuSans-111"/>
                            <use x="479.882812" xlink:href="#DejaVuSans-99"/>
                            <use x="534.863281" xlink:href="#DejaVuSans-107"/>
                        </g>
                    </g>
                </g>
                <g id="xtick_3">
                    <g id="line2d_3">
                        <g>
                            <use style="stroke:#000000;stroke-width:0.8;" x="227.081365" xlink:href="#m048f94f2af"
                                 y="192.264242"/>
                        </g>
                    </g>
                    <g id="text_3">
                        <!-- PSP_attenuation -->
                        <g transform="translate(208.37297 242.981571)rotate(-45)scale(0.0694 -0.0694)">
                            <defs>
                                <path d="M 19.671875 64.796875
L 19.671875 37.40625 
L 32.078125 37.40625 
Q 38.96875 37.40625 42.71875 40.96875 
Q 46.484375 44.53125 46.484375 51.125 
Q 46.484375 57.671875 42.71875 61.234375 
Q 38.96875 64.796875 32.078125 64.796875 
z
M 9.8125 72.90625 
L 32.078125 72.90625 
Q 44.34375 72.90625 50.609375 67.359375 
Q 56.890625 61.8125 56.890625 51.125 
Q 56.890625 40.328125 50.609375 34.8125 
Q 44.34375 29.296875 32.078125 29.296875 
L 19.671875 29.296875 
L 19.671875 0 
L 9.8125 0 
z
" id="DejaVuSans-80"/>
                                <path d="M 53.515625 70.515625
L 53.515625 60.890625 
Q 47.90625 63.578125 42.921875 64.890625 
Q 37.9375 66.21875 33.296875 66.21875 
Q 25.25 66.21875 20.875 63.09375 
Q 16.5 59.96875 16.5 54.203125 
Q 16.5 49.359375 19.40625 46.890625 
Q 22.3125 44.4375 30.421875 42.921875 
L 36.375 41.703125 
Q 47.40625 39.59375 52.65625 34.296875 
Q 57.90625 29 57.90625 20.125 
Q 57.90625 9.515625 50.796875 4.046875 
Q 43.703125 -1.421875 29.984375 -1.421875 
Q 24.8125 -1.421875 18.96875 -0.25 
Q 13.140625 0.921875 6.890625 3.21875 
L 6.890625 13.375 
Q 12.890625 10.015625 18.65625 8.296875 
Q 24.421875 6.59375 29.984375 6.59375 
Q 38.421875 6.59375 43.015625 9.90625 
Q 47.609375 13.234375 47.609375 19.390625 
Q 47.609375 24.75 44.3125 27.78125 
Q 41.015625 30.8125 33.5 32.328125 
L 27.484375 33.5 
Q 16.453125 35.6875 11.515625 40.375 
Q 6.59375 45.0625 6.59375 53.421875 
Q 6.59375 63.09375 13.40625 68.65625 
Q 20.21875 74.21875 32.171875 74.21875 
Q 37.3125 74.21875 42.625 73.28125 
Q 47.953125 72.359375 53.515625 70.515625 
z
" id="DejaVuSans-83"/>
                                <path d="M 54.890625 33.015625
L 54.890625 0 
L 45.90625 0 
L 45.90625 32.71875 
Q 45.90625 40.484375 42.875 44.328125 
Q 39.84375 48.1875 33.796875 48.1875 
Q 26.515625 48.1875 22.3125 43.546875 
Q 18.109375 38.921875 18.109375 30.90625 
L 18.109375 0 
L 9.078125 0 
L 9.078125 54.6875 
L 18.109375 54.6875 
L 18.109375 46.1875 
Q 21.34375 51.125 25.703125 53.5625 
Q 30.078125 56 35.796875 56 
Q 45.21875 56 50.046875 50.171875 
Q 54.890625 44.34375 54.890625 33.015625 
z
" id="DejaVuSans-110"/>
                            </defs>
                            <use xlink:href="#DejaVuSans-80"/>
                            <use x="60.302734" xlink:href="#DejaVuSans-83"/>
                            <use x="123.779297" xlink:href="#DejaVuSans-80"/>
                            <use x="184.082031" xlink:href="#DejaVuSans-95"/>
                            <use x="234.082031" xlink:href="#DejaVuSans-97"/>
                            <use x="295.361328" xlink:href="#DejaVuSans-116"/>
                            <use x="334.570312" xlink:href="#DejaVuSans-116"/>
                            <use x="373.779297" xlink:href="#DejaVuSans-101"/>
                            <use x="435.302734" xlink:href="#DejaVuSans-110"/>
                            <use x="498.681641" xlink:href="#DejaVuSans-117"/>
                            <use x="562.060547" xlink:href="#DejaVuSans-97"/>
                            <use x="623.339844" xlink:href="#DejaVuSans-116"/>
                            <use x="662.548828" xlink:href="#DejaVuSans-105"/>
                            <use x="690.332031" xlink:href="#DejaVuSans-111"/>
                            <use x="751.513672" xlink:href="#DejaVuSans-110"/>
                        </g>
                    </g>
                </g>
                <g id="xtick_4">
                    <g id="line2d_4">
                        <g>
                            <use style="stroke:#000000;stroke-width:0.8;" x="297.664296" xlink:href="#m048f94f2af"
                                 y="192.264242"/>
                        </g>
                    </g>
                    <g id="text_4">
                        <!-- backpropagating_AP_strong -->
                        <g transform="translate(264.808248 271.276878)rotate(-45)scale(0.0694 -0.0694)">
                            <defs>
                                <path d="M 45.40625 27.984375
Q 45.40625 37.75 41.375 43.109375 
Q 37.359375 48.484375 30.078125 48.484375 
Q 22.859375 48.484375 18.828125 43.109375 
Q 14.796875 37.75 14.796875 27.984375 
Q 14.796875 18.265625 18.828125 12.890625 
Q 22.859375 7.515625 30.078125 7.515625 
Q 37.359375 7.515625 41.375 12.890625 
Q 45.40625 18.265625 45.40625 27.984375 
z
M 54.390625 6.78125 
Q 54.390625 -7.171875 48.1875 -13.984375 
Q 42 -20.796875 29.203125 -20.796875 
Q 24.46875 -20.796875 20.265625 -20.09375 
Q 16.0625 -19.390625 12.109375 -17.921875 
L 12.109375 -9.1875 
Q 16.0625 -11.328125 19.921875 -12.34375 
Q 23.78125 -13.375 27.78125 -13.375 
Q 36.625 -13.375 41.015625 -8.765625 
Q 45.40625 -4.15625 45.40625 5.171875 
L 45.40625 9.625 
Q 42.625 4.78125 38.28125 2.390625 
Q 33.9375 0 27.875 0 
Q 17.828125 0 11.671875 7.65625 
Q 5.515625 15.328125 5.515625 27.984375 
Q 5.515625 40.671875 11.671875 48.328125 
Q 17.828125 56 27.875 56 
Q 33.9375 56 38.28125 53.609375 
Q 42.625 51.21875 45.40625 46.390625 
L 45.40625 54.6875 
L 54.390625 54.6875 
z
" id="DejaVuSans-103"/>
                                <path d="M 34.1875 63.1875
L 20.796875 26.90625 
L 47.609375 26.90625 
z
M 28.609375 72.90625 
L 39.796875 72.90625 
L 67.578125 0 
L 57.328125 0 
L 50.6875 18.703125 
L 17.828125 18.703125 
L 11.1875 0 
L 0.78125 0 
z
" id="DejaVuSans-65"/>
                            </defs>
                            <use xlink:href="#DejaVuSans-98"/>
                            <use x="63.476562" xlink:href="#DejaVuSans-97"/>
                            <use x="124.755859" xlink:href="#DejaVuSans-99"/>
                            <use x="179.736328" xlink:href="#DejaVuSans-107"/>
                            <use x="237.646484" xlink:href="#DejaVuSans-112"/>
                            <use x="301.123047" xlink:href="#DejaVuSans-114"/>
                            <use x="339.986328" xlink:href="#DejaVuSans-111"/>
                            <use x="401.167969" xlink:href="#DejaVuSans-112"/>
                            <use x="464.644531" xlink:href="#DejaVuSans-97"/>
                            <use x="525.923828" xlink:href="#DejaVuSans-103"/>
                            <use x="589.400391" xlink:href="#DejaVuSans-97"/>
                            <use x="650.679688" xlink:href="#DejaVuSans-116"/>
                            <use x="689.888672" xlink:href="#DejaVuSans-105"/>
                            <use x="717.671875" xlink:href="#DejaVuSans-110"/>
                            <use x="781.050781" xlink:href="#DejaVuSans-103"/>
                            <use x="844.527344" xlink:href="#DejaVuSans-95"/>
                            <use x="894.527344" xlink:href="#DejaVuSans-65"/>
                            <use x="962.935547" xlink:href="#DejaVuSans-80"/>
                            <use x="1023.238281" xlink:href="#DejaVuSans-95"/>
                            <use x="1073.238281" xlink:href="#DejaVuSans-115"/>
                            <use x="1125.337891" xlink:href="#DejaVuSans-116"/>
                            <use x="1164.546875" xlink:href="#DejaVuSans-114"/>
                            <use x="1203.410156" xlink:href="#DejaVuSans-111"/>
                            <use x="1264.591797" xlink:href="#DejaVuSans-110"/>
                            <use x="1327.970703" xlink:href="#DejaVuSans-103"/>
                        </g>
                    </g>
                </g>
                <g id="xtick_5">
                    <g id="line2d_5">
                        <g>
                            <use style="stroke:#000000;stroke-width:0.8;" x="368.247227" xlink:href="#m048f94f2af"
                                 y="192.264242"/>
                        </g>
                    </g>
                    <g id="text_5">
                        <!-- backpropagating_AP_weak -->
                        <g transform="translate(336.757944 268.543347)rotate(-45)scale(0.0694 -0.0694)">
                            <defs>
                                <path d="M 4.203125 54.6875
L 13.1875 54.6875 
L 24.421875 12.015625 
L 35.59375 54.6875 
L 46.1875 54.6875 
L 57.421875 12.015625 
L 68.609375 54.6875 
L 77.59375 54.6875 
L 63.28125 0 
L 52.6875 0 
L 40.921875 44.828125 
L 29.109375 0 
L 18.5 0 
z
" id="DejaVuSans-119"/>
                            </defs>
                            <use xlink:href="#DejaVuSans-98"/>
                            <use x="63.476562" xlink:href="#DejaVuSans-97"/>
                            <use x="124.755859" xlink:href="#DejaVuSans-99"/>
                            <use x="179.736328" xlink:href="#DejaVuSans-107"/>
                            <use x="237.646484" xlink:href="#DejaVuSans-112"/>
                            <use x="301.123047" xlink:href="#DejaVuSans-114"/>
                            <use x="339.986328" xlink:href="#DejaVuSans-111"/>
                            <use x="401.167969" xlink:href="#DejaVuSans-112"/>
                            <use x="464.644531" xlink:href="#DejaVuSans-97"/>
                            <use x="525.923828" xlink:href="#DejaVuSans-103"/>
                            <use x="589.400391" xlink:href="#DejaVuSans-97"/>
                            <use x="650.679688" xlink:href="#DejaVuSans-116"/>
                            <use x="689.888672" xlink:href="#DejaVuSans-105"/>
                            <use x="717.671875" xlink:href="#DejaVuSans-110"/>
                            <use x="781.050781" xlink:href="#DejaVuSans-103"/>
                            <use x="844.527344" xlink:href="#DejaVuSans-95"/>
                            <use x="894.527344" xlink:href="#DejaVuSans-65"/>
                            <use x="962.935547" xlink:href="#DejaVuSans-80"/>
                            <use x="1023.238281" xlink:href="#DejaVuSans-95"/>
                            <use x="1073.238281" xlink:href="#DejaVuSans-119"/>
                            <use x="1155.025391" xlink:href="#DejaVuSans-101"/>
                            <use x="1216.548828" xlink:href="#DejaVuSans-97"/>
                            <use x="1277.828125" xlink:href="#DejaVuSans-107"/>
                        </g>
                    </g>
                </g>
                <g id="xtick_6">
                    <g id="line2d_6">
                        <g>
                            <use style="stroke:#000000;stroke-width:0.8;" x="438.830157" xlink:href="#m048f94f2af"
                                 y="192.264242"/>
                        </g>
                    </g>
                    <g id="text_6">
                        <!-- oblique_integration -->
                        <g transform="translate(416.366128 250.49284)rotate(-45)scale(0.0694 -0.0694)">
                            <defs>
                                <path d="M 14.796875 27.296875
Q 14.796875 17.390625 18.875 11.75 
Q 22.953125 6.109375 30.078125 6.109375 
Q 37.203125 6.109375 41.296875 11.75 
Q 45.40625 17.390625 45.40625 27.296875 
Q 45.40625 37.203125 41.296875 42.84375 
Q 37.203125 48.484375 30.078125 48.484375 
Q 22.953125 48.484375 18.875 42.84375 
Q 14.796875 37.203125 14.796875 27.296875 
z
M 45.40625 8.203125 
Q 42.578125 3.328125 38.25 0.953125 
Q 33.9375 -1.421875 27.875 -1.421875 
Q 17.96875 -1.421875 11.734375 6.484375 
Q 5.515625 14.40625 5.515625 27.296875 
Q 5.515625 40.1875 11.734375 48.09375 
Q 17.96875 56 27.875 56 
Q 33.9375 56 38.25 53.625 
Q 42.578125 51.265625 45.40625 46.390625 
L 45.40625 54.6875 
L 54.390625 54.6875 
L 54.390625 -20.796875 
L 45.40625 -20.796875 
z
" id="DejaVuSans-113"/>
                            </defs>
                            <use xlink:href="#DejaVuSans-111"/>
                            <use x="61.181641" xlink:href="#DejaVuSans-98"/>
                            <use x="124.658203" xlink:href="#DejaVuSans-108"/>
                            <use x="152.441406" xlink:href="#DejaVuSans-105"/>
                            <use x="180.224609" xlink:href="#DejaVuSans-113"/>
                            <use x="243.701172" xlink:href="#DejaVuSans-117"/>
                            <use x="307.080078" xlink:href="#DejaVuSans-101"/>
                            <use x="368.603516" xlink:href="#DejaVuSans-95"/>
                            <use x="418.603516" xlink:href="#DejaVuSans-105"/>
                            <use x="446.386719" xlink:href="#DejaVuSans-110"/>
                            <use x="509.765625" xlink:href="#DejaVuSans-116"/>
                            <use x="548.974609" xlink:href="#DejaVuSans-101"/>
                            <use x="610.498047" xlink:href="#DejaVuSans-103"/>
                            <use x="673.974609" xlink:href="#DejaVuSans-114"/>
                            <use x="715.087891" xlink:href="#DejaVuSans-97"/>
                            <use x="776.367188" xlink:href="#DejaVuSans-116"/>
                            <use x="815.576172" xlink:href="#DejaVuSans-105"/>
                            <use x="843.359375" xlink:href="#DejaVuSans-111"/>
                            <use x="904.541016" xlink:href="#DejaVuSans-110"/>
                        </g>
                    </g>
                </g>
            </g>
            <g id="matplotlib.axis_2">
                <g id="ytick_1">
                    <g id="line2d_7">
                        <defs>
                            <path d="M 0 0
L -3.5 0 
" id="m34e6482fb3" style="stroke:#000000;stroke-width:0.8;"/>
                        </defs>
                        <g>
                            <use style="stroke:#000000;stroke-width:0.8;" x="43.330469" xlink:href="#m34e6482fb3"
                                 y="192.264242"/>
                        </g>
                    </g>
                    <g id="text_7">
                        <!-- 0.0 -->
                        <g transform="translate(25.2937 194.900899)scale(0.0694 -0.0694)">
                            <defs>
                                <path d="M 31.78125 66.40625
Q 24.171875 66.40625 20.328125 58.90625 
Q 16.5 51.421875 16.5 36.375 
Q 16.5 21.390625 20.328125 13.890625 
Q 24.171875 6.390625 31.78125 6.390625 
Q 39.453125 6.390625 43.28125 13.890625 
Q 47.125 21.390625 47.125 36.375 
Q 47.125 51.421875 43.28125 58.90625 
Q 39.453125 66.40625 31.78125 66.40625 
z
M 31.78125 74.21875 
Q 44.046875 74.21875 50.515625 64.515625 
Q 56.984375 54.828125 56.984375 36.375 
Q 56.984375 17.96875 50.515625 8.265625 
Q 44.046875 -1.421875 31.78125 -1.421875 
Q 19.53125 -1.421875 13.0625 8.265625 
Q 6.59375 17.96875 6.59375 36.375 
Q 6.59375 54.828125 13.0625 64.515625 
Q 19.53125 74.21875 31.78125 74.21875 
z
" id="DejaVuSans-48"/>
                                <path d="M 10.6875 12.40625
L 21 12.40625 
L 21 0 
L 10.6875 0 
z
" id="DejaVuSans-46"/>
                            </defs>
                            <use xlink:href="#DejaVuSans-48"/>
                            <use x="63.623047" xlink:href="#DejaVuSans-46"/>
                            <use x="95.410156" xlink:href="#DejaVuSans-48"/>
                        </g>
                    </g>
                </g>
                <g id="ytick_2">
                    <g id="line2d_8">
                        <g>
                            <use style="stroke:#000000;stroke-width:0.8;" x="43.330469" xlink:href="#m34e6482fb3"
                                 y="171.99451"/>
                        </g>
                    </g>
                    <g id="text_8">
                        <!-- 2.5 -->
                        <g transform="translate(25.2937 174.631168)scale(0.0694 -0.0694)">
                            <defs>
                                <path d="M 19.1875 8.296875
L 53.609375 8.296875 
L 53.609375 0 
L 7.328125 0 
L 7.328125 8.296875 
Q 12.9375 14.109375 22.625 23.890625 
Q 32.328125 33.6875 34.8125 36.53125 
Q 39.546875 41.84375 41.421875 45.53125 
Q 43.3125 49.21875 43.3125 52.78125 
Q 43.3125 58.59375 39.234375 62.25 
Q 35.15625 65.921875 28.609375 65.921875 
Q 23.96875 65.921875 18.8125 64.3125 
Q 13.671875 62.703125 7.8125 59.421875 
L 7.8125 69.390625 
Q 13.765625 71.78125 18.9375 73 
Q 24.125 74.21875 28.421875 74.21875 
Q 39.75 74.21875 46.484375 68.546875 
Q 53.21875 62.890625 53.21875 53.421875 
Q 53.21875 48.921875 51.53125 44.890625 
Q 49.859375 40.875 45.40625 35.40625 
Q 44.1875 33.984375 37.640625 27.21875 
Q 31.109375 20.453125 19.1875 8.296875 
z
" id="DejaVuSans-50"/>
                                <path d="M 10.796875 72.90625
L 49.515625 72.90625 
L 49.515625 64.59375 
L 19.828125 64.59375 
L 19.828125 46.734375 
Q 21.96875 47.46875 24.109375 47.828125 
Q 26.265625 48.1875 28.421875 48.1875 
Q 40.625 48.1875 47.75 41.5 
Q 54.890625 34.8125 54.890625 23.390625 
Q 54.890625 11.625 47.5625 5.09375 
Q 40.234375 -1.421875 26.90625 -1.421875 
Q 22.3125 -1.421875 17.546875 -0.640625 
Q 12.796875 0.140625 7.71875 1.703125 
L 7.71875 11.625 
Q 12.109375 9.234375 16.796875 8.0625 
Q 21.484375 6.890625 26.703125 6.890625 
Q 35.15625 6.890625 40.078125 11.328125 
Q 45.015625 15.765625 45.015625 23.390625 
Q 45.015625 31 40.078125 35.4375 
Q 35.15625 39.890625 26.703125 39.890625 
Q 22.75 39.890625 18.8125 39.015625 
Q 14.890625 38.140625 10.796875 36.28125 
z
" id="DejaVuSans-53"/>
                            </defs>
                            <use xlink:href="#DejaVuSans-50"/>
                            <use x="63.623047" xlink:href="#DejaVuSans-46"/>
                            <use x="95.410156" xlink:href="#DejaVuSans-53"/>
                        </g>
                    </g>
                </g>
                <g id="ytick_3">
                    <g id="line2d_9">
                        <g>
                            <use style="stroke:#000000;stroke-width:0.8;" x="43.330469" xlink:href="#m34e6482fb3"
                                 y="151.724778"/>
                        </g>
                    </g>
                    <g id="text_9">
                        <!-- 5.0 -->
                        <g transform="translate(25.2937 154.361436)scale(0.0694 -0.0694)">
                            <use xlink:href="#DejaVuSans-53"/>
                            <use x="63.623047" xlink:href="#DejaVuSans-46"/>
                            <use x="95.410156" xlink:href="#DejaVuSans-48"/>
                        </g>
                    </g>
                </g>
                <g id="ytick_4">
                    <g id="line2d_10">
                        <g>
                            <use style="stroke:#000000;stroke-width:0.8;" x="43.330469" xlink:href="#m34e6482fb3"
                                 y="131.455047"/>
                        </g>
                    </g>
                    <g id="text_10">
                        <!-- 7.5 -->
                        <g transform="translate(25.2937 134.091705)scale(0.0694 -0.0694)">
                            <defs>
                                <path d="M 8.203125 72.90625
L 55.078125 72.90625 
L 55.078125 68.703125 
L 28.609375 0 
L 18.3125 0 
L 43.21875 64.59375 
L 8.203125 64.59375 
z
" id="DejaVuSans-55"/>
                            </defs>
                            <use xlink:href="#DejaVuSans-55"/>
                            <use x="63.623047" xlink:href="#DejaVuSans-46"/>
                            <use x="95.410156" xlink:href="#DejaVuSans-53"/>
                        </g>
                    </g>
                </g>
                <g id="ytick_5">
                    <g id="line2d_11">
                        <g>
                            <use style="stroke:#000000;stroke-width:0.8;" x="43.330469" xlink:href="#m34e6482fb3"
                                 y="111.185315"/>
                        </g>
                    </g>
                    <g id="text_11">
                        <!-- 10.0 -->
                        <g transform="translate(20.878125 113.821973)scale(0.0694 -0.0694)">
                            <defs>
                                <path d="M 12.40625 8.296875
L 28.515625 8.296875 
L 28.515625 63.921875 
L 10.984375 60.40625 
L 10.984375 69.390625 
L 28.421875 72.90625 
L 38.28125 72.90625 
L 38.28125 8.296875 
L 54.390625 8.296875 
L 54.390625 0 
L 12.40625 0 
z
" id="DejaVuSans-49"/>
                            </defs>
                            <use xlink:href="#DejaVuSans-49"/>
                            <use x="63.623047" xlink:href="#DejaVuSans-48"/>
                            <use x="127.246094" xlink:href="#DejaVuSans-46"/>
                            <use x="159.033203" xlink:href="#DejaVuSans-48"/>
                        </g>
                    </g>
                </g>
                <g id="ytick_6">
                    <g id="line2d_12">
                        <g>
                            <use style="stroke:#000000;stroke-width:0.8;" x="43.330469" xlink:href="#m34e6482fb3"
                                 y="90.915584"/>
                        </g>
                    </g>
                    <g id="text_12">
                        <!-- 12.5 -->
                        <g transform="translate(20.878125 93.552242)scale(0.0694 -0.0694)">
                            <use xlink:href="#DejaVuSans-49"/>
                            <use x="63.623047" xlink:href="#DejaVuSans-50"/>
                            <use x="127.246094" xlink:href="#DejaVuSans-46"/>
                            <use x="159.033203" xlink:href="#DejaVuSans-53"/>
                        </g>
                    </g>
                </g>
                <g id="ytick_7">
                    <g id="line2d_13">
                        <g>
                            <use style="stroke:#000000;stroke-width:0.8;" x="43.330469" xlink:href="#m34e6482fb3"
                                 y="70.645852"/>
                        </g>
                    </g>
                    <g id="text_13">
                        <!-- 15.0 -->
                        <g transform="translate(20.878125 73.28251)scale(0.0694 -0.0694)">
                            <use xlink:href="#DejaVuSans-49"/>
                            <use x="63.623047" xlink:href="#DejaVuSans-53"/>
                            <use x="127.246094" xlink:href="#DejaVuSans-46"/>
                            <use x="159.033203" xlink:href="#DejaVuSans-48"/>
                        </g>
                    </g>
                </g>
                <g id="ytick_8">
                    <g id="line2d_14">
                        <g>
                            <use style="stroke:#000000;stroke-width:0.8;" x="43.330469" xlink:href="#m34e6482fb3"
                                 y="50.376121"/>
                        </g>
                    </g>
                    <g id="text_14">
                        <!-- 17.5 -->
                        <g transform="translate(20.878125 53.012779)scale(0.0694 -0.0694)">
                            <use xlink:href="#DejaVuSans-49"/>
                            <use x="63.623047" xlink:href="#DejaVuSans-55"/>
                            <use x="127.246094" xlink:href="#DejaVuSans-46"/>
                            <use x="159.033203" xlink:href="#DejaVuSans-53"/>
                        </g>
                    </g>
                </g>
                <g id="ytick_9">
                    <g id="line2d_15">
                        <g>
                            <use style="stroke:#000000;stroke-width:0.8;" x="43.330469" xlink:href="#m34e6482fb3"
                                 y="30.106389"/>
                        </g>
                    </g>
                    <g id="text_15">
                        <!-- 20.0 -->
                        <g transform="translate(20.878125 32.743047)scale(0.0694 -0.0694)">
                            <use xlink:href="#DejaVuSans-50"/>
                            <use x="63.623047" xlink:href="#DejaVuSans-48"/>
                            <use x="127.246094" xlink:href="#DejaVuSans-46"/>
                            <use x="159.033203" xlink:href="#DejaVuSans-48"/>
                        </g>
                    </g>
                </g>
                <g id="ytick_10">
                    <g id="line2d_16">
                        <g>
                            <use style="stroke:#000000;stroke-width:0.8;" x="43.330469" xlink:href="#m34e6482fb3"
                                 y="9.836658"/>
                        </g>
                    </g>
                    <g id="text_16">
                        <!-- 22.5 -->
                        <g transform="translate(20.878125 12.473316)scale(0.0694 -0.0694)">
                            <use xlink:href="#DejaVuSans-50"/>
                            <use x="63.623047" xlink:href="#DejaVuSans-50"/>
                            <use x="127.246094" xlink:href="#DejaVuSans-46"/>
                            <use x="159.033203" xlink:href="#DejaVuSans-53"/>
                        </g>
                    </g>
                </g>
                <g id="text_17">
                    <!-- Normalized final score -->
                    <g transform="translate(14.798438 156.78795)rotate(-90)scale(0.1 -0.1)">
                        <defs>
                            <path d="M 9.8125 72.90625
L 23.09375 72.90625 
L 55.421875 11.921875 
L 55.421875 72.90625 
L 64.984375 72.90625 
L 64.984375 0 
L 51.703125 0 
L 19.390625 60.984375 
L 19.390625 0 
L 9.8125 0 
z
" id="DejaVuSans-78"/>
                            <path d="M 5.515625 54.6875
L 48.1875 54.6875 
L 48.1875 46.484375 
L 14.40625 7.171875 
L 48.1875 7.171875 
L 48.1875 0 
L 4.296875 0 
L 4.296875 8.203125 
L 38.09375 47.515625 
L 5.515625 47.515625 
z
" id="DejaVuSans-122"/>
                            <path id="DejaVuSans-32"/>
                        </defs>
                        <use xlink:href="#DejaVuSans-78"/>
                        <use x="74.804688" xlink:href="#DejaVuSans-111"/>
                        <use x="135.986328" xlink:href="#DejaVuSans-114"/>
                        <use x="175.349609" xlink:href="#DejaVuSans-109"/>
                        <use x="272.761719" xlink:href="#DejaVuSans-97"/>
                        <use x="334.041016" xlink:href="#DejaVuSans-108"/>
                        <use x="361.824219" xlink:href="#DejaVuSans-105"/>
                        <use x="389.607422" xlink:href="#DejaVuSans-122"/>
                        <use x="442.097656" xlink:href="#DejaVuSans-101"/>
                        <use x="503.621094" xlink:href="#DejaVuSans-100"/>
                        <use x="567.097656" xlink:href="#DejaVuSans-32"/>
                        <use x="598.884766" xlink:href="#DejaVuSans-102"/>
                        <use x="634.089844" xlink:href="#DejaVuSans-105"/>
                        <use x="661.873047" xlink:href="#DejaVuSans-110"/>
                        <use x="725.251953" xlink:href="#DejaVuSans-97"/>
                        <use x="786.53125" xlink:href="#DejaVuSans-108"/>
                        <use x="814.314453" xlink:href="#DejaVuSans-32"/>
                        <use x="846.101562" xlink:href="#DejaVuSans-115"/>
                        <use x="898.201172" xlink:href="#DejaVuSans-99"/>
                        <use x="953.181641" xlink:href="#DejaVuSans-111"/>
                        <use x="1014.363281" xlink:href="#DejaVuSans-114"/>
                        <use x="1053.226562" xlink:href="#DejaVuSans-101"/>
                    </g>
                </g>
            </g>
            <g id="LineCollection_1">
                <path clip-path="url(#p2166cff920)" d="M 43.330469 176.048456
L 481.650469 176.048456 
" style="fill:none;stroke:#dc143c;stroke-width:1.5;"/>
            </g>
            <g id="LineCollection_2">
                <path clip-path="url(#p2166cff920)" d="M 125.206668 192.264242
L 125.206668 9.836658 
" style="fill:none;stroke:#808080;stroke-dasharray:1.5,2.475;stroke-dashoffset:0;stroke-width:1.5;"/>
                <path clip-path="url(#p2166cff920)" d="M 195.789599 192.264242
L 195.789599 9.836658 
" style="fill:none;stroke:#808080;stroke-dasharray:1.5,2.475;stroke-dashoffset:0;stroke-width:1.5;"/>
                <path clip-path="url(#p2166cff920)" d="M 266.37253 192.264242
L 266.37253 9.836658 
" style="fill:none;stroke:#808080;stroke-dasharray:1.5,2.475;stroke-dashoffset:0;stroke-width:1.5;"/>
                <path clip-path="url(#p2166cff920)" d="M 336.955461 192.264242
L 336.955461 9.836658 
" style="fill:none;stroke:#808080;stroke-dasharray:1.5,2.475;stroke-dashoffset:0;stroke-width:1.5;"/>
                <path clip-path="url(#p2166cff920)" d="M 407.538391 192.264242
L 407.538391 9.836658 
" style="fill:none;stroke:#808080;stroke-dasharray:1.5,2.475;stroke-dashoffset:0;stroke-width:1.5;"/>
            </g>
            <g id="patch_51">
                <path d="M 43.330469 192.264242
L 43.330469 9.836658 
" style="fill:none;stroke:#000000;stroke-linecap:square;stroke-linejoin:miter;stroke-width:0.8;"/>
            </g>
            <g id="patch_52">
                <path d="M 481.650469 192.264242
L 481.650469 9.836658 
" style="fill:none;stroke:#000000;stroke-linecap:square;stroke-linejoin:miter;stroke-width:0.8;"/>
            </g>
            <g id="patch_53">
                <path d="M 43.330469 192.264242
L 481.650469 192.264242 
" style="fill:none;stroke:#000000;stroke-linecap:square;stroke-linejoin:miter;stroke-width:0.8;"/>
            </g>
            <g id="patch_54">
                <path d="M 43.330469 9.836658
L 481.650469 9.836658 
" style="fill:none;stroke:#000000;stroke-linecap:square;stroke-linejoin:miter;stroke-width:0.8;"/>
            </g>
            <g id="legend_1">
                <g id="patch_55">
                    <path d="M 488.650469 135.261658
L 578.736406 135.261658 
Q 580.736406 135.261658 580.736406 133.261658 
L 580.736406 16.836658 
Q 580.736406 14.836658 578.736406 14.836658 
L 488.650469 14.836658 
Q 486.650469 14.836658 486.650469 16.836658 
L 486.650469 133.261658 
Q 486.650469 135.261658 488.650469 135.261658 
z
" style="fill:#ffffff;opacity:0.8;stroke:#cccccc;stroke-linejoin:miter;"/>
                </g>
                <g id="patch_56">
                    <path d="M 490.650469 26.435095
L 510.650469 26.435095 
L 510.650469 19.435095 
L 490.650469 19.435095 
z
" style="fill:#ff6347;stroke:#ffffff;stroke-linejoin:miter;"/>
                </g>
                <g id="text_18">
                    <!-- C10 -->
                    <g transform="translate(518.650469 26.435095)scale(0.1 -0.1)">
                        <defs>
                            <path d="M 64.40625 67.28125
L 64.40625 56.890625 
Q 59.421875 61.53125 53.78125 63.8125 
Q 48.140625 66.109375 41.796875 66.109375 
Q 29.296875 66.109375 22.65625 58.46875 
Q 16.015625 50.828125 16.015625 36.375 
Q 16.015625 21.96875 22.65625 14.328125 
Q 29.296875 6.6875 41.796875 6.6875 
Q 48.140625 6.6875 53.78125 8.984375 
Q 59.421875 11.28125 64.40625 15.921875 
L 64.40625 5.609375 
Q 59.234375 2.09375 53.4375 0.328125 
Q 47.65625 -1.421875 41.21875 -1.421875 
Q 24.65625 -1.421875 15.125 8.703125 
Q 5.609375 18.84375 5.609375 36.375 
Q 5.609375 53.953125 15.125 64.078125 
Q 24.65625 74.21875 41.21875 74.21875 
Q 47.75 74.21875 53.53125 72.484375 
Q 59.328125 70.75 64.40625 67.28125 
z
" id="DejaVuSans-67"/>
                        </defs>
                        <use xlink:href="#DejaVuSans-67"/>
                        <use x="69.824219" xlink:href="#DejaVuSans-49"/>
                        <use x="133.447266" xlink:href="#DejaVuSans-48"/>
                    </g>
                </g>
                <g id="patch_57">
                    <path d="M 490.650469 41.11322
L 510.650469 41.11322 
L 510.650469 34.11322 
L 490.650469 34.11322 
z
" style="fill:#fa8072;stroke:#ffffff;stroke-linejoin:miter;"/>
                </g>
                <g id="text_19">
                    <!-- C10 vTo21 -->
                    <g transform="translate(518.650469 41.11322)scale(0.1 -0.1)">
                        <defs>
                            <path d="M 2.984375 54.6875
L 12.5 54.6875 
L 29.59375 8.796875 
L 46.6875 54.6875 
L 56.203125 54.6875 
L 35.6875 0 
L 23.484375 0 
z
" id="DejaVuSans-118"/>
                            <path d="M -0.296875 72.90625
L 61.375 72.90625 
L 61.375 64.59375 
L 35.5 64.59375 
L 35.5 0 
L 25.59375 0 
L 25.59375 64.59375 
L -0.296875 64.59375 
z
" id="DejaVuSans-84"/>
                        </defs>
                        <use xlink:href="#DejaVuSans-67"/>
                        <use x="69.824219" xlink:href="#DejaVuSans-49"/>
                        <use x="133.447266" xlink:href="#DejaVuSans-48"/>
                        <use x="197.070312" xlink:href="#DejaVuSans-32"/>
                        <use x="228.857422" xlink:href="#DejaVuSans-118"/>
                        <use x="288.037109" xlink:href="#DejaVuSans-84"/>
                        <use x="332.121094" xlink:href="#DejaVuSans-111"/>
                        <use x="393.302734" xlink:href="#DejaVuSans-50"/>
                        <use x="456.925781" xlink:href="#DejaVuSans-49"/>
                    </g>
                </g>
                <g id="patch_58">
                    <path d="M 490.650469 55.791345
L 510.650469 55.791345 
L 510.650469 48.791345 
L 490.650469 48.791345 
z
" style="fill:#daa520;stroke:#ffffff;stroke-linejoin:miter;"/>
                </g>
                <g id="text_20">
                    <!-- CP15 -->
                    <g transform="translate(518.650469 55.791345)scale(0.1 -0.1)">
                        <use xlink:href="#DejaVuSans-67"/>
                        <use x="69.824219" xlink:href="#DejaVuSans-80"/>
                        <use x="130.126953" xlink:href="#DejaVuSans-49"/>
                        <use x="193.75" xlink:href="#DejaVuSans-53"/>
                    </g>
                </g>
                <g id="patch_59">
                    <path d="M 490.650469 70.46947
L 510.650469 70.46947 
L 510.650469 63.46947 
L 490.650469 63.46947 
z
" style="fill:#ffd700;stroke:#ffffff;stroke-linejoin:miter;"/>
                </g>
                <g id="text_21">
                    <!-- CP15 vTo21 -->
                    <g transform="translate(518.650469 70.46947)scale(0.1 -0.1)">
                        <use xlink:href="#DejaVuSans-67"/>
                        <use x="69.824219" xlink:href="#DejaVuSans-80"/>
                        <use x="130.126953" xlink:href="#DejaVuSans-49"/>
                        <use x="193.75" xlink:href="#DejaVuSans-53"/>
                        <use x="257.373047" xlink:href="#DejaVuSans-32"/>
                        <use x="289.160156" xlink:href="#DejaVuSans-118"/>
                        <use x="348.339844" xlink:href="#DejaVuSans-84"/>
                        <use x="392.423828" xlink:href="#DejaVuSans-111"/>
                        <use x="453.605469" xlink:href="#DejaVuSans-50"/>
                        <use x="517.228516" xlink:href="#DejaVuSans-49"/>
                    </g>
                </g>
                <g id="patch_60">
                    <path d="M 490.650469 85.147595
L 510.650469 85.147595 
L 510.650469 78.147595 
L 490.650469 78.147595 
z
" style="fill:#228b22;stroke:#ffffff;stroke-linejoin:miter;"/>
                </g>
                <g id="text_22">
                    <!-- Tu19 -->
                    <g transform="translate(518.650469 85.147595)scale(0.1 -0.1)">
                        <defs>
                            <path d="M 10.984375 1.515625
L 10.984375 10.5 
Q 14.703125 8.734375 18.5 7.8125 
Q 22.3125 6.890625 25.984375 6.890625 
Q 35.75 6.890625 40.890625 13.453125 
Q 46.046875 20.015625 46.78125 33.40625 
Q 43.953125 29.203125 39.59375 26.953125 
Q 35.25 24.703125 29.984375 24.703125 
Q 19.046875 24.703125 12.671875 31.3125 
Q 6.296875 37.9375 6.296875 49.421875 
Q 6.296875 60.640625 12.9375 67.421875 
Q 19.578125 74.21875 30.609375 74.21875 
Q 43.265625 74.21875 49.921875 64.515625 
Q 56.59375 54.828125 56.59375 36.375 
Q 56.59375 19.140625 48.40625 8.859375 
Q 40.234375 -1.421875 26.421875 -1.421875 
Q 22.703125 -1.421875 18.890625 -0.6875 
Q 15.09375 0.046875 10.984375 1.515625 
z
M 30.609375 32.421875 
Q 37.25 32.421875 41.125 36.953125 
Q 45.015625 41.5 45.015625 49.421875 
Q 45.015625 57.28125 41.125 61.84375 
Q 37.25 66.40625 30.609375 66.40625 
Q 23.96875 66.40625 20.09375 61.84375 
Q 16.21875 57.28125 16.21875 49.421875 
Q 16.21875 41.5 20.09375 36.953125 
Q 23.96875 32.421875 30.609375 32.421875 
z
" id="DejaVuSans-57"/>
                        </defs>
                        <use xlink:href="#DejaVuSans-84"/>
                        <use x="45.958984" xlink:href="#DejaVuSans-117"/>
                        <use x="109.337891" xlink:href="#DejaVuSans-49"/>
                        <use x="172.960938" xlink:href="#DejaVuSans-57"/>
                    </g>
                </g>
                <g id="patch_61">
                    <path d="M 490.650469 99.82572
L 510.650469 99.82572 
L 510.650469 92.82572 
L 490.650469 92.82572 
z
" style="fill:#32cd32;stroke:#ffffff;stroke-linejoin:miter;"/>
                </g>
                <g id="text_23">
                    <!-- Tu19 vTo21 -->
                    <g transform="translate(518.650469 99.82572)scale(0.1 -0.1)">
                        <use xlink:href="#DejaVuSans-84"/>
                        <use x="45.958984" xlink:href="#DejaVuSans-117"/>
                        <use x="109.337891" xlink:href="#DejaVuSans-49"/>
                        <use x="172.960938" xlink:href="#DejaVuSans-57"/>
                        <use x="236.583984" xlink:href="#DejaVuSans-32"/>
                        <use x="268.371094" xlink:href="#DejaVuSans-118"/>
                        <use x="327.550781" xlink:href="#DejaVuSans-84"/>
                        <use x="371.634766" xlink:href="#DejaVuSans-111"/>
                        <use x="432.816406" xlink:href="#DejaVuSans-50"/>
                        <use x="496.439453" xlink:href="#DejaVuSans-49"/>
                    </g>
                </g>
                <g id="patch_62">
                    <path d="M 490.650469 114.503845
L 510.650469 114.503845 
L 510.650469 107.503845 
L 490.650469 107.503845 
z
" style="fill:#9932cc;stroke:#ffffff;stroke-linejoin:miter;"/>
                </g>
                <g id="text_24">
                    <!-- To21 -->
                    <g transform="translate(518.650469 114.503845)scale(0.1 -0.1)">
                        <use xlink:href="#DejaVuSans-84"/>
                        <use x="44.083984" xlink:href="#DejaVuSans-111"/>
                        <use x="105.265625" xlink:href="#DejaVuSans-50"/>
                        <use x="168.888672" xlink:href="#DejaVuSans-49"/>
                    </g>
                </g>
                <g id="patch_63">
                    <path d="M 490.650469 129.18197
L 510.650469 129.18197 
L 510.650469 122.18197 
L 490.650469 122.18197 
z
" style="fill:#000080;stroke:#ffffff;stroke-linejoin:miter;"/>
                </g>
                <g id="text_25">
                    <!-- M18 -->
                    <g transform="translate(518.650469 129.18197)scale(0.1 -0.1)">
                        <defs>
                            <path d="M 9.8125 72.90625
L 24.515625 72.90625 
L 43.109375 23.296875 
L 61.8125 72.90625 
L 76.515625 72.90625 
L 76.515625 0 
L 66.890625 0 
L 66.890625 64.015625 
L 48.09375 14.015625 
L 38.1875 14.015625 
L 19.390625 64.015625 
L 19.390625 0 
L 9.8125 0 
z
" id="DejaVuSans-77"/>
                            <path d="M 31.78125 34.625
Q 24.75 34.625 20.71875 30.859375 
Q 16.703125 27.09375 16.703125 20.515625 
Q 16.703125 13.921875 20.71875 10.15625 
Q 24.75 6.390625 31.78125 6.390625 
Q 38.8125 6.390625 42.859375 10.171875 
Q 46.921875 13.96875 46.921875 20.515625 
Q 46.921875 27.09375 42.890625 30.859375 
Q 38.875 34.625 31.78125 34.625 
z
M 21.921875 38.8125 
Q 15.578125 40.375 12.03125 44.71875 
Q 8.5 49.078125 8.5 55.328125 
Q 8.5 64.0625 14.71875 69.140625 
Q 20.953125 74.21875 31.78125 74.21875 
Q 42.671875 74.21875 48.875 69.140625 
Q 55.078125 64.0625 55.078125 55.328125 
Q 55.078125 49.078125 51.53125 44.71875 
Q 48 40.375 41.703125 38.8125 
Q 48.828125 37.15625 52.796875 32.3125 
Q 56.78125 27.484375 56.78125 20.515625 
Q 56.78125 9.90625 50.3125 4.234375 
Q 43.84375 -1.421875 31.78125 -1.421875 
Q 19.734375 -1.421875 13.25 4.234375 
Q 6.78125 9.90625 6.78125 20.515625 
Q 6.78125 27.484375 10.78125 32.3125 
Q 14.796875 37.15625 21.921875 38.8125 
z
M 18.3125 54.390625 
Q 18.3125 48.734375 21.84375 45.5625 
Q 25.390625 42.390625 31.78125 42.390625 
Q 38.140625 42.390625 41.71875 45.5625 
Q 45.3125 48.734375 45.3125 54.390625 
Q 45.3125 60.0625 41.71875 63.234375 
Q 38.140625 66.40625 31.78125 66.40625 
Q 25.390625 66.40625 21.84375 63.234375 
Q 18.3125 60.0625 18.3125 54.390625 
z
" id="DejaVuSans-56"/>
                        </defs>
                        <use xlink:href="#DejaVuSans-77"/>
                        <use x="86.279297" xlink:href="#DejaVuSans-49"/>
                        <use x="149.902344" xlink:href="#DejaVuSans-56"/>
                    </g>
                </g>
            </g>
        </g>
    </g>
    <defs>
        <clipPath id="p2166cff920">
            <rect height="182.427584" width="438.32" x="43.330469" y="9.836658"/>
        </clipPath>
    </defs>
</svg>
