<?xml version="1.0" encoding="utf-8" standalone="no"?>
<!DOCTYPE svg PUBLIC "-//W3C//DTD SVG 1.1//EN"
        "http://www.w3.org/Graphics/SVG/1.1/DTD/svg11.dtd">
<!-- Created with matplotlib (http://matplotlib.org/) -->
<svg xmlns:xlink="http://www.w3.org/1999/xlink" height="244.534744pt" version="1.1" viewBox="0 0 280.45985 244.534744"
     width="280.45985pt" xmlns="http://www.w3.org/2000/svg">
    <defs>
        <style type="text/css">
            *{stroke-linecap:butt;stroke-linejoin:round;}
        </style>
    </defs>
    <g id="figure_1">
        <g id="patch_1">
            <path d="M 0 244.534744
L 280.45985 244.534744 
L 280.45985 0 
L 0 0 
z
" style="fill:#ffffff;"/>
        </g>
        <g id="axes_1">
            <g id="patch_2">
                <path d="M 36.709275 209.94
L 268.844275 209.94 
L 268.844275 10.7 
L 36.709275 10.7 
z
" style="fill:#ffffff;"/>
            </g>
            <g id="line2d_1">
                <path clip-path="url(#p308560917c)" d="M 36.709275 209.94
L 56.053858 193.336667 
L 75.398442 176.733333 
L 94.743025 160.13 
L 114.087608 143.526667 
L 133.432192 126.923333 
L 152.776775 110.32 
L 172.121358 93.716667 
L 191.465942 77.113333 
L 210.810525 60.51 
L 230.155108 43.906667 
L 249.499692 27.303333 
L 268.844275 10.7 
" style="fill:none;stroke:#000000;stroke-dasharray:1.5,2.475;stroke-dashoffset:0;stroke-width:1.5;"/>
            </g>
            <g id="matplotlib.axis_1">
                <g id="xtick_1">
                    <g id="line2d_2">
                        <defs>
                            <path d="M 0 0
L 0 3.5 
" id="mdc2f0dddbb" style="stroke:#000000;stroke-width:0.8;"/>
                        </defs>
                        <g>
                            <use style="stroke:#000000;stroke-width:0.8;" x="36.709275" xlink:href="#mdc2f0dddbb"
                                 y="209.94"/>
                        </g>
                    </g>
                    <g id="text_1">
                        <!-- 0 -->
                        <defs>
                            <path d="M 31.78125 66.40625
Q 24.171875 66.40625 20.328125 58.90625 
Q 16.5 51.421875 16.5 36.375 
Q 16.5 21.390625 20.328125 13.890625 
Q 24.171875 6.390625 31.78125 6.390625 
Q 39.453125 6.390625 43.28125 13.890625 
Q 47.125 21.390625 47.125 36.375 
Q 47.125 51.421875 43.28125 58.90625 
Q 39.453125 66.40625 31.78125 66.40625 
z
M 31.78125 74.21875 
Q 44.046875 74.21875 50.515625 64.515625 
Q 56.984375 54.828125 56.984375 36.375 
Q 56.984375 17.96875 50.515625 8.265625 
Q 44.046875 -1.421875 31.78125 -1.421875 
Q 19.53125 -1.421875 13.0625 8.265625 
Q 6.59375 17.96875 6.59375 36.375 
Q 6.59375 54.828125 13.0625 64.515625 
Q 19.53125 74.21875 31.78125 74.21875 
z
" id="DejaVuSans-30"/>
                        </defs>
                        <g transform="translate(34.501488 222.213316)scale(0.0694 -0.0694)">
                            <use xlink:href="#DejaVuSans-30"/>
                        </g>
                    </g>
                </g>
                <g id="xtick_2">
                    <g id="line2d_3">
                        <g>
                            <use style="stroke:#000000;stroke-width:0.8;" x="75.398442" xlink:href="#mdc2f0dddbb"
                                 y="209.94"/>
                        </g>
                    </g>
                    <g id="text_2">
                        <!-- 2 -->
                        <defs>
                            <path d="M 19.1875 8.296875
L 53.609375 8.296875 
L 53.609375 0 
L 7.328125 0 
L 7.328125 8.296875 
Q 12.9375 14.109375 22.625 23.890625 
Q 32.328125 33.6875 34.8125 36.53125 
Q 39.546875 41.84375 41.421875 45.53125 
Q 43.3125 49.21875 43.3125 52.78125 
Q 43.3125 58.59375 39.234375 62.25 
Q 35.15625 65.921875 28.609375 65.921875 
Q 23.96875 65.921875 18.8125 64.3125 
Q 13.671875 62.703125 7.8125 59.421875 
L 7.8125 69.390625 
Q 13.765625 71.78125 18.9375 73 
Q 24.125 74.21875 28.421875 74.21875 
Q 39.75 74.21875 46.484375 68.546875 
Q 53.21875 62.890625 53.21875 53.421875 
Q 53.21875 48.921875 51.53125 44.890625 
Q 49.859375 40.875 45.40625 35.40625 
Q 44.1875 33.984375 37.640625 27.21875 
Q 31.109375 20.453125 19.1875 8.296875 
z
" id="DejaVuSans-32"/>
                        </defs>
                        <g transform="translate(73.190654 222.213316)scale(0.0694 -0.0694)">
                            <use xlink:href="#DejaVuSans-32"/>
                        </g>
                    </g>
                </g>
                <g id="xtick_3">
                    <g id="line2d_4">
                        <g>
                            <use style="stroke:#000000;stroke-width:0.8;" x="114.087608" xlink:href="#mdc2f0dddbb"
                                 y="209.94"/>
                        </g>
                    </g>
                    <g id="text_3">
                        <!-- 4 -->
                        <defs>
                            <path d="M 37.796875 64.3125
L 12.890625 25.390625 
L 37.796875 25.390625 
z
M 35.203125 72.90625 
L 47.609375 72.90625 
L 47.609375 25.390625 
L 58.015625 25.390625 
L 58.015625 17.1875 
L 47.609375 17.1875 
L 47.609375 0 
L 37.796875 0 
L 37.796875 17.1875 
L 4.890625 17.1875 
L 4.890625 26.703125 
z
" id="DejaVuSans-34"/>
                        </defs>
                        <g transform="translate(111.879821 222.213316)scale(0.0694 -0.0694)">
                            <use xlink:href="#DejaVuSans-34"/>
                        </g>
                    </g>
                </g>
                <g id="xtick_4">
                    <g id="line2d_5">
                        <g>
                            <use style="stroke:#000000;stroke-width:0.8;" x="152.776775" xlink:href="#mdc2f0dddbb"
                                 y="209.94"/>
                        </g>
                    </g>
                    <g id="text_4">
                        <!-- 6 -->
                        <defs>
                            <path d="M 33.015625 40.375
Q 26.375 40.375 22.484375 35.828125 
Q 18.609375 31.296875 18.609375 23.390625 
Q 18.609375 15.53125 22.484375 10.953125 
Q 26.375 6.390625 33.015625 6.390625 
Q 39.65625 6.390625 43.53125 10.953125 
Q 47.40625 15.53125 47.40625 23.390625 
Q 47.40625 31.296875 43.53125 35.828125 
Q 39.65625 40.375 33.015625 40.375 
z
M 52.59375 71.296875 
L 52.59375 62.3125 
Q 48.875 64.0625 45.09375 64.984375 
Q 41.3125 65.921875 37.59375 65.921875 
Q 27.828125 65.921875 22.671875 59.328125 
Q 17.53125 52.734375 16.796875 39.40625 
Q 19.671875 43.65625 24.015625 45.921875 
Q 28.375 48.1875 33.59375 48.1875 
Q 44.578125 48.1875 50.953125 41.515625 
Q 57.328125 34.859375 57.328125 23.390625 
Q 57.328125 12.15625 50.6875 5.359375 
Q 44.046875 -1.421875 33.015625 -1.421875 
Q 20.359375 -1.421875 13.671875 8.265625 
Q 6.984375 17.96875 6.984375 36.375 
Q 6.984375 53.65625 15.1875 63.9375 
Q 23.390625 74.21875 37.203125 74.21875 
Q 40.921875 74.21875 44.703125 73.484375 
Q 48.484375 72.75 52.59375 71.296875 
z
" id="DejaVuSans-36"/>
                        </defs>
                        <g transform="translate(150.568988 222.213316)scale(0.0694 -0.0694)">
                            <use xlink:href="#DejaVuSans-36"/>
                        </g>
                    </g>
                </g>
                <g id="xtick_5">
                    <g id="line2d_6">
                        <g>
                            <use style="stroke:#000000;stroke-width:0.8;" x="191.465942" xlink:href="#mdc2f0dddbb"
                                 y="209.94"/>
                        </g>
                    </g>
                    <g id="text_5">
                        <!-- 8 -->
                        <defs>
                            <path d="M 31.78125 34.625
Q 24.75 34.625 20.71875 30.859375 
Q 16.703125 27.09375 16.703125 20.515625 
Q 16.703125 13.921875 20.71875 10.15625 
Q 24.75 6.390625 31.78125 6.390625 
Q 38.8125 6.390625 42.859375 10.171875 
Q 46.921875 13.96875 46.921875 20.515625 
Q 46.921875 27.09375 42.890625 30.859375 
Q 38.875 34.625 31.78125 34.625 
z
M 21.921875 38.8125 
Q 15.578125 40.375 12.03125 44.71875 
Q 8.5 49.078125 8.5 55.328125 
Q 8.5 64.0625 14.71875 69.140625 
Q 20.953125 74.21875 31.78125 74.21875 
Q 42.671875 74.21875 48.875 69.140625 
Q 55.078125 64.0625 55.078125 55.328125 
Q 55.078125 49.078125 51.53125 44.71875 
Q 48 40.375 41.703125 38.8125 
Q 48.828125 37.15625 52.796875 32.3125 
Q 56.78125 27.484375 56.78125 20.515625 
Q 56.78125 9.90625 50.3125 4.234375 
Q 43.84375 -1.421875 31.78125 -1.421875 
Q 19.734375 -1.421875 13.25 4.234375 
Q 6.78125 9.90625 6.78125 20.515625 
Q 6.78125 27.484375 10.78125 32.3125 
Q 14.796875 37.15625 21.921875 38.8125 
z
M 18.3125 54.390625 
Q 18.3125 48.734375 21.84375 45.5625 
Q 25.390625 42.390625 31.78125 42.390625 
Q 38.140625 42.390625 41.71875 45.5625 
Q 45.3125 48.734375 45.3125 54.390625 
Q 45.3125 60.0625 41.71875 63.234375 
Q 38.140625 66.40625 31.78125 66.40625 
Q 25.390625 66.40625 21.84375 63.234375 
Q 18.3125 60.0625 18.3125 54.390625 
z
" id="DejaVuSans-38"/>
                        </defs>
                        <g transform="translate(189.258154 222.213316)scale(0.0694 -0.0694)">
                            <use xlink:href="#DejaVuSans-38"/>
                        </g>
                    </g>
                </g>
                <g id="xtick_6">
                    <g id="line2d_7">
                        <g>
                            <use style="stroke:#000000;stroke-width:0.8;" x="230.155108" xlink:href="#mdc2f0dddbb"
                                 y="209.94"/>
                        </g>
                    </g>
                    <g id="text_6">
                        <!-- 10 -->
                        <defs>
                            <path d="M 12.40625 8.296875
L 28.515625 8.296875 
L 28.515625 63.921875 
L 10.984375 60.40625 
L 10.984375 69.390625 
L 28.421875 72.90625 
L 38.28125 72.90625 
L 38.28125 8.296875 
L 54.390625 8.296875 
L 54.390625 0 
L 12.40625 0 
z
" id="DejaVuSans-31"/>
                        </defs>
                        <g transform="translate(225.739533 222.213316)scale(0.0694 -0.0694)">
                            <use xlink:href="#DejaVuSans-31"/>
                            <use x="63.623047" xlink:href="#DejaVuSans-30"/>
                        </g>
                    </g>
                </g>
                <g id="xtick_7">
                    <g id="line2d_8">
                        <g>
                            <use style="stroke:#000000;stroke-width:0.8;" x="268.844275" xlink:href="#mdc2f0dddbb"
                                 y="209.94"/>
                        </g>
                    </g>
                    <g id="text_7">
                        <!-- 12 -->
                        <g transform="translate(264.4287 222.213316)scale(0.0694 -0.0694)">
                            <use xlink:href="#DejaVuSans-31"/>
                            <use x="63.623047" xlink:href="#DejaVuSans-32"/>
                        </g>
                    </g>
                </g>
                <g id="text_8">
                    <!-- Expected EPSP (mV) -->
                    <defs>
                        <path d="M 9.8125 72.90625
L 55.90625 72.90625 
L 55.90625 64.59375 
L 19.671875 64.59375 
L 19.671875 43.015625 
L 54.390625 43.015625 
L 54.390625 34.71875 
L 19.671875 34.71875 
L 19.671875 8.296875 
L 56.78125 8.296875 
L 56.78125 0 
L 9.8125 0 
z
" id="DejaVuSans-45"/>
                        <path d="M 54.890625 54.6875
L 35.109375 28.078125 
L 55.90625 0 
L 45.3125 0 
L 29.390625 21.484375 
L 13.484375 0 
L 2.875 0 
L 24.125 28.609375 
L 4.6875 54.6875 
L 15.28125 54.6875 
L 29.78125 35.203125 
L 44.28125 54.6875 
z
" id="DejaVuSans-78"/>
                        <path d="M 18.109375 8.203125
L 18.109375 -20.796875 
L 9.078125 -20.796875 
L 9.078125 54.6875 
L 18.109375 54.6875 
L 18.109375 46.390625 
Q 20.953125 51.265625 25.265625 53.625 
Q 29.59375 56 35.59375 56 
Q 45.5625 56 51.78125 48.09375 
Q 58.015625 40.1875 58.015625 27.296875 
Q 58.015625 14.40625 51.78125 6.484375 
Q 45.5625 -1.421875 35.59375 -1.421875 
Q 29.59375 -1.421875 25.265625 0.953125 
Q 20.953125 3.328125 18.109375 8.203125 
z
M 48.6875 27.296875 
Q 48.6875 37.203125 44.609375 42.84375 
Q 40.53125 48.484375 33.40625 48.484375 
Q 26.265625 48.484375 22.1875 42.84375 
Q 18.109375 37.203125 18.109375 27.296875 
Q 18.109375 17.390625 22.1875 11.75 
Q 26.265625 6.109375 33.40625 6.109375 
Q 40.53125 6.109375 44.609375 11.75 
Q 48.6875 17.390625 48.6875 27.296875 
z
" id="DejaVuSans-70"/>
                        <path d="M 56.203125 29.59375
L 56.203125 25.203125 
L 14.890625 25.203125 
Q 15.484375 15.921875 20.484375 11.0625 
Q 25.484375 6.203125 34.421875 6.203125 
Q 39.59375 6.203125 44.453125 7.46875 
Q 49.3125 8.734375 54.109375 11.28125 
L 54.109375 2.78125 
Q 49.265625 0.734375 44.1875 -0.34375 
Q 39.109375 -1.421875 33.890625 -1.421875 
Q 20.796875 -1.421875 13.15625 6.1875 
Q 5.515625 13.8125 5.515625 26.8125 
Q 5.515625 40.234375 12.765625 48.109375 
Q 20.015625 56 32.328125 56 
Q 43.359375 56 49.78125 48.890625 
Q 56.203125 41.796875 56.203125 29.59375 
z
M 47.21875 32.234375 
Q 47.125 39.59375 43.09375 43.984375 
Q 39.0625 48.390625 32.421875 48.390625 
Q 24.90625 48.390625 20.390625 44.140625 
Q 15.875 39.890625 15.1875 32.171875 
z
" id="DejaVuSans-65"/>
                        <path d="M 48.78125 52.59375
L 48.78125 44.1875 
Q 44.96875 46.296875 41.140625 47.34375 
Q 37.3125 48.390625 33.40625 48.390625 
Q 24.65625 48.390625 19.8125 42.84375 
Q 14.984375 37.3125 14.984375 27.296875 
Q 14.984375 17.28125 19.8125 11.734375 
Q 24.65625 6.203125 33.40625 6.203125 
Q 37.3125 6.203125 41.140625 7.25 
Q 44.96875 8.296875 48.78125 10.40625 
L 48.78125 2.09375 
Q 45.015625 0.34375 40.984375 -0.53125 
Q 36.96875 -1.421875 32.421875 -1.421875 
Q 20.0625 -1.421875 12.78125 6.34375 
Q 5.515625 14.109375 5.515625 27.296875 
Q 5.515625 40.671875 12.859375 48.328125 
Q 20.21875 56 33.015625 56 
Q 37.15625 56 41.109375 55.140625 
Q 45.0625 54.296875 48.78125 52.59375 
z
" id="DejaVuSans-63"/>
                        <path d="M 18.3125 70.21875
L 18.3125 54.6875 
L 36.8125 54.6875 
L 36.8125 47.703125 
L 18.3125 47.703125 
L 18.3125 18.015625 
Q 18.3125 11.328125 20.140625 9.421875 
Q 21.96875 7.515625 27.59375 7.515625 
L 36.8125 7.515625 
L 36.8125 0 
L 27.59375 0 
Q 17.1875 0 13.234375 3.875 
Q 9.28125 7.765625 9.28125 18.015625 
L 9.28125 47.703125 
L 2.6875 47.703125 
L 2.6875 54.6875 
L 9.28125 54.6875 
L 9.28125 70.21875 
z
" id="DejaVuSans-74"/>
                        <path d="M 45.40625 46.390625
L 45.40625 75.984375 
L 54.390625 75.984375 
L 54.390625 0 
L 45.40625 0 
L 45.40625 8.203125 
Q 42.578125 3.328125 38.25 0.953125 
Q 33.9375 -1.421875 27.875 -1.421875 
Q 17.96875 -1.421875 11.734375 6.484375 
Q 5.515625 14.40625 5.515625 27.296875 
Q 5.515625 40.1875 11.734375 48.09375 
Q 17.96875 56 27.875 56 
Q 33.9375 56 38.25 53.625 
Q 42.578125 51.265625 45.40625 46.390625 
z
M 14.796875 27.296875 
Q 14.796875 17.390625 18.875 11.75 
Q 22.953125 6.109375 30.078125 6.109375 
Q 37.203125 6.109375 41.296875 11.75 
Q 45.40625 17.390625 45.40625 27.296875 
Q 45.40625 37.203125 41.296875 42.84375 
Q 37.203125 48.484375 30.078125 48.484375 
Q 22.953125 48.484375 18.875 42.84375 
Q 14.796875 37.203125 14.796875 27.296875 
z
" id="DejaVuSans-64"/>
                        <path id="DejaVuSans-20"/>
                        <path d="M 19.671875 64.796875
L 19.671875 37.40625 
L 32.078125 37.40625 
Q 38.96875 37.40625 42.71875 40.96875 
Q 46.484375 44.53125 46.484375 51.125 
Q 46.484375 57.671875 42.71875 61.234375 
Q 38.96875 64.796875 32.078125 64.796875 
z
M 9.8125 72.90625 
L 32.078125 72.90625 
Q 44.34375 72.90625 50.609375 67.359375 
Q 56.890625 61.8125 56.890625 51.125 
Q 56.890625 40.328125 50.609375 34.8125 
Q 44.34375 29.296875 32.078125 29.296875 
L 19.671875 29.296875 
L 19.671875 0 
L 9.8125 0 
z
" id="DejaVuSans-50"/>
                        <path d="M 53.515625 70.515625
L 53.515625 60.890625 
Q 47.90625 63.578125 42.921875 64.890625 
Q 37.9375 66.21875 33.296875 66.21875 
Q 25.25 66.21875 20.875 63.09375 
Q 16.5 59.96875 16.5 54.203125 
Q 16.5 49.359375 19.40625 46.890625 
Q 22.3125 44.4375 30.421875 42.921875 
L 36.375 41.703125 
Q 47.40625 39.59375 52.65625 34.296875 
Q 57.90625 29 57.90625 20.125 
Q 57.90625 9.515625 50.796875 4.046875 
Q 43.703125 -1.421875 29.984375 -1.421875 
Q 24.8125 -1.421875 18.96875 -0.25 
Q 13.140625 0.921875 6.890625 3.21875 
L 6.890625 13.375 
Q 12.890625 10.015625 18.65625 8.296875 
Q 24.421875 6.59375 29.984375 6.59375 
Q 38.421875 6.59375 43.015625 9.90625 
Q 47.609375 13.234375 47.609375 19.390625 
Q 47.609375 24.75 44.3125 27.78125 
Q 41.015625 30.8125 33.5 32.328125 
L 27.484375 33.5 
Q 16.453125 35.6875 11.515625 40.375 
Q 6.59375 45.0625 6.59375 53.421875 
Q 6.59375 63.09375 13.40625 68.65625 
Q 20.21875 74.21875 32.171875 74.21875 
Q 37.3125 74.21875 42.625 73.28125 
Q 47.953125 72.359375 53.515625 70.515625 
z
" id="DejaVuSans-53"/>
                        <path d="M 31 75.875
Q 24.46875 64.65625 21.28125 53.65625 
Q 18.109375 42.671875 18.109375 31.390625 
Q 18.109375 20.125 21.3125 9.0625 
Q 24.515625 -2 31 -13.1875 
L 23.1875 -13.1875 
Q 15.875 -1.703125 12.234375 9.375 
Q 8.59375 20.453125 8.59375 31.390625 
Q 8.59375 42.28125 12.203125 53.3125 
Q 15.828125 64.359375 23.1875 75.875 
z
" id="DejaVuSans-28"/>
                        <path d="M 52 44.1875
Q 55.375 50.25 60.0625 53.125 
Q 64.75 56 71.09375 56 
Q 79.640625 56 84.28125 50.015625 
Q 88.921875 44.046875 88.921875 33.015625 
L 88.921875 0 
L 79.890625 0 
L 79.890625 32.71875 
Q 79.890625 40.578125 77.09375 44.375 
Q 74.3125 48.1875 68.609375 48.1875 
Q 61.625 48.1875 57.5625 43.546875 
Q 53.515625 38.921875 53.515625 30.90625 
L 53.515625 0 
L 44.484375 0 
L 44.484375 32.71875 
Q 44.484375 40.625 41.703125 44.40625 
Q 38.921875 48.1875 33.109375 48.1875 
Q 26.21875 48.1875 22.15625 43.53125 
Q 18.109375 38.875 18.109375 30.90625 
L 18.109375 0 
L 9.078125 0 
L 9.078125 54.6875 
L 18.109375 54.6875 
L 18.109375 46.1875 
Q 21.1875 51.21875 25.484375 53.609375 
Q 29.78125 56 35.6875 56 
Q 41.65625 56 45.828125 52.96875 
Q 50 49.953125 52 44.1875 
z
" id="DejaVuSans-6d"/>
                        <path d="M 28.609375 0
L 0.78125 72.90625 
L 11.078125 72.90625 
L 34.1875 11.53125 
L 57.328125 72.90625 
L 67.578125 72.90625 
L 39.796875 0 
z
" id="DejaVuSans-56"/>
                        <path d="M 8.015625 75.875
L 15.828125 75.875 
Q 23.140625 64.359375 26.78125 53.3125 
Q 30.421875 42.28125 30.421875 31.390625 
Q 30.421875 20.453125 26.78125 9.375 
Q 23.140625 -1.703125 15.828125 -13.1875 
L 8.015625 -13.1875 
Q 14.5 -2 17.703125 9.0625 
Q 20.90625 20.125 20.90625 31.390625 
Q 20.90625 42.671875 17.703125 53.65625 
Q 14.5 64.65625 8.015625 75.875 
z
" id="DejaVuSans-29"/>
                    </defs>
                    <g transform="translate(101.713494 235.255056)scale(0.1 -0.1)">
                        <use xlink:href="#DejaVuSans-45"/>
                        <use x="63.183594" xlink:href="#DejaVuSans-78"/>
                        <use x="122.363281" xlink:href="#DejaVuSans-70"/>
                        <use x="185.839844" xlink:href="#DejaVuSans-65"/>
                        <use x="247.363281" xlink:href="#DejaVuSans-63"/>
                        <use x="302.34375" xlink:href="#DejaVuSans-74"/>
                        <use x="341.552734" xlink:href="#DejaVuSans-65"/>
                        <use x="403.076172" xlink:href="#DejaVuSans-64"/>
                        <use x="466.552734" xlink:href="#DejaVuSans-20"/>
                        <use x="498.339844" xlink:href="#DejaVuSans-45"/>
                        <use x="561.523438" xlink:href="#DejaVuSans-50"/>
                        <use x="621.826172" xlink:href="#DejaVuSans-53"/>
                        <use x="685.302734" xlink:href="#DejaVuSans-50"/>
                        <use x="745.605469" xlink:href="#DejaVuSans-20"/>
                        <use x="777.392578" xlink:href="#DejaVuSans-28"/>
                        <use x="816.40625" xlink:href="#DejaVuSans-6d"/>
                        <use x="913.818359" xlink:href="#DejaVuSans-56"/>
                        <use x="982.226562" xlink:href="#DejaVuSans-29"/>
                    </g>
                </g>
            </g>
            <g id="matplotlib.axis_2">
                <g id="ytick_1">
                    <g id="line2d_9">
                        <defs>
                            <path d="M 0 0
L -3.5 0 
" id="mb0bb322b0e" style="stroke:#000000;stroke-width:0.8;"/>
                        </defs>
                        <g>
                            <use style="stroke:#000000;stroke-width:0.8;" x="36.709275" xlink:href="#mb0bb322b0e"
                                 y="209.94"/>
                        </g>
                    </g>
                    <g id="text_9">
                        <!-- 0 -->
                        <g transform="translate(25.2937 212.576658)scale(0.0694 -0.0694)">
                            <use xlink:href="#DejaVuSans-30"/>
                        </g>
                    </g>
                </g>
                <g id="ytick_2">
                    <g id="line2d_10">
                        <g>
                            <use style="stroke:#000000;stroke-width:0.8;" x="36.709275" xlink:href="#mb0bb322b0e"
                                 y="176.733333"/>
                        </g>
                    </g>
                    <g id="text_10">
                        <!-- 2 -->
                        <g transform="translate(25.2937 179.369991)scale(0.0694 -0.0694)">
                            <use xlink:href="#DejaVuSans-32"/>
                        </g>
                    </g>
                </g>
                <g id="ytick_3">
                    <g id="line2d_11">
                        <g>
                            <use style="stroke:#000000;stroke-width:0.8;" x="36.709275" xlink:href="#mb0bb322b0e"
                                 y="143.526667"/>
                        </g>
                    </g>
                    <g id="text_11">
                        <!-- 4 -->
                        <g transform="translate(25.2937 146.163324)scale(0.0694 -0.0694)">
                            <use xlink:href="#DejaVuSans-34"/>
                        </g>
                    </g>
                </g>
                <g id="ytick_4">
                    <g id="line2d_12">
                        <g>
                            <use style="stroke:#000000;stroke-width:0.8;" x="36.709275" xlink:href="#mb0bb322b0e"
                                 y="110.32"/>
                        </g>
                    </g>
                    <g id="text_12">
                        <!-- 6 -->
                        <g transform="translate(25.2937 112.956658)scale(0.0694 -0.0694)">
                            <use xlink:href="#DejaVuSans-36"/>
                        </g>
                    </g>
                </g>
                <g id="ytick_5">
                    <g id="line2d_13">
                        <g>
                            <use style="stroke:#000000;stroke-width:0.8;" x="36.709275" xlink:href="#mb0bb322b0e"
                                 y="77.113333"/>
                        </g>
                    </g>
                    <g id="text_13">
                        <!-- 8 -->
                        <g transform="translate(25.2937 79.749991)scale(0.0694 -0.0694)">
                            <use xlink:href="#DejaVuSans-38"/>
                        </g>
                    </g>
                </g>
                <g id="ytick_6">
                    <g id="line2d_14">
                        <g>
                            <use style="stroke:#000000;stroke-width:0.8;" x="36.709275" xlink:href="#mb0bb322b0e"
                                 y="43.906667"/>
                        </g>
                    </g>
                    <g id="text_14">
                        <!-- 10 -->
                        <g transform="translate(20.878125 46.543324)scale(0.0694 -0.0694)">
                            <use xlink:href="#DejaVuSans-31"/>
                            <use x="63.623047" xlink:href="#DejaVuSans-30"/>
                        </g>
                    </g>
                </g>
                <g id="ytick_7">
                    <g id="line2d_15">
                        <g>
                            <use style="stroke:#000000;stroke-width:0.8;" x="36.709275" xlink:href="#mb0bb322b0e"
                                 y="10.7"/>
                        </g>
                    </g>
                    <g id="text_15">
                        <!-- 12 -->
                        <g transform="translate(20.878125 13.336658)scale(0.0694 -0.0694)">
                            <use xlink:href="#DejaVuSans-31"/>
                            <use x="63.623047" xlink:href="#DejaVuSans-32"/>
                        </g>
                    </g>
                </g>
                <g id="text_16">
                    <!-- Measured EPSP (mV) -->
                    <defs>
                        <path d="M 9.8125 72.90625
L 24.515625 72.90625 
L 43.109375 23.296875 
L 61.8125 72.90625 
L 76.515625 72.90625 
L 76.515625 0 
L 66.890625 0 
L 66.890625 64.015625 
L 48.09375 14.015625 
L 38.1875 14.015625 
L 19.390625 64.015625 
L 19.390625 0 
L 9.8125 0 
z
" id="DejaVuSans-4d"/>
                        <path d="M 34.28125 27.484375
Q 23.390625 27.484375 19.1875 25 
Q 14.984375 22.515625 14.984375 16.5 
Q 14.984375 11.71875 18.140625 8.90625 
Q 21.296875 6.109375 26.703125 6.109375 
Q 34.1875 6.109375 38.703125 11.40625 
Q 43.21875 16.703125 43.21875 25.484375 
L 43.21875 27.484375 
z
M 52.203125 31.203125 
L 52.203125 0 
L 43.21875 0 
L 43.21875 8.296875 
Q 40.140625 3.328125 35.546875 0.953125 
Q 30.953125 -1.421875 24.3125 -1.421875 
Q 15.921875 -1.421875 10.953125 3.296875 
Q 6 8.015625 6 15.921875 
Q 6 25.140625 12.171875 29.828125 
Q 18.359375 34.515625 30.609375 34.515625 
L 43.21875 34.515625 
L 43.21875 35.40625 
Q 43.21875 41.609375 39.140625 45 
Q 35.0625 48.390625 27.6875 48.390625 
Q 23 48.390625 18.546875 47.265625 
Q 14.109375 46.140625 10.015625 43.890625 
L 10.015625 52.203125 
Q 14.9375 54.109375 19.578125 55.046875 
Q 24.21875 56 28.609375 56 
Q 40.484375 56 46.34375 49.84375 
Q 52.203125 43.703125 52.203125 31.203125 
z
" id="DejaVuSans-61"/>
                        <path d="M 44.28125 53.078125
L 44.28125 44.578125 
Q 40.484375 46.53125 36.375 47.5 
Q 32.28125 48.484375 27.875 48.484375 
Q 21.1875 48.484375 17.84375 46.4375 
Q 14.5 44.390625 14.5 40.28125 
Q 14.5 37.15625 16.890625 35.375 
Q 19.28125 33.59375 26.515625 31.984375 
L 29.59375 31.296875 
Q 39.15625 29.25 43.1875 25.515625 
Q 47.21875 21.78125 47.21875 15.09375 
Q 47.21875 7.46875 41.1875 3.015625 
Q 35.15625 -1.421875 24.609375 -1.421875 
Q 20.21875 -1.421875 15.453125 -0.5625 
Q 10.6875 0.296875 5.421875 2 
L 5.421875 11.28125 
Q 10.40625 8.6875 15.234375 7.390625 
Q 20.0625 6.109375 24.8125 6.109375 
Q 31.15625 6.109375 34.5625 8.28125 
Q 37.984375 10.453125 37.984375 14.40625 
Q 37.984375 18.0625 35.515625 20.015625 
Q 33.0625 21.96875 24.703125 23.78125 
L 21.578125 24.515625 
Q 13.234375 26.265625 9.515625 29.90625 
Q 5.8125 33.546875 5.8125 39.890625 
Q 5.8125 47.609375 11.28125 51.796875 
Q 16.75 56 26.8125 56 
Q 31.78125 56 36.171875 55.265625 
Q 40.578125 54.546875 44.28125 53.078125 
z
" id="DejaVuSans-73"/>
                        <path d="M 8.5 21.578125
L 8.5 54.6875 
L 17.484375 54.6875 
L 17.484375 21.921875 
Q 17.484375 14.15625 20.5 10.265625 
Q 23.53125 6.390625 29.59375 6.390625 
Q 36.859375 6.390625 41.078125 11.03125 
Q 45.3125 15.671875 45.3125 23.6875 
L 45.3125 54.6875 
L 54.296875 54.6875 
L 54.296875 0 
L 45.3125 0 
L 45.3125 8.40625 
Q 42.046875 3.421875 37.71875 1 
Q 33.40625 -1.421875 27.6875 -1.421875 
Q 18.265625 -1.421875 13.375 4.4375 
Q 8.5 10.296875 8.5 21.578125 
z
M 31.109375 56 
z
" id="DejaVuSans-75"/>
                        <path d="M 41.109375 46.296875
Q 39.59375 47.171875 37.8125 47.578125 
Q 36.03125 48 33.890625 48 
Q 26.265625 48 22.1875 43.046875 
Q 18.109375 38.09375 18.109375 28.8125 
L 18.109375 0 
L 9.078125 0 
L 9.078125 54.6875 
L 18.109375 54.6875 
L 18.109375 46.1875 
Q 20.953125 51.171875 25.484375 53.578125 
Q 30.03125 56 36.53125 56 
Q 37.453125 56 38.578125 55.875 
Q 39.703125 55.765625 41.0625 55.515625 
z
" id="DejaVuSans-72"/>
                    </defs>
                    <g transform="translate(14.798438 162.586406)rotate(-90)scale(0.1 -0.1)">
                        <use xlink:href="#DejaVuSans-4d"/>
                        <use x="86.279297" xlink:href="#DejaVuSans-65"/>
                        <use x="147.802734" xlink:href="#DejaVuSans-61"/>
                        <use x="209.082031" xlink:href="#DejaVuSans-73"/>
                        <use x="261.181641" xlink:href="#DejaVuSans-75"/>
                        <use x="324.560547" xlink:href="#DejaVuSans-72"/>
                        <use x="365.642578" xlink:href="#DejaVuSans-65"/>
                        <use x="427.166016" xlink:href="#DejaVuSans-64"/>
                        <use x="490.642578" xlink:href="#DejaVuSans-20"/>
                        <use x="522.429688" xlink:href="#DejaVuSans-45"/>
                        <use x="585.613281" xlink:href="#DejaVuSans-50"/>
                        <use x="645.916016" xlink:href="#DejaVuSans-53"/>
                        <use x="709.392578" xlink:href="#DejaVuSans-50"/>
                        <use x="769.695312" xlink:href="#DejaVuSans-20"/>
                        <use x="801.482422" xlink:href="#DejaVuSans-28"/>
                        <use x="840.496094" xlink:href="#DejaVuSans-6d"/>
                        <use x="937.908203" xlink:href="#DejaVuSans-56"/>
                        <use x="1006.316406" xlink:href="#DejaVuSans-29"/>
                    </g>
                </g>
            </g>
            <g id="line2d_16">
                <path clip-path="url(#p308560917c)" d="M 36.709275 209.94
L 72.773201 178.986561 
L 108.837127 158.682789 
L 144.901053 131.183139 
L 180.964979 116.831056 
L 217.028905 108.76801 
L 253.092831 101.251879 
L 281.45985 95.896287 
" style="fill:none;stroke:#228b22;stroke-linecap:square;stroke-width:1.5;"/>
                <defs>
                    <path d="M 0 3
C 0.795609 3 1.55874 2.683901 2.12132 2.12132 
C 2.683901 1.55874 3 0.795609 3 0 
C 3 -0.795609 2.683901 -1.55874 2.12132 -2.12132 
C 1.55874 -2.683901 0.795609 -3 0 -3 
C -0.795609 -3 -1.55874 -2.683901 -2.12132 -2.12132 
C -2.683901 -1.55874 -3 -0.795609 -3 0 
C -3 0.795609 -2.683901 1.55874 -2.12132 2.12132 
C -1.55874 2.683901 -0.795609 3 0 3 
z
" id="m332cfc5e7d" style="stroke:#228b22;"/>
                </defs>
                <g clip-path="url(#p308560917c)">
                    <use style="fill:#228b22;stroke:#228b22;" x="36.709275" xlink:href="#m332cfc5e7d" y="209.94"/>
                    <use style="fill:#228b22;stroke:#228b22;" x="72.773201" xlink:href="#m332cfc5e7d" y="178.986561"/>
                    <use style="fill:#228b22;stroke:#228b22;" x="108.837127" xlink:href="#m332cfc5e7d" y="158.682789"/>
                    <use style="fill:#228b22;stroke:#228b22;" x="144.901053" xlink:href="#m332cfc5e7d" y="131.183139"/>
                    <use style="fill:#228b22;stroke:#228b22;" x="180.964979" xlink:href="#m332cfc5e7d" y="116.831056"/>
                    <use style="fill:#228b22;stroke:#228b22;" x="217.028905" xlink:href="#m332cfc5e7d" y="108.76801"/>
                    <use style="fill:#228b22;stroke:#228b22;" x="253.092831" xlink:href="#m332cfc5e7d" y="101.251879"/>
                    <use style="fill:#228b22;stroke:#228b22;" x="289.156757" xlink:href="#m332cfc5e7d" y="94.443139"/>
                    <use style="fill:#228b22;stroke:#228b22;" x="325.220682" xlink:href="#m332cfc5e7d" y="88.331914"/>
                    <use style="fill:#228b22;stroke:#228b22;" x="330.813468" xlink:href="#m332cfc5e7d" y="-1"/>
                </g>
            </g>
            <g id="patch_3">
                <path d="M 36.709275 209.94
L 36.709275 10.7 
" style="fill:none;stroke:#000000;stroke-linecap:square;stroke-linejoin:miter;stroke-width:0.8;"/>
            </g>
            <g id="patch_4">
                <path d="M 268.844275 209.94
L 268.844275 10.7 
" style="fill:none;stroke:#000000;stroke-linecap:square;stroke-linejoin:miter;stroke-width:0.8;"/>
            </g>
            <g id="patch_5">
                <path d="M 36.709275 209.94
L 268.844275 209.94 
" style="fill:none;stroke:#000000;stroke-linecap:square;stroke-linejoin:miter;stroke-width:0.8;"/>
            </g>
            <g id="patch_6">
                <path d="M 36.709275 10.7
L 268.844275 10.7 
" style="fill:none;stroke:#000000;stroke-linecap:square;stroke-linejoin:miter;stroke-width:0.8;"/>
            </g>
            <g id="line2d_17">
                <path clip-path="url(#p308560917c)" d="M 36.709275 209.94
L 57.629585 191.98423 
L 78.549895 177.560713 
L 99.470205 165.426834 
L 120.390515 153.436167 
L 141.310825 79.488407 
L 162.231136 85.174436 
L 183.151446 86.822285 
L 204.071756 87.046919 
L 224.992066 86.553749 
L 245.912376 85.663977 
" style="fill:none;stroke:#9932cc;stroke-linecap:square;stroke-width:1.5;"/>
                <defs>
                    <path d="M 0 3
C 0.795609 3 1.55874 2.683901 2.12132 2.12132 
C 2.683901 1.55874 3 0.795609 3 0 
C 3 -0.795609 2.683901 -1.55874 2.12132 -2.12132 
C 1.55874 -2.683901 0.795609 -3 0 -3 
C -0.795609 -3 -1.55874 -2.683901 -2.12132 -2.12132 
C -2.683901 -1.55874 -3 -0.795609 -3 0 
C -3 0.795609 -2.683901 1.55874 -2.12132 2.12132 
C -1.55874 2.683901 -0.795609 3 0 3 
z
" id="m4c867cf322" style="stroke:#9932cc;"/>
                </defs>
                <g clip-path="url(#p308560917c)">
                    <use style="fill:#9932cc;stroke:#9932cc;" x="36.709275" xlink:href="#m4c867cf322" y="209.94"/>
                    <use style="fill:#9932cc;stroke:#9932cc;" x="57.629585" xlink:href="#m4c867cf322" y="191.98423"/>
                    <use style="fill:#9932cc;stroke:#9932cc;" x="78.549895" xlink:href="#m4c867cf322" y="177.560713"/>
                    <use style="fill:#9932cc;stroke:#9932cc;" x="99.470205" xlink:href="#m4c867cf322" y="165.426834"/>
                    <use style="fill:#9932cc;stroke:#9932cc;" x="120.390515" xlink:href="#m4c867cf322" y="153.436167"/>
                    <use style="fill:#9932cc;stroke:#9932cc;" x="141.310825" xlink:href="#m4c867cf322" y="79.488407"/>
                    <use style="fill:#9932cc;stroke:#9932cc;" x="162.231136" xlink:href="#m4c867cf322" y="85.174436"/>
                    <use style="fill:#9932cc;stroke:#9932cc;" x="183.151446" xlink:href="#m4c867cf322" y="86.822285"/>
                    <use style="fill:#9932cc;stroke:#9932cc;" x="204.071756" xlink:href="#m4c867cf322" y="87.046919"/>
                    <use style="fill:#9932cc;stroke:#9932cc;" x="224.992066" xlink:href="#m4c867cf322" y="86.553749"/>
                    <use style="fill:#9932cc;stroke:#9932cc;" x="245.912376" xlink:href="#m4c867cf322" y="85.663977"/>
                </g>
            </g>
            <g id="line2d_18">
                <path clip-path="url(#p308560917c)" d="M 36.709275 209.94
L 40.311936 206.847859 
L 43.914598 204.108877 
L 47.517259 201.586396 
L 51.119921 198.783807 
L 54.722582 168.555099 
L 58.325244 169.241977 
L 61.927905 169.274944 
L 65.530566 168.966193 
L 69.133228 168.49825 
L 72.735889 167.949702 
" style="fill:none;stroke:#000080;stroke-linecap:square;stroke-width:1.5;"/>
                <defs>
                    <path d="M 0 3
C 0.795609 3 1.55874 2.683901 2.12132 2.12132 
C 2.683901 1.55874 3 0.795609 3 0 
C 3 -0.795609 2.683901 -1.55874 2.12132 -2.12132 
C 1.55874 -2.683901 0.795609 -3 0 -3 
C -0.795609 -3 -1.55874 -2.683901 -2.12132 -2.12132 
C -2.683901 -1.55874 -3 -0.795609 -3 0 
C -3 0.795609 -2.683901 1.55874 -2.12132 2.12132 
C -1.55874 2.683901 -0.795609 3 0 3 
z
" id="m8a45baf2aa" style="stroke:#000080;"/>
                </defs>
                <g clip-path="url(#p308560917c)">
                    <use style="fill:#000080;stroke:#000080;" x="36.709275" xlink:href="#m8a45baf2aa" y="209.94"/>
                    <use style="fill:#000080;stroke:#000080;" x="40.311936" xlink:href="#m8a45baf2aa" y="206.847859"/>
                    <use style="fill:#000080;stroke:#000080;" x="43.914598" xlink:href="#m8a45baf2aa" y="204.108877"/>
                    <use style="fill:#000080;stroke:#000080;" x="47.517259" xlink:href="#m8a45baf2aa" y="201.586396"/>
                    <use style="fill:#000080;stroke:#000080;" x="51.119921" xlink:href="#m8a45baf2aa" y="198.783807"/>
                    <use style="fill:#000080;stroke:#000080;" x="54.722582" xlink:href="#m8a45baf2aa" y="168.555099"/>
                    <use style="fill:#000080;stroke:#000080;" x="58.325244" xlink:href="#m8a45baf2aa" y="169.241977"/>
                    <use style="fill:#000080;stroke:#000080;" x="61.927905" xlink:href="#m8a45baf2aa" y="169.274944"/>
                    <use style="fill:#000080;stroke:#000080;" x="65.530566" xlink:href="#m8a45baf2aa" y="168.966193"/>
                    <use style="fill:#000080;stroke:#000080;" x="69.133228" xlink:href="#m8a45baf2aa" y="168.49825"/>
                    <use style="fill:#000080;stroke:#000080;" x="72.735889" xlink:href="#m8a45baf2aa" y="167.949702"/>
                </g>
            </g>
            <g id="line2d_19">
                <path clip-path="url(#p308560917c)" d="M 36.709275 209.94
L 51.79805 199.4799 
L 71.529525 181.714333 
L 93.775796 162.454467 
L 107.897342 140.039967 
L 130.337058 90.8941 
L 147.747183 77.777467 
L 181.79365 48.0575 
" style="fill:none;stroke:#dc143c;stroke-linecap:square;stroke-width:1.5;"/>
                <defs>
                    <path d="M 0 3
C 0.795609 3 1.55874 2.683901 2.12132 2.12132 
C 2.683901 1.55874 3 0.795609 3 0 
C 3 -0.795609 2.683901 -1.55874 2.12132 -2.12132 
C 1.55874 -2.683901 0.795609 -3 0 -3 
C -0.795609 -3 -1.55874 -2.683901 -2.12132 -2.12132 
C -2.683901 -1.55874 -3 -0.795609 -3 0 
C -3 0.795609 -2.683901 1.55874 -2.12132 2.12132 
C -1.55874 2.683901 -0.795609 3 0 3 
z
" id="mfecb31d504" style="stroke:#dc143c;"/>
                </defs>
                <g clip-path="url(#p308560917c)">
                    <use style="fill:#dc143c;stroke:#dc143c;" x="36.709275" xlink:href="#mfecb31d504" y="209.94"/>
                    <use style="fill:#dc143c;stroke:#dc143c;" x="51.79805" xlink:href="#mfecb31d504" y="199.4799"/>
                    <use style="fill:#dc143c;stroke:#dc143c;" x="71.529525" xlink:href="#mfecb31d504" y="181.714333"/>
                    <use style="fill:#dc143c;stroke:#dc143c;" x="93.775796" xlink:href="#mfecb31d504" y="162.454467"/>
                    <use style="fill:#dc143c;stroke:#dc143c;" x="107.897342" xlink:href="#mfecb31d504" y="140.039967"/>
                    <use style="fill:#dc143c;stroke:#dc143c;" x="130.337058" xlink:href="#mfecb31d504" y="90.8941"/>
                    <use style="fill:#dc143c;stroke:#dc143c;" x="147.747183" xlink:href="#mfecb31d504" y="77.777467"/>
                    <use style="fill:#dc143c;stroke:#dc143c;" x="181.79365" xlink:href="#mfecb31d504" y="48.0575"/>
                </g>
            </g>
        </g>
    </g>
    <defs>
        <clipPath id="p308560917c">
            <rect height="199.24" width="232.135" x="36.709275" y="10.7"/>
        </clipPath>
    </defs>
</svg>
