<?xml version="1.0" encoding="utf-8" standalone="no"?>
<!DOCTYPE svg PUBLIC "-//W3C//DTD SVG 1.1//EN"
        "http://www.w3.org/Graphics/SVG/1.1/DTD/svg11.dtd">
<!-- Created with matplotlib (http://matplotlib.org/) -->
<svg xmlns:xlink="http://www.w3.org/1999/xlink" height="244.477137pt" version="1.1" viewBox="0 0 281.389275 244.477137"
     width="281.389275pt" xmlns="http://www.w3.org/2000/svg">
    <defs>
        <style type="text/css">
            *{stroke-linecap:butt;stroke-linejoin:round;}
        </style>
    </defs>
    <g id="figure_1">
        <g id="patch_1">
            <path d="M 0 244.477137
L 281.389275 244.477137 
L 281.389275 0 
L 0 0 
z
" style="fill:#ffffff;"/>
        </g>
        <g id="axes_1">
            <g id="patch_2">
                <path d="M 36.709275 223.3675
L 270.689275 223.3675 
L 270.689275 10.7 
L 36.709275 10.7 
z
" style="fill:#ffffff;"/>
            </g>
            <g id="PolyCollection_1">
                <defs>
                    <path d="M 36.709275 -13.370929
L 36.709275 -149.359929 
L 95.204275 -149.359929 
L 95.204275 -13.370929 
L 95.204275 -13.370929 
L 36.709275 -13.370929 
z
" id="ma30b5d0285" style="stroke:#dc143c;stroke-opacity:0.2;"/>
                </defs>
                <g clip-path="url(#p9ca6ddc44c)">
                    <use style="fill:#dc143c;fill-opacity:0.2;stroke:#dc143c;stroke-opacity:0.2;" x="0"
                         xlink:href="#ma30b5d0285" y="244.477137"/>
                </g>
            </g>
            <g id="PolyCollection_2">
                <defs>
                    <path d="M 95.204275 0.946865
L 95.204275 -202.666765 
L 153.699275 -202.666765 
L 153.699275 0.946865 
L 153.699275 0.946865 
L 95.204275 0.946865 
z
" id="m7a603f78b2" style="stroke:#dc143c;stroke-opacity:0.2;"/>
                </defs>
                <g clip-path="url(#p9ca6ddc44c)">
                    <use style="fill:#dc143c;fill-opacity:0.2;stroke:#dc143c;stroke-opacity:0.2;" x="0"
                         xlink:href="#m7a603f78b2" y="244.477137"/>
                </g>
            </g>
            <g id="PolyCollection_3">
                <defs>
                    <path d="M 153.699275 -20.165042
L 153.699275 -114.210149 
L 212.194275 -114.210149 
L 212.194275 -20.165042 
L 212.194275 -20.165042 
L 153.699275 -20.165042 
z
" id="m4233dc421d" style="stroke:#dc143c;stroke-opacity:0.2;"/>
                </defs>
                <g clip-path="url(#p9ca6ddc44c)">
                    <use style="fill:#dc143c;fill-opacity:0.2;stroke:#dc143c;stroke-opacity:0.2;" x="0"
                         xlink:href="#m4233dc421d" y="244.477137"/>
                </g>
            </g>
            <g id="PolyCollection_4">
                <defs>
                    <path d="M 212.194275 -11.480562
L 212.194275 -201.865162 
L 270.689275 -201.865162 
L 270.689275 -11.480562 
L 270.689275 -11.480562 
L 212.194275 -11.480562 
z
" id="mce18e0ade9" style="stroke:#dc143c;stroke-opacity:0.2;"/>
                </defs>
                <g clip-path="url(#p9ca6ddc44c)">
                    <use style="fill:#dc143c;fill-opacity:0.2;stroke:#dc143c;stroke-opacity:0.2;" x="0"
                         xlink:href="#mce18e0ade9" y="244.477137"/>
                </g>
            </g>
            <g id="line2d_1">
                <path clip-path="url(#p9ca6ddc44c)" d="M 36.709275 95.117208
L 95.204275 95.117208 
" style="fill:none;stroke:#dc143c;stroke-dasharray:1.5,2.475;stroke-dashoffset:0;stroke-width:1.5;"/>
            </g>
            <g id="line2d_2">
                <path clip-path="url(#p9ca6ddc44c)" d="M 36.709275 231.106208
L 95.204275 231.106208 
" style="fill:none;stroke:#dc143c;stroke-dasharray:1.5,2.475;stroke-dashoffset:0;stroke-width:1.5;"/>
            </g>
            <g id="line2d_3">
                <path clip-path="url(#p9ca6ddc44c)" d="M 95.204275 41.810373
L 153.699275 41.810373 
" style="fill:none;stroke:#dc143c;stroke-dasharray:1.5,2.475;stroke-dashoffset:0;stroke-width:1.5;"/>
            </g>
            <g id="line2d_4">
                <path clip-path="url(#p9ca6ddc44c)" d="M 95.204275 245.424002
L 153.699275 245.424002 
" style="fill:none;stroke:#dc143c;stroke-dasharray:1.5,2.475;stroke-dashoffset:0;stroke-width:1.5;"/>
            </g>
            <g id="line2d_5">
                <path clip-path="url(#p9ca6ddc44c)" d="M 153.699275 130.266988
L 212.194275 130.266988 
" style="fill:none;stroke:#dc143c;stroke-dasharray:1.5,2.475;stroke-dashoffset:0;stroke-width:1.5;"/>
            </g>
            <g id="line2d_6">
                <path clip-path="url(#p9ca6ddc44c)" d="M 153.699275 224.312095
L 212.194275 224.312095 
" style="fill:none;stroke:#dc143c;stroke-dasharray:1.5,2.475;stroke-dashoffset:0;stroke-width:1.5;"/>
            </g>
            <g id="line2d_7">
                <path clip-path="url(#p9ca6ddc44c)" d="M 212.194275 42.611976
L 270.689275 42.611976 
" style="fill:none;stroke:#dc143c;stroke-dasharray:1.5,2.475;stroke-dashoffset:0;stroke-width:1.5;"/>
            </g>
            <g id="line2d_8">
                <path clip-path="url(#p9ca6ddc44c)" d="M 212.194275 232.996576
L 270.689275 232.996576 
" style="fill:none;stroke:#dc143c;stroke-dasharray:1.5,2.475;stroke-dashoffset:0;stroke-width:1.5;"/>
            </g>
            <g id="matplotlib.axis_1">
                <g id="xtick_1">
                    <g id="line2d_9">
                        <defs>
                            <path d="M 0 0
L 0 3.5 
" id="m7ce7af6971" style="stroke:#000000;stroke-width:0.8;"/>
                        </defs>
                        <g>
                            <use style="stroke:#000000;stroke-width:0.8;" x="65.956775" xlink:href="#m7ce7af6971"
                                 y="223.3675"/>
                        </g>
                    </g>
                    <g id="text_1">
                        <!-- threshold -->
                        <defs>
                            <path d="M 18.3125 70.21875
L 18.3125 54.6875 
L 36.8125 54.6875 
L 36.8125 47.703125 
L 18.3125 47.703125 
L 18.3125 18.015625 
Q 18.3125 11.328125 20.140625 9.421875 
Q 21.96875 7.515625 27.59375 7.515625 
L 36.8125 7.515625 
L 36.8125 0 
L 27.59375 0 
Q 17.1875 0 13.234375 3.875 
Q 9.28125 7.765625 9.28125 18.015625 
L 9.28125 47.703125 
L 2.6875 47.703125 
L 2.6875 54.6875 
L 9.28125 54.6875 
L 9.28125 70.21875 
z
" id="DejaVuSans-74"/>
                            <path d="M 54.890625 33.015625
L 54.890625 0 
L 45.90625 0 
L 45.90625 32.71875 
Q 45.90625 40.484375 42.875 44.328125 
Q 39.84375 48.1875 33.796875 48.1875 
Q 26.515625 48.1875 22.3125 43.546875 
Q 18.109375 38.921875 18.109375 30.90625 
L 18.109375 0 
L 9.078125 0 
L 9.078125 75.984375 
L 18.109375 75.984375 
L 18.109375 46.1875 
Q 21.34375 51.125 25.703125 53.5625 
Q 30.078125 56 35.796875 56 
Q 45.21875 56 50.046875 50.171875 
Q 54.890625 44.34375 54.890625 33.015625 
z
" id="DejaVuSans-68"/>
                            <path d="M 41.109375 46.296875
Q 39.59375 47.171875 37.8125 47.578125 
Q 36.03125 48 33.890625 48 
Q 26.265625 48 22.1875 43.046875 
Q 18.109375 38.09375 18.109375 28.8125 
L 18.109375 0 
L 9.078125 0 
L 9.078125 54.6875 
L 18.109375 54.6875 
L 18.109375 46.1875 
Q 20.953125 51.171875 25.484375 53.578125 
Q 30.03125 56 36.53125 56 
Q 37.453125 56 38.578125 55.875 
Q 39.703125 55.765625 41.0625 55.515625 
z
" id="DejaVuSans-72"/>
                            <path d="M 56.203125 29.59375
L 56.203125 25.203125 
L 14.890625 25.203125 
Q 15.484375 15.921875 20.484375 11.0625 
Q 25.484375 6.203125 34.421875 6.203125 
Q 39.59375 6.203125 44.453125 7.46875 
Q 49.3125 8.734375 54.109375 11.28125 
L 54.109375 2.78125 
Q 49.265625 0.734375 44.1875 -0.34375 
Q 39.109375 -1.421875 33.890625 -1.421875 
Q 20.796875 -1.421875 13.15625 6.1875 
Q 5.515625 13.8125 5.515625 26.8125 
Q 5.515625 40.234375 12.765625 48.109375 
Q 20.015625 56 32.328125 56 
Q 43.359375 56 49.78125 48.890625 
Q 56.203125 41.796875 56.203125 29.59375 
z
M 47.21875 32.234375 
Q 47.125 39.59375 43.09375 43.984375 
Q 39.0625 48.390625 32.421875 48.390625 
Q 24.90625 48.390625 20.390625 44.140625 
Q 15.875 39.890625 15.1875 32.171875 
z
" id="DejaVuSans-65"/>
                            <path d="M 44.28125 53.078125
L 44.28125 44.578125 
Q 40.484375 46.53125 36.375 47.5 
Q 32.28125 48.484375 27.875 48.484375 
Q 21.1875 48.484375 17.84375 46.4375 
Q 14.5 44.390625 14.5 40.28125 
Q 14.5 37.15625 16.890625 35.375 
Q 19.28125 33.59375 26.515625 31.984375 
L 29.59375 31.296875 
Q 39.15625 29.25 43.1875 25.515625 
Q 47.21875 21.78125 47.21875 15.09375 
Q 47.21875 7.46875 41.1875 3.015625 
Q 35.15625 -1.421875 24.609375 -1.421875 
Q 20.21875 -1.421875 15.453125 -0.5625 
Q 10.6875 0.296875 5.421875 2 
L 5.421875 11.28125 
Q 10.40625 8.6875 15.234375 7.390625 
Q 20.0625 6.109375 24.8125 6.109375 
Q 31.15625 6.109375 34.5625 8.28125 
Q 37.984375 10.453125 37.984375 14.40625 
Q 37.984375 18.0625 35.515625 20.015625 
Q 33.0625 21.96875 24.703125 23.78125 
L 21.578125 24.515625 
Q 13.234375 26.265625 9.515625 29.90625 
Q 5.8125 33.546875 5.8125 39.890625 
Q 5.8125 47.609375 11.28125 51.796875 
Q 16.75 56 26.8125 56 
Q 31.78125 56 36.171875 55.265625 
Q 40.578125 54.546875 44.28125 53.078125 
z
" id="DejaVuSans-73"/>
                            <path d="M 30.609375 48.390625
Q 23.390625 48.390625 19.1875 42.75 
Q 14.984375 37.109375 14.984375 27.296875 
Q 14.984375 17.484375 19.15625 11.84375 
Q 23.34375 6.203125 30.609375 6.203125 
Q 37.796875 6.203125 41.984375 11.859375 
Q 46.1875 17.53125 46.1875 27.296875 
Q 46.1875 37.015625 41.984375 42.703125 
Q 37.796875 48.390625 30.609375 48.390625 
z
M 30.609375 56 
Q 42.328125 56 49.015625 48.375 
Q 55.71875 40.765625 55.71875 27.296875 
Q 55.71875 13.875 49.015625 6.21875 
Q 42.328125 -1.421875 30.609375 -1.421875 
Q 18.84375 -1.421875 12.171875 6.21875 
Q 5.515625 13.875 5.515625 27.296875 
Q 5.515625 40.765625 12.171875 48.375 
Q 18.84375 56 30.609375 56 
z
" id="DejaVuSans-6f"/>
                            <path d="M 9.421875 75.984375
L 18.40625 75.984375 
L 18.40625 0 
L 9.421875 0 
z
" id="DejaVuSans-6c"/>
                            <path d="M 45.40625 46.390625
L 45.40625 75.984375 
L 54.390625 75.984375 
L 54.390625 0 
L 45.40625 0 
L 45.40625 8.203125 
Q 42.578125 3.328125 38.25 0.953125 
Q 33.9375 -1.421875 27.875 -1.421875 
Q 17.96875 -1.421875 11.734375 6.484375 
Q 5.515625 14.40625 5.515625 27.296875 
Q 5.515625 40.1875 11.734375 48.09375 
Q 17.96875 56 27.875 56 
Q 33.9375 56 38.25 53.625 
Q 42.578125 51.265625 45.40625 46.390625 
z
M 14.796875 27.296875 
Q 14.796875 17.390625 18.875 11.75 
Q 22.953125 6.109375 30.078125 6.109375 
Q 37.203125 6.109375 41.296875 11.75 
Q 45.40625 17.390625 45.40625 27.296875 
Q 45.40625 37.203125 41.296875 42.84375 
Q 37.203125 48.484375 30.078125 48.484375 
Q 22.953125 48.484375 18.875 42.84375 
Q 14.796875 37.203125 14.796875 27.296875 
z
" id="DejaVuSans-64"/>
                        </defs>
                        <g transform="translate(49.53988 235.640816)scale(0.0694 -0.0694)">
                            <use xlink:href="#DejaVuSans-74"/>
                            <use x="39.208984" xlink:href="#DejaVuSans-68"/>
                            <use x="102.587891" xlink:href="#DejaVuSans-72"/>
                            <use x="143.669922" xlink:href="#DejaVuSans-65"/>
                            <use x="205.193359" xlink:href="#DejaVuSans-73"/>
                            <use x="257.292969" xlink:href="#DejaVuSans-68"/>
                            <use x="320.671875" xlink:href="#DejaVuSans-6f"/>
                            <use x="381.853516" xlink:href="#DejaVuSans-6c"/>
                            <use x="409.636719" xlink:href="#DejaVuSans-64"/>
                        </g>
                    </g>
                </g>
                <g id="xtick_2">
                    <g id="line2d_10">
                        <g>
                            <use style="stroke:#000000;stroke-width:0.8;" x="124.451775" xlink:href="#m7ce7af6971"
                                 y="223.3675"/>
                        </g>
                    </g>
                    <g id="text_2">
                        <!-- prox_threshold -->
                        <defs>
                            <path d="M 18.109375 8.203125
L 18.109375 -20.796875 
L 9.078125 -20.796875 
L 9.078125 54.6875 
L 18.109375 54.6875 
L 18.109375 46.390625 
Q 20.953125 51.265625 25.265625 53.625 
Q 29.59375 56 35.59375 56 
Q 45.5625 56 51.78125 48.09375 
Q 58.015625 40.1875 58.015625 27.296875 
Q 58.015625 14.40625 51.78125 6.484375 
Q 45.5625 -1.421875 35.59375 -1.421875 
Q 29.59375 -1.421875 25.265625 0.953125 
Q 20.953125 3.328125 18.109375 8.203125 
z
M 48.6875 27.296875 
Q 48.6875 37.203125 44.609375 42.84375 
Q 40.53125 48.484375 33.40625 48.484375 
Q 26.265625 48.484375 22.1875 42.84375 
Q 18.109375 37.203125 18.109375 27.296875 
Q 18.109375 17.390625 22.1875 11.75 
Q 26.265625 6.109375 33.40625 6.109375 
Q 40.53125 6.109375 44.609375 11.75 
Q 48.6875 17.390625 48.6875 27.296875 
z
" id="DejaVuSans-70"/>
                            <path d="M 54.890625 54.6875
L 35.109375 28.078125 
L 55.90625 0 
L 45.3125 0 
L 29.390625 21.484375 
L 13.484375 0 
L 2.875 0 
L 24.125 28.609375 
L 4.6875 54.6875 
L 15.28125 54.6875 
L 29.78125 35.203125 
L 44.28125 54.6875 
z
" id="DejaVuSans-78"/>
                            <path d="M 50.984375 -16.609375
L 50.984375 -23.578125 
L -0.984375 -23.578125 
L -0.984375 -16.609375 
z
" id="DejaVuSans-5f"/>
                        </defs>
                        <g transform="translate(98.496175 235.640816)scale(0.0694 -0.0694)">
                            <use xlink:href="#DejaVuSans-70"/>
                            <use x="63.476562" xlink:href="#DejaVuSans-72"/>
                            <use x="104.558594" xlink:href="#DejaVuSans-6f"/>
                            <use x="165.693359" xlink:href="#DejaVuSans-78"/>
                            <use x="224.873047" xlink:href="#DejaVuSans-5f"/>
                            <use x="274.873047" xlink:href="#DejaVuSans-74"/>
                            <use x="314.082031" xlink:href="#DejaVuSans-68"/>
                            <use x="377.460938" xlink:href="#DejaVuSans-72"/>
                            <use x="418.542969" xlink:href="#DejaVuSans-65"/>
                            <use x="480.066406" xlink:href="#DejaVuSans-73"/>
                            <use x="532.166016" xlink:href="#DejaVuSans-68"/>
                            <use x="595.544922" xlink:href="#DejaVuSans-6f"/>
                            <use x="656.726562" xlink:href="#DejaVuSans-6c"/>
                            <use x="684.509766" xlink:href="#DejaVuSans-64"/>
                        </g>
                    </g>
                </g>
                <g id="xtick_3">
                    <g id="line2d_11">
                        <g>
                            <use style="stroke:#000000;stroke-width:0.8;" x="182.946775" xlink:href="#m7ce7af6971"
                                 y="223.3675"/>
                        </g>
                    </g>
                    <g id="text_3">
                        <!-- dist_threshold -->
                        <defs>
                            <path d="M 9.421875 54.6875
L 18.40625 54.6875 
L 18.40625 0 
L 9.421875 0 
z
M 9.421875 75.984375 
L 18.40625 75.984375 
L 18.40625 64.59375 
L 9.421875 64.59375 
z
" id="DejaVuSans-69"/>
                        </defs>
                        <g transform="translate(158.459961 235.640816)scale(0.0694 -0.0694)">
                            <use xlink:href="#DejaVuSans-64"/>
                            <use x="63.476562" xlink:href="#DejaVuSans-69"/>
                            <use x="91.259766" xlink:href="#DejaVuSans-73"/>
                            <use x="143.359375" xlink:href="#DejaVuSans-74"/>
                            <use x="182.568359" xlink:href="#DejaVuSans-5f"/>
                            <use x="232.568359" xlink:href="#DejaVuSans-74"/>
                            <use x="271.777344" xlink:href="#DejaVuSans-68"/>
                            <use x="335.15625" xlink:href="#DejaVuSans-72"/>
                            <use x="376.238281" xlink:href="#DejaVuSans-65"/>
                            <use x="437.761719" xlink:href="#DejaVuSans-73"/>
                            <use x="489.861328" xlink:href="#DejaVuSans-68"/>
                            <use x="553.240234" xlink:href="#DejaVuSans-6f"/>
                            <use x="614.421875" xlink:href="#DejaVuSans-6c"/>
                            <use x="642.205078" xlink:href="#DejaVuSans-64"/>
                        </g>
                    </g>
                </g>
                <g id="xtick_4">
                    <g id="line2d_12">
                        <g>
                            <use style="stroke:#000000;stroke-width:0.8;" x="241.441775" xlink:href="#m7ce7af6971"
                                 y="223.3675"/>
                        </g>
                    </g>
                    <g id="text_4">
                        <!-- amplitude_at_th -->
                        <defs>
                            <path d="M 34.28125 27.484375
Q 23.390625 27.484375 19.1875 25 
Q 14.984375 22.515625 14.984375 16.5 
Q 14.984375 11.71875 18.140625 8.90625 
Q 21.296875 6.109375 26.703125 6.109375 
Q 34.1875 6.109375 38.703125 11.40625 
Q 43.21875 16.703125 43.21875 25.484375 
L 43.21875 27.484375 
z
M 52.203125 31.203125 
L 52.203125 0 
L 43.21875 0 
L 43.21875 8.296875 
Q 40.140625 3.328125 35.546875 0.953125 
Q 30.953125 -1.421875 24.3125 -1.421875 
Q 15.921875 -1.421875 10.953125 3.296875 
Q 6 8.015625 6 15.921875 
Q 6 25.140625 12.171875 29.828125 
Q 18.359375 34.515625 30.609375 34.515625 
L 43.21875 34.515625 
L 43.21875 35.40625 
Q 43.21875 41.609375 39.140625 45 
Q 35.0625 48.390625 27.6875 48.390625 
Q 23 48.390625 18.546875 47.265625 
Q 14.109375 46.140625 10.015625 43.890625 
L 10.015625 52.203125 
Q 14.9375 54.109375 19.578125 55.046875 
Q 24.21875 56 28.609375 56 
Q 40.484375 56 46.34375 49.84375 
Q 52.203125 43.703125 52.203125 31.203125 
z
" id="DejaVuSans-61"/>
                            <path d="M 52 44.1875
Q 55.375 50.25 60.0625 53.125 
Q 64.75 56 71.09375 56 
Q 79.640625 56 84.28125 50.015625 
Q 88.921875 44.046875 88.921875 33.015625 
L 88.921875 0 
L 79.890625 0 
L 79.890625 32.71875 
Q 79.890625 40.578125 77.09375 44.375 
Q 74.3125 48.1875 68.609375 48.1875 
Q 61.625 48.1875 57.5625 43.546875 
Q 53.515625 38.921875 53.515625 30.90625 
L 53.515625 0 
L 44.484375 0 
L 44.484375 32.71875 
Q 44.484375 40.625 41.703125 44.40625 
Q 38.921875 48.1875 33.109375 48.1875 
Q 26.21875 48.1875 22.15625 43.53125 
Q 18.109375 38.875 18.109375 30.90625 
L 18.109375 0 
L 9.078125 0 
L 9.078125 54.6875 
L 18.109375 54.6875 
L 18.109375 46.1875 
Q 21.1875 51.21875 25.484375 53.609375 
Q 29.78125 56 35.6875 56 
Q 41.65625 56 45.828125 52.96875 
Q 50 49.953125 52 44.1875 
z
" id="DejaVuSans-6d"/>
                            <path d="M 8.5 21.578125
L 8.5 54.6875 
L 17.484375 54.6875 
L 17.484375 21.921875 
Q 17.484375 14.15625 20.5 10.265625 
Q 23.53125 6.390625 29.59375 6.390625 
Q 36.859375 6.390625 41.078125 11.03125 
Q 45.3125 15.671875 45.3125 23.6875 
L 45.3125 54.6875 
L 54.296875 54.6875 
L 54.296875 0 
L 45.3125 0 
L 45.3125 8.40625 
Q 42.046875 3.421875 37.71875 1 
Q 33.40625 -1.421875 27.6875 -1.421875 
Q 18.265625 -1.421875 13.375 4.4375 
Q 8.5 10.296875 8.5 21.578125 
z
M 31.109375 56 
z
" id="DejaVuSans-75"/>
                        </defs>
                        <g transform="translate(213.39062 235.640816)scale(0.0694 -0.0694)">
                            <use xlink:href="#DejaVuSans-61"/>
                            <use x="61.279297" xlink:href="#DejaVuSans-6d"/>
                            <use x="158.691406" xlink:href="#DejaVuSans-70"/>
                            <use x="222.167969" xlink:href="#DejaVuSans-6c"/>
                            <use x="249.951172" xlink:href="#DejaVuSans-69"/>
                            <use x="277.734375" xlink:href="#DejaVuSans-74"/>
                            <use x="316.943359" xlink:href="#DejaVuSans-75"/>
                            <use x="380.322266" xlink:href="#DejaVuSans-64"/>
                            <use x="443.798828" xlink:href="#DejaVuSans-65"/>
                            <use x="505.322266" xlink:href="#DejaVuSans-5f"/>
                            <use x="555.322266" xlink:href="#DejaVuSans-61"/>
                            <use x="616.601562" xlink:href="#DejaVuSans-74"/>
                            <use x="655.810547" xlink:href="#DejaVuSans-5f"/>
                            <use x="705.810547" xlink:href="#DejaVuSans-74"/>
                            <use x="745.019531" xlink:href="#DejaVuSans-68"/>
                        </g>
                    </g>
                </g>
            </g>
            <g id="matplotlib.axis_2">
                <g id="ytick_1">
                    <g id="line2d_13">
                        <defs>
                            <path d="M 0 0
L -3.5 0 
" id="mc6a4421f7b" style="stroke:#000000;stroke-width:0.8;"/>
                        </defs>
                        <g>
                            <use style="stroke:#000000;stroke-width:0.8;" x="36.709275" xlink:href="#mc6a4421f7b"
                                 y="223.3675"/>
                        </g>
                    </g>
                    <g id="text_5">
                        <!-- 0 -->
                        <defs>
                            <path d="M 31.78125 66.40625
Q 24.171875 66.40625 20.328125 58.90625 
Q 16.5 51.421875 16.5 36.375 
Q 16.5 21.390625 20.328125 13.890625 
Q 24.171875 6.390625 31.78125 6.390625 
Q 39.453125 6.390625 43.28125 13.890625 
Q 47.125 21.390625 47.125 36.375 
Q 47.125 51.421875 43.28125 58.90625 
Q 39.453125 66.40625 31.78125 66.40625 
z
M 31.78125 74.21875 
Q 44.046875 74.21875 50.515625 64.515625 
Q 56.984375 54.828125 56.984375 36.375 
Q 56.984375 17.96875 50.515625 8.265625 
Q 44.046875 -1.421875 31.78125 -1.421875 
Q 19.53125 -1.421875 13.0625 8.265625 
Q 6.59375 17.96875 6.59375 36.375 
Q 6.59375 54.828125 13.0625 64.515625 
Q 19.53125 74.21875 31.78125 74.21875 
z
" id="DejaVuSans-30"/>
                        </defs>
                        <g transform="translate(25.2937 226.004158)scale(0.0694 -0.0694)">
                            <use xlink:href="#DejaVuSans-30"/>
                        </g>
                    </g>
                </g>
                <g id="ytick_2">
                    <g id="line2d_14">
                        <g>
                            <use style="stroke:#000000;stroke-width:0.8;" x="36.709275" xlink:href="#mc6a4421f7b"
                                 y="187.922917"/>
                        </g>
                    </g>
                    <g id="text_6">
                        <!-- 2 -->
                        <defs>
                            <path d="M 19.1875 8.296875
L 53.609375 8.296875 
L 53.609375 0 
L 7.328125 0 
L 7.328125 8.296875 
Q 12.9375 14.109375 22.625 23.890625 
Q 32.328125 33.6875 34.8125 36.53125 
Q 39.546875 41.84375 41.421875 45.53125 
Q 43.3125 49.21875 43.3125 52.78125 
Q 43.3125 58.59375 39.234375 62.25 
Q 35.15625 65.921875 28.609375 65.921875 
Q 23.96875 65.921875 18.8125 64.3125 
Q 13.671875 62.703125 7.8125 59.421875 
L 7.8125 69.390625 
Q 13.765625 71.78125 18.9375 73 
Q 24.125 74.21875 28.421875 74.21875 
Q 39.75 74.21875 46.484375 68.546875 
Q 53.21875 62.890625 53.21875 53.421875 
Q 53.21875 48.921875 51.53125 44.890625 
Q 49.859375 40.875 45.40625 35.40625 
Q 44.1875 33.984375 37.640625 27.21875 
Q 31.109375 20.453125 19.1875 8.296875 
z
" id="DejaVuSans-32"/>
                        </defs>
                        <g transform="translate(25.2937 190.559574)scale(0.0694 -0.0694)">
                            <use xlink:href="#DejaVuSans-32"/>
                        </g>
                    </g>
                </g>
                <g id="ytick_3">
                    <g id="line2d_15">
                        <g>
                            <use style="stroke:#000000;stroke-width:0.8;" x="36.709275" xlink:href="#mc6a4421f7b"
                                 y="152.478333"/>
                        </g>
                    </g>
                    <g id="text_7">
                        <!-- 4 -->
                        <defs>
                            <path d="M 37.796875 64.3125
L 12.890625 25.390625 
L 37.796875 25.390625 
z
M 35.203125 72.90625 
L 47.609375 72.90625 
L 47.609375 25.390625 
L 58.015625 25.390625 
L 58.015625 17.1875 
L 47.609375 17.1875 
L 47.609375 0 
L 37.796875 0 
L 37.796875 17.1875 
L 4.890625 17.1875 
L 4.890625 26.703125 
z
" id="DejaVuSans-34"/>
                        </defs>
                        <g transform="translate(25.2937 155.114991)scale(0.0694 -0.0694)">
                            <use xlink:href="#DejaVuSans-34"/>
                        </g>
                    </g>
                </g>
                <g id="ytick_4">
                    <g id="line2d_16">
                        <g>
                            <use style="stroke:#000000;stroke-width:0.8;" x="36.709275" xlink:href="#mc6a4421f7b"
                                 y="117.03375"/>
                        </g>
                    </g>
                    <g id="text_8">
                        <!-- 6 -->
                        <defs>
                            <path d="M 33.015625 40.375
Q 26.375 40.375 22.484375 35.828125 
Q 18.609375 31.296875 18.609375 23.390625 
Q 18.609375 15.53125 22.484375 10.953125 
Q 26.375 6.390625 33.015625 6.390625 
Q 39.65625 6.390625 43.53125 10.953125 
Q 47.40625 15.53125 47.40625 23.390625 
Q 47.40625 31.296875 43.53125 35.828125 
Q 39.65625 40.375 33.015625 40.375 
z
M 52.59375 71.296875 
L 52.59375 62.3125 
Q 48.875 64.0625 45.09375 64.984375 
Q 41.3125 65.921875 37.59375 65.921875 
Q 27.828125 65.921875 22.671875 59.328125 
Q 17.53125 52.734375 16.796875 39.40625 
Q 19.671875 43.65625 24.015625 45.921875 
Q 28.375 48.1875 33.59375 48.1875 
Q 44.578125 48.1875 50.953125 41.515625 
Q 57.328125 34.859375 57.328125 23.390625 
Q 57.328125 12.15625 50.6875 5.359375 
Q 44.046875 -1.421875 33.015625 -1.421875 
Q 20.359375 -1.421875 13.671875 8.265625 
Q 6.984375 17.96875 6.984375 36.375 
Q 6.984375 53.65625 15.1875 63.9375 
Q 23.390625 74.21875 37.203125 74.21875 
Q 40.921875 74.21875 44.703125 73.484375 
Q 48.484375 72.75 52.59375 71.296875 
z
" id="DejaVuSans-36"/>
                        </defs>
                        <g transform="translate(25.2937 119.670408)scale(0.0694 -0.0694)">
                            <use xlink:href="#DejaVuSans-36"/>
                        </g>
                    </g>
                </g>
                <g id="ytick_5">
                    <g id="line2d_17">
                        <g>
                            <use style="stroke:#000000;stroke-width:0.8;" x="36.709275" xlink:href="#mc6a4421f7b"
                                 y="81.589167"/>
                        </g>
                    </g>
                    <g id="text_9">
                        <!-- 8 -->
                        <defs>
                            <path d="M 31.78125 34.625
Q 24.75 34.625 20.71875 30.859375 
Q 16.703125 27.09375 16.703125 20.515625 
Q 16.703125 13.921875 20.71875 10.15625 
Q 24.75 6.390625 31.78125 6.390625 
Q 38.8125 6.390625 42.859375 10.171875 
Q 46.921875 13.96875 46.921875 20.515625 
Q 46.921875 27.09375 42.890625 30.859375 
Q 38.875 34.625 31.78125 34.625 
z
M 21.921875 38.8125 
Q 15.578125 40.375 12.03125 44.71875 
Q 8.5 49.078125 8.5 55.328125 
Q 8.5 64.0625 14.71875 69.140625 
Q 20.953125 74.21875 31.78125 74.21875 
Q 42.671875 74.21875 48.875 69.140625 
Q 55.078125 64.0625 55.078125 55.328125 
Q 55.078125 49.078125 51.53125 44.71875 
Q 48 40.375 41.703125 38.8125 
Q 48.828125 37.15625 52.796875 32.3125 
Q 56.78125 27.484375 56.78125 20.515625 
Q 56.78125 9.90625 50.3125 4.234375 
Q 43.84375 -1.421875 31.78125 -1.421875 
Q 19.734375 -1.421875 13.25 4.234375 
Q 6.78125 9.90625 6.78125 20.515625 
Q 6.78125 27.484375 10.78125 32.3125 
Q 14.796875 37.15625 21.921875 38.8125 
z
M 18.3125 54.390625 
Q 18.3125 48.734375 21.84375 45.5625 
Q 25.390625 42.390625 31.78125 42.390625 
Q 38.140625 42.390625 41.71875 45.5625 
Q 45.3125 48.734375 45.3125 54.390625 
Q 45.3125 60.0625 41.71875 63.234375 
Q 38.140625 66.40625 31.78125 66.40625 
Q 25.390625 66.40625 21.84375 63.234375 
Q 18.3125 60.0625 18.3125 54.390625 
z
" id="DejaVuSans-38"/>
                        </defs>
                        <g transform="translate(25.2937 84.225824)scale(0.0694 -0.0694)">
                            <use xlink:href="#DejaVuSans-38"/>
                        </g>
                    </g>
                </g>
                <g id="ytick_6">
                    <g id="line2d_18">
                        <g>
                            <use style="stroke:#000000;stroke-width:0.8;" x="36.709275" xlink:href="#mc6a4421f7b"
                                 y="46.144583"/>
                        </g>
                    </g>
                    <g id="text_10">
                        <!-- 10 -->
                        <defs>
                            <path d="M 12.40625 8.296875
L 28.515625 8.296875 
L 28.515625 63.921875 
L 10.984375 60.40625 
L 10.984375 69.390625 
L 28.421875 72.90625 
L 38.28125 72.90625 
L 38.28125 8.296875 
L 54.390625 8.296875 
L 54.390625 0 
L 12.40625 0 
z
" id="DejaVuSans-31"/>
                        </defs>
                        <g transform="translate(20.878125 48.781241)scale(0.0694 -0.0694)">
                            <use xlink:href="#DejaVuSans-31"/>
                            <use x="63.623047" xlink:href="#DejaVuSans-30"/>
                        </g>
                    </g>
                </g>
                <g id="ytick_7">
                    <g id="line2d_19">
                        <g>
                            <use style="stroke:#000000;stroke-width:0.8;" x="36.709275" xlink:href="#mc6a4421f7b"
                                 y="10.7"/>
                        </g>
                    </g>
                    <g id="text_11">
                        <!-- 12 -->
                        <g transform="translate(20.878125 13.336658)scale(0.0694 -0.0694)">
                            <use xlink:href="#DejaVuSans-31"/>
                            <use x="63.623047" xlink:href="#DejaVuSans-32"/>
                        </g>
                    </g>
                </g>
                <g id="text_12">
                    <!-- Voltage (mV) -->
                    <defs>
                        <path d="M 28.609375 0
L 0.78125 72.90625 
L 11.078125 72.90625 
L 34.1875 11.53125 
L 57.328125 72.90625 
L 67.578125 72.90625 
L 39.796875 0 
z
" id="DejaVuSans-56"/>
                        <path d="M 45.40625 27.984375
Q 45.40625 37.75 41.375 43.109375 
Q 37.359375 48.484375 30.078125 48.484375 
Q 22.859375 48.484375 18.828125 43.109375 
Q 14.796875 37.75 14.796875 27.984375 
Q 14.796875 18.265625 18.828125 12.890625 
Q 22.859375 7.515625 30.078125 7.515625 
Q 37.359375 7.515625 41.375 12.890625 
Q 45.40625 18.265625 45.40625 27.984375 
z
M 54.390625 6.78125 
Q 54.390625 -7.171875 48.1875 -13.984375 
Q 42 -20.796875 29.203125 -20.796875 
Q 24.46875 -20.796875 20.265625 -20.09375 
Q 16.0625 -19.390625 12.109375 -17.921875 
L 12.109375 -9.1875 
Q 16.0625 -11.328125 19.921875 -12.34375 
Q 23.78125 -13.375 27.78125 -13.375 
Q 36.625 -13.375 41.015625 -8.765625 
Q 45.40625 -4.15625 45.40625 5.171875 
L 45.40625 9.625 
Q 42.625 4.78125 38.28125 2.390625 
Q 33.9375 0 27.875 0 
Q 17.828125 0 11.671875 7.65625 
Q 5.515625 15.328125 5.515625 27.984375 
Q 5.515625 40.671875 11.671875 48.328125 
Q 17.828125 56 27.875 56 
Q 33.9375 56 38.28125 53.609375 
Q 42.625 51.21875 45.40625 46.390625 
L 45.40625 54.6875 
L 54.390625 54.6875 
z
" id="DejaVuSans-67"/>
                        <path id="DejaVuSans-20"/>
                        <path d="M 31 75.875
Q 24.46875 64.65625 21.28125 53.65625 
Q 18.109375 42.671875 18.109375 31.390625 
Q 18.109375 20.125 21.3125 9.0625 
Q 24.515625 -2 31 -13.1875 
L 23.1875 -13.1875 
Q 15.875 -1.703125 12.234375 9.375 
Q 8.59375 20.453125 8.59375 31.390625 
Q 8.59375 42.28125 12.203125 53.3125 
Q 15.828125 64.359375 23.1875 75.875 
z
" id="DejaVuSans-28"/>
                        <path d="M 8.015625 75.875
L 15.828125 75.875 
Q 23.140625 64.359375 26.78125 53.3125 
Q 30.421875 42.28125 30.421875 31.390625 
Q 30.421875 20.453125 26.78125 9.375 
Q 23.140625 -1.703125 15.828125 -13.1875 
L 8.015625 -13.1875 
Q 14.5 -2 17.703125 9.0625 
Q 20.90625 20.125 20.90625 31.390625 
Q 20.90625 42.671875 17.703125 53.65625 
Q 14.5 64.65625 8.015625 75.875 
z
" id="DejaVuSans-29"/>
                    </defs>
                    <g transform="translate(14.798438 149.953281)rotate(-90)scale(0.1 -0.1)">
                        <use xlink:href="#DejaVuSans-56"/>
                        <use x="68.298828" xlink:href="#DejaVuSans-6f"/>
                        <use x="129.480469" xlink:href="#DejaVuSans-6c"/>
                        <use x="157.263672" xlink:href="#DejaVuSans-74"/>
                        <use x="196.472656" xlink:href="#DejaVuSans-61"/>
                        <use x="257.751953" xlink:href="#DejaVuSans-67"/>
                        <use x="321.228516" xlink:href="#DejaVuSans-65"/>
                        <use x="382.751953" xlink:href="#DejaVuSans-20"/>
                        <use x="414.539062" xlink:href="#DejaVuSans-28"/>
                        <use x="453.552734" xlink:href="#DejaVuSans-6d"/>
                        <use x="550.964844" xlink:href="#DejaVuSans-56"/>
                        <use x="619.373047" xlink:href="#DejaVuSans-29"/>
                    </g>
                </g>
            </g>
            <g id="LineCollection_1">
                <path clip-path="url(#p9ca6ddc44c)" d="M 48.408275 92.27806
L 48.408275 24.061913 
" style="fill:none;stroke:#228b22;stroke-width:1.5;"/>
            </g>
            <g id="LineCollection_2">
                <path clip-path="url(#p9ca6ddc44c)" d="M 60.107275 173.855983
L 60.107275 81.220282 
" style="fill:none;stroke:#9932cc;stroke-width:1.5;"/>
            </g>
            <g id="LineCollection_3">
                <path clip-path="url(#p9ca6ddc44c)" d="M 71.806275 215.724166
L 71.806275 198.005514 
" style="fill:none;stroke:#000080;stroke-width:1.5;"/>
            </g>
            <g id="LineCollection_4">
                <path clip-path="url(#p9ca6ddc44c)" d="M 83.505275 231.106208
L 83.505275 95.117208 
" style="fill:none;stroke:#dc143c;stroke-width:1.5;"/>
            </g>
            <g id="LineCollection_5">
                <path clip-path="url(#p9ca6ddc44c)" d="M 106.903275 24.061913
L 106.903275 24.061913 
" style="fill:none;stroke:#228b22;stroke-width:1.5;"/>
            </g>
            <g id="LineCollection_6">
                <path clip-path="url(#p9ca6ddc44c)" d="M 118.602275 81.220282
L 118.602275 81.220282 
" style="fill:none;stroke:#9932cc;stroke-width:1.5;"/>
            </g>
            <g id="LineCollection_7">
                <path clip-path="url(#p9ca6ddc44c)" d="M 130.301275 198.005514
L 130.301275 198.005514 
" style="fill:none;stroke:#000080;stroke-width:1.5;"/>
            </g>
            <g id="LineCollection_8">
                <path clip-path="url(#p9ca6ddc44c)" d="M 142.000275 245.424002
L 142.000275 41.810373 
" style="fill:none;stroke:#dc143c;stroke-width:1.5;"/>
            </g>
            <g id="LineCollection_9">
                <path clip-path="url(#p9ca6ddc44c)" d="M 165.398275 92.27806
L 165.398275 92.27806 
" style="fill:none;stroke:#228b22;stroke-width:1.5;"/>
            </g>
            <g id="LineCollection_10">
                <path clip-path="url(#p9ca6ddc44c)" d="M 177.097275 173.855983
L 177.097275 173.855983 
" style="fill:none;stroke:#9932cc;stroke-width:1.5;"/>
            </g>
            <g id="LineCollection_11">
                <path clip-path="url(#p9ca6ddc44c)" d="M 188.796275 215.724166
L 188.796275 215.724166 
" style="fill:none;stroke:#000080;stroke-width:1.5;"/>
            </g>
            <g id="LineCollection_12">
                <path clip-path="url(#p9ca6ddc44c)" d="M 200.495275 224.312095
L 200.495275 130.266988 
" style="fill:none;stroke:#dc143c;stroke-width:1.5;"/>
            </g>
            <g id="LineCollection_13">
                <path clip-path="url(#p9ca6ddc44c)" d="M 223.893275 135.461445
L 223.893275 95.292886 
" style="fill:none;stroke:#228b22;stroke-width:1.5;"/>
            </g>
            <g id="LineCollection_14">
                <path clip-path="url(#p9ca6ddc44c)" d="M 235.592275 104.579439
L 235.592275 63.669171 
" style="fill:none;stroke:#9932cc;stroke-width:1.5;"/>
            </g>
            <g id="LineCollection_15">
                <path clip-path="url(#p9ca6ddc44c)" d="M 247.291275 186.048775
L 247.291275 172.338267 
" style="fill:none;stroke:#000080;stroke-width:1.5;"/>
            </g>
            <g id="LineCollection_16">
                <path clip-path="url(#p9ca6ddc44c)" d="M 258.990275 232.996576
L 258.990275 42.611976 
" style="fill:none;stroke:#dc143c;stroke-width:1.5;"/>
            </g>
            <g id="LineCollection_17">
                <path clip-path="url(#p9ca6ddc44c)" d="M 95.204275 223.3675
L 95.204275 10.7 
" style="fill:none;stroke:#000000;stroke-dasharray:1.5,2.475;stroke-dashoffset:0;stroke-width:1.5;"/>
                <path clip-path="url(#p9ca6ddc44c)" d="M 153.699275 223.3675
L 153.699275 10.7 
" style="fill:none;stroke:#000000;stroke-dasharray:1.5,2.475;stroke-dashoffset:0;stroke-width:1.5;"/>
                <path clip-path="url(#p9ca6ddc44c)" d="M 212.194275 223.3675
L 212.194275 10.7 
" style="fill:none;stroke:#000000;stroke-dasharray:1.5,2.475;stroke-dashoffset:0;stroke-width:1.5;"/>
            </g>
            <g id="line2d_20">
                <defs>
                    <path d="M 0 3
C 0.795609 3 1.55874 2.683901 2.12132 2.12132 
C 2.683901 1.55874 3 0.795609 3 0 
C 3 -0.795609 2.683901 -1.55874 2.12132 -2.12132 
C 1.55874 -2.683901 0.795609 -3 0 -3 
C -0.795609 -3 -1.55874 -2.683901 -2.12132 -2.12132 
C -2.683901 -1.55874 -3 -0.795609 -3 0 
C -3 0.795609 -2.683901 1.55874 -2.12132 2.12132 
C -1.55874 2.683901 -0.795609 3 0 3 
z
" id="m9f519fa28a" style="stroke:#228b22;"/>
                </defs>
                <g clip-path="url(#p9ca6ddc44c)">
                    <use style="fill:#228b22;stroke:#228b22;" x="48.408275" xlink:href="#m9f519fa28a" y="58.169986"/>
                </g>
            </g>
            <g id="line2d_21">
                <defs>
                    <path d="M 0 3
C 0.795609 3 1.55874 2.683901 2.12132 2.12132 
C 2.683901 1.55874 3 0.795609 3 0 
C 3 -0.795609 2.683901 -1.55874 2.12132 -2.12132 
C 1.55874 -2.683901 0.795609 -3 0 -3 
C -0.795609 -3 -1.55874 -2.683901 -2.12132 -2.12132 
C -2.683901 -1.55874 -3 -0.795609 -3 0 
C -3 0.795609 -2.683901 1.55874 -2.12132 2.12132 
C -1.55874 2.683901 -0.795609 3 0 3 
z
" id="m8cd6ac3b30" style="stroke:#9932cc;"/>
                </defs>
                <g clip-path="url(#p9ca6ddc44c)">
                    <use style="fill:#9932cc;stroke:#9932cc;" x="60.107275" xlink:href="#m8cd6ac3b30" y="127.538132"/>
                </g>
            </g>
            <g id="line2d_22">
                <defs>
                    <path d="M 0 3
C 0.795609 3 1.55874 2.683901 2.12132 2.12132 
C 2.683901 1.55874 3 0.795609 3 0 
C 3 -0.795609 2.683901 -1.55874 2.12132 -2.12132 
C 1.55874 -2.683901 0.795609 -3 0 -3 
C -0.795609 -3 -1.55874 -2.683901 -2.12132 -2.12132 
C -2.683901 -1.55874 -3 -0.795609 -3 0 
C -3 0.795609 -2.683901 1.55874 -2.12132 2.12132 
C -1.55874 2.683901 -0.795609 3 0 3 
z
" id="mbfe6a06c76" style="stroke:#000080;"/>
                </defs>
                <g clip-path="url(#p9ca6ddc44c)">
                    <use style="fill:#000080;stroke:#000080;" x="71.806275" xlink:href="#mbfe6a06c76" y="206.86484"/>
                </g>
            </g>
            <g id="line2d_23">
                <defs>
                    <path d="M 0 3
C 0.795609 3 1.55874 2.683901 2.12132 2.12132 
C 2.683901 1.55874 3 0.795609 3 0 
C 3 -0.795609 2.683901 -1.55874 2.12132 -2.12132 
C 1.55874 -2.683901 0.795609 -3 0 -3 
C -0.795609 -3 -1.55874 -2.683901 -2.12132 -2.12132 
C -2.683901 -1.55874 -3 -0.795609 -3 0 
C -3 0.795609 -2.683901 1.55874 -2.12132 2.12132 
C -1.55874 2.683901 -0.795609 3 0 3 
z
" id="m7c48eb4b81" style="stroke:#dc143c;"/>
                </defs>
                <g clip-path="url(#p9ca6ddc44c)">
                    <use style="fill:#dc143c;stroke:#dc143c;" x="83.505275" xlink:href="#m7c48eb4b81" y="163.111708"/>
                </g>
            </g>
            <g id="line2d_24">
                <g clip-path="url(#p9ca6ddc44c)">
                    <use style="fill:#228b22;stroke:#228b22;" x="106.903275" xlink:href="#m9f519fa28a" y="24.061913"/>
                </g>
            </g>
            <g id="line2d_25">
                <g clip-path="url(#p9ca6ddc44c)">
                    <use style="fill:#9932cc;stroke:#9932cc;" x="118.602275" xlink:href="#m8cd6ac3b30" y="81.220282"/>
                </g>
            </g>
            <g id="line2d_26">
                <g clip-path="url(#p9ca6ddc44c)">
                    <use style="fill:#000080;stroke:#000080;" x="130.301275" xlink:href="#mbfe6a06c76" y="198.005514"/>
                </g>
            </g>
            <g id="line2d_27">
                <g clip-path="url(#p9ca6ddc44c)">
                    <use style="fill:#dc143c;stroke:#dc143c;" x="142.000275" xlink:href="#m7c48eb4b81" y="143.617188"/>
                </g>
            </g>
            <g id="line2d_28">
                <g clip-path="url(#p9ca6ddc44c)">
                    <use style="fill:#228b22;stroke:#228b22;" x="165.398275" xlink:href="#m9f519fa28a" y="92.27806"/>
                </g>
            </g>
            <g id="line2d_29">
                <g clip-path="url(#p9ca6ddc44c)">
                    <use style="fill:#9932cc;stroke:#9932cc;" x="177.097275" xlink:href="#m8cd6ac3b30" y="173.855983"/>
                </g>
            </g>
            <g id="line2d_30">
                <g clip-path="url(#p9ca6ddc44c)">
                    <use style="fill:#000080;stroke:#000080;" x="188.796275" xlink:href="#mbfe6a06c76" y="215.724166"/>
                </g>
            </g>
            <g id="line2d_31">
                <g clip-path="url(#p9ca6ddc44c)">
                    <use style="fill:#dc143c;stroke:#dc143c;" x="200.495275" xlink:href="#m7c48eb4b81" y="177.289542"/>
                </g>
            </g>
            <g id="line2d_32">
                <g clip-path="url(#p9ca6ddc44c)">
                    <use style="fill:#228b22;stroke:#228b22;" x="223.893275" xlink:href="#m9f519fa28a" y="115.377166"/>
                </g>
            </g>
            <g id="line2d_33">
                <g clip-path="url(#p9ca6ddc44c)">
                    <use style="fill:#9932cc;stroke:#9932cc;" x="235.592275" xlink:href="#m8cd6ac3b30" y="84.124305"/>
                </g>
            </g>
            <g id="line2d_34">
                <g clip-path="url(#p9ca6ddc44c)">
                    <use style="fill:#000080;stroke:#000080;" x="247.291275" xlink:href="#mbfe6a06c76" y="179.193521"/>
                </g>
            </g>
            <g id="line2d_35">
                <g clip-path="url(#p9ca6ddc44c)">
                    <use style="fill:#dc143c;stroke:#dc143c;" x="258.990275" xlink:href="#m7c48eb4b81" y="137.804276"/>
                </g>
            </g>
            <g id="patch_3">
                <path d="M 36.709275 223.3675
L 36.709275 10.7 
" style="fill:none;stroke:#000000;stroke-linecap:square;stroke-linejoin:miter;stroke-width:0.8;"/>
            </g>
            <g id="patch_4">
                <path d="M 270.689275 223.3675
L 270.689275 10.7 
" style="fill:none;stroke:#000000;stroke-linecap:square;stroke-linejoin:miter;stroke-width:0.8;"/>
            </g>
            <g id="patch_5">
                <path d="M 36.709275 223.3675
L 270.689275 223.3675 
" style="fill:none;stroke:#000000;stroke-linecap:square;stroke-linejoin:miter;stroke-width:0.8;"/>
            </g>
            <g id="patch_6">
                <path d="M 36.709275 10.7
L 270.689275 10.7 
" style="fill:none;stroke:#000000;stroke-linecap:square;stroke-linejoin:miter;stroke-width:0.8;"/>
            </g>
        </g>
    </g>
    <defs>
        <clipPath id="p9ca6ddc44c">
            <rect height="212.6675" width="233.98" x="36.709275" y="10.7"/>
        </clipPath>
    </defs>
</svg>
