<?xml version="1.0" encoding="utf-8" standalone="no"?>
<!DOCTYPE svg PUBLIC "-//W3C//DTD SVG 1.1//EN"
        "http://www.w3.org/Graphics/SVG/1.1/DTD/svg11.dtd">
<!-- Created with matplotlib (http://matplotlib.org/) -->
<svg xmlns:xlink="http://www.w3.org/1999/xlink" height="244.894744pt" version="1.1" viewBox="0 0 281.389275 244.894744"
     width="281.389275pt" xmlns="http://www.w3.org/2000/svg">
    <defs>
        <style type="text/css">
            *{stroke-linecap:butt;stroke-linejoin:round;}
        </style>
    </defs>
    <g id="figure_1">
        <g id="patch_1">
            <path d="M 0 244.894744
L 281.389275 244.894744 
L 281.389275 0 
L 0 0 
z
" style="fill:#ffffff;"/>
        </g>
        <g id="axes_1">
            <g id="patch_2">
                <path d="M 36.709275 210.3
L 270.689275 210.3 
L 270.689275 10.7 
L 36.709275 10.7 
z
" style="fill:#ffffff;"/>
            </g>
            <g id="line2d_1">
                <path clip-path="url(#p20a2f24d62)" d="M 47.34473 207.345136
L 68.615639 192.443085 
L 89.886548 179.481597 
L 111.157457 162.792743 
L 132.428366 115.726534 
L 153.699275 100.220484 
L 174.970184 91.520454 
L 196.241093 86.300127 
L 217.512002 83.044773 
L 219.098888 -1 
" style="fill:none;stroke:#228b22;stroke-linecap:square;stroke-width:1.5;"/>
                <defs>
                    <path d="M 0 3
C 0.795609 3 1.55874 2.683901 2.12132 2.12132 
C 2.683901 1.55874 3 0.795609 3 0 
C 3 -0.795609 2.683901 -1.55874 2.12132 -2.12132 
C 1.55874 -2.683901 0.795609 -3 0 -3 
C -0.795609 -3 -1.55874 -2.683901 -2.12132 -2.12132 
C -2.683901 -1.55874 -3 -0.795609 -3 0 
C -3 0.795609 -2.683901 1.55874 -2.12132 2.12132 
C -1.55874 2.683901 -0.795609 3 0 3 
z
" id="m24d9be96fd" style="stroke:#228b22;"/>
                </defs>
                <g clip-path="url(#p20a2f24d62)">
                    <use style="fill:#228b22;stroke:#228b22;" x="47.34473" xlink:href="#m24d9be96fd" y="207.345136"/>
                    <use style="fill:#228b22;stroke:#228b22;" x="68.615639" xlink:href="#m24d9be96fd" y="192.443085"/>
                    <use style="fill:#228b22;stroke:#228b22;" x="89.886548" xlink:href="#m24d9be96fd" y="179.481597"/>
                    <use style="fill:#228b22;stroke:#228b22;" x="111.157457" xlink:href="#m24d9be96fd" y="162.792743"/>
                    <use style="fill:#228b22;stroke:#228b22;" x="132.428366" xlink:href="#m24d9be96fd" y="115.726534"/>
                    <use style="fill:#228b22;stroke:#228b22;" x="153.699275" xlink:href="#m24d9be96fd" y="100.220484"/>
                    <use style="fill:#228b22;stroke:#228b22;" x="174.970184" xlink:href="#m24d9be96fd" y="91.520454"/>
                    <use style="fill:#228b22;stroke:#228b22;" x="196.241093" xlink:href="#m24d9be96fd" y="86.300127"/>
                    <use style="fill:#228b22;stroke:#228b22;" x="217.512002" xlink:href="#m24d9be96fd" y="83.044773"/>
                    <use style="fill:#228b22;stroke:#228b22;" x="219.098888" xlink:href="#m24d9be96fd" y="-1"/>
                </g>
            </g>
            <g id="matplotlib.axis_1">
                <g id="xtick_1">
                    <g id="line2d_2">
                        <defs>
                            <path d="M 0 0
L 0 3.5 
" id="mb85177332c" style="stroke:#000000;stroke-width:0.8;"/>
                        </defs>
                        <g>
                            <use style="stroke:#000000;stroke-width:0.8;" x="47.34473" xlink:href="#mb85177332c"
                                 y="210.3"/>
                        </g>
                    </g>
                    <g id="text_1">
                        <!-- 0 -->
                        <defs>
                            <path d="M 31.78125 66.40625
Q 24.171875 66.40625 20.328125 58.90625 
Q 16.5 51.421875 16.5 36.375 
Q 16.5 21.390625 20.328125 13.890625 
Q 24.171875 6.390625 31.78125 6.390625 
Q 39.453125 6.390625 43.28125 13.890625 
Q 47.125 21.390625 47.125 36.375 
Q 47.125 51.421875 43.28125 58.90625 
Q 39.453125 66.40625 31.78125 66.40625 
z
M 31.78125 74.21875 
Q 44.046875 74.21875 50.515625 64.515625 
Q 56.984375 54.828125 56.984375 36.375 
Q 56.984375 17.96875 50.515625 8.265625 
Q 44.046875 -1.421875 31.78125 -1.421875 
Q 19.53125 -1.421875 13.0625 8.265625 
Q 6.59375 17.96875 6.59375 36.375 
Q 6.59375 54.828125 13.0625 64.515625 
Q 19.53125 74.21875 31.78125 74.21875 
z
" id="DejaVuSans-30"/>
                        </defs>
                        <g transform="translate(45.136942 222.573316)scale(0.0694 -0.0694)">
                            <use xlink:href="#DejaVuSans-30"/>
                        </g>
                    </g>
                </g>
                <g id="xtick_2">
                    <g id="line2d_3">
                        <g>
                            <use style="stroke:#000000;stroke-width:0.8;" x="89.886548" xlink:href="#mb85177332c"
                                 y="210.3"/>
                        </g>
                    </g>
                    <g id="text_2">
                        <!-- 2 -->
                        <defs>
                            <path d="M 19.1875 8.296875
L 53.609375 8.296875 
L 53.609375 0 
L 7.328125 0 
L 7.328125 8.296875 
Q 12.9375 14.109375 22.625 23.890625 
Q 32.328125 33.6875 34.8125 36.53125 
Q 39.546875 41.84375 41.421875 45.53125 
Q 43.3125 49.21875 43.3125 52.78125 
Q 43.3125 58.59375 39.234375 62.25 
Q 35.15625 65.921875 28.609375 65.921875 
Q 23.96875 65.921875 18.8125 64.3125 
Q 13.671875 62.703125 7.8125 59.421875 
L 7.8125 69.390625 
Q 13.765625 71.78125 18.9375 73 
Q 24.125 74.21875 28.421875 74.21875 
Q 39.75 74.21875 46.484375 68.546875 
Q 53.21875 62.890625 53.21875 53.421875 
Q 53.21875 48.921875 51.53125 44.890625 
Q 49.859375 40.875 45.40625 35.40625 
Q 44.1875 33.984375 37.640625 27.21875 
Q 31.109375 20.453125 19.1875 8.296875 
z
" id="DejaVuSans-32"/>
                        </defs>
                        <g transform="translate(87.67876 222.573316)scale(0.0694 -0.0694)">
                            <use xlink:href="#DejaVuSans-32"/>
                        </g>
                    </g>
                </g>
                <g id="xtick_3">
                    <g id="line2d_4">
                        <g>
                            <use style="stroke:#000000;stroke-width:0.8;" x="132.428366" xlink:href="#mb85177332c"
                                 y="210.3"/>
                        </g>
                    </g>
                    <g id="text_3">
                        <!-- 4 -->
                        <defs>
                            <path d="M 37.796875 64.3125
L 12.890625 25.390625 
L 37.796875 25.390625 
z
M 35.203125 72.90625 
L 47.609375 72.90625 
L 47.609375 25.390625 
L 58.015625 25.390625 
L 58.015625 17.1875 
L 47.609375 17.1875 
L 47.609375 0 
L 37.796875 0 
L 37.796875 17.1875 
L 4.890625 17.1875 
L 4.890625 26.703125 
z
" id="DejaVuSans-34"/>
                        </defs>
                        <g transform="translate(130.220578 222.573316)scale(0.0694 -0.0694)">
                            <use xlink:href="#DejaVuSans-34"/>
                        </g>
                    </g>
                </g>
                <g id="xtick_4">
                    <g id="line2d_5">
                        <g>
                            <use style="stroke:#000000;stroke-width:0.8;" x="174.970184" xlink:href="#mb85177332c"
                                 y="210.3"/>
                        </g>
                    </g>
                    <g id="text_4">
                        <!-- 6 -->
                        <defs>
                            <path d="M 33.015625 40.375
Q 26.375 40.375 22.484375 35.828125 
Q 18.609375 31.296875 18.609375 23.390625 
Q 18.609375 15.53125 22.484375 10.953125 
Q 26.375 6.390625 33.015625 6.390625 
Q 39.65625 6.390625 43.53125 10.953125 
Q 47.40625 15.53125 47.40625 23.390625 
Q 47.40625 31.296875 43.53125 35.828125 
Q 39.65625 40.375 33.015625 40.375 
z
M 52.59375 71.296875 
L 52.59375 62.3125 
Q 48.875 64.0625 45.09375 64.984375 
Q 41.3125 65.921875 37.59375 65.921875 
Q 27.828125 65.921875 22.671875 59.328125 
Q 17.53125 52.734375 16.796875 39.40625 
Q 19.671875 43.65625 24.015625 45.921875 
Q 28.375 48.1875 33.59375 48.1875 
Q 44.578125 48.1875 50.953125 41.515625 
Q 57.328125 34.859375 57.328125 23.390625 
Q 57.328125 12.15625 50.6875 5.359375 
Q 44.046875 -1.421875 33.015625 -1.421875 
Q 20.359375 -1.421875 13.671875 8.265625 
Q 6.984375 17.96875 6.984375 36.375 
Q 6.984375 53.65625 15.1875 63.9375 
Q 23.390625 74.21875 37.203125 74.21875 
Q 40.921875 74.21875 44.703125 73.484375 
Q 48.484375 72.75 52.59375 71.296875 
z
" id="DejaVuSans-36"/>
                        </defs>
                        <g transform="translate(172.762397 222.573316)scale(0.0694 -0.0694)">
                            <use xlink:href="#DejaVuSans-36"/>
                        </g>
                    </g>
                </g>
                <g id="xtick_5">
                    <g id="line2d_6">
                        <g>
                            <use style="stroke:#000000;stroke-width:0.8;" x="217.512002" xlink:href="#mb85177332c"
                                 y="210.3"/>
                        </g>
                    </g>
                    <g id="text_5">
                        <!-- 8 -->
                        <defs>
                            <path d="M 31.78125 34.625
Q 24.75 34.625 20.71875 30.859375 
Q 16.703125 27.09375 16.703125 20.515625 
Q 16.703125 13.921875 20.71875 10.15625 
Q 24.75 6.390625 31.78125 6.390625 
Q 38.8125 6.390625 42.859375 10.171875 
Q 46.921875 13.96875 46.921875 20.515625 
Q 46.921875 27.09375 42.890625 30.859375 
Q 38.875 34.625 31.78125 34.625 
z
M 21.921875 38.8125 
Q 15.578125 40.375 12.03125 44.71875 
Q 8.5 49.078125 8.5 55.328125 
Q 8.5 64.0625 14.71875 69.140625 
Q 20.953125 74.21875 31.78125 74.21875 
Q 42.671875 74.21875 48.875 69.140625 
Q 55.078125 64.0625 55.078125 55.328125 
Q 55.078125 49.078125 51.53125 44.71875 
Q 48 40.375 41.703125 38.8125 
Q 48.828125 37.15625 52.796875 32.3125 
Q 56.78125 27.484375 56.78125 20.515625 
Q 56.78125 9.90625 50.3125 4.234375 
Q 43.84375 -1.421875 31.78125 -1.421875 
Q 19.734375 -1.421875 13.25 4.234375 
Q 6.78125 9.90625 6.78125 20.515625 
Q 6.78125 27.484375 10.78125 32.3125 
Q 14.796875 37.15625 21.921875 38.8125 
z
M 18.3125 54.390625 
Q 18.3125 48.734375 21.84375 45.5625 
Q 25.390625 42.390625 31.78125 42.390625 
Q 38.140625 42.390625 41.71875 45.5625 
Q 45.3125 48.734375 45.3125 54.390625 
Q 45.3125 60.0625 41.71875 63.234375 
Q 38.140625 66.40625 31.78125 66.40625 
Q 25.390625 66.40625 21.84375 63.234375 
Q 18.3125 60.0625 18.3125 54.390625 
z
" id="DejaVuSans-38"/>
                        </defs>
                        <g transform="translate(215.304215 222.573316)scale(0.0694 -0.0694)">
                            <use xlink:href="#DejaVuSans-38"/>
                        </g>
                    </g>
                </g>
                <g id="xtick_6">
                    <g id="line2d_7">
                        <g>
                            <use style="stroke:#000000;stroke-width:0.8;" x="260.05382" xlink:href="#mb85177332c"
                                 y="210.3"/>
                        </g>
                    </g>
                    <g id="text_6">
                        <!-- 10 -->
                        <defs>
                            <path d="M 12.40625 8.296875
L 28.515625 8.296875 
L 28.515625 63.921875 
L 10.984375 60.40625 
L 10.984375 69.390625 
L 28.421875 72.90625 
L 38.28125 72.90625 
L 38.28125 8.296875 
L 54.390625 8.296875 
L 54.390625 0 
L 12.40625 0 
z
" id="DejaVuSans-31"/>
                        </defs>
                        <g transform="translate(255.638245 222.573316)scale(0.0694 -0.0694)">
                            <use xlink:href="#DejaVuSans-31"/>
                            <use x="63.623047" xlink:href="#DejaVuSans-30"/>
                        </g>
                    </g>
                </g>
                <g id="text_7">
                    <!-- # of inputs -->
                    <defs>
                        <path d="M 51.125 44
L 36.921875 44 
L 32.8125 27.6875 
L 47.125 27.6875 
z
M 43.796875 71.78125 
L 38.71875 51.515625 
L 52.984375 51.515625 
L 58.109375 71.78125 
L 65.921875 71.78125 
L 60.890625 51.515625 
L 76.125 51.515625 
L 76.125 44 
L 58.984375 44 
L 54.984375 27.6875 
L 70.515625 27.6875 
L 70.515625 20.21875 
L 53.078125 20.21875 
L 48 0 
L 40.1875 0 
L 45.21875 20.21875 
L 30.90625 20.21875 
L 25.875 0 
L 18.015625 0 
L 23.09375 20.21875 
L 7.71875 20.21875 
L 7.71875 27.6875 
L 24.90625 27.6875 
L 29 44 
L 13.28125 44 
L 13.28125 51.515625 
L 30.90625 51.515625 
L 35.890625 71.78125 
z
" id="DejaVuSans-23"/>
                        <path id="DejaVuSans-20"/>
                        <path d="M 30.609375 48.390625
Q 23.390625 48.390625 19.1875 42.75 
Q 14.984375 37.109375 14.984375 27.296875 
Q 14.984375 17.484375 19.15625 11.84375 
Q 23.34375 6.203125 30.609375 6.203125 
Q 37.796875 6.203125 41.984375 11.859375 
Q 46.1875 17.53125 46.1875 27.296875 
Q 46.1875 37.015625 41.984375 42.703125 
Q 37.796875 48.390625 30.609375 48.390625 
z
M 30.609375 56 
Q 42.328125 56 49.015625 48.375 
Q 55.71875 40.765625 55.71875 27.296875 
Q 55.71875 13.875 49.015625 6.21875 
Q 42.328125 -1.421875 30.609375 -1.421875 
Q 18.84375 -1.421875 12.171875 6.21875 
Q 5.515625 13.875 5.515625 27.296875 
Q 5.515625 40.765625 12.171875 48.375 
Q 18.84375 56 30.609375 56 
z
" id="DejaVuSans-6f"/>
                        <path d="M 37.109375 75.984375
L 37.109375 68.5 
L 28.515625 68.5 
Q 23.6875 68.5 21.796875 66.546875 
Q 19.921875 64.59375 19.921875 59.515625 
L 19.921875 54.6875 
L 34.71875 54.6875 
L 34.71875 47.703125 
L 19.921875 47.703125 
L 19.921875 0 
L 10.890625 0 
L 10.890625 47.703125 
L 2.296875 47.703125 
L 2.296875 54.6875 
L 10.890625 54.6875 
L 10.890625 58.5 
Q 10.890625 67.625 15.140625 71.796875 
Q 19.390625 75.984375 28.609375 75.984375 
z
" id="DejaVuSans-66"/>
                        <path d="M 9.421875 54.6875
L 18.40625 54.6875 
L 18.40625 0 
L 9.421875 0 
z
M 9.421875 75.984375 
L 18.40625 75.984375 
L 18.40625 64.59375 
L 9.421875 64.59375 
z
" id="DejaVuSans-69"/>
                        <path d="M 54.890625 33.015625
L 54.890625 0 
L 45.90625 0 
L 45.90625 32.71875 
Q 45.90625 40.484375 42.875 44.328125 
Q 39.84375 48.1875 33.796875 48.1875 
Q 26.515625 48.1875 22.3125 43.546875 
Q 18.109375 38.921875 18.109375 30.90625 
L 18.109375 0 
L 9.078125 0 
L 9.078125 54.6875 
L 18.109375 54.6875 
L 18.109375 46.1875 
Q 21.34375 51.125 25.703125 53.5625 
Q 30.078125 56 35.796875 56 
Q 45.21875 56 50.046875 50.171875 
Q 54.890625 44.34375 54.890625 33.015625 
z
" id="DejaVuSans-6e"/>
                        <path d="M 18.109375 8.203125
L 18.109375 -20.796875 
L 9.078125 -20.796875 
L 9.078125 54.6875 
L 18.109375 54.6875 
L 18.109375 46.390625 
Q 20.953125 51.265625 25.265625 53.625 
Q 29.59375 56 35.59375 56 
Q 45.5625 56 51.78125 48.09375 
Q 58.015625 40.1875 58.015625 27.296875 
Q 58.015625 14.40625 51.78125 6.484375 
Q 45.5625 -1.421875 35.59375 -1.421875 
Q 29.59375 -1.421875 25.265625 0.953125 
Q 20.953125 3.328125 18.109375 8.203125 
z
M 48.6875 27.296875 
Q 48.6875 37.203125 44.609375 42.84375 
Q 40.53125 48.484375 33.40625 48.484375 
Q 26.265625 48.484375 22.1875 42.84375 
Q 18.109375 37.203125 18.109375 27.296875 
Q 18.109375 17.390625 22.1875 11.75 
Q 26.265625 6.109375 33.40625 6.109375 
Q 40.53125 6.109375 44.609375 11.75 
Q 48.6875 17.390625 48.6875 27.296875 
z
" id="DejaVuSans-70"/>
                        <path d="M 8.5 21.578125
L 8.5 54.6875 
L 17.484375 54.6875 
L 17.484375 21.921875 
Q 17.484375 14.15625 20.5 10.265625 
Q 23.53125 6.390625 29.59375 6.390625 
Q 36.859375 6.390625 41.078125 11.03125 
Q 45.3125 15.671875 45.3125 23.6875 
L 45.3125 54.6875 
L 54.296875 54.6875 
L 54.296875 0 
L 45.3125 0 
L 45.3125 8.40625 
Q 42.046875 3.421875 37.71875 1 
Q 33.40625 -1.421875 27.6875 -1.421875 
Q 18.265625 -1.421875 13.375 4.4375 
Q 8.5 10.296875 8.5 21.578125 
z
M 31.109375 56 
z
" id="DejaVuSans-75"/>
                        <path d="M 18.3125 70.21875
L 18.3125 54.6875 
L 36.8125 54.6875 
L 36.8125 47.703125 
L 18.3125 47.703125 
L 18.3125 18.015625 
Q 18.3125 11.328125 20.140625 9.421875 
Q 21.96875 7.515625 27.59375 7.515625 
L 36.8125 7.515625 
L 36.8125 0 
L 27.59375 0 
Q 17.1875 0 13.234375 3.875 
Q 9.28125 7.765625 9.28125 18.015625 
L 9.28125 47.703125 
L 2.6875 47.703125 
L 2.6875 54.6875 
L 9.28125 54.6875 
L 9.28125 70.21875 
z
" id="DejaVuSans-74"/>
                        <path d="M 44.28125 53.078125
L 44.28125 44.578125 
Q 40.484375 46.53125 36.375 47.5 
Q 32.28125 48.484375 27.875 48.484375 
Q 21.1875 48.484375 17.84375 46.4375 
Q 14.5 44.390625 14.5 40.28125 
Q 14.5 37.15625 16.890625 35.375 
Q 19.28125 33.59375 26.515625 31.984375 
L 29.59375 31.296875 
Q 39.15625 29.25 43.1875 25.515625 
Q 47.21875 21.78125 47.21875 15.09375 
Q 47.21875 7.46875 41.1875 3.015625 
Q 35.15625 -1.421875 24.609375 -1.421875 
Q 20.21875 -1.421875 15.453125 -0.5625 
Q 10.6875 0.296875 5.421875 2 
L 5.421875 11.28125 
Q 10.40625 8.6875 15.234375 7.390625 
Q 20.0625 6.109375 24.8125 6.109375 
Q 31.15625 6.109375 34.5625 8.28125 
Q 37.984375 10.453125 37.984375 14.40625 
Q 37.984375 18.0625 35.515625 20.015625 
Q 33.0625 21.96875 24.703125 23.78125 
L 21.578125 24.515625 
Q 13.234375 26.265625 9.515625 29.90625 
Q 5.8125 33.546875 5.8125 39.890625 
Q 5.8125 47.609375 11.28125 51.796875 
Q 16.75 56 26.8125 56 
Q 31.78125 56 36.171875 55.265625 
Q 40.578125 54.546875 44.28125 53.078125 
z
" id="DejaVuSans-73"/>
                    </defs>
                    <g transform="translate(126.04615 235.615056)scale(0.1 -0.1)">
                        <use xlink:href="#DejaVuSans-23"/>
                        <use x="83.789062" xlink:href="#DejaVuSans-20"/>
                        <use x="115.576172" xlink:href="#DejaVuSans-6f"/>
                        <use x="176.757812" xlink:href="#DejaVuSans-66"/>
                        <use x="211.962891" xlink:href="#DejaVuSans-20"/>
                        <use x="243.75" xlink:href="#DejaVuSans-69"/>
                        <use x="271.533203" xlink:href="#DejaVuSans-6e"/>
                        <use x="334.912109" xlink:href="#DejaVuSans-70"/>
                        <use x="398.388672" xlink:href="#DejaVuSans-75"/>
                        <use x="461.767578" xlink:href="#DejaVuSans-74"/>
                        <use x="500.976562" xlink:href="#DejaVuSans-73"/>
                    </g>
                </g>
            </g>
            <g id="matplotlib.axis_2">
                <g id="ytick_1">
                    <g id="line2d_8">
                        <defs>
                            <path d="M 0 0
L -3.5 0 
" id="ma63de1e922" style="stroke:#000000;stroke-width:0.8;"/>
                        </defs>
                        <g>
                            <use style="stroke:#000000;stroke-width:0.8;" x="36.709275" xlink:href="#ma63de1e922"
                                 y="210.3"/>
                        </g>
                    </g>
                    <g id="text_8">
                        <!-- 0 -->
                        <g transform="translate(25.2937 212.936658)scale(0.0694 -0.0694)">
                            <use xlink:href="#DejaVuSans-30"/>
                        </g>
                    </g>
                </g>
                <g id="ytick_2">
                    <g id="line2d_9">
                        <g>
                            <use style="stroke:#000000;stroke-width:0.8;" x="36.709275" xlink:href="#ma63de1e922"
                                 y="179.592308"/>
                        </g>
                    </g>
                    <g id="text_9">
                        <!-- 2 -->
                        <g transform="translate(25.2937 182.228966)scale(0.0694 -0.0694)">
                            <use xlink:href="#DejaVuSans-32"/>
                        </g>
                    </g>
                </g>
                <g id="ytick_3">
                    <g id="line2d_10">
                        <g>
                            <use style="stroke:#000000;stroke-width:0.8;" x="36.709275" xlink:href="#ma63de1e922"
                                 y="148.884615"/>
                        </g>
                    </g>
                    <g id="text_10">
                        <!-- 4 -->
                        <g transform="translate(25.2937 151.521273)scale(0.0694 -0.0694)">
                            <use xlink:href="#DejaVuSans-34"/>
                        </g>
                    </g>
                </g>
                <g id="ytick_4">
                    <g id="line2d_11">
                        <g>
                            <use style="stroke:#000000;stroke-width:0.8;" x="36.709275" xlink:href="#ma63de1e922"
                                 y="118.176923"/>
                        </g>
                    </g>
                    <g id="text_11">
                        <!-- 6 -->
                        <g transform="translate(25.2937 120.813581)scale(0.0694 -0.0694)">
                            <use xlink:href="#DejaVuSans-36"/>
                        </g>
                    </g>
                </g>
                <g id="ytick_5">
                    <g id="line2d_12">
                        <g>
                            <use style="stroke:#000000;stroke-width:0.8;" x="36.709275" xlink:href="#ma63de1e922"
                                 y="87.469231"/>
                        </g>
                    </g>
                    <g id="text_12">
                        <!-- 8 -->
                        <g transform="translate(25.2937 90.105889)scale(0.0694 -0.0694)">
                            <use xlink:href="#DejaVuSans-38"/>
                        </g>
                    </g>
                </g>
                <g id="ytick_6">
                    <g id="line2d_13">
                        <g>
                            <use style="stroke:#000000;stroke-width:0.8;" x="36.709275" xlink:href="#ma63de1e922"
                                 y="56.761538"/>
                        </g>
                    </g>
                    <g id="text_13">
                        <!-- 10 -->
                        <g transform="translate(20.878125 59.398196)scale(0.0694 -0.0694)">
                            <use xlink:href="#DejaVuSans-31"/>
                            <use x="63.623047" xlink:href="#DejaVuSans-30"/>
                        </g>
                    </g>
                </g>
                <g id="ytick_7">
                    <g id="line2d_14">
                        <g>
                            <use style="stroke:#000000;stroke-width:0.8;" x="36.709275" xlink:href="#ma63de1e922"
                                 y="26.053846"/>
                        </g>
                    </g>
                    <g id="text_14">
                        <!-- 12 -->
                        <g transform="translate(20.878125 28.690504)scale(0.0694 -0.0694)">
                            <use xlink:href="#DejaVuSans-31"/>
                            <use x="63.623047" xlink:href="#DejaVuSans-32"/>
                        </g>
                    </g>
                </g>
                <g id="text_15">
                    <!-- dV/dt (V/s) -->
                    <defs>
                        <path d="M 45.40625 46.390625
L 45.40625 75.984375 
L 54.390625 75.984375 
L 54.390625 0 
L 45.40625 0 
L 45.40625 8.203125 
Q 42.578125 3.328125 38.25 0.953125 
Q 33.9375 -1.421875 27.875 -1.421875 
Q 17.96875 -1.421875 11.734375 6.484375 
Q 5.515625 14.40625 5.515625 27.296875 
Q 5.515625 40.1875 11.734375 48.09375 
Q 17.96875 56 27.875 56 
Q 33.9375 56 38.25 53.625 
Q 42.578125 51.265625 45.40625 46.390625 
z
M 14.796875 27.296875 
Q 14.796875 17.390625 18.875 11.75 
Q 22.953125 6.109375 30.078125 6.109375 
Q 37.203125 6.109375 41.296875 11.75 
Q 45.40625 17.390625 45.40625 27.296875 
Q 45.40625 37.203125 41.296875 42.84375 
Q 37.203125 48.484375 30.078125 48.484375 
Q 22.953125 48.484375 18.875 42.84375 
Q 14.796875 37.203125 14.796875 27.296875 
z
" id="DejaVuSans-64"/>
                        <path d="M 28.609375 0
L 0.78125 72.90625 
L 11.078125 72.90625 
L 34.1875 11.53125 
L 57.328125 72.90625 
L 67.578125 72.90625 
L 39.796875 0 
z
" id="DejaVuSans-56"/>
                        <path d="M 25.390625 72.90625
L 33.6875 72.90625 
L 8.296875 -9.28125 
L 0 -9.28125 
z
" id="DejaVuSans-2f"/>
                        <path d="M 31 75.875
Q 24.46875 64.65625 21.28125 53.65625 
Q 18.109375 42.671875 18.109375 31.390625 
Q 18.109375 20.125 21.3125 9.0625 
Q 24.515625 -2 31 -13.1875 
L 23.1875 -13.1875 
Q 15.875 -1.703125 12.234375 9.375 
Q 8.59375 20.453125 8.59375 31.390625 
Q 8.59375 42.28125 12.203125 53.3125 
Q 15.828125 64.359375 23.1875 75.875 
z
" id="DejaVuSans-28"/>
                        <path d="M 8.015625 75.875
L 15.828125 75.875 
Q 23.140625 64.359375 26.78125 53.3125 
Q 30.421875 42.28125 30.421875 31.390625 
Q 30.421875 20.453125 26.78125 9.375 
Q 23.140625 -1.703125 15.828125 -13.1875 
L 8.015625 -13.1875 
Q 14.5 -2 17.703125 9.0625 
Q 20.90625 20.125 20.90625 31.390625 
Q 20.90625 42.671875 17.703125 53.65625 
Q 14.5 64.65625 8.015625 75.875 
z
" id="DejaVuSans-29"/>
                    </defs>
                    <g transform="translate(14.798438 137.113281)rotate(-90)scale(0.1 -0.1)">
                        <use xlink:href="#DejaVuSans-64"/>
                        <use x="63.476562" xlink:href="#DejaVuSans-56"/>
                        <use x="131.884766" xlink:href="#DejaVuSans-2f"/>
                        <use x="165.576172" xlink:href="#DejaVuSans-64"/>
                        <use x="229.052734" xlink:href="#DejaVuSans-74"/>
                        <use x="268.261719" xlink:href="#DejaVuSans-20"/>
                        <use x="300.048828" xlink:href="#DejaVuSans-28"/>
                        <use x="339.0625" xlink:href="#DejaVuSans-56"/>
                        <use x="407.470703" xlink:href="#DejaVuSans-2f"/>
                        <use x="441.162109" xlink:href="#DejaVuSans-73"/>
                        <use x="493.261719" xlink:href="#DejaVuSans-29"/>
                    </g>
                </g>
            </g>
            <g id="line2d_15">
                <path clip-path="url(#p20a2f24d62)" d="M 47.34473 208.888033
L 68.615639 195.623631 
L 89.886548 183.741956 
L 111.157457 174.093784 
L 132.428366 166.272338 
L 153.699275 82.833655 
L 174.970184 83.04014 
L 196.241093 81.311821 
L 217.512002 79.326588 
L 238.782911 77.730115 
L 260.05382 76.208494 
" style="fill:none;stroke:#9932cc;stroke-linecap:square;stroke-width:1.5;"/>
                <defs>
                    <path d="M 0 3
C 0.795609 3 1.55874 2.683901 2.12132 2.12132 
C 2.683901 1.55874 3 0.795609 3 0 
C 3 -0.795609 2.683901 -1.55874 2.12132 -2.12132 
C 1.55874 -2.683901 0.795609 -3 0 -3 
C -0.795609 -3 -1.55874 -2.683901 -2.12132 -2.12132 
C -2.683901 -1.55874 -3 -0.795609 -3 0 
C -3 0.795609 -2.683901 1.55874 -2.12132 2.12132 
C -1.55874 2.683901 -0.795609 3 0 3 
z
" id="mc377281ef6" style="stroke:#9932cc;"/>
                </defs>
                <g clip-path="url(#p20a2f24d62)">
                    <use style="fill:#9932cc;stroke:#9932cc;" x="47.34473" xlink:href="#mc377281ef6" y="208.888033"/>
                    <use style="fill:#9932cc;stroke:#9932cc;" x="68.615639" xlink:href="#mc377281ef6" y="195.623631"/>
                    <use style="fill:#9932cc;stroke:#9932cc;" x="89.886548" xlink:href="#mc377281ef6" y="183.741956"/>
                    <use style="fill:#9932cc;stroke:#9932cc;" x="111.157457" xlink:href="#mc377281ef6" y="174.093784"/>
                    <use style="fill:#9932cc;stroke:#9932cc;" x="132.428366" xlink:href="#mc377281ef6" y="166.272338"/>
                    <use style="fill:#9932cc;stroke:#9932cc;" x="153.699275" xlink:href="#mc377281ef6" y="82.833655"/>
                    <use style="fill:#9932cc;stroke:#9932cc;" x="174.970184" xlink:href="#mc377281ef6" y="83.04014"/>
                    <use style="fill:#9932cc;stroke:#9932cc;" x="196.241093" xlink:href="#mc377281ef6" y="81.311821"/>
                    <use style="fill:#9932cc;stroke:#9932cc;" x="217.512002" xlink:href="#mc377281ef6" y="79.326588"/>
                    <use style="fill:#9932cc;stroke:#9932cc;" x="238.782911" xlink:href="#mc377281ef6" y="77.730115"/>
                    <use style="fill:#9932cc;stroke:#9932cc;" x="260.05382" xlink:href="#mc377281ef6" y="76.208494"/>
                </g>
            </g>
            <g id="patch_3">
                <path d="M 163.681749 99.81892
Q 163.144433 99.105024 162.607118 98.391128 
L 159.411191 100.79655 
Q 158.200734 94.199565 156.990278 87.602581 
Q 162.994624 90.591432 168.99897 93.580284 
L 165.803044 95.985706 
Q 166.34036 96.699602 166.877675 97.413498 
L 163.681749 99.81892 
z
" style="fill:#9932cc;stroke:#000000;stroke-linecap:round;"/>
            </g>
            <g id="text_16">
                <!-- #5 -->
                <defs>
                    <path d="M 10.796875 72.90625
L 49.515625 72.90625 
L 49.515625 64.59375 
L 19.828125 64.59375 
L 19.828125 46.734375 
Q 21.96875 47.46875 24.109375 47.828125 
Q 26.265625 48.1875 28.421875 48.1875 
Q 40.625 48.1875 47.75 41.5 
Q 54.890625 34.8125 54.890625 23.390625 
Q 54.890625 11.625 47.5625 5.09375 
Q 40.234375 -1.421875 26.90625 -1.421875 
Q 22.3125 -1.421875 17.546875 -0.640625 
Q 12.796875 0.140625 7.71875 1.703125 
L 7.71875 11.625 
Q 12.109375 9.234375 16.796875 8.0625 
Q 21.484375 6.890625 26.703125 6.890625 
Q 35.15625 6.890625 40.078125 11.328125 
Q 45.015625 15.765625 45.015625 23.390625 
Q 45.015625 31 40.078125 35.4375 
Q 35.15625 39.890625 26.703125 39.890625 
Q 22.75 39.890625 18.8125 39.015625 
Q 14.890625 38.140625 10.796875 36.28125 
z
" id="DejaVuSans-35"/>
                </defs>
                <g transform="translate(166.887239 108.350462)scale(0.1 -0.1)">
                    <use xlink:href="#DejaVuSans-23"/>
                    <use x="83.789062" xlink:href="#DejaVuSans-35"/>
                </g>
            </g>
            <g id="patch_4">
                <path d="M 36.709275 210.3
L 36.709275 10.7 
" style="fill:none;stroke:#000000;stroke-linecap:square;stroke-linejoin:miter;stroke-width:0.8;"/>
            </g>
            <g id="patch_5">
                <path d="M 270.689275 210.3
L 270.689275 10.7 
" style="fill:none;stroke:#000000;stroke-linecap:square;stroke-linejoin:miter;stroke-width:0.8;"/>
            </g>
            <g id="patch_6">
                <path d="M 36.709275 210.3
L 270.689275 210.3 
" style="fill:none;stroke:#000000;stroke-linecap:square;stroke-linejoin:miter;stroke-width:0.8;"/>
            </g>
            <g id="patch_7">
                <path d="M 36.709275 10.7
L 270.689275 10.7 
" style="fill:none;stroke:#000000;stroke-linecap:square;stroke-linejoin:miter;stroke-width:0.8;"/>
            </g>
            <g id="line2d_16">
                <path clip-path="url(#p20a2f24d62)" d="M 47.34473 209.552093
L 68.615639 208.213763 
L 89.886548 206.456541 
L 111.157457 204.947357 
L 132.428366 203.61666 
L 153.699275 171.431698 
L 174.970184 171.236082 
L 196.241093 171.072237 
L 217.512002 170.945754 
L 238.782911 170.854658 
L 260.05382 170.799759 
" style="fill:none;stroke:#000080;stroke-linecap:square;stroke-width:1.5;"/>
                <defs>
                    <path d="M 0 3
C 0.795609 3 1.55874 2.683901 2.12132 2.12132 
C 2.683901 1.55874 3 0.795609 3 0 
C 3 -0.795609 2.683901 -1.55874 2.12132 -2.12132 
C 1.55874 -2.683901 0.795609 -3 0 -3 
C -0.795609 -3 -1.55874 -2.683901 -2.12132 -2.12132 
C -2.683901 -1.55874 -3 -0.795609 -3 0 
C -3 0.795609 -2.683901 1.55874 -2.12132 2.12132 
C -1.55874 2.683901 -0.795609 3 0 3 
z
" id="mdc2ddfb0bd" style="stroke:#000080;"/>
                </defs>
                <g clip-path="url(#p20a2f24d62)">
                    <use style="fill:#000080;stroke:#000080;" x="47.34473" xlink:href="#mdc2ddfb0bd" y="209.552093"/>
                    <use style="fill:#000080;stroke:#000080;" x="68.615639" xlink:href="#mdc2ddfb0bd" y="208.213763"/>
                    <use style="fill:#000080;stroke:#000080;" x="89.886548" xlink:href="#mdc2ddfb0bd" y="206.456541"/>
                    <use style="fill:#000080;stroke:#000080;" x="111.157457" xlink:href="#mdc2ddfb0bd" y="204.947357"/>
                    <use style="fill:#000080;stroke:#000080;" x="132.428366" xlink:href="#mdc2ddfb0bd" y="203.61666"/>
                    <use style="fill:#000080;stroke:#000080;" x="153.699275" xlink:href="#mdc2ddfb0bd" y="171.431698"/>
                    <use style="fill:#000080;stroke:#000080;" x="174.970184" xlink:href="#mdc2ddfb0bd" y="171.236082"/>
                    <use style="fill:#000080;stroke:#000080;" x="196.241093" xlink:href="#mdc2ddfb0bd" y="171.072237"/>
                    <use style="fill:#000080;stroke:#000080;" x="217.512002" xlink:href="#mdc2ddfb0bd" y="170.945754"/>
                    <use style="fill:#000080;stroke:#000080;" x="238.782911" xlink:href="#mdc2ddfb0bd" y="170.854658"/>
                    <use style="fill:#000080;stroke:#000080;" x="260.05382" xlink:href="#mdc2ddfb0bd" y="170.799759"/>
                </g>
            </g>
            <g id="patch_8">
                <path d="M 163.681749 188.871228
Q 163.144433 188.157332 162.607118 187.443435 
L 159.411191 189.848857 
Q 158.200734 183.251873 156.990278 176.654889 
Q 162.994624 179.64374 168.99897 182.632592 
L 165.803044 185.038014 
Q 166.34036 185.75191 166.877675 186.465806 
L 163.681749 188.871228 
z
" style="fill:#000080;stroke:#000000;stroke-linecap:round;"/>
            </g>
            <g id="text_17">
                <!-- #5 -->
                <g transform="translate(166.887239 197.402769)scale(0.1 -0.1)">
                    <use xlink:href="#DejaVuSans-23"/>
                    <use x="83.789062" xlink:href="#DejaVuSans-35"/>
                </g>
            </g>
            <g id="line2d_17">
                <path clip-path="url(#p20a2f24d62)" d="M 47.34473 210.3
L 68.615639 206.922154 
L 89.886548 198.938154 
L 111.157457 195.560308 
L 132.428366 192.489538 
L 153.699275 128.464 
L 174.970184 125.853846 
L 196.241093 125.239692 
" style="fill:none;stroke:#dc143c;stroke-linecap:square;stroke-width:1.5;"/>
                <defs>
                    <path d="M 0 3
C 0.795609 3 1.55874 2.683901 2.12132 2.12132 
C 2.683901 1.55874 3 0.795609 3 0 
C 3 -0.795609 2.683901 -1.55874 2.12132 -2.12132 
C 1.55874 -2.683901 0.795609 -3 0 -3 
C -0.795609 -3 -1.55874 -2.683901 -2.12132 -2.12132 
C -2.683901 -1.55874 -3 -0.795609 -3 0 
C -3 0.795609 -2.683901 1.55874 -2.12132 2.12132 
C -1.55874 2.683901 -0.795609 3 0 3 
z
" id="mbae864e4a4" style="stroke:#dc143c;"/>
                </defs>
                <g clip-path="url(#p20a2f24d62)">
                    <use style="fill:#dc143c;stroke:#dc143c;" x="47.34473" xlink:href="#mbae864e4a4" y="210.3"/>
                    <use style="fill:#dc143c;stroke:#dc143c;" x="68.615639" xlink:href="#mbae864e4a4" y="206.922154"/>
                    <use style="fill:#dc143c;stroke:#dc143c;" x="89.886548" xlink:href="#mbae864e4a4" y="198.938154"/>
                    <use style="fill:#dc143c;stroke:#dc143c;" x="111.157457" xlink:href="#mbae864e4a4" y="195.560308"/>
                    <use style="fill:#dc143c;stroke:#dc143c;" x="132.428366" xlink:href="#mbae864e4a4" y="192.489538"/>
                    <use style="fill:#dc143c;stroke:#dc143c;" x="153.699275" xlink:href="#mbae864e4a4" y="128.464"/>
                    <use style="fill:#dc143c;stroke:#dc143c;" x="174.970184" xlink:href="#mbae864e4a4" y="125.853846"/>
                    <use style="fill:#dc143c;stroke:#dc143c;" x="196.241093" xlink:href="#mbae864e4a4" y="125.239692"/>
                </g>
            </g>
            <g id="patch_9">
                <path d="M 163.681749 144.805689
Q 163.144433 144.091793 162.607118 143.377897 
L 159.411191 145.783319 
Q 158.200734 139.186334 156.990278 132.58935 
Q 162.994624 135.578202 168.99897 138.567053 
L 165.803044 140.972475 
Q 166.34036 141.686371 166.877675 142.400267 
L 163.681749 144.805689 
z
" style="fill:#dc143c;stroke:#000000;stroke-linecap:round;"/>
            </g>
            <g id="text_18">
                <!-- #5 -->
                <g transform="translate(166.887239 153.337231)scale(0.1 -0.1)">
                    <use xlink:href="#DejaVuSans-23"/>
                    <use x="83.789062" xlink:href="#DejaVuSans-35"/>
                </g>
            </g>
        </g>
    </g>
    <defs>
        <clipPath id="p20a2f24d62">
            <rect height="199.6" width="233.98" x="36.709275" y="10.7"/>
        </clipPath>
    </defs>
</svg>
