<?xml version="1.0" encoding="utf-8" standalone="no"?>
<!DOCTYPE svg PUBLIC "-//W3C//DTD SVG 1.1//EN"
        "http://www.w3.org/Graphics/SVG/1.1/DTD/svg11.dtd">
<!-- Created with matplotlib (https://matplotlib.org/) -->
<svg xmlns:xlink="http://www.w3.org/1999/xlink" height="164.053367pt" version="1.1" viewBox="0 0 587.814778 164.053367"
     width="587.814778pt" xmlns="http://www.w3.org/2000/svg">
    <metadata>
        <rdf:RDF xmlns:cc="http://creativecommons.org/ns#" xmlns:dc="http://purl.org/dc/elements/1.1/"
                 xmlns:rdf="http://www.w3.org/1999/02/22-rdf-syntax-ns#">
            <cc:Work>
                <dc:type rdf:resource="http://purl.org/dc/dcmitype/StillImage"/>
                <dc:date>2021-01-05T11:37:07.214615</dc:date>
                <dc:format>image/svg+xml</dc:format>
                <dc:creator>
                    <cc:Agent>
                        <dc:title>Matplotlib v3.3.3, https://matplotlib.org/</dc:title>
                    </cc:Agent>
                </dc:creator>
            </cc:Work>
        </rdf:RDF>
    </metadata>
    <defs>
        <style type="text/css">*{stroke-linecap:butt;stroke-linejoin:round;}</style>
    </defs>
    <g id="figure_1">
        <g id="patch_1">
            <path d="M 0 164.053367
L 587.814778 164.053367 
L 587.814778 0 
L 0 0 
z
" style="fill:#ffffff;"/>
        </g>
        <g id="axes_1">
            <g id="patch_2">
                <path d="M 42.524778 121.660808
L 193.247278 121.660808 
L 193.247278 18.70638 
L 42.524778 18.70638 
z
" style="fill:#ffffff;"/>
            </g>
            <g id="PolyCollection_1">
                <defs>
                    <path d="M 42.524778 -42.607048
L 42.524778 -71.777469 
L 193.247278 -71.777469 
L 193.247278 -42.607048 
L 193.247278 -42.607048 
L 42.524778 -42.607048 
z
" id="m787f47f85c" style="stroke:#dc143c;stroke-opacity:0.2;"/>
                </defs>
                <g clip-path="url(#pa147761343)">
                    <use style="fill:#dc143c;fill-opacity:0.2;stroke:#dc143c;stroke-opacity:0.2;" x="0"
                         xlink:href="#m787f47f85c" y="164.053367"/>
                </g>
            </g>
            <g id="line2d_1">
                <path clip-path="url(#pa147761343)" d="M 42.524778 92.275898
L 193.247278 92.275898 
" style="fill:none;stroke:#dc143c;stroke-dasharray:1.5,2.475;stroke-dashoffset:0;stroke-width:1.5;"/>
            </g>
            <g id="line2d_2">
                <path clip-path="url(#pa147761343)" d="M 42.524778 121.446319
L 193.247278 121.446319 
" style="fill:none;stroke:#dc143c;stroke-dasharray:1.5,2.475;stroke-dashoffset:0;stroke-width:1.5;"/>
            </g>
            <g id="matplotlib.axis_1">
                <g id="xtick_1">
                    <g id="line2d_3">
                        <defs>
                            <path d="M 0 0
L 0 3.5 
" id="m1de68d883b" style="stroke:#000000;stroke-width:0.8;"/>
                        </defs>
                        <g>
                            <use style="stroke:#000000;stroke-width:0.8;" x="55.084986" xlink:href="#m1de68d883b"
                                 y="121.660808"/>
                        </g>
                    </g>
                    <g id="text_1">
                        <!-- To21 -->
                        <g transform="translate(47.016694 133.934123)scale(0.0694 -0.0694)">
                            <defs>
                                <path d="M -0.296875 72.90625
L 61.375 72.90625 
L 61.375 64.59375 
L 35.5 64.59375 
L 35.5 0 
L 25.59375 0 
L 25.59375 64.59375 
L -0.296875 64.59375 
z
" id="DejaVuSans-84"/>
                                <path d="M 30.609375 48.390625
Q 23.390625 48.390625 19.1875 42.75 
Q 14.984375 37.109375 14.984375 27.296875 
Q 14.984375 17.484375 19.15625 11.84375 
Q 23.34375 6.203125 30.609375 6.203125 
Q 37.796875 6.203125 41.984375 11.859375 
Q 46.1875 17.53125 46.1875 27.296875 
Q 46.1875 37.015625 41.984375 42.703125 
Q 37.796875 48.390625 30.609375 48.390625 
z
M 30.609375 56 
Q 42.328125 56 49.015625 48.375 
Q 55.71875 40.765625 55.71875 27.296875 
Q 55.71875 13.875 49.015625 6.21875 
Q 42.328125 -1.421875 30.609375 -1.421875 
Q 18.84375 -1.421875 12.171875 6.21875 
Q 5.515625 13.875 5.515625 27.296875 
Q 5.515625 40.765625 12.171875 48.375 
Q 18.84375 56 30.609375 56 
z
" id="DejaVuSans-111"/>
                                <path d="M 19.1875 8.296875
L 53.609375 8.296875 
L 53.609375 0 
L 7.328125 0 
L 7.328125 8.296875 
Q 12.9375 14.109375 22.625 23.890625 
Q 32.328125 33.6875 34.8125 36.53125 
Q 39.546875 41.84375 41.421875 45.53125 
Q 43.3125 49.21875 43.3125 52.78125 
Q 43.3125 58.59375 39.234375 62.25 
Q 35.15625 65.921875 28.609375 65.921875 
Q 23.96875 65.921875 18.8125 64.3125 
Q 13.671875 62.703125 7.8125 59.421875 
L 7.8125 69.390625 
Q 13.765625 71.78125 18.9375 73 
Q 24.125 74.21875 28.421875 74.21875 
Q 39.75 74.21875 46.484375 68.546875 
Q 53.21875 62.890625 53.21875 53.421875 
Q 53.21875 48.921875 51.53125 44.890625 
Q 49.859375 40.875 45.40625 35.40625 
Q 44.1875 33.984375 37.640625 27.21875 
Q 31.109375 20.453125 19.1875 8.296875 
z
" id="DejaVuSans-50"/>
                                <path d="M 12.40625 8.296875
L 28.515625 8.296875 
L 28.515625 63.921875 
L 10.984375 60.40625 
L 10.984375 69.390625 
L 28.421875 72.90625 
L 38.28125 72.90625 
L 38.28125 8.296875 
L 54.390625 8.296875 
L 54.390625 0 
L 12.40625 0 
z
" id="DejaVuSans-49"/>
                            </defs>
                            <use xlink:href="#DejaVuSans-84"/>
                            <use x="44.083984" xlink:href="#DejaVuSans-111"/>
                            <use x="105.265625" xlink:href="#DejaVuSans-50"/>
                            <use x="168.888672" xlink:href="#DejaVuSans-49"/>
                        </g>
                    </g>
                </g>
                <g id="xtick_2">
                    <g id="line2d_4">
                        <g>
                            <use style="stroke:#000000;stroke-width:0.8;" x="117.886028" xlink:href="#m1de68d883b"
                                 y="121.660808"/>
                        </g>
                    </g>
                    <g id="text_2">
                        <!-- M18 -->
                        <g transform="translate(110.476494 133.934123)scale(0.0694 -0.0694)">
                            <defs>
                                <path d="M 9.8125 72.90625
L 24.515625 72.90625 
L 43.109375 23.296875 
L 61.8125 72.90625 
L 76.515625 72.90625 
L 76.515625 0 
L 66.890625 0 
L 66.890625 64.015625 
L 48.09375 14.015625 
L 38.1875 14.015625 
L 19.390625 64.015625 
L 19.390625 0 
L 9.8125 0 
z
" id="DejaVuSans-77"/>
                                <path d="M 31.78125 34.625
Q 24.75 34.625 20.71875 30.859375 
Q 16.703125 27.09375 16.703125 20.515625 
Q 16.703125 13.921875 20.71875 10.15625 
Q 24.75 6.390625 31.78125 6.390625 
Q 38.8125 6.390625 42.859375 10.171875 
Q 46.921875 13.96875 46.921875 20.515625 
Q 46.921875 27.09375 42.890625 30.859375 
Q 38.875 34.625 31.78125 34.625 
z
M 21.921875 38.8125 
Q 15.578125 40.375 12.03125 44.71875 
Q 8.5 49.078125 8.5 55.328125 
Q 8.5 64.0625 14.71875 69.140625 
Q 20.953125 74.21875 31.78125 74.21875 
Q 42.671875 74.21875 48.875 69.140625 
Q 55.078125 64.0625 55.078125 55.328125 
Q 55.078125 49.078125 51.53125 44.71875 
Q 48 40.375 41.703125 38.8125 
Q 48.828125 37.15625 52.796875 32.3125 
Q 56.78125 27.484375 56.78125 20.515625 
Q 56.78125 9.90625 50.3125 4.234375 
Q 43.84375 -1.421875 31.78125 -1.421875 
Q 19.734375 -1.421875 13.25 4.234375 
Q 6.78125 9.90625 6.78125 20.515625 
Q 6.78125 27.484375 10.78125 32.3125 
Q 14.796875 37.15625 21.921875 38.8125 
z
M 18.3125 54.390625 
Q 18.3125 48.734375 21.84375 45.5625 
Q 25.390625 42.390625 31.78125 42.390625 
Q 38.140625 42.390625 41.71875 45.5625 
Q 45.3125 48.734375 45.3125 54.390625 
Q 45.3125 60.0625 41.71875 63.234375 
Q 38.140625 66.40625 31.78125 66.40625 
Q 25.390625 66.40625 21.84375 63.234375 
Q 18.3125 60.0625 18.3125 54.390625 
z
" id="DejaVuSans-56"/>
                            </defs>
                            <use xlink:href="#DejaVuSans-77"/>
                            <use x="86.279297" xlink:href="#DejaVuSans-49"/>
                            <use x="149.902344" xlink:href="#DejaVuSans-56"/>
                        </g>
                    </g>
                </g>
                <g id="xtick_3">
                    <g id="line2d_5">
                        <g>
                            <use style="stroke:#000000;stroke-width:0.8;" x="180.68707" xlink:href="#m1de68d883b"
                                 y="121.660808"/>
                        </g>
                    </g>
                    <g id="text_3">
                        <!-- exp -->
                        <g transform="translate(174.355946 133.934123)scale(0.0694 -0.0694)">
                            <defs>
                                <path d="M 56.203125 29.59375
L 56.203125 25.203125 
L 14.890625 25.203125 
Q 15.484375 15.921875 20.484375 11.0625 
Q 25.484375 6.203125 34.421875 6.203125 
Q 39.59375 6.203125 44.453125 7.46875 
Q 49.3125 8.734375 54.109375 11.28125 
L 54.109375 2.78125 
Q 49.265625 0.734375 44.1875 -0.34375 
Q 39.109375 -1.421875 33.890625 -1.421875 
Q 20.796875 -1.421875 13.15625 6.1875 
Q 5.515625 13.8125 5.515625 26.8125 
Q 5.515625 40.234375 12.765625 48.109375 
Q 20.015625 56 32.328125 56 
Q 43.359375 56 49.78125 48.890625 
Q 56.203125 41.796875 56.203125 29.59375 
z
M 47.21875 32.234375 
Q 47.125 39.59375 43.09375 43.984375 
Q 39.0625 48.390625 32.421875 48.390625 
Q 24.90625 48.390625 20.390625 44.140625 
Q 15.875 39.890625 15.1875 32.171875 
z
" id="DejaVuSans-101"/>
                                <path d="M 54.890625 54.6875
L 35.109375 28.078125 
L 55.90625 0 
L 45.3125 0 
L 29.390625 21.484375 
L 13.484375 0 
L 2.875 0 
L 24.125 28.609375 
L 4.6875 54.6875 
L 15.28125 54.6875 
L 29.78125 35.203125 
L 44.28125 54.6875 
z
" id="DejaVuSans-120"/>
                                <path d="M 18.109375 8.203125
L 18.109375 -20.796875 
L 9.078125 -20.796875 
L 9.078125 54.6875 
L 18.109375 54.6875 
L 18.109375 46.390625 
Q 20.953125 51.265625 25.265625 53.625 
Q 29.59375 56 35.59375 56 
Q 45.5625 56 51.78125 48.09375 
Q 58.015625 40.1875 58.015625 27.296875 
Q 58.015625 14.40625 51.78125 6.484375 
Q 45.5625 -1.421875 35.59375 -1.421875 
Q 29.59375 -1.421875 25.265625 0.953125 
Q 20.953125 3.328125 18.109375 8.203125 
z
M 48.6875 27.296875 
Q 48.6875 37.203125 44.609375 42.84375 
Q 40.53125 48.484375 33.40625 48.484375 
Q 26.265625 48.484375 22.1875 42.84375 
Q 18.109375 37.203125 18.109375 27.296875 
Q 18.109375 17.390625 22.1875 11.75 
Q 26.265625 6.109375 33.40625 6.109375 
Q 40.53125 6.109375 44.609375 11.75 
Q 48.6875 17.390625 48.6875 27.296875 
z
" id="DejaVuSans-112"/>
                            </defs>
                            <use xlink:href="#DejaVuSans-101"/>
                            <use x="59.773438" xlink:href="#DejaVuSans-120"/>
                            <use x="118.953125" xlink:href="#DejaVuSans-112"/>
                        </g>
                    </g>
                </g>
            </g>
            <g id="matplotlib.axis_2">
                <g id="ytick_1">
                    <g id="line2d_6">
                        <defs>
                            <path d="M 0 0
L -3.5 0 
" id="mc9e372efeb" style="stroke:#000000;stroke-width:0.8;"/>
                        </defs>
                        <g>
                            <use style="stroke:#000000;stroke-width:0.8;" x="42.524778" xlink:href="#mc9e372efeb"
                                 y="106.64662"/>
                        </g>
                    </g>
                    <g id="text_4">
                        <!-- −40 -->
                        <g transform="translate(20.878125 109.283278)scale(0.0694 -0.0694)">
                            <defs>
                                <path d="M 10.59375 35.5
L 73.1875 35.5 
L 73.1875 27.203125 
L 10.59375 27.203125 
z
" id="DejaVuSans-8722"/>
                                <path d="M 37.796875 64.3125
L 12.890625 25.390625 
L 37.796875 25.390625 
z
M 35.203125 72.90625 
L 47.609375 72.90625 
L 47.609375 25.390625 
L 58.015625 25.390625 
L 58.015625 17.1875 
L 47.609375 17.1875 
L 47.609375 0 
L 37.796875 0 
L 37.796875 17.1875 
L 4.890625 17.1875 
L 4.890625 26.703125 
z
" id="DejaVuSans-52"/>
                                <path d="M 31.78125 66.40625
Q 24.171875 66.40625 20.328125 58.90625 
Q 16.5 51.421875 16.5 36.375 
Q 16.5 21.390625 20.328125 13.890625 
Q 24.171875 6.390625 31.78125 6.390625 
Q 39.453125 6.390625 43.28125 13.890625 
Q 47.125 21.390625 47.125 36.375 
Q 47.125 51.421875 43.28125 58.90625 
Q 39.453125 66.40625 31.78125 66.40625 
z
M 31.78125 74.21875 
Q 44.046875 74.21875 50.515625 64.515625 
Q 56.984375 54.828125 56.984375 36.375 
Q 56.984375 17.96875 50.515625 8.265625 
Q 44.046875 -1.421875 31.78125 -1.421875 
Q 19.53125 -1.421875 13.0625 8.265625 
Q 6.59375 17.96875 6.59375 36.375 
Q 6.59375 54.828125 13.0625 64.515625 
Q 19.53125 74.21875 31.78125 74.21875 
z
" id="DejaVuSans-48"/>
                            </defs>
                            <use xlink:href="#DejaVuSans-8722"/>
                            <use x="83.789062" xlink:href="#DejaVuSans-52"/>
                            <use x="147.412109" xlink:href="#DejaVuSans-48"/>
                        </g>
                    </g>
                </g>
                <g id="ytick_2">
                    <g id="line2d_7">
                        <g>
                            <use style="stroke:#000000;stroke-width:0.8;" x="42.524778" xlink:href="#mc9e372efeb"
                                 y="85.197781"/>
                        </g>
                    </g>
                    <g id="text_5">
                        <!-- −30 -->
                        <g transform="translate(20.878125 87.834439)scale(0.0694 -0.0694)">
                            <defs>
                                <path d="M 40.578125 39.3125
Q 47.65625 37.796875 51.625 33 
Q 55.609375 28.21875 55.609375 21.1875 
Q 55.609375 10.40625 48.1875 4.484375 
Q 40.765625 -1.421875 27.09375 -1.421875 
Q 22.515625 -1.421875 17.65625 -0.515625 
Q 12.796875 0.390625 7.625 2.203125 
L 7.625 11.71875 
Q 11.71875 9.328125 16.59375 8.109375 
Q 21.484375 6.890625 26.8125 6.890625 
Q 36.078125 6.890625 40.9375 10.546875 
Q 45.796875 14.203125 45.796875 21.1875 
Q 45.796875 27.640625 41.28125 31.265625 
Q 36.765625 34.90625 28.71875 34.90625 
L 20.21875 34.90625 
L 20.21875 43.015625 
L 29.109375 43.015625 
Q 36.375 43.015625 40.234375 45.921875 
Q 44.09375 48.828125 44.09375 54.296875 
Q 44.09375 59.90625 40.109375 62.90625 
Q 36.140625 65.921875 28.71875 65.921875 
Q 24.65625 65.921875 20.015625 65.03125 
Q 15.375 64.15625 9.8125 62.3125 
L 9.8125 71.09375 
Q 15.4375 72.65625 20.34375 73.4375 
Q 25.25 74.21875 29.59375 74.21875 
Q 40.828125 74.21875 47.359375 69.109375 
Q 53.90625 64.015625 53.90625 55.328125 
Q 53.90625 49.265625 50.4375 45.09375 
Q 46.96875 40.921875 40.578125 39.3125 
z
" id="DejaVuSans-51"/>
                            </defs>
                            <use xlink:href="#DejaVuSans-8722"/>
                            <use x="83.789062" xlink:href="#DejaVuSans-51"/>
                            <use x="147.412109" xlink:href="#DejaVuSans-48"/>
                        </g>
                    </g>
                </g>
                <g id="ytick_3">
                    <g id="line2d_8">
                        <g>
                            <use style="stroke:#000000;stroke-width:0.8;" x="42.524778" xlink:href="#mc9e372efeb"
                                 y="63.748942"/>
                        </g>
                    </g>
                    <g id="text_6">
                        <!-- −20 -->
                        <g transform="translate(20.878125 66.3856)scale(0.0694 -0.0694)">
                            <use xlink:href="#DejaVuSans-8722"/>
                            <use x="83.789062" xlink:href="#DejaVuSans-50"/>
                            <use x="147.412109" xlink:href="#DejaVuSans-48"/>
                        </g>
                    </g>
                </g>
                <g id="ytick_4">
                    <g id="line2d_9">
                        <g>
                            <use style="stroke:#000000;stroke-width:0.8;" x="42.524778" xlink:href="#mc9e372efeb"
                                 y="42.300103"/>
                        </g>
                    </g>
                    <g id="text_7">
                        <!-- −10 -->
                        <g transform="translate(20.878125 44.936761)scale(0.0694 -0.0694)">
                            <use xlink:href="#DejaVuSans-8722"/>
                            <use x="83.789062" xlink:href="#DejaVuSans-49"/>
                            <use x="147.412109" xlink:href="#DejaVuSans-48"/>
                        </g>
                    </g>
                </g>
                <g id="ytick_5">
                    <g id="line2d_10">
                        <g>
                            <use style="stroke:#000000;stroke-width:0.8;" x="42.524778" xlink:href="#mc9e372efeb"
                                 y="20.851264"/>
                        </g>
                    </g>
                    <g id="text_8">
                        <!-- 0 -->
                        <g transform="translate(31.109203 23.487922)scale(0.0694 -0.0694)">
                            <use xlink:href="#DejaVuSans-48"/>
                        </g>
                    </g>
                </g>
                <g id="text_9">
                    <!-- Veq (mV) -->
                    <g transform="translate(14.798438 93.248437)rotate(-90)scale(0.1 -0.1)">
                        <defs>
                            <path d="M 28.609375 0
L 0.78125 72.90625 
L 11.078125 72.90625 
L 34.1875 11.53125 
L 57.328125 72.90625 
L 67.578125 72.90625 
L 39.796875 0 
z
" id="DejaVuSans-86"/>
                            <path d="M 14.796875 27.296875
Q 14.796875 17.390625 18.875 11.75 
Q 22.953125 6.109375 30.078125 6.109375 
Q 37.203125 6.109375 41.296875 11.75 
Q 45.40625 17.390625 45.40625 27.296875 
Q 45.40625 37.203125 41.296875 42.84375 
Q 37.203125 48.484375 30.078125 48.484375 
Q 22.953125 48.484375 18.875 42.84375 
Q 14.796875 37.203125 14.796875 27.296875 
z
M 45.40625 8.203125 
Q 42.578125 3.328125 38.25 0.953125 
Q 33.9375 -1.421875 27.875 -1.421875 
Q 17.96875 -1.421875 11.734375 6.484375 
Q 5.515625 14.40625 5.515625 27.296875 
Q 5.515625 40.1875 11.734375 48.09375 
Q 17.96875 56 27.875 56 
Q 33.9375 56 38.25 53.625 
Q 42.578125 51.265625 45.40625 46.390625 
L 45.40625 54.6875 
L 54.390625 54.6875 
L 54.390625 -20.796875 
L 45.40625 -20.796875 
z
" id="DejaVuSans-113"/>
                            <path id="DejaVuSans-32"/>
                            <path d="M 31 75.875
Q 24.46875 64.65625 21.28125 53.65625 
Q 18.109375 42.671875 18.109375 31.390625 
Q 18.109375 20.125 21.3125 9.0625 
Q 24.515625 -2 31 -13.1875 
L 23.1875 -13.1875 
Q 15.875 -1.703125 12.234375 9.375 
Q 8.59375 20.453125 8.59375 31.390625 
Q 8.59375 42.28125 12.203125 53.3125 
Q 15.828125 64.359375 23.1875 75.875 
z
" id="DejaVuSans-40"/>
                            <path d="M 52 44.1875
Q 55.375 50.25 60.0625 53.125 
Q 64.75 56 71.09375 56 
Q 79.640625 56 84.28125 50.015625 
Q 88.921875 44.046875 88.921875 33.015625 
L 88.921875 0 
L 79.890625 0 
L 79.890625 32.71875 
Q 79.890625 40.578125 77.09375 44.375 
Q 74.3125 48.1875 68.609375 48.1875 
Q 61.625 48.1875 57.5625 43.546875 
Q 53.515625 38.921875 53.515625 30.90625 
L 53.515625 0 
L 44.484375 0 
L 44.484375 32.71875 
Q 44.484375 40.625 41.703125 44.40625 
Q 38.921875 48.1875 33.109375 48.1875 
Q 26.21875 48.1875 22.15625 43.53125 
Q 18.109375 38.875 18.109375 30.90625 
L 18.109375 0 
L 9.078125 0 
L 9.078125 54.6875 
L 18.109375 54.6875 
L 18.109375 46.1875 
Q 21.1875 51.21875 25.484375 53.609375 
Q 29.78125 56 35.6875 56 
Q 41.65625 56 45.828125 52.96875 
Q 50 49.953125 52 44.1875 
z
" id="DejaVuSans-109"/>
                            <path d="M 8.015625 75.875
L 15.828125 75.875 
Q 23.140625 64.359375 26.78125 53.3125 
Q 30.421875 42.28125 30.421875 31.390625 
Q 30.421875 20.453125 26.78125 9.375 
Q 23.140625 -1.703125 15.828125 -13.1875 
L 8.015625 -13.1875 
Q 14.5 -2 17.703125 9.0625 
Q 20.90625 20.125 20.90625 31.390625 
Q 20.90625 42.671875 17.703125 53.65625 
Q 14.5 64.65625 8.015625 75.875 
z
" id="DejaVuSans-41"/>
                        </defs>
                        <use xlink:href="#DejaVuSans-86"/>
                        <use x="60.658203" xlink:href="#DejaVuSans-101"/>
                        <use x="122.181641" xlink:href="#DejaVuSans-113"/>
                        <use x="185.658203" xlink:href="#DejaVuSans-32"/>
                        <use x="217.445312" xlink:href="#DejaVuSans-40"/>
                        <use x="256.458984" xlink:href="#DejaVuSans-109"/>
                        <use x="353.871094" xlink:href="#DejaVuSans-86"/>
                        <use x="422.279297" xlink:href="#DejaVuSans-41"/>
                    </g>
                </g>
            </g>
            <g id="line2d_11">
                <defs>
                    <path d="M 0 3
C 0.795609 3 1.55874 2.683901 2.12132 2.12132 
C 2.683901 1.55874 3 0.795609 3 0 
C 3 -0.795609 2.683901 -1.55874 2.12132 -2.12132 
C 1.55874 -2.683901 0.795609 -3 0 -3 
C -0.795609 -3 -1.55874 -2.683901 -2.12132 -2.12132 
C -2.683901 -1.55874 -3 -0.795609 -3 0 
C -3 0.795609 -2.683901 1.55874 -2.12132 2.12132 
C -1.55874 2.683901 -0.795609 3 0 3 
z
" id="m665c081717" style="stroke:#9932cc;"/>
                </defs>
                <g clip-path="url(#pa147761343)">
                    <use style="fill:#9932cc;stroke:#9932cc;" x="55.084986" xlink:href="#m665c081717" y="97.432625"/>
                </g>
            </g>
            <g id="line2d_12">
                <defs>
                    <path d="M 0 3
C 0.795609 3 1.55874 2.683901 2.12132 2.12132 
C 2.683901 1.55874 3 0.795609 3 0 
C 3 -0.795609 2.683901 -1.55874 2.12132 -2.12132 
C 1.55874 -2.683901 0.795609 -3 0 -3 
C -0.795609 -3 -1.55874 -2.683901 -2.12132 -2.12132 
C -2.683901 -1.55874 -3 -0.795609 -3 0 
C -3 0.795609 -2.683901 1.55874 -2.12132 2.12132 
C -1.55874 2.683901 -0.795609 3 0 3 
z
" id="mf4539ecb04" style="stroke:#000080;"/>
                </defs>
                <g clip-path="url(#pa147761343)">
                    <use style="fill:#000080;stroke:#000080;" x="117.886028" xlink:href="#mf4539ecb04" y="90.614385"/>
                </g>
            </g>
            <g id="patch_3">
                <path d="M 42.524778 121.660808
L 42.524778 18.70638 
" style="fill:none;stroke:#000000;stroke-linecap:square;stroke-linejoin:miter;stroke-width:0.8;"/>
            </g>
            <g id="patch_4">
                <path d="M 193.247278 121.660808
L 193.247278 18.70638 
" style="fill:none;stroke:#000000;stroke-linecap:square;stroke-linejoin:miter;stroke-width:0.8;"/>
            </g>
            <g id="patch_5">
                <path d="M 42.524778 121.660808
L 193.247278 121.660808 
" style="fill:none;stroke:#000000;stroke-linecap:square;stroke-linejoin:miter;stroke-width:0.8;"/>
            </g>
            <g id="patch_6">
                <path d="M 42.524778 18.70638
L 193.247278 18.70638 
" style="fill:none;stroke:#000000;stroke-linecap:square;stroke-linejoin:miter;stroke-width:0.8;"/>
            </g>
            <g id="LineCollection_1">
                <path clip-path="url(#pa147761343)" d="M 180.68707 121.446319
L 180.68707 92.275898 
" style="fill:none;stroke:#dc143c;stroke-width:1.5;"/>
            </g>
            <g id="line2d_13">
                <defs>
                    <path d="M 0 3
C 0.795609 3 1.55874 2.683901 2.12132 2.12132 
C 2.683901 1.55874 3 0.795609 3 0 
C 3 -0.795609 2.683901 -1.55874 2.12132 -2.12132 
C 1.55874 -2.683901 0.795609 -3 0 -3 
C -0.795609 -3 -1.55874 -2.683901 -2.12132 -2.12132 
C -2.683901 -1.55874 -3 -0.795609 -3 0 
C -3 0.795609 -2.683901 1.55874 -2.12132 2.12132 
C -1.55874 2.683901 -0.795609 3 0 3 
z
" id="m6e69b806d3" style="stroke:#dc143c;"/>
                </defs>
                <g clip-path="url(#pa147761343)">
                    <use style="fill:#dc143c;stroke:#dc143c;" x="180.68707" xlink:href="#m6e69b806d3" y="106.861109"/>
                </g>
            </g>
        </g>
        <g id="axes_2">
            <g id="patch_7">
                <path d="M 236.208528 121.660808
L 386.931028 121.660808 
L 386.931028 18.70638 
L 236.208528 18.70638 
z
" style="fill:#ffffff;"/>
            </g>
            <g id="PolyCollection_2">
                <defs>
                    <path d="M 236.208528 -47.072306
L 236.208528 -130.267803 
L 386.931028 -130.267803 
L 386.931028 -47.072306 
L 386.931028 -47.072306 
L 236.208528 -47.072306 
z
" id="m2ee4c08c27" style="stroke:#dc143c;stroke-opacity:0.2;"/>
                </defs>
                <g clip-path="url(#p641a1b8473)">
                    <use style="fill:#dc143c;fill-opacity:0.2;stroke:#dc143c;stroke-opacity:0.2;" x="0"
                         xlink:href="#m2ee4c08c27" y="164.053367"/>
                </g>
            </g>
            <g id="line2d_14">
                <path clip-path="url(#p641a1b8473)" d="M 236.208528 33.785564
L 386.931028 33.785564 
" style="fill:none;stroke:#dc143c;stroke-dasharray:1.5,2.475;stroke-dashoffset:0;stroke-width:1.5;"/>
            </g>
            <g id="line2d_15">
                <path clip-path="url(#p641a1b8473)" d="M 236.208528 116.981061
L 386.931028 116.981061 
" style="fill:none;stroke:#dc143c;stroke-dasharray:1.5,2.475;stroke-dashoffset:0;stroke-width:1.5;"/>
            </g>
            <g id="matplotlib.axis_3">
                <g id="xtick_4">
                    <g id="line2d_16">
                        <g>
                            <use style="stroke:#000000;stroke-width:0.8;" x="248.768736" xlink:href="#m1de68d883b"
                                 y="121.660808"/>
                        </g>
                    </g>
                    <g id="text_10">
                        <!-- To21 -->
                        <g transform="translate(240.700444 133.934123)scale(0.0694 -0.0694)">
                            <use xlink:href="#DejaVuSans-84"/>
                            <use x="44.083984" xlink:href="#DejaVuSans-111"/>
                            <use x="105.265625" xlink:href="#DejaVuSans-50"/>
                            <use x="168.888672" xlink:href="#DejaVuSans-49"/>
                        </g>
                    </g>
                </g>
                <g id="xtick_5">
                    <g id="line2d_17">
                        <g>
                            <use style="stroke:#000000;stroke-width:0.8;" x="311.569778" xlink:href="#m1de68d883b"
                                 y="121.660808"/>
                        </g>
                    </g>
                    <g id="text_11">
                        <!-- M18 -->
                        <g transform="translate(304.160244 133.934123)scale(0.0694 -0.0694)">
                            <use xlink:href="#DejaVuSans-77"/>
                            <use x="86.279297" xlink:href="#DejaVuSans-49"/>
                            <use x="149.902344" xlink:href="#DejaVuSans-56"/>
                        </g>
                    </g>
                </g>
                <g id="xtick_6">
                    <g id="line2d_18">
                        <g>
                            <use style="stroke:#000000;stroke-width:0.8;" x="374.37082" xlink:href="#m1de68d883b"
                                 y="121.660808"/>
                        </g>
                    </g>
                    <g id="text_12">
                        <!-- exp -->
                        <g transform="translate(368.039696 133.934123)scale(0.0694 -0.0694)">
                            <use xlink:href="#DejaVuSans-101"/>
                            <use x="59.773438" xlink:href="#DejaVuSans-120"/>
                            <use x="118.953125" xlink:href="#DejaVuSans-112"/>
                        </g>
                    </g>
                </g>
            </g>
            <g id="matplotlib.axis_4">
                <g id="ytick_6">
                    <g id="line2d_19">
                        <g>
                            <use style="stroke:#000000;stroke-width:0.8;" x="236.208528" xlink:href="#mc9e372efeb"
                                 y="116.981061"/>
                        </g>
                    </g>
                    <g id="text_13">
                        <!-- 0.00 -->
                        <g transform="translate(213.756184 119.617719)scale(0.0694 -0.0694)">
                            <defs>
                                <path d="M 10.6875 12.40625
L 21 12.40625 
L 21 0 
L 10.6875 0 
z
" id="DejaVuSans-46"/>
                            </defs>
                            <use xlink:href="#DejaVuSans-48"/>
                            <use x="63.623047" xlink:href="#DejaVuSans-46"/>
                            <use x="95.410156" xlink:href="#DejaVuSans-48"/>
                            <use x="159.033203" xlink:href="#DejaVuSans-48"/>
                        </g>
                    </g>
                </g>
                <g id="ytick_7">
                    <g id="line2d_20">
                        <g>
                            <use style="stroke:#000000;stroke-width:0.8;" x="236.208528" xlink:href="#mc9e372efeb"
                                 y="99.648666"/>
                        </g>
                    </g>
                    <g id="text_14">
                        <!-- 0.25 -->
                        <g transform="translate(213.756184 102.285323)scale(0.0694 -0.0694)">
                            <defs>
                                <path d="M 10.796875 72.90625
L 49.515625 72.90625 
L 49.515625 64.59375 
L 19.828125 64.59375 
L 19.828125 46.734375 
Q 21.96875 47.46875 24.109375 47.828125 
Q 26.265625 48.1875 28.421875 48.1875 
Q 40.625 48.1875 47.75 41.5 
Q 54.890625 34.8125 54.890625 23.390625 
Q 54.890625 11.625 47.5625 5.09375 
Q 40.234375 -1.421875 26.90625 -1.421875 
Q 22.3125 -1.421875 17.546875 -0.640625 
Q 12.796875 0.140625 7.71875 1.703125 
L 7.71875 11.625 
Q 12.109375 9.234375 16.796875 8.0625 
Q 21.484375 6.890625 26.703125 6.890625 
Q 35.15625 6.890625 40.078125 11.328125 
Q 45.015625 15.765625 45.015625 23.390625 
Q 45.015625 31 40.078125 35.4375 
Q 35.15625 39.890625 26.703125 39.890625 
Q 22.75 39.890625 18.8125 39.015625 
Q 14.890625 38.140625 10.796875 36.28125 
z
" id="DejaVuSans-53"/>
                            </defs>
                            <use xlink:href="#DejaVuSans-48"/>
                            <use x="63.623047" xlink:href="#DejaVuSans-46"/>
                            <use x="95.410156" xlink:href="#DejaVuSans-50"/>
                            <use x="159.033203" xlink:href="#DejaVuSans-53"/>
                        </g>
                    </g>
                </g>
                <g id="ytick_8">
                    <g id="line2d_21">
                        <g>
                            <use style="stroke:#000000;stroke-width:0.8;" x="236.208528" xlink:href="#mc9e372efeb"
                                 y="82.31627"/>
                        </g>
                    </g>
                    <g id="text_15">
                        <!-- 0.50 -->
                        <g transform="translate(213.756184 84.952928)scale(0.0694 -0.0694)">
                            <use xlink:href="#DejaVuSans-48"/>
                            <use x="63.623047" xlink:href="#DejaVuSans-46"/>
                            <use x="95.410156" xlink:href="#DejaVuSans-53"/>
                            <use x="159.033203" xlink:href="#DejaVuSans-48"/>
                        </g>
                    </g>
                </g>
                <g id="ytick_9">
                    <g id="line2d_22">
                        <g>
                            <use style="stroke:#000000;stroke-width:0.8;" x="236.208528" xlink:href="#mc9e372efeb"
                                 y="64.983875"/>
                        </g>
                    </g>
                    <g id="text_16">
                        <!-- 0.75 -->
                        <g transform="translate(213.756184 67.620533)scale(0.0694 -0.0694)">
                            <defs>
                                <path d="M 8.203125 72.90625
L 55.078125 72.90625 
L 55.078125 68.703125 
L 28.609375 0 
L 18.3125 0 
L 43.21875 64.59375 
L 8.203125 64.59375 
z
" id="DejaVuSans-55"/>
                            </defs>
                            <use xlink:href="#DejaVuSans-48"/>
                            <use x="63.623047" xlink:href="#DejaVuSans-46"/>
                            <use x="95.410156" xlink:href="#DejaVuSans-55"/>
                            <use x="159.033203" xlink:href="#DejaVuSans-53"/>
                        </g>
                    </g>
                </g>
                <g id="ytick_10">
                    <g id="line2d_23">
                        <g>
                            <use style="stroke:#000000;stroke-width:0.8;" x="236.208528" xlink:href="#mc9e372efeb"
                                 y="47.65148"/>
                        </g>
                    </g>
                    <g id="text_17">
                        <!-- 1.00 -->
                        <g transform="translate(213.756184 50.288138)scale(0.0694 -0.0694)">
                            <use xlink:href="#DejaVuSans-49"/>
                            <use x="63.623047" xlink:href="#DejaVuSans-46"/>
                            <use x="95.410156" xlink:href="#DejaVuSans-48"/>
                            <use x="159.033203" xlink:href="#DejaVuSans-48"/>
                        </g>
                    </g>
                </g>
                <g id="ytick_11">
                    <g id="line2d_24">
                        <g>
                            <use style="stroke:#000000;stroke-width:0.8;" x="236.208528" xlink:href="#mc9e372efeb"
                                 y="30.319085"/>
                        </g>
                    </g>
                    <g id="text_18">
                        <!-- 1.25 -->
                        <g transform="translate(213.756184 32.955742)scale(0.0694 -0.0694)">
                            <use xlink:href="#DejaVuSans-49"/>
                            <use x="63.623047" xlink:href="#DejaVuSans-46"/>
                            <use x="95.410156" xlink:href="#DejaVuSans-50"/>
                            <use x="159.033203" xlink:href="#DejaVuSans-53"/>
                        </g>
                    </g>
                </g>
                <g id="text_19">
                    <!-- I_below_depol_block (nA) -->
                    <g transform="translate(207.398372 133.167188)rotate(-90)scale(0.1 -0.1)">
                        <defs>
                            <path d="M 9.8125 72.90625
L 19.671875 72.90625 
L 19.671875 0 
L 9.8125 0 
z
" id="DejaVuSans-73"/>
                            <path d="M 50.984375 -16.609375
L 50.984375 -23.578125 
L -0.984375 -23.578125 
L -0.984375 -16.609375 
z
" id="DejaVuSans-95"/>
                            <path d="M 48.6875 27.296875
Q 48.6875 37.203125 44.609375 42.84375 
Q 40.53125 48.484375 33.40625 48.484375 
Q 26.265625 48.484375 22.1875 42.84375 
Q 18.109375 37.203125 18.109375 27.296875 
Q 18.109375 17.390625 22.1875 11.75 
Q 26.265625 6.109375 33.40625 6.109375 
Q 40.53125 6.109375 44.609375 11.75 
Q 48.6875 17.390625 48.6875 27.296875 
z
M 18.109375 46.390625 
Q 20.953125 51.265625 25.265625 53.625 
Q 29.59375 56 35.59375 56 
Q 45.5625 56 51.78125 48.09375 
Q 58.015625 40.1875 58.015625 27.296875 
Q 58.015625 14.40625 51.78125 6.484375 
Q 45.5625 -1.421875 35.59375 -1.421875 
Q 29.59375 -1.421875 25.265625 0.953125 
Q 20.953125 3.328125 18.109375 8.203125 
L 18.109375 0 
L 9.078125 0 
L 9.078125 75.984375 
L 18.109375 75.984375 
z
" id="DejaVuSans-98"/>
                            <path d="M 9.421875 75.984375
L 18.40625 75.984375 
L 18.40625 0 
L 9.421875 0 
z
" id="DejaVuSans-108"/>
                            <path d="M 4.203125 54.6875
L 13.1875 54.6875 
L 24.421875 12.015625 
L 35.59375 54.6875 
L 46.1875 54.6875 
L 57.421875 12.015625 
L 68.609375 54.6875 
L 77.59375 54.6875 
L 63.28125 0 
L 52.6875 0 
L 40.921875 44.828125 
L 29.109375 0 
L 18.5 0 
z
" id="DejaVuSans-119"/>
                            <path d="M 45.40625 46.390625
L 45.40625 75.984375 
L 54.390625 75.984375 
L 54.390625 0 
L 45.40625 0 
L 45.40625 8.203125 
Q 42.578125 3.328125 38.25 0.953125 
Q 33.9375 -1.421875 27.875 -1.421875 
Q 17.96875 -1.421875 11.734375 6.484375 
Q 5.515625 14.40625 5.515625 27.296875 
Q 5.515625 40.1875 11.734375 48.09375 
Q 17.96875 56 27.875 56 
Q 33.9375 56 38.25 53.625 
Q 42.578125 51.265625 45.40625 46.390625 
z
M 14.796875 27.296875 
Q 14.796875 17.390625 18.875 11.75 
Q 22.953125 6.109375 30.078125 6.109375 
Q 37.203125 6.109375 41.296875 11.75 
Q 45.40625 17.390625 45.40625 27.296875 
Q 45.40625 37.203125 41.296875 42.84375 
Q 37.203125 48.484375 30.078125 48.484375 
Q 22.953125 48.484375 18.875 42.84375 
Q 14.796875 37.203125 14.796875 27.296875 
z
" id="DejaVuSans-100"/>
                            <path d="M 48.78125 52.59375
L 48.78125 44.1875 
Q 44.96875 46.296875 41.140625 47.34375 
Q 37.3125 48.390625 33.40625 48.390625 
Q 24.65625 48.390625 19.8125 42.84375 
Q 14.984375 37.3125 14.984375 27.296875 
Q 14.984375 17.28125 19.8125 11.734375 
Q 24.65625 6.203125 33.40625 6.203125 
Q 37.3125 6.203125 41.140625 7.25 
Q 44.96875 8.296875 48.78125 10.40625 
L 48.78125 2.09375 
Q 45.015625 0.34375 40.984375 -0.53125 
Q 36.96875 -1.421875 32.421875 -1.421875 
Q 20.0625 -1.421875 12.78125 6.34375 
Q 5.515625 14.109375 5.515625 27.296875 
Q 5.515625 40.671875 12.859375 48.328125 
Q 20.21875 56 33.015625 56 
Q 37.15625 56 41.109375 55.140625 
Q 45.0625 54.296875 48.78125 52.59375 
z
" id="DejaVuSans-99"/>
                            <path d="M 9.078125 75.984375
L 18.109375 75.984375 
L 18.109375 31.109375 
L 44.921875 54.6875 
L 56.390625 54.6875 
L 27.390625 29.109375 
L 57.625 0 
L 45.90625 0 
L 18.109375 26.703125 
L 18.109375 0 
L 9.078125 0 
z
" id="DejaVuSans-107"/>
                            <path d="M 54.890625 33.015625
L 54.890625 0 
L 45.90625 0 
L 45.90625 32.71875 
Q 45.90625 40.484375 42.875 44.328125 
Q 39.84375 48.1875 33.796875 48.1875 
Q 26.515625 48.1875 22.3125 43.546875 
Q 18.109375 38.921875 18.109375 30.90625 
L 18.109375 0 
L 9.078125 0 
L 9.078125 54.6875 
L 18.109375 54.6875 
L 18.109375 46.1875 
Q 21.34375 51.125 25.703125 53.5625 
Q 30.078125 56 35.796875 56 
Q 45.21875 56 50.046875 50.171875 
Q 54.890625 44.34375 54.890625 33.015625 
z
" id="DejaVuSans-110"/>
                            <path d="M 34.1875 63.1875
L 20.796875 26.90625 
L 47.609375 26.90625 
z
M 28.609375 72.90625 
L 39.796875 72.90625 
L 67.578125 0 
L 57.328125 0 
L 50.6875 18.703125 
L 17.828125 18.703125 
L 11.1875 0 
L 0.78125 0 
z
" id="DejaVuSans-65"/>
                        </defs>
                        <use xlink:href="#DejaVuSans-73"/>
                        <use x="29.492188" xlink:href="#DejaVuSans-95"/>
                        <use x="79.492188" xlink:href="#DejaVuSans-98"/>
                        <use x="142.96875" xlink:href="#DejaVuSans-101"/>
                        <use x="204.492188" xlink:href="#DejaVuSans-108"/>
                        <use x="232.275391" xlink:href="#DejaVuSans-111"/>
                        <use x="293.457031" xlink:href="#DejaVuSans-119"/>
                        <use x="375.244141" xlink:href="#DejaVuSans-95"/>
                        <use x="425.244141" xlink:href="#DejaVuSans-100"/>
                        <use x="488.720703" xlink:href="#DejaVuSans-101"/>
                        <use x="550.244141" xlink:href="#DejaVuSans-112"/>
                        <use x="613.720703" xlink:href="#DejaVuSans-111"/>
                        <use x="674.902344" xlink:href="#DejaVuSans-108"/>
                        <use x="702.685547" xlink:href="#DejaVuSans-95"/>
                        <use x="752.685547" xlink:href="#DejaVuSans-98"/>
                        <use x="816.162109" xlink:href="#DejaVuSans-108"/>
                        <use x="843.945312" xlink:href="#DejaVuSans-111"/>
                        <use x="905.126953" xlink:href="#DejaVuSans-99"/>
                        <use x="960.107422" xlink:href="#DejaVuSans-107"/>
                        <use x="1018.017578" xlink:href="#DejaVuSans-32"/>
                        <use x="1049.804688" xlink:href="#DejaVuSans-40"/>
                        <use x="1088.818359" xlink:href="#DejaVuSans-110"/>
                        <use x="1152.197266" xlink:href="#DejaVuSans-65"/>
                        <use x="1220.605469" xlink:href="#DejaVuSans-41"/>
                    </g>
                </g>
            </g>
            <g id="line2d_25">
                <g clip-path="url(#p641a1b8473)">
                    <use style="fill:#9932cc;stroke:#9932cc;" x="248.768736" xlink:href="#m665c081717" y="33.785564"/>
                </g>
            </g>
            <g id="line2d_26">
                <g clip-path="url(#p641a1b8473)">
                    <use style="fill:#000080;stroke:#000080;" x="311.569778" xlink:href="#mf4539ecb04" y="23.386127"/>
                </g>
            </g>
            <g id="patch_8">
                <path d="M 236.208528 121.660808
L 236.208528 18.70638 
" style="fill:none;stroke:#000000;stroke-linecap:square;stroke-linejoin:miter;stroke-width:0.8;"/>
            </g>
            <g id="patch_9">
                <path d="M 386.931028 121.660808
L 386.931028 18.70638 
" style="fill:none;stroke:#000000;stroke-linecap:square;stroke-linejoin:miter;stroke-width:0.8;"/>
            </g>
            <g id="patch_10">
                <path d="M 236.208528 121.660808
L 386.931028 121.660808 
" style="fill:none;stroke:#000000;stroke-linecap:square;stroke-linejoin:miter;stroke-width:0.8;"/>
            </g>
            <g id="patch_11">
                <path d="M 236.208528 18.70638
L 386.931028 18.70638 
" style="fill:none;stroke:#000000;stroke-linecap:square;stroke-linejoin:miter;stroke-width:0.8;"/>
            </g>
            <g id="LineCollection_2">
                <path clip-path="url(#p641a1b8473)" d="M 374.37082 116.981061
L 374.37082 33.785564 
" style="fill:none;stroke:#dc143c;stroke-width:1.5;"/>
            </g>
            <g id="line2d_27">
                <g clip-path="url(#p641a1b8473)">
                    <use style="fill:#dc143c;stroke:#dc143c;" x="374.37082" xlink:href="#m6e69b806d3" y="75.383312"/>
                </g>
            </g>
        </g>
        <g id="axes_3">
            <g id="patch_12">
                <path d="M 429.892278 121.660808
L 580.614778 121.660808 
L 580.614778 18.70638 
L 429.892278 18.70638 
z
" style="fill:#ffffff;"/>
            </g>
            <g id="line2d_28">
                <g clip-path="url(#pc7fcc47083)">
                    <use style="fill:#9932cc;stroke:#9932cc;" x="480.133111" xlink:href="#m665c081717" y="70.465419"/>
                </g>
            </g>
            <g id="line2d_29">
                <g clip-path="url(#pc7fcc47083)">
                    <use style="fill:#9932cc;stroke:#9932cc;" x="530.373945" xlink:href="#m665c081717" y="42.465094"/>
                </g>
            </g>
            <g id="line2d_30">
                <g clip-path="url(#pc7fcc47083)">
                    <use style="fill:#000080;stroke:#000080;" x="480.133111" xlink:href="#mf4539ecb04" y="33.443304"/>
                </g>
            </g>
            <g id="line2d_31">
                <g clip-path="url(#pc7fcc47083)">
                    <use style="fill:#000080;stroke:#000080;" x="530.373945" xlink:href="#mf4539ecb04" y="22.666166"/>
                </g>
            </g>
            <g id="matplotlib.axis_5">
                <g id="xtick_7">
                    <g id="line2d_32">
                        <g>
                            <use style="stroke:#000000;stroke-width:0.8;" x="480.133111" xlink:href="#m1de68d883b"
                                 y="121.660808"/>
                        </g>
                    </g>
                    <g id="text_20">
                        <!-- Veq_error -->
                        <g transform="translate(469.629144 155.696313)rotate(-45)scale(0.0694 -0.0694)">
                            <defs>
                                <path d="M 41.109375 46.296875
Q 39.59375 47.171875 37.8125 47.578125 
Q 36.03125 48 33.890625 48 
Q 26.265625 48 22.1875 43.046875 
Q 18.109375 38.09375 18.109375 28.8125 
L 18.109375 0 
L 9.078125 0 
L 9.078125 54.6875 
L 18.109375 54.6875 
L 18.109375 46.1875 
Q 20.953125 51.171875 25.484375 53.578125 
Q 30.03125 56 36.53125 56 
Q 37.453125 56 38.578125 55.875 
Q 39.703125 55.765625 41.0625 55.515625 
z
" id="DejaVuSans-114"/>
                            </defs>
                            <use xlink:href="#DejaVuSans-86"/>
                            <use x="60.658203" xlink:href="#DejaVuSans-101"/>
                            <use x="122.181641" xlink:href="#DejaVuSans-113"/>
                            <use x="185.658203" xlink:href="#DejaVuSans-95"/>
                            <use x="235.658203" xlink:href="#DejaVuSans-101"/>
                            <use x="297.181641" xlink:href="#DejaVuSans-114"/>
                            <use x="336.544922" xlink:href="#DejaVuSans-114"/>
                            <use x="375.408203" xlink:href="#DejaVuSans-111"/>
                            <use x="436.589844" xlink:href="#DejaVuSans-114"/>
                        </g>
                    </g>
                </g>
                <g id="xtick_8">
                    <g id="line2d_33">
                        <g>
                            <use style="stroke:#000000;stroke-width:0.8;" x="530.373945" xlink:href="#m1de68d883b"
                                 y="121.660808"/>
                        </g>
                    </g>
                    <g id="text_21">
                        <!-- Ith_error -->
                        <g transform="translate(521.253229 153.20278)rotate(-45)scale(0.0694 -0.0694)">
                            <defs>
                                <path d="M 18.3125 70.21875
L 18.3125 54.6875 
L 36.8125 54.6875 
L 36.8125 47.703125 
L 18.3125 47.703125 
L 18.3125 18.015625 
Q 18.3125 11.328125 20.140625 9.421875 
Q 21.96875 7.515625 27.59375 7.515625 
L 36.8125 7.515625 
L 36.8125 0 
L 27.59375 0 
Q 17.1875 0 13.234375 3.875 
Q 9.28125 7.765625 9.28125 18.015625 
L 9.28125 47.703125 
L 2.6875 47.703125 
L 2.6875 54.6875 
L 9.28125 54.6875 
L 9.28125 70.21875 
z
" id="DejaVuSans-116"/>
                                <path d="M 54.890625 33.015625
L 54.890625 0 
L 45.90625 0 
L 45.90625 32.71875 
Q 45.90625 40.484375 42.875 44.328125 
Q 39.84375 48.1875 33.796875 48.1875 
Q 26.515625 48.1875 22.3125 43.546875 
Q 18.109375 38.921875 18.109375 30.90625 
L 18.109375 0 
L 9.078125 0 
L 9.078125 75.984375 
L 18.109375 75.984375 
L 18.109375 46.1875 
Q 21.34375 51.125 25.703125 53.5625 
Q 30.078125 56 35.796875 56 
Q 45.21875 56 50.046875 50.171875 
Q 54.890625 44.34375 54.890625 33.015625 
z
" id="DejaVuSans-104"/>
                            </defs>
                            <use xlink:href="#DejaVuSans-73"/>
                            <use x="29.492188" xlink:href="#DejaVuSans-116"/>
                            <use x="68.701172" xlink:href="#DejaVuSans-104"/>
                            <use x="132.080078" xlink:href="#DejaVuSans-95"/>
                            <use x="182.080078" xlink:href="#DejaVuSans-101"/>
                            <use x="243.603516" xlink:href="#DejaVuSans-114"/>
                            <use x="282.966797" xlink:href="#DejaVuSans-114"/>
                            <use x="321.830078" xlink:href="#DejaVuSans-111"/>
                            <use x="383.011719" xlink:href="#DejaVuSans-114"/>
                        </g>
                    </g>
                </g>
            </g>
            <g id="matplotlib.axis_6">
                <g id="ytick_12">
                    <g id="line2d_34">
                        <g>
                            <use style="stroke:#000000;stroke-width:0.8;" x="429.892278" xlink:href="#mc9e372efeb"
                                 y="121.660808"/>
                        </g>
                    </g>
                    <g id="text_22">
                        <!-- 0.0 -->
                        <g transform="translate(411.855509 124.297465)scale(0.0694 -0.0694)">
                            <use xlink:href="#DejaVuSans-48"/>
                            <use x="63.623047" xlink:href="#DejaVuSans-46"/>
                            <use x="95.410156" xlink:href="#DejaVuSans-48"/>
                        </g>
                    </g>
                </g>
                <g id="ytick_13">
                    <g id="line2d_35">
                        <g>
                            <use style="stroke:#000000;stroke-width:0.8;" x="429.892278" xlink:href="#mc9e372efeb"
                                 y="101.861879"/>
                        </g>
                    </g>
                    <g id="text_23">
                        <!-- 0.5 -->
                        <g transform="translate(411.855509 104.498537)scale(0.0694 -0.0694)">
                            <use xlink:href="#DejaVuSans-48"/>
                            <use x="63.623047" xlink:href="#DejaVuSans-46"/>
                            <use x="95.410156" xlink:href="#DejaVuSans-53"/>
                        </g>
                    </g>
                </g>
                <g id="ytick_14">
                    <g id="line2d_36">
                        <g>
                            <use style="stroke:#000000;stroke-width:0.8;" x="429.892278" xlink:href="#mc9e372efeb"
                                 y="82.062951"/>
                        </g>
                    </g>
                    <g id="text_24">
                        <!-- 1.0 -->
                        <g transform="translate(411.855509 84.699609)scale(0.0694 -0.0694)">
                            <use xlink:href="#DejaVuSans-49"/>
                            <use x="63.623047" xlink:href="#DejaVuSans-46"/>
                            <use x="95.410156" xlink:href="#DejaVuSans-48"/>
                        </g>
                    </g>
                </g>
                <g id="ytick_15">
                    <g id="line2d_37">
                        <g>
                            <use style="stroke:#000000;stroke-width:0.8;" x="429.892278" xlink:href="#mc9e372efeb"
                                 y="62.264022"/>
                        </g>
                    </g>
                    <g id="text_25">
                        <!-- 1.5 -->
                        <g transform="translate(411.855509 64.90068)scale(0.0694 -0.0694)">
                            <use xlink:href="#DejaVuSans-49"/>
                            <use x="63.623047" xlink:href="#DejaVuSans-46"/>
                            <use x="95.410156" xlink:href="#DejaVuSans-53"/>
                        </g>
                    </g>
                </g>
                <g id="ytick_16">
                    <g id="line2d_38">
                        <g>
                            <use style="stroke:#000000;stroke-width:0.8;" x="429.892278" xlink:href="#mc9e372efeb"
                                 y="42.465094"/>
                        </g>
                    </g>
                    <g id="text_26">
                        <!-- 2.0 -->
                        <g transform="translate(411.855509 45.101752)scale(0.0694 -0.0694)">
                            <use xlink:href="#DejaVuSans-50"/>
                            <use x="63.623047" xlink:href="#DejaVuSans-46"/>
                            <use x="95.410156" xlink:href="#DejaVuSans-48"/>
                        </g>
                    </g>
                </g>
                <g id="ytick_17">
                    <g id="line2d_39">
                        <g>
                            <use style="stroke:#000000;stroke-width:0.8;" x="429.892278" xlink:href="#mc9e372efeb"
                                 y="22.666166"/>
                        </g>
                    </g>
                    <g id="text_27">
                        <!-- 2.5 -->
                        <g transform="translate(411.855509 25.302823)scale(0.0694 -0.0694)">
                            <use xlink:href="#DejaVuSans-50"/>
                            <use x="63.623047" xlink:href="#DejaVuSans-46"/>
                            <use x="95.410156" xlink:href="#DejaVuSans-53"/>
                        </g>
                    </g>
                </g>
                <g id="text_28">
                    <!-- Error (# std) -->
                    <g transform="translate(405.775822 101.377344)rotate(-90)scale(0.1 -0.1)">
                        <defs>
                            <path d="M 9.8125 72.90625
L 55.90625 72.90625 
L 55.90625 64.59375 
L 19.671875 64.59375 
L 19.671875 43.015625 
L 54.390625 43.015625 
L 54.390625 34.71875 
L 19.671875 34.71875 
L 19.671875 8.296875 
L 56.78125 8.296875 
L 56.78125 0 
L 9.8125 0 
z
" id="DejaVuSans-69"/>
                            <path d="M 51.125 44
L 36.921875 44 
L 32.8125 27.6875 
L 47.125 27.6875 
z
M 43.796875 71.78125 
L 38.71875 51.515625 
L 52.984375 51.515625 
L 58.109375 71.78125 
L 65.921875 71.78125 
L 60.890625 51.515625 
L 76.125 51.515625 
L 76.125 44 
L 58.984375 44 
L 54.984375 27.6875 
L 70.515625 27.6875 
L 70.515625 20.21875 
L 53.078125 20.21875 
L 48 0 
L 40.1875 0 
L 45.21875 20.21875 
L 30.90625 20.21875 
L 25.875 0 
L 18.015625 0 
L 23.09375 20.21875 
L 7.71875 20.21875 
L 7.71875 27.6875 
L 24.90625 27.6875 
L 29 44 
L 13.28125 44 
L 13.28125 51.515625 
L 30.90625 51.515625 
L 35.890625 71.78125 
z
" id="DejaVuSans-35"/>
                            <path d="M 44.28125 53.078125
L 44.28125 44.578125 
Q 40.484375 46.53125 36.375 47.5 
Q 32.28125 48.484375 27.875 48.484375 
Q 21.1875 48.484375 17.84375 46.4375 
Q 14.5 44.390625 14.5 40.28125 
Q 14.5 37.15625 16.890625 35.375 
Q 19.28125 33.59375 26.515625 31.984375 
L 29.59375 31.296875 
Q 39.15625 29.25 43.1875 25.515625 
Q 47.21875 21.78125 47.21875 15.09375 
Q 47.21875 7.46875 41.1875 3.015625 
Q 35.15625 -1.421875 24.609375 -1.421875 
Q 20.21875 -1.421875 15.453125 -0.5625 
Q 10.6875 0.296875 5.421875 2 
L 5.421875 11.28125 
Q 10.40625 8.6875 15.234375 7.390625 
Q 20.0625 6.109375 24.8125 6.109375 
Q 31.15625 6.109375 34.5625 8.28125 
Q 37.984375 10.453125 37.984375 14.40625 
Q 37.984375 18.0625 35.515625 20.015625 
Q 33.0625 21.96875 24.703125 23.78125 
L 21.578125 24.515625 
Q 13.234375 26.265625 9.515625 29.90625 
Q 5.8125 33.546875 5.8125 39.890625 
Q 5.8125 47.609375 11.28125 51.796875 
Q 16.75 56 26.8125 56 
Q 31.78125 56 36.171875 55.265625 
Q 40.578125 54.546875 44.28125 53.078125 
z
" id="DejaVuSans-115"/>
                        </defs>
                        <use xlink:href="#DejaVuSans-69"/>
                        <use x="63.183594" xlink:href="#DejaVuSans-114"/>
                        <use x="102.546875" xlink:href="#DejaVuSans-114"/>
                        <use x="141.410156" xlink:href="#DejaVuSans-111"/>
                        <use x="202.591797" xlink:href="#DejaVuSans-114"/>
                        <use x="243.705078" xlink:href="#DejaVuSans-32"/>
                        <use x="275.492188" xlink:href="#DejaVuSans-40"/>
                        <use x="314.505859" xlink:href="#DejaVuSans-35"/>
                        <use x="398.294922" xlink:href="#DejaVuSans-32"/>
                        <use x="430.082031" xlink:href="#DejaVuSans-115"/>
                        <use x="482.181641" xlink:href="#DejaVuSans-116"/>
                        <use x="521.390625" xlink:href="#DejaVuSans-100"/>
                        <use x="584.867188" xlink:href="#DejaVuSans-41"/>
                    </g>
                </g>
            </g>
            <g id="LineCollection_3">
                <path clip-path="url(#pc7fcc47083)" d="M 429.892278 42.465094
L 580.614778 42.465094 
" style="fill:none;stroke:#dc143c;stroke-width:1.5;"/>
            </g>
            <g id="patch_13">
                <path d="M 429.892278 121.660808
L 429.892278 18.70638 
" style="fill:none;stroke:#000000;stroke-linecap:square;stroke-linejoin:miter;stroke-width:0.8;"/>
            </g>
            <g id="patch_14">
                <path d="M 580.614778 121.660808
L 580.614778 18.70638 
" style="fill:none;stroke:#000000;stroke-linecap:square;stroke-linejoin:miter;stroke-width:0.8;"/>
            </g>
            <g id="patch_15">
                <path d="M 429.892278 121.660808
L 580.614778 121.660808 
" style="fill:none;stroke:#000000;stroke-linecap:square;stroke-linejoin:miter;stroke-width:0.8;"/>
            </g>
            <g id="patch_16">
                <path d="M 429.892278 18.70638
L 580.614778 18.70638 
" style="fill:none;stroke:#000000;stroke-linecap:square;stroke-linejoin:miter;stroke-width:0.8;"/>
            </g>
        </g>
    </g>
    <defs>
        <clipPath id="pa147761343">
            <rect height="102.954428" width="150.7225" x="42.524778" y="18.70638"/>
        </clipPath>
        <clipPath id="p641a1b8473">
            <rect height="102.954428" width="150.7225" x="236.208528" y="18.70638"/>
        </clipPath>
        <clipPath id="pc7fcc47083">
            <rect height="102.954428" width="150.7225" x="429.892278" y="18.70638"/>
        </clipPath>
    </defs>
</svg>
